<svg width="18" height="22" viewBox="0 0 18 22" fill="none" xmlns="http://www.w3.org/2000/svg">
<path d="M17.0713 1.11999C16.7952 0.974688 16.4845 0.908209 16.1731 0.927847C15.8617 0.947485 15.5618 1.05248 15.3062 1.23133C15.0769 1.41305 14.7899 1.50625 14.4976 1.4939C14.1516 1.49991 13.8166 1.37288 13.5616 1.13904C13.0471 0.725456 12.4067 0.5 11.7466 0.5C11.0865 0.5 10.4462 0.725456 9.93168 1.13904C9.67376 1.3676 9.34108 1.49383 8.99645 1.4939C8.65182 1.49397 8.3191 1.36787 8.06108 1.13941C7.54716 0.725677 6.90724 0.500068 6.24748 0.500001C5.58772 0.499934 4.94776 0.725413 4.43376 1.13904C4.17899 1.37282 3.84418 1.49985 3.49845 1.4939C3.20805 1.50599 2.92295 1.41347 2.69499 1.23316C2.43902 1.05442 2.13884 0.949497 1.82727 0.929862C1.5157 0.910228 1.20472 0.976635 0.928346 1.12182C0.648002 1.26747 0.413115 1.48741 0.249381 1.75759C0.0856477 2.02776 -0.000624343 2.33777 3.40146e-06 2.65369V19.7744C-1.16924e-05 20.2311 0.181123 20.6691 0.503668 20.9924C0.826213 21.3157 1.26383 21.4979 1.7205 21.4989L16.2795 21.5C16.7362 21.4989 17.1738 21.3168 17.4964 20.9935C17.8189 20.6702 18 20.2322 18 19.7755V2.65259C18.0006 2.33653 17.9143 2.0264 17.7505 1.75609C17.5867 1.48579 17.3517 1.26574 17.0713 1.11999ZM4.48975 16.3995C4.31184 16.3995 4.13792 16.3468 3.98999 16.248C3.84205 16.1491 3.72675 16.0086 3.65865 15.8443C3.59056 15.6799 3.57273 15.4991 3.60743 15.3246C3.64213 15.1501 3.72779 14.9898 3.85358 14.864C3.97938 14.7382 4.13965 14.6525 4.31414 14.6178C4.48863 14.5831 4.6695 14.6009 4.83387 14.669C4.99823 14.737 5.13872 14.8523 5.23757 15.0003C5.33641 15.1482 5.38917 15.3221 5.38917 15.5C5.38917 15.6181 5.36591 15.7351 5.32072 15.8442C5.27552 15.9533 5.20927 16.0525 5.12575 16.136C5.04224 16.2196 4.94308 16.2858 4.83396 16.331C4.72483 16.3762 4.60787 16.3995 4.48975 16.3995ZM4.48975 12.6495C4.31184 12.6495 4.13792 12.5968 3.98999 12.498C3.84205 12.3991 3.72675 12.2586 3.65865 12.0943C3.59056 11.9299 3.57273 11.7491 3.60743 11.5746C3.64213 11.4001 3.72779 11.2398 3.85358 11.114C3.97938 10.9882 4.13965 10.9025 4.31414 10.8678C4.48863 10.8331 4.6695 10.8509 4.83387 10.919C4.99823 10.987 5.13872 11.1023 5.23757 11.2503C5.33641 11.3982 5.38917 11.5721 5.38917 11.75C5.38917 11.8681 5.36591 11.9851 5.32072 12.0942C5.27552 12.2033 5.20927 12.3025 5.12575 12.386C5.04224 12.4696 4.94308 12.5358 4.83396 12.581C4.72483 12.6262 4.60787 12.6495 4.48975 12.6495ZM4.48975 8.8995C4.31184 8.89952 4.13792 8.84678 3.98999 8.74796C3.84205 8.64913 3.72675 8.50865 3.65865 8.34429C3.59056 8.17993 3.57273 7.99906 3.60743 7.82457C3.64213 7.65008 3.72779 7.48979 3.85358 7.36399C3.97938 7.23818 4.13965 7.1525 4.31414 7.11778C4.48863 7.08307 4.6695 7.10088 4.83387 7.16896C4.99823 7.23704 5.13872 7.35233 5.23757 7.50025C5.33641 7.64818 5.38917 7.82209 5.38917 8C5.38917 8.11812 5.36591 8.23508 5.32072 8.34421C5.27552 8.45334 5.20927 8.5525 5.12575 8.63603C5.04224 8.71956 4.94308 8.78582 4.83396 8.83102C4.72483 8.87623 4.60787 8.8995 4.48975 8.8995ZM13.125 16.2493H6.90967C6.71076 16.2493 6.51999 16.1702 6.37934 16.0296C6.23869 15.8889 6.15967 15.6982 6.15967 15.4993C6.15967 15.3003 6.23869 15.1096 6.37934 14.9689C6.51999 14.8283 6.71076 14.7493 6.90967 14.7493H13.125C13.3239 14.7493 13.5147 14.8283 13.6553 14.9689C13.796 15.1096 13.875 15.3003 13.875 15.4993C13.875 15.6982 13.796 15.8889 13.6553 16.0296C13.5147 16.1702 13.3239 16.2493 13.125 16.2493ZM13.125 12.4993H6.90967C6.71076 12.4993 6.51999 12.4202 6.37934 12.2796C6.23869 12.1389 6.15967 11.9482 6.15967 11.7493C6.15967 11.5503 6.23869 11.3596 6.37934 11.2189C6.51999 11.0783 6.71076 10.9992 6.90967 10.9992H13.125C13.3239 10.9992 13.5147 11.0783 13.6553 11.2189C13.796 11.3596 13.875 11.5503 13.875 11.7493C13.875 11.9482 13.796 12.1389 13.6553 12.2796C13.5147 12.4202 13.3239 12.4993 13.125 12.4993ZM13.125 8.74925H6.90967C6.71076 8.74925 6.51999 8.67023 6.37934 8.52958C6.23869 8.38893 6.15967 8.19816 6.15967 7.99925C6.15967 7.80034 6.23869 7.60957 6.37934 7.46892C6.51999 7.32827 6.71076 7.24925 6.90967 7.24925H13.125C13.3239 7.24925 13.5147 7.32827 13.6553 7.46892C13.796 7.60957 13.875 7.80034 13.875 7.99925C13.875 8.19816 13.796 8.38893 13.6553 8.52958C13.5147 8.67023 13.3239 8.74925 13.125 8.74925Z" fill="currentColor"/>
</svg>
