<svg width="20" height="23" viewBox="0 0 20 23" fill="none" xmlns="http://www.w3.org/2000/svg">
<path d="M1.96803 22.4195C1.41699 22.4195 0.95122 22.2257 0.570732 21.8381C0.190244 21.4504 0 20.9882 0 20.4515V5.04692C0 4.51016 0.190244 4.04796 0.570732 3.66034C0.95122 3.27271 1.41699 3.07889 1.96803 3.07889H4.64206V0.818917C4.64206 0.585319 4.71958 0.390382 4.87463 0.234106C5.02969 0.0780346 5.22309 0 5.45485 0C5.68682 0 5.88237 0.0780346 6.0415 0.234106C6.20083 0.390382 6.2805 0.585319 6.2805 0.818917V3.07889H13.1073V0.795659C13.1073 0.569814 13.1827 0.380691 13.3337 0.228292C13.4849 0.0760964 13.6725 0 13.8965 0C14.1205 0 14.3101 0.0760964 14.4654 0.228292C14.6208 0.380691 14.6986 0.569814 14.6986 0.795659V3.07889H17.3726C17.9236 3.07889 18.3894 3.27271 18.7699 3.66034C19.1504 4.04796 19.3406 4.51016 19.3406 5.04692V20.4515C19.3406 20.9882 19.1504 21.4504 18.7699 21.8381C18.3894 22.2257 17.9236 22.4195 17.3726 22.4195H1.96803ZM1.96803 20.8282H17.3726C17.4668 20.8282 17.5531 20.7889 17.6315 20.7104C17.71 20.632 17.7493 20.5457 17.7493 20.4515V10.1881H1.59132V20.4515C1.59132 20.5457 1.63059 20.632 1.70914 20.7104C1.78748 20.7889 1.87378 20.8282 1.96803 20.8282ZM9.67674 14.3124C9.41356 14.3124 9.18659 14.2191 8.99584 14.0327C8.80529 13.8464 8.71001 13.6216 8.71001 13.3582C8.71001 13.095 8.80315 12.868 8.98941 12.6773C9.17588 12.4867 9.40071 12.3915 9.66389 12.3915C9.92707 12.3915 10.154 12.4846 10.3448 12.6709C10.5353 12.8573 10.6306 13.0822 10.6306 13.3453C10.6306 13.6087 10.5375 13.8357 10.3512 14.0262C10.1647 14.217 9.93992 14.3124 9.67674 14.3124ZM4.90279 14.3124C4.63961 14.3124 4.41264 14.2191 4.22189 14.0327C4.03134 13.8464 3.93606 13.6216 3.93606 13.3582C3.93606 13.095 4.0292 12.868 4.21546 12.6773C4.40193 12.4867 4.62676 12.3915 4.88993 12.3915C5.15311 12.3915 5.38008 12.4846 5.57083 12.6709C5.76138 12.8573 5.85666 13.0822 5.85666 13.3453C5.85666 13.6087 5.76353 13.8357 5.57726 14.0262C5.39079 14.217 5.16597 14.3124 4.90279 14.3124ZM14.4507 14.3124C14.1875 14.3124 13.9605 14.2191 13.7698 14.0327C13.5792 13.8464 13.484 13.6216 13.484 13.3582C13.484 13.095 13.5771 12.868 13.7634 12.6773C13.9498 12.4867 14.1747 12.3915 14.4378 12.3915C14.701 12.3915 14.928 12.4846 15.1187 12.6709C15.3093 12.8573 15.4046 13.0822 15.4046 13.3453C15.4046 13.6087 15.3114 13.8357 15.1252 14.0262C14.9387 14.217 14.7139 14.3124 14.4507 14.3124ZM9.67674 18.6248C9.41356 18.6248 9.18659 18.5316 8.99584 18.3451C8.80529 18.1589 8.71001 17.9341 8.71001 17.671C8.71001 17.4076 8.80315 17.1806 8.98941 16.9901C9.17588 16.7993 9.40071 16.7039 9.66389 16.7039C9.92707 16.7039 10.154 16.7972 10.3448 16.9836C10.5353 17.1699 10.6306 17.3947 10.6306 17.6581C10.6306 17.9213 10.5375 18.1482 10.3512 18.3387C10.1647 18.5295 9.93992 18.6248 9.67674 18.6248ZM4.90279 18.6248C4.63961 18.6248 4.41264 18.5316 4.22189 18.3451C4.03134 18.1589 3.93606 17.9341 3.93606 17.671C3.93606 17.4076 4.0292 17.1806 4.21546 16.9901C4.40193 16.7993 4.62676 16.7039 4.88993 16.7039C5.15311 16.7039 5.38008 16.7972 5.57083 16.9836C5.76138 17.1699 5.85666 17.3947 5.85666 17.6581C5.85666 17.9213 5.76353 18.1482 5.57726 18.3387C5.39079 18.5295 5.16597 18.6248 4.90279 18.6248ZM14.4507 18.6248C14.1875 18.6248 13.9605 18.5316 13.7698 18.3451C13.5792 18.1589 13.484 17.9341 13.484 17.671C13.484 17.4076 13.5771 17.1806 13.7634 16.9901C13.9498 16.7993 14.1747 16.7039 14.4378 16.7039C14.701 16.7039 14.928 16.7972 15.1187 16.9836C15.3093 17.1699 15.4046 17.3947 15.4046 17.6581C15.4046 17.9213 15.3114 18.1482 15.1252 18.3387C14.9387 18.5295 14.7139 18.6248 14.4507 18.6248Z" fill="#162D3A"/>
</svg>
