<svg width="18" height="19" viewBox="0 0 18 19" fill="none" xmlns="http://www.w3.org/2000/svg">
<path d="M15.3967 9.98648H13.9634C13.8256 9.98648 13.7091 9.94017 13.6139 9.84755C13.5187 9.75505 13.4711 9.64017 13.4711 9.50292C13.4711 9.36567 13.5176 9.24948 13.6106 9.15436C13.7036 9.05911 13.819 9.01148 13.9569 9.01148H15.3901C15.5281 9.01148 15.6447 9.0578 15.7398 9.15042C15.8351 9.24292 15.8827 9.3578 15.8827 9.49505C15.8827 9.6323 15.8362 9.74848 15.7432 9.84361C15.6502 9.93886 15.5347 9.98648 15.3967 9.98648ZM12.5004 13.1841C12.584 13.0774 12.6912 13.0107 12.8221 12.9842C12.9529 12.9579 13.0716 12.9802 13.1784 13.0514L14.3508 13.8623C14.4692 13.939 14.5416 14.049 14.5679 14.1923C14.5944 14.3355 14.5658 14.4605 14.4821 14.5673C14.3984 14.6739 14.2913 14.7405 14.1605 14.767C14.0298 14.7935 13.911 14.7711 13.8043 14.6999L12.6316 13.8891C12.5134 13.8124 12.4411 13.7024 12.4147 13.5591C12.3882 13.4159 12.4168 13.2909 12.5004 13.1841ZM14.3206 5.0798L13.1308 5.91773C13.024 5.98886 12.9021 6.00811 12.7651 5.97548C12.6281 5.94273 12.524 5.87298 12.4528 5.76623C12.3816 5.65961 12.3593 5.53773 12.3858 5.40061C12.4122 5.26361 12.4788 5.15955 12.5855 5.08842L13.7754 4.26923C13.8821 4.19811 14.004 4.17573 14.141 4.20211C14.278 4.22861 14.3821 4.29517 14.4534 4.4018C14.5245 4.50855 14.5468 4.63042 14.5203 4.76742C14.4939 4.90455 14.4274 5.00867 14.3206 5.0798ZM3.78744 10.9817H3.323C2.99025 10.9817 2.70613 10.8639 2.47063 10.6283C2.235 10.3928 2.11719 10.1087 2.11719 9.77592V9.22205C2.11719 8.8893 2.235 8.60517 2.47063 8.36967C2.70613 8.13405 2.99025 8.01623 3.323 8.01623H5.82838L8.6855 6.34036C8.8865 6.21723 9.08625 6.2098 9.28475 6.31805C9.48338 6.42617 9.58269 6.59705 9.58269 6.83067V12.1485C9.58269 12.3822 9.48025 12.553 9.27538 12.6612C9.07063 12.7694 8.86775 12.762 8.66675 12.6389L5.94088 10.9817H5.21244V13.7905C5.21244 13.992 5.14419 14.1622 5.00769 14.301C4.87131 14.44 4.70206 14.5095 4.49994 14.5095C4.29781 14.5095 4.12856 14.4413 3.99219 14.3048C3.85569 14.1684 3.78744 13.9992 3.78744 13.797V10.9817ZM8.60769 11.4563V7.50417L6.10231 8.99123H3.323C3.26538 8.99123 3.2125 9.0153 3.16438 9.06342C3.11625 9.11155 3.09219 9.16442 3.09219 9.22205V9.77592C3.09219 9.83355 3.11625 9.88642 3.16438 9.93455C3.2125 9.98267 3.26538 10.0067 3.323 10.0067H6.23356L8.60769 11.4563ZM10.7711 11.5197V7.4783C11.0153 7.71967 11.2023 8.02086 11.3321 8.38186C11.4619 8.74298 11.5269 9.11536 11.5269 9.49898C11.5269 9.88261 11.4619 10.255 11.3321 10.6161C11.2023 10.9771 11.0153 11.2783 10.7711 11.5197Z" fill="#162D3A" fill-opacity="0.8"/>
</svg>
