<svg width="24" height="24" viewBox="0 0 24 24" fill="currentColor" xmlns="http://www.w3.org/2000/svg">
<path d="M19.5 3.50005V17.5001C19.5004 17.5736 19.4845 17.6462 19.4533 17.7128C19.4222 17.7794 19.3767 17.8382 19.32 17.8851C19.23 17.9596 19.1168 18.0003 19 18.0001C18.9716 18.0009 18.9431 17.9992 18.915 17.9951L18.5 17.9151L14 17.0601L13 16.8651L8.5 16.0101V4.99005L18.5 3.08505L18.915 3.00505C18.9864 2.99488 19.0592 2.99939 19.1288 3.0183C19.1985 3.03722 19.2635 3.07014 19.32 3.11505C19.3767 3.16188 19.4222 3.22071 19.4533 3.2873C19.4845 3.35388 19.5004 3.42655 19.5 3.50005ZM7.5 5.00005V16.0001H3.5C3.10254 15.9989 2.7217 15.8405 2.44065 15.5594C2.1596 15.2784 2.00119 14.8975 2 14.5001V6.50005C2.00119 6.10259 2.1596 5.72175 2.44065 5.44071C2.7217 5.15966 3.10254 5.00124 3.5 5.00005H7.5Z" fill="currentColor"/>
<path d="M20.5 2H19C18.8674 2 18.7402 2.05268 18.6464 2.14645C18.5527 2.24021 18.5 2.36739 18.5 2.5V18.5C18.5 18.6326 18.5527 18.7598 18.6464 18.8536C18.7402 18.9473 18.8674 19 19 19H20.5C20.8978 19 21.2794 18.842 21.5607 18.5607C21.842 18.2794 22 17.8978 22 17.5V3.5C22 3.10218 21.842 2.72064 21.5607 2.43934C21.2794 2.15804 20.8978 2 20.5 2ZM13.5 15H8.5V16H13V19H5.5V16H7.5V15H5C4.86739 15 4.74021 15.0527 4.64645 15.1464C4.55268 15.2402 4.5 15.3674 4.5 15.5V19.5C4.5 19.6326 4.55268 19.7598 4.64645 19.8536C4.74021 19.9473 4.86739 20 5 20H13.5C13.6326 20 13.7598 19.9473 13.8536 19.8536C13.9473 19.7598 14 19.6326 14 19.5V15.5C14 15.3674 13.9473 15.2402 13.8536 15.1464C13.7598 15.0527 13.6326 15 13.5 15Z" fill="currentColor"/>
</svg>
