<svg width="25" height="24" viewBox="0 0 25 24" fill="currentColor" xmlns="http://www.w3.org/2000/svg">
<g clip-path="url(#clip0_1033_11037)">
<path fill-rule="evenodd" clip-rule="evenodd" d="M0.804688 5.25C0.804688 2.76472 2.81941 0.75 5.30469 0.75H18.8047C21.29 0.75 23.3047 2.76472 23.3047 5.25V15.75C23.3047 18.2353 21.29 20.25 18.8047 20.25H15.02L12.6191 22.9939C12.4767 23.1566 12.271 23.25 12.0547 23.25C11.8384 23.25 11.6327 23.1566 11.4902 22.9939L9.08938 20.25H5.30469C2.81941 20.25 0.804688 18.2353 0.804688 15.75V5.25ZM12.0547 5.25C12.4048 5.25 12.7084 5.49229 12.786 5.83369L13.201 7.65859C13.3929 8.50267 14.052 9.16177 14.8961 9.3537L16.721 9.76867C17.0624 9.8463 17.3047 10.1499 17.3047 10.5C17.3047 10.8501 17.0624 11.1537 16.721 11.2313L14.8961 11.6463C14.052 11.8382 13.3929 12.4973 13.201 13.3414L12.786 15.1663C12.7084 15.5077 12.4048 15.75 12.0547 15.75C11.7045 15.75 11.401 15.5077 11.3234 15.1663L10.9084 13.3414C10.7165 12.4973 10.0574 11.8382 9.21327 11.6463L7.38837 11.2313C7.04697 11.1537 6.80469 10.8501 6.80469 10.5C6.80469 10.1499 7.04697 9.8463 7.38837 9.76867L9.21327 9.3537C10.0574 9.16177 10.7165 8.50267 10.9084 7.65859L11.3234 5.83369C11.401 5.49229 11.7045 5.25 12.0547 5.25Z" fill="currentColor"/>
</g>
<defs>
<clipPath id="clip0_1033_11037">
<rect width="24" height="24" fill="white" transform="translate(0.0136719)"/>
</clipPath>
</defs>
</svg>
