<svg width="25" height="24" viewBox="0 0 25 24" fill="currentColor" xmlns="http://www.w3.org/2000/svg">
<g clip-path="url(#clip0_1033_12757)">
<path d="M1.40563 11.5684L3.61363 12.0964C3.66163 12.2404 3.75763 12.4324 3.80563 12.5764L2.60563 14.4964C2.50963 14.6884 2.50963 14.9284 2.65363 15.0724L4.52563 16.9444C4.66963 17.0884 4.90963 17.1364 5.10163 16.9924L7.02163 15.7924C7.16563 15.8884 7.30963 15.9364 7.45363 15.9844L7.98163 18.1924C8.02963 18.4324 8.22163 18.5764 8.46163 18.5764H10.8616L9.37363 17.5684C8.41363 16.8964 8.17363 15.6004 8.84563 14.6404C9.13363 14.2084 9.51763 13.9684 9.99763 13.8244C9.94963 13.8244 9.90163 13.8244 9.85363 13.8244C7.59763 13.8244 5.77363 11.9524 5.77363 9.69641C5.77363 7.44041 7.59763 5.56841 9.85363 5.56841C12.1096 5.56841 13.9336 7.39241 13.9336 9.69641C13.9336 10.2244 13.8376 10.7044 13.6456 11.1844L13.7416 11.3764C13.9816 11.2324 14.2696 11.1844 14.5576 11.1844C14.6056 11.1844 14.7016 11.1844 14.7496 11.1844C15.1336 10.7044 15.6616 10.4644 16.2856 10.4644C16.3336 10.4644 16.4296 10.4644 16.4776 10.4644C16.6216 10.2724 16.8616 10.0804 17.1016 9.93641C17.3896 9.79241 17.6776 9.74441 17.9656 9.74441C18.2056 9.74441 18.4456 9.79241 18.6856 9.88841V8.30441C18.6856 8.06441 18.5416 7.87241 18.3016 7.82441L16.0936 7.29641C16.0456 7.15241 15.9496 6.96041 15.9016 6.81641L17.1016 4.89641C17.2456 4.70441 17.1976 4.46441 17.0536 4.32041L15.1816 2.44841C15.0376 2.30441 14.7496 2.25641 14.6056 2.40041L12.6856 3.60041C12.5416 3.50441 12.3976 3.45641 12.2056 3.40841L11.6776 1.20041C11.6296 1.00841 11.4376 0.816406 11.1976 0.816406H8.55763C8.31763 0.816406 8.12563 0.960406 8.07763 1.20041L7.54963 3.40841C7.40563 3.45641 7.26163 3.55241 7.11763 3.60041L5.19763 2.40041C5.00563 2.30441 4.76563 2.30441 4.62163 2.44841L2.65363 4.41641C2.46163 4.56041 2.46163 4.80041 2.55763 4.99241L3.75763 6.96041C3.70963 7.10441 3.61363 7.24841 3.56563 7.44041L1.35763 7.96841C1.16563 8.01641 0.973633 8.20841 0.973633 8.44841V11.1364C1.02163 11.3284 1.16563 11.5204 1.40563 11.5684ZM15.0856 20.8804L16.0936 22.8484C16.2376 23.0884 16.4776 23.1844 16.6696 23.0884L22.7656 19.9204C22.9576 19.8244 23.0536 19.5364 22.9096 19.2964L21.9016 17.3284C21.7576 17.0884 21.5176 16.9924 21.3256 17.0884L15.2296 20.2564C15.0376 20.3524 14.9896 20.6404 15.0856 20.8804Z" fill="currentColor"/>
<path d="M9.66133 15.2163C9.32533 15.7443 9.42133 16.4163 9.94933 16.8003L13.7893 19.3923C13.7893 19.3923 14.0293 19.5843 14.4133 19.7283C14.5093 19.5843 14.6533 19.4883 14.8453 19.3923L20.9413 16.2243C21.0373 16.1763 21.1333 16.1283 21.2293 16.1283C21.1813 15.9843 21.1333 15.8403 21.0853 15.7443C21.0853 15.6963 18.9253 11.5203 18.7813 11.2803C18.5413 10.8483 18.0133 10.6563 17.5333 10.8963C17.1013 11.1363 16.9093 11.6643 17.1493 12.1443C17.1493 12.0963 17.1013 12.0483 17.1013 12.0003C16.5253 10.9443 14.9413 11.7603 15.4693 12.8163L15.3733 12.6723C15.2293 12.3363 14.8933 12.1923 14.5573 12.1923C14.4133 12.1923 14.2693 12.2403 14.1253 12.2883C13.6933 12.5283 13.5013 13.0563 13.7413 13.5363L11.8213 9.79226C11.5813 9.36026 11.0533 9.16826 10.5733 9.40826C10.1413 9.64826 9.94933 10.1763 10.1893 10.6563L13.0693 16.2723L11.1973 14.9763C10.7173 14.5443 9.99733 14.6883 9.66133 15.2163Z" fill="currentColor"/>
</g>
<defs>
<clipPath id="clip0_1033_12757">
<rect width="24" height="24" fill="white" transform="translate(0.0136719)"/>
</clipPath>
</defs>
</svg>
