<svg width="25" height="24" viewBox="0 0 25 24" fill="currentColor" xmlns="http://www.w3.org/2000/svg">
<g clip-path="url(#clip0_1033_11028)">
<path d="M4.23438 13H10.2344C10.7844 13 11.2344 12.55 11.2344 12V4C11.2344 3.45 10.7844 3 10.2344 3H4.23438C3.68438 3 3.23438 3.45 3.23438 4V12C3.23438 12.55 3.68438 13 4.23438 13ZM4.23438 21H10.2344C10.7844 21 11.2344 20.55 11.2344 20V16C11.2344 15.45 10.7844 15 10.2344 15H4.23438C3.68438 15 3.23438 15.45 3.23438 16V20C3.23438 20.55 3.68438 21 4.23438 21ZM14.2344 21H20.2344C20.7844 21 21.2344 20.55 21.2344 20V12C21.2344 11.45 20.7844 11 20.2344 11H14.2344C13.6844 11 13.2344 11.45 13.2344 12V20C13.2344 20.55 13.6844 21 14.2344 21ZM13.2344 4V8C13.2344 8.55 13.6844 9 14.2344 9H20.2344C20.7844 9 21.2344 8.55 21.2344 8V4C21.2344 3.45 20.7844 3 20.2344 3H14.2344C13.6844 3 13.2344 3.45 13.2344 4Z" fill="currentColor"/>
</g>
<defs>
<clipPath id="clip0_1033_11028">
<rect width="24" height="24" fill="white" transform="translate(0.0136719)"/>
</clipPath>
</defs>
</svg>
