<svg width="24" height="24" viewBox="0 0 24 24" fill="currentColor" xmlns="http://www.w3.org/2000/svg">
<path fill-rule="evenodd" clip-rule="evenodd" d="M18.7502 3.75V20.25C18.7502 21.4928 17.7429 22.5 16.5002 22.5H7.50019C6.25744 22.5 5.25019 21.4928 5.25019 20.25V3.75C5.25019 2.50725 6.25744 1.5 7.50019 1.5H16.5002C17.7429 1.5 18.7502 2.50725 18.7502 3.75ZM10.5002 20.25H13.5002C13.9142 20.25 14.2502 19.914 14.2502 19.5C14.2502 19.086 13.9142 18.75 13.5002 18.75H10.5002C10.0862 18.75 9.75019 19.086 9.75019 19.5C9.75019 19.914 10.0862 20.25 10.5002 20.25ZM10.5002 5.325H13.5002C13.9142 5.325 14.2502 4.989 14.2502 4.575C14.2502 4.161 13.9142 3.825 13.5002 3.825H10.5002C10.0862 3.825 9.75019 4.161 9.75019 4.575C9.75019 4.989 10.0862 5.325 10.5002 5.325ZM21.2199 6.21975C21.5124 5.92725 21.9879 5.92725 22.2804 6.21975C22.5729 6.51225 22.5729 6.98775 22.2804 7.28025L21.3992 8.1615L22.3149 9.0765C22.6074 9.36975 22.6074 9.8445 22.3149 10.1377L21.2882 11.1637L22.2474 12.123C22.5399 12.4163 22.5399 12.891 22.2474 13.1835L21.3107 14.1202L22.2722 15.081C22.5654 15.3743 22.5654 15.849 22.2722 16.1415L20.7684 17.6452C20.4759 17.9385 20.0004 17.9385 19.7079 17.6452C19.4154 17.3527 19.4154 16.878 19.7079 16.5848L20.6814 15.6113L19.7199 14.6505C19.4274 14.3572 19.4274 13.8825 19.7199 13.59L20.6559 12.6533L19.6974 11.6948C19.4042 11.4015 19.4042 10.9267 19.6974 10.6335L20.7234 9.6075L19.8084 8.69175C19.5152 8.39925 19.5152 7.92375 19.8084 7.63125L21.2199 6.21975ZM1.75444 7.28025C1.46119 6.98775 1.46119 6.51225 1.75444 6.21975C2.04694 5.92725 2.52244 5.92725 2.81494 6.21975L4.22644 7.63125C4.51894 7.92375 4.51894 8.39925 4.22644 8.69175L3.31069 9.6075L4.33744 10.6335C4.63069 10.9267 4.63069 11.4015 4.33744 11.6948L3.37819 12.6533L4.31494 13.59C4.60744 13.8825 4.60744 14.3572 4.31494 14.6505L3.35344 15.6113L4.32694 16.5848C4.61944 16.878 4.61944 17.3527 4.32694 17.6452C4.03444 17.9385 3.55894 17.9385 3.26644 17.6452L1.76269 16.1415C1.46944 15.849 1.46944 15.3743 1.76269 15.081L2.72344 14.1202L1.78744 13.1835C1.49419 12.891 1.49419 12.4163 1.78744 12.123L2.74669 11.1645L1.71994 10.1377C1.42669 9.8445 1.42669 9.36975 1.71994 9.0765L2.63494 8.1615L1.75444 7.28025Z" fill="currentColor"/>
</svg>
