<svg width="13" height="13" viewBox="0 0 13 13" fill="none" xmlns="http://www.w3.org/2000/svg">
<path d="M4.45557 8.26671V6.26154L10.2787 0.43854C10.371 0.346206 10.468 0.281873 10.5697 0.245539C10.6714 0.209206 10.778 0.19104 10.8896 0.19104C11.0026 0.19104 11.1112 0.209206 11.2156 0.245539C11.32 0.281873 11.4159 0.342873 11.5032 0.42854L12.2581 1.16671C12.3546 1.25904 12.4232 1.36026 12.4639 1.47037C12.5045 1.58048 12.5247 1.6921 12.5247 1.80521C12.5247 1.91854 12.5054 2.02826 12.4667 2.13437C12.4281 2.24048 12.3628 2.33926 12.2709 2.43071L6.42857 8.26671H4.45557ZM10.8274 2.64871L11.6517 1.81154L10.8979 1.03854L10.0607 1.88204L10.8274 2.64871ZM1.5274 12.2667C1.22729 12.2667 0.973622 12.1631 0.7664 11.9559C0.559177 11.7487 0.455566 11.495 0.455566 11.1949V2.80521C0.455566 2.50054 0.558344 2.24298 0.7639 2.03254C0.969455 1.82198 1.22396 1.72226 1.5274 1.73337H7.11457L3.1274 5.72054V9.59487H6.97607L10.9889 5.58204V11.1949C10.9889 11.495 10.8853 11.7487 10.6781 11.9559C10.4708 12.1631 10.2172 12.2667 9.91707 12.2667H1.5274Z" fill="#162D3A"/>
</svg>
