<svg width="37" height="32" viewBox="0 0 37 32" fill="none" xmlns="http://www.w3.org/2000/svg">
<g clip-path="url(#clip0_1033_14739)">
<mask id="mask0_1033_14739" style="mask-type:luminance" maskUnits="userSpaceOnUse" x="9" y="0" width="28" height="32">
<path d="M35.0896 0H10.8005C9.94875 0 9.2583 0.690452 9.2583 1.54217V30.4578C9.2583 31.3095 9.94875 32 10.8005 32H35.0896C35.9413 32 36.6318 31.3095 36.6318 30.4578V1.54217C36.6318 0.690452 35.9413 0 35.0896 0Z" fill="white"/>
</mask>
<g mask="url(#mask0_1033_14739)">
<path d="M22.946 7.9043H9.25928V16.0007H22.946V7.9043Z" fill="url(#paint0_linear_1033_14739)"/>
</g>
<mask id="mask1_1033_14739" style="mask-type:luminance" maskUnits="userSpaceOnUse" x="9" y="0" width="28" height="32">
<path d="M35.0896 0H10.8005C9.94875 0 9.2583 0.690452 9.2583 1.54217V30.4578C9.2583 31.3095 9.94875 32 10.8005 32H35.0896C35.9413 32 36.6318 31.3095 36.6318 30.4578V1.54217C36.6318 0.690452 35.9413 0 35.0896 0Z" fill="white"/>
</mask>
<g mask="url(#mask1_1033_14739)">
<path d="M36.6306 7.9043H22.9438V16.0007H36.6306V7.9043Z" fill="url(#paint1_linear_1033_14739)"/>
</g>
<mask id="mask2_1033_14739" style="mask-type:luminance" maskUnits="userSpaceOnUse" x="9" y="0" width="28" height="32">
<path d="M35.0896 0H10.8005C9.94875 0 9.2583 0.690452 9.2583 1.54217V30.4578C9.2583 31.3095 9.94875 32 10.8005 32H35.0896C35.9413 32 36.6318 31.3095 36.6318 30.4578V1.54217C36.6318 0.690452 35.9413 0 35.0896 0Z" fill="white"/>
</mask>
<g mask="url(#mask2_1033_14739)">
<path d="M22.946 -0.193359H9.25928V7.90303H22.946V-0.193359Z" fill="url(#paint2_linear_1033_14739)"/>
</g>
<mask id="mask3_1033_14739" style="mask-type:luminance" maskUnits="userSpaceOnUse" x="9" y="0" width="28" height="32">
<path d="M35.0896 0H10.8005C9.94875 0 9.2583 0.690452 9.2583 1.54217V30.4578C9.2583 31.3095 9.94875 32 10.8005 32H35.0896C35.9413 32 36.6318 31.3095 36.6318 30.4578V1.54217C36.6318 0.690452 35.9413 0 35.0896 0Z" fill="white"/>
</mask>
<g mask="url(#mask3_1033_14739)">
<path d="M36.6306 -0.193359H22.9438V7.90303H36.6306V-0.193359Z" fill="url(#paint3_linear_1033_14739)"/>
</g>
<mask id="mask4_1033_14739" style="mask-type:luminance" maskUnits="userSpaceOnUse" x="9" y="0" width="28" height="32">
<path d="M35.0896 0H10.8005C9.94875 0 9.2583 0.690452 9.2583 1.54217V30.4578C9.2583 31.3095 9.94875 32 10.8005 32H35.0896C35.9413 32 36.6318 31.3095 36.6318 30.4578V1.54217C36.6318 0.690452 35.9413 0 35.0896 0Z" fill="white"/>
</mask>
<g mask="url(#mask4_1033_14739)">
<path d="M22.9455 16H9.25879V24.0964H22.9455V16Z" fill="url(#paint4_linear_1033_14739)"/>
</g>
<mask id="mask5_1033_14739" style="mask-type:luminance" maskUnits="userSpaceOnUse" x="9" y="0" width="28" height="32">
<path d="M35.0896 0H10.8005C9.94875 0 9.2583 0.690452 9.2583 1.54217V30.4578C9.2583 31.3095 9.94875 32 10.8005 32H35.0896C35.9413 32 36.6318 31.3095 36.6318 30.4578V1.54217C36.6318 0.690452 35.9413 0 35.0896 0Z" fill="white"/>
</mask>
<g mask="url(#mask5_1033_14739)">
<path d="M36.6306 16H22.9438V24.0964H36.6306V16Z" fill="url(#paint5_linear_1033_14739)"/>
</g>
<mask id="mask6_1033_14739" style="mask-type:luminance" maskUnits="userSpaceOnUse" x="9" y="0" width="28" height="32">
<path d="M35.0896 0H10.8005C9.94875 0 9.2583 0.690452 9.2583 1.54217V30.4578C9.2583 31.3095 9.94875 32 10.8005 32H35.0896C35.9413 32 36.6318 31.3095 36.6318 30.4578V1.54217C36.6318 0.690452 35.9413 0 35.0896 0Z" fill="white"/>
</mask>
<g mask="url(#mask6_1033_14739)">
<path d="M22.946 24.0957H9.25928V32.1921H22.946V24.0957Z" fill="url(#paint6_linear_1033_14739)"/>
</g>
<mask id="mask7_1033_14739" style="mask-type:luminance" maskUnits="userSpaceOnUse" x="9" y="0" width="28" height="32">
<path d="M35.0896 0H10.8005C9.94875 0 9.2583 0.690452 9.2583 1.54217V30.4578C9.2583 31.3095 9.94875 32 10.8005 32H35.0896C35.9413 32 36.6318 31.3095 36.6318 30.4578V1.54217C36.6318 0.690452 35.9413 0 35.0896 0Z" fill="white"/>
</mask>
<g mask="url(#mask7_1033_14739)">
<path d="M36.6306 24.0957H22.9438V32.1921H36.6306V24.0957Z" fill="url(#paint7_linear_1033_14739)"/>
</g>
<path d="M16.9639 6.74756H1.54217C0.690452 6.74756 0 7.43801 0 8.28973V23.7114C0 24.5631 0.690452 25.2536 1.54217 25.2536H16.9639C17.8156 25.2536 18.506 24.5631 18.506 23.7114V8.28973C18.506 7.43801 17.8156 6.74756 16.9639 6.74756Z" fill="url(#paint8_linear_1033_14739)"/>
<path d="M16.9639 6.74756H1.54217C0.690452 6.74756 0 7.43801 0 8.28973V23.7114C0 24.5631 0.690452 25.2536 1.54217 25.2536H16.9639C17.8156 25.2536 18.506 24.5631 18.506 23.7114V8.28973C18.506 7.43801 17.8156 6.74756 16.9639 6.74756Z" fill="url(#paint9_radial_1033_14739)"/>
<mask id="mask8_1033_14739" style="mask-type:luminance" maskUnits="userSpaceOnUse" x="0" y="6" width="19" height="20">
<path d="M16.9639 6.74805H1.54217C0.690452 6.74805 0 7.4385 0 8.29022V23.7119C0 24.5636 0.690452 25.2541 1.54217 25.2541H16.9639C17.8156 25.2541 18.506 24.5636 18.506 23.7119V8.29022C18.506 7.4385 17.8156 6.74805 16.9639 6.74805Z" fill="white"/>
</mask>
<g mask="url(#mask8_1033_14739)">
<path d="M4.82031 20.8406L8.05038 15.8002L5.12335 11.1814H7.3541L9.24961 14.6704L11.1066 11.1814H13.318L10.3779 15.8727L13.6082 20.8406H11.3065L9.21106 17.1145L7.10908 20.8406H4.82031Z" fill="url(#paint10_linear_1033_14739)"/>
</g>
</g>
<defs>
<linearGradient id="paint0_linear_1033_14739" x1="95.4037" y1="7.9043" x2="763.966" y2="1212.49" gradientUnits="userSpaceOnUse">
<stop stop-color="#007438"/>
<stop offset="0.9734" stop-color="#008B44"/>
</linearGradient>
<linearGradient id="paint1_linear_1033_14739" x1="1493.8" y1="880.946" x2="797.261" y2="-374.044" gradientUnits="userSpaceOnUse">
<stop stop-color="#00D576"/>
<stop offset="0.97026" stop-color="#00A054"/>
</linearGradient>
<linearGradient id="paint2_linear_1033_14739" x1="95.4036" y1="-0.193342" x2="791.947" y2="1254.8" gradientUnits="userSpaceOnUse">
<stop stop-color="#007E42"/>
<stop offset="0.95983" stop-color="#009A50"/>
</linearGradient>
<linearGradient id="paint3_linear_1033_14739" x1="109.088" y1="-0.193342" x2="805.631" y2="1254.8" gradientUnits="userSpaceOnUse">
<stop stop-color="#00AD61"/>
<stop offset="1" stop-color="#00E18C"/>
</linearGradient>
<linearGradient id="paint4_linear_1033_14739" x1="1480.12" y1="889.041" x2="804.292" y2="-328.624" gradientUnits="userSpaceOnUse">
<stop stop-color="#003D20"/>
<stop offset="1" stop-color="#004F2A"/>
</linearGradient>
<linearGradient id="paint5_linear_1033_14739" x1="1493.8" y1="889.041" x2="817.977" y2="-328.624" gradientUnits="userSpaceOnUse">
<stop stop-color="#00C165"/>
<stop offset="1" stop-color="#008D46"/>
</linearGradient>
<linearGradient id="paint6_linear_1033_14739" x1="1480.12" y1="897.137" x2="804.293" y2="-320.528" gradientUnits="userSpaceOnUse">
<stop stop-color="#00522E"/>
<stop offset="1" stop-color="#003B20"/>
</linearGradient>
<linearGradient id="paint7_linear_1033_14739" x1="1493.8" y1="897.137" x2="817.977" y2="-320.528" gradientUnits="userSpaceOnUse">
<stop stop-color="#006D3D"/>
<stop offset="1" stop-color="#004C29"/>
</linearGradient>
<linearGradient id="paint8_linear_1033_14739" x1="2094.46" y1="1943.83" x2="39.8064" y2="186.497" gradientUnits="userSpaceOnUse">
<stop stop-color="#008034"/>
<stop offset="1" stop-color="#004F21"/>
</linearGradient>
<radialGradient id="paint9_radial_1033_14739" cx="0" cy="0" r="1" gradientUnits="userSpaceOnUse" gradientTransform="translate(1602.64 1565.14) scale(1154.74)">
<stop stop-color="#018137"/>
<stop offset="1" stop-color="#007E35" stop-opacity="0"/>
</radialGradient>
<linearGradient id="paint10_linear_1033_14739" x1="263.781" y1="494.14" x2="865.705" y2="494.14" gradientUnits="userSpaceOnUse">
<stop stop-color="#F0F0F0"/>
<stop offset="1" stop-color="white"/>
</linearGradient>
<clipPath id="clip0_1033_14739">
<rect width="36.6265" height="32" fill="white"/>
</clipPath>
</defs>
</svg>
