<svg width="12" height="13" viewBox="0 0 12 13" fill="none" xmlns="http://www.w3.org/2000/svg">
<path d="M1.74997 12.0817C1.37456 12.0817 1.05838 11.9522 0.801432 11.6931C0.544488 11.4341 0.416016 11.117 0.416016 10.7419V10.024C0.416016 9.87021 0.467474 9.74153 0.570391 9.63792C0.673168 9.53417 0.800807 9.48229 0.953307 9.48229C1.10581 9.48229 1.2349 9.53417 1.3406 9.63792C1.44643 9.74153 1.49935 9.87021 1.49935 10.024V10.7419C1.49935 10.806 1.52609 10.8648 1.57956 10.9181C1.63289 10.9716 1.69164 10.9983 1.75581 10.9983H10.2429C10.3071 10.9983 10.3658 10.9716 10.4191 10.9181C10.4726 10.8648 10.4993 10.806 10.4993 10.7419V10.024C10.4993 9.87021 10.5507 9.74153 10.6535 9.63792C10.7564 9.53417 10.8841 9.48229 11.0366 9.48229C11.1891 9.48229 11.3182 9.53417 11.4239 9.63792C11.5298 9.74153 11.5827 9.87021 11.5827 10.024V10.7419C11.5827 11.117 11.4531 11.4341 11.1939 11.6931C10.9348 11.9522 10.6175 12.0817 10.2421 12.0817H1.74997ZM5.45768 1.98875L3.75102 3.69542C3.64088 3.80542 3.51456 3.86313 3.37206 3.86854C3.22942 3.87382 3.09706 3.81875 2.97497 3.70333C2.86095 3.58806 2.80525 3.4591 2.80789 3.31646C2.81053 3.17382 2.86956 3.04479 2.98497 2.92937L5.53456 0.379791C5.60428 0.315625 5.67754 0.267569 5.75435 0.235625C5.83115 0.203542 5.91421 0.1875 6.00352 0.1875C6.09282 0.1875 6.17588 0.203542 6.25268 0.235625C6.32949 0.267569 6.39997 0.315625 6.46414 0.379791L9.01372 2.92937C9.12372 3.03937 9.18143 3.16361 9.18685 3.30208C9.19213 3.44042 9.13775 3.56722 9.02372 3.6825C8.90164 3.79792 8.77067 3.85431 8.63081 3.85167C8.49081 3.84903 8.3631 3.79 8.24768 3.67458L6.54102 1.98875V8.78042C6.54102 8.93417 6.48956 9.06285 6.38664 9.16646C6.28386 9.27021 6.15622 9.32208 6.00372 9.32208C5.85122 9.32208 5.72213 9.27021 5.61643 9.16646C5.5106 9.06285 5.45768 8.93417 5.45768 8.78042V1.98875Z" fill="white"/>
</svg>
