<svg width="24" height="24" viewBox="0 0 24 24" fill="none" xmlns="http://www.w3.org/2000/svg">
<path d="M4.875 6C5.39062 6 5.83203 6.18359 6.19922 6.55078C6.56641 6.91797 6.75 7.35938 6.75 7.875V20.625C6.75 21.1406 6.56641 21.582 6.19922 21.9492C5.83203 22.3164 5.39062 22.5 4.875 22.5H3.375C2.85938 22.5 2.41797 22.3164 2.05078 21.9492C1.68359 21.582 1.5 21.1406 1.5 20.625V7.875C1.5 7.35938 1.68359 6.91797 2.05078 6.55078C2.41797 6.18359 2.85938 6 3.375 6H4.875ZM21 7.91016C21.4531 8.17578 21.8164 8.53906 22.0898 9C22.3633 9.46094 22.5 9.96094 22.5 10.5V19.5C22.5 20.3281 22.207 21.0352 21.6211 21.6211C21.0352 22.207 20.3281 22.5 19.5 22.5H9.375C8.85938 22.5 8.41797 22.3164 8.05078 21.9492C7.68359 21.582 7.5 21.1406 7.5 20.625V2.625C7.5 2.3125 7.60938 2.04688 7.82812 1.82812C8.04688 1.60938 8.3125 1.5 8.625 1.5H16.5C16.8125 1.5 17.1562 1.57812 17.5312 1.73438C17.9062 1.89062 18.2031 2.07812 18.4219 2.29688L20.2031 4.07812C20.4219 4.29688 20.6094 4.59375 20.7656 4.96875C20.9219 5.34375 21 5.6875 21 6V7.91016ZM12.375 19.5V18C12.375 17.8906 12.3398 17.8008 12.2695 17.7305C12.1992 17.6602 12.1094 17.625 12 17.625H10.5C10.3906 17.625 10.3008 17.6602 10.2305 17.7305C10.1602 17.8008 10.125 17.8906 10.125 18V19.5C10.125 19.6094 10.1602 19.6992 10.2305 19.7695C10.3008 19.8398 10.3906 19.875 10.5 19.875H12C12.1094 19.875 12.1992 19.8398 12.2695 19.7695C12.3398 19.6992 12.375 19.6094 12.375 19.5ZM12.375 16.5V15C12.375 14.8906 12.3398 14.8008 12.2695 14.7305C12.1992 14.6602 12.1094 14.625 12 14.625H10.5C10.3906 14.625 10.3008 14.6602 10.2305 14.7305C10.1602 14.8008 10.125 14.8906 10.125 15V16.5C10.125 16.6094 10.1602 16.6992 10.2305 16.7695C10.3008 16.8398 10.3906 16.875 10.5 16.875H12C12.1094 16.875 12.1992 16.8398 12.2695 16.7695C12.3398 16.6992 12.375 16.6094 12.375 16.5ZM12.375 13.5V12C12.375 11.8906 12.3398 11.8008 12.2695 11.7305C12.1992 11.6602 12.1094 11.625 12 11.625H10.5C10.3906 11.625 10.3008 11.6602 10.2305 11.7305C10.1602 11.8008 10.125 11.8906 10.125 12V13.5C10.125 13.6094 10.1602 13.6992 10.2305 13.7695C10.3008 13.8398 10.3906 13.875 10.5 13.875H12C12.1094 13.875 12.1992 13.8398 12.2695 13.7695C12.3398 13.6992 12.375 13.6094 12.375 13.5ZM15.375 19.5V18C15.375 17.8906 15.3398 17.8008 15.2695 17.7305C15.1992 17.6602 15.1094 17.625 15 17.625H13.5C13.3906 17.625 13.3008 17.6602 13.2305 17.7305C13.1602 17.8008 13.125 17.8906 13.125 18V19.5C13.125 19.6094 13.1602 19.6992 13.2305 19.7695C13.3008 19.8398 13.3906 19.875 13.5 19.875H15C15.1094 19.875 15.1992 19.8398 15.2695 19.7695C15.3398 19.6992 15.375 19.6094 15.375 19.5ZM15.375 16.5V15C15.375 14.8906 15.3398 14.8008 15.2695 14.7305C15.1992 14.6602 15.1094 14.625 15 14.625H13.5C13.3906 14.625 13.3008 14.6602 13.2305 14.7305C13.1602 14.8008 13.125 14.8906 13.125 15V16.5C13.125 16.6094 13.1602 16.6992 13.2305 16.7695C13.3008 16.8398 13.3906 16.875 13.5 16.875H15C15.1094 16.875 15.1992 16.8398 15.2695 16.7695C15.3398 16.6992 15.375 16.6094 15.375 16.5ZM15.375 13.5V12C15.375 11.8906 15.3398 11.8008 15.2695 11.7305C15.1992 11.6602 15.1094 11.625 15 11.625H13.5C13.3906 11.625 13.3008 11.6602 13.2305 11.7305C13.1602 11.8008 13.125 11.8906 13.125 12V13.5C13.125 13.6094 13.1602 13.6992 13.2305 13.7695C13.3008 13.8398 13.3906 13.875 13.5 13.875H15C15.1094 13.875 15.1992 13.8398 15.2695 13.7695C15.3398 13.6992 15.375 13.6094 15.375 13.5ZM18.375 19.5V18C18.375 17.8906 18.3398 17.8008 18.2695 17.7305C18.1992 17.6602 18.1094 17.625 18 17.625H16.5C16.3906 17.625 16.3008 17.6602 16.2305 17.7305C16.1602 17.8008 16.125 17.8906 16.125 18V19.5C16.125 19.6094 16.1602 19.6992 16.2305 19.7695C16.3008 19.8398 16.3906 19.875 16.5 19.875H18C18.1094 19.875 18.1992 19.8398 18.2695 19.7695C18.3398 19.6992 18.375 19.6094 18.375 19.5ZM18.375 16.5V15C18.375 14.8906 18.3398 14.8008 18.2695 14.7305C18.1992 14.6602 18.1094 14.625 18 14.625H16.5C16.3906 14.625 16.3008 14.6602 16.2305 14.7305C16.1602 14.8008 16.125 14.8906 16.125 15V16.5C16.125 16.6094 16.1602 16.6992 16.2305 16.7695C16.3008 16.8398 16.3906 16.875 16.5 16.875H18C18.1094 16.875 18.1992 16.8398 18.2695 16.7695C18.3398 16.6992 18.375 16.6094 18.375 16.5ZM18.375 13.5V12C18.375 11.8906 18.3398 11.8008 18.2695 11.7305C18.1992 11.6602 18.1094 11.625 18 11.625H16.5C16.3906 11.625 16.3008 11.6602 16.2305 11.7305C16.1602 11.8008 16.125 11.8906 16.125 12V13.5C16.125 13.6094 16.1602 13.6992 16.2305 13.7695C16.3008 13.8398 16.3906 13.875 16.5 13.875H18C18.1094 13.875 18.1992 13.8398 18.2695 13.7695C18.3398 13.6992 18.375 13.6094 18.375 13.5ZM19.5 9V6H17.625C17.3125 6 17.0469 5.89062 16.8281 5.67188C16.6094 5.45312 16.5 5.1875 16.5 4.875V3H9V9H19.5Z" fill="currentColor"/>
</svg>
