<svg width="25" height="24" viewBox="0 0 25 24" fill="currentColor" xmlns="http://www.w3.org/2000/svg">
<g clip-path="url(#clip0_1033_12753)">
<path d="M4.15367 16.6013C4.17992 16.6013 4.20992 16.6013 4.23617 16.5975C5.68742 16.5563 6.85367 15.3675 6.85367 13.9013C6.85367 12.4125 5.64242 11.2013 4.15367 11.2013C2.66492 11.2013 1.45367 12.4125 1.45367 13.9013C1.45367 15.3488 2.58992 16.5263 4.01867 16.5938C4.06367 16.6013 4.10867 16.6013 4.15367 16.6013ZM7.72367 23.1113V20.625C7.72367 18.6788 6.18992 17.0813 4.26992 16.9763H4.25867C4.19492 16.9725 4.13492 16.9725 4.07117 16.9725H3.94367H3.82367C1.80992 16.9725 0.167422 18.6113 0.167422 20.625V23.1113H1.54367V21.99C1.54367 21.885 1.62992 21.8025 1.73117 21.8025C1.83617 21.8025 1.91867 21.885 1.91867 21.99V23.1113H5.97617V21.99C5.97617 21.885 6.05867 21.8025 6.16367 21.8025C6.26867 21.8025 6.35117 21.885 6.35117 21.99V23.1113H7.72367ZM12.4149 16.9763H12.4037C12.3399 16.9725 12.2799 16.9725 12.2162 16.9725H12.0887H11.9687C9.95492 16.9725 8.31242 18.6113 8.31242 20.625V23.1113H9.68867V21.99C9.68867 21.885 9.77492 21.8025 9.87617 21.8025C9.98117 21.8025 10.0637 21.885 10.0637 21.99V23.1113H14.1212V21.99C14.1212 21.885 14.2037 21.8025 14.3087 21.8025C14.4137 21.8025 14.4962 21.885 14.4962 21.99V23.1113H15.8724V20.625C15.8687 18.6788 14.3349 17.0813 12.4149 16.9763ZM20.5599 16.9763H20.5487C20.4849 16.9725 20.4249 16.9725 20.3612 16.9725H20.2337H20.1137C18.0999 16.9725 16.4574 18.6113 16.4574 20.625V23.1113H17.8337V21.99C17.8337 21.885 17.9199 21.8025 18.0212 21.8025C18.1262 21.8025 18.2087 21.885 18.2087 21.99V23.1113H22.2662V21.99C22.2662 21.885 22.3487 21.8025 22.4537 21.8025C22.5587 21.8025 22.6412 21.885 22.6412 21.99V23.1113H24.0137V20.625C24.0137 18.6788 22.4799 17.0813 20.5599 16.9763ZM12.0887 16.6013C12.1149 16.6013 12.1449 16.6013 12.1712 16.5975C13.6224 16.5563 14.7887 15.3675 14.7887 13.9013C14.7887 12.4125 13.5774 11.2013 12.0887 11.2013C10.5999 11.2013 9.38867 12.4125 9.38867 13.9013C9.38867 15.3488 10.5249 16.5263 11.9537 16.5938C11.9987 16.6013 12.0437 16.6013 12.0887 16.6013ZM17.3237 13.9013C17.3237 15.3488 18.4599 16.5263 19.8849 16.5938C19.9299 16.6013 19.9749 16.6013 20.0199 16.6013C20.0462 16.6013 20.0762 16.6013 20.1024 16.5975C21.5574 16.5563 22.7199 15.3675 22.7199 13.9013C22.7199 12.4125 21.5124 11.2013 20.0199 11.2013C18.5349 11.2013 17.3237 12.4125 17.3237 13.9013ZM23.9762 3.48379C23.9762 2.05129 22.8137 0.888794 21.3812 0.888794H2.60867C1.91492 0.888794 1.26242 1.15879 0.774922 1.65004C0.283672 2.14504 0.0136719 2.79004 0.0136719 3.48379C0.0136719 4.82254 1.00742 5.92879 2.33492 6.06379C2.34242 6.06379 2.34992 6.06379 2.35742 6.06754C2.38367 6.06754 2.40617 6.07129 2.42492 6.08629C2.43242 6.09004 2.44367 6.09754 2.45117 6.10504C2.46242 6.10879 2.46992 6.12004 2.47742 6.12754C2.49242 6.14254 2.50742 6.16129 2.51492 6.18379L3.96242 9.86629L5.72117 6.19504L5.72492 6.18754C5.73992 6.15379 5.76617 6.12754 5.79617 6.10879C5.81117 6.09754 5.82617 6.09004 5.84492 6.08629C5.85992 6.08254 5.87492 6.07879 5.89367 6.07879H9.86117C9.87992 6.07879 9.89492 6.08254 9.90992 6.08629C9.92867 6.09004 9.94367 6.09754 9.95867 6.10879C9.97367 6.11629 9.98867 6.12754 10.0037 6.14254C10.0112 6.15379 10.0187 6.16504 10.0262 6.18004C10.0299 6.18004 10.0299 6.18379 10.0299 6.18379L10.0337 6.19504L11.9912 10.2113L13.8287 6.19504V6.19129C13.8324 6.18754 13.8324 6.18379 13.8362 6.18004C13.8399 6.16879 13.8474 6.15754 13.8549 6.14629C13.8924 6.10129 13.9449 6.07879 14.0012 6.07879H17.7587C17.8074 6.07879 17.8562 6.09754 17.8937 6.13504C17.9049 6.14629 17.9124 6.15754 17.9199 6.17254C17.9237 6.17254 17.9237 6.17629 17.9237 6.17629L17.9312 6.19504L19.9974 9.91504L21.6549 6.17254L21.6624 6.15004C21.6699 6.13504 21.6812 6.11629 21.6924 6.10504C21.7149 6.07504 21.7487 6.05629 21.7862 6.04879C21.7899 6.04504 21.7974 6.04129 21.8049 6.04129C22.3374 5.95879 22.8212 5.70754 23.2112 5.31754C23.7099 4.83004 23.9762 4.17754 23.9762 3.48379Z" fill="currentColor"/>
</g>
<defs>
<clipPath id="clip0_1033_12753">
<rect width="24" height="24" fill="white" transform="translate(0.0136719)"/>
</clipPath>
</defs>
</svg>
