<svg width="24" height="24" viewBox="0 0 24 24" fill="currentColor" xmlns="http://www.w3.org/2000/svg">
<path d="M7.91987 5.3625C8.41524 6.87638 7.67237 8.87063 5.87987 8.8275C5.38873 8.82772 4.91266 8.65788 4.53257 8.34683C4.15248 8.03578 3.89181 7.60273 3.79487 7.12125C3.53087 5.99137 3.82749 4.33162 5.26487 4.23375H6.47987C6.80707 4.25016 7.12117 4.36747 7.37901 4.56958C7.63685 4.7717 7.82579 5.04868 7.91987 5.3625ZM14.2949 2.76375C14.8172 4.36875 14.1362 6.71625 11.9924 6.6975C11.4367 6.69723 10.8983 6.50477 10.4684 6.15277C10.0385 5.80078 9.74353 5.31091 9.63362 4.76625C9.34749 3.49462 9.65687 1.61212 11.2836 1.5H12.6861C13.0517 1.51961 13.4023 1.65148 13.6902 1.87763C13.9781 2.10379 14.1893 2.41322 14.2949 2.76375ZM20.2086 7.15125C20.1087 7.63307 19.8459 8.06577 19.4644 8.37656C19.0829 8.68735 18.606 8.85726 18.1139 8.8577C17.6218 8.85814 17.1446 8.68909 16.7626 8.37898C16.3805 8.06887 16.1169 7.63664 16.0161 7.155C15.76 6.02475 16.0487 4.365 17.4899 4.2675H18.7049C20.1827 4.36125 20.4569 6.00225 20.2086 7.15125ZM21.3224 11.49V16.3762C21.3193 16.5174 21.2884 16.6565 21.2314 16.7856C21.1745 16.9148 21.0927 17.0315 20.9906 17.129C20.8886 17.2265 20.7683 17.303 20.6367 17.354C20.5051 17.405 20.3647 17.4295 20.2236 17.4263C20.1376 17.4208 20.0529 17.4497 19.9882 17.5067C19.9235 17.5637 19.8841 17.644 19.8786 17.73V22.125C19.8783 22.2244 19.8387 22.3196 19.7685 22.3898C19.6982 22.4601 19.603 22.4997 19.5036 22.5H16.7211C16.6218 22.4997 16.5265 22.4601 16.4563 22.3898C16.386 22.3196 16.3464 22.2244 16.3461 22.125V17.73C16.3406 17.644 16.3012 17.5637 16.2365 17.5067C16.1718 17.4497 16.0871 17.4208 16.0011 17.4263C15.7381 17.4279 15.483 17.3362 15.2811 17.1675C15.6137 17.0177 15.8961 16.7754 16.0949 16.4696C16.2937 16.1638 16.4004 15.8072 16.4024 15.4425V9.74625H19.4849C19.9594 9.73515 20.419 9.91233 20.7633 10.2391C21.1076 10.5658 21.3086 11.0155 21.3224 11.49ZM8.69237 17.1562C8.49376 17.3098 8.24968 17.393 7.99862 17.3925C7.91276 17.3878 7.82848 17.4169 7.76394 17.4738C7.69941 17.5306 7.65978 17.6105 7.65362 17.6962V22.0912C7.65332 22.1906 7.61372 22.2858 7.54346 22.3561C7.47319 22.4263 7.37798 22.466 7.27862 22.4662H4.49612C4.39675 22.466 4.30154 22.4263 4.23128 22.3561C4.16102 22.2858 4.12141 22.1906 4.12112 22.0912V17.6962C4.11495 17.6105 4.07533 17.5306 4.01079 17.4738C3.94626 17.4169 3.86197 17.3878 3.77612 17.3925C3.63501 17.3958 3.49463 17.3712 3.36302 17.3202C3.23141 17.2692 3.11114 17.1928 3.00909 17.0953C2.90705 16.9977 2.82523 16.8811 2.76831 16.7519C2.71139 16.6227 2.68048 16.4836 2.67737 16.3425V11.4562C2.69111 10.9818 2.89209 10.5321 3.2364 10.2053C3.5807 9.87858 4.04034 9.7014 4.51487 9.7125H7.60112C7.598 9.73988 7.59675 9.76745 7.59737 9.795V15.4425C7.59926 15.8024 7.70313 16.1545 7.89693 16.4578C8.09074 16.7611 8.36654 17.0033 8.69237 17.1562Z" fill="currentColor"/>
<path d="M15.6526 9.79502V15.4425C15.6494 15.6739 15.5775 15.899 15.4459 16.0894C15.3144 16.2797 15.1291 16.4266 14.9138 16.5113C14.5868 16.6568 14.0082 16.5034 13.9838 17.0063V22.0913C13.9835 22.1906 13.9439 22.2858 13.8737 22.3561C13.8034 22.4264 13.7082 22.466 13.6088 22.4663H10.3913C10.292 22.466 10.1967 22.4264 10.1265 22.3561C10.0562 22.2858 10.0166 22.1906 10.0163 22.0913V17.0063C9.99194 16.4996 9.40882 16.6609 9.08257 16.5075C8.8679 16.4234 8.68326 16.2771 8.5523 16.0873C8.42135 15.8976 8.35006 15.6731 8.34757 15.4425V9.79502C8.34694 9.76746 8.3482 9.7399 8.35132 9.71252C8.38798 9.19438 8.62264 8.71023 9.00664 8.36045C9.39064 8.01066 9.89452 7.82207 10.4138 7.83377H13.5863C14.1198 7.82215 14.6362 8.02172 15.0232 8.38905C15.4102 8.75637 15.6364 9.2617 15.6526 9.79502Z" fill="currentColor"/>
</svg>
