<svg width="25" height="24" viewBox="0 0 25 24" fill="currentColor" xmlns="http://www.w3.org/2000/svg">
<path d="M5.05469 22H19.0547C19.8501 21.9991 20.6126 21.6828 21.175 21.1204C21.7375 20.5579 22.0538 19.7954 22.0547 19V5C22.0538 4.20462 21.7375 3.44206 21.175 2.87964C20.6126 2.31722 19.8501 2.00087 19.0547 2H5.05469C4.25931 2.00087 3.49675 2.31722 2.93433 2.87964C2.37191 3.44206 2.05556 4.20462 2.05469 5V19C2.05556 19.7954 2.37191 20.5579 2.93433 21.1204C3.49675 21.6828 4.25931 21.9991 5.05469 22ZM4.05469 5C4.05503 4.73489 4.1605 4.48073 4.34796 4.29327C4.53542 4.10581 4.78958 4.00034 5.05469 4H19.0547C19.3198 4.00034 19.574 4.10581 19.7614 4.29327C19.9489 4.48073 20.0543 4.73489 20.0547 5V13H16.7755C16.5656 13 16.3611 13.066 16.1908 13.1887C16.0205 13.3114 15.8932 13.4846 15.8268 13.6837L15.5106 14.6324C15.3779 15.0306 15.1232 15.377 14.7826 15.6225C14.4421 15.8679 14.033 16 13.6132 16H10.4962C10.0764 16 9.66727 15.8679 9.32673 15.6225C8.9862 15.377 8.73152 15.0306 8.59879 14.6324L8.28259 13.6838C8.21622 13.4847 8.08888 13.3115 7.91861 13.1888C7.74834 13.066 7.54378 13 7.33389 13H4.05469V5Z" fill="currentColor"/>
</svg>
