<svg width="36" height="36" viewBox="0 0 36 36" fill="none" xmlns="http://www.w3.org/2000/svg">
<path d="M6.57227 4.28943C6.57227 3.44787 7.25451 2.76562 8.09608 2.76562H23.7151L29.4294 8.47991V31.718C29.4294 32.5596 28.7472 33.2418 27.9056 33.2418H8.09608C7.25451 33.2418 6.57227 32.5596 6.57227 31.718V4.28943Z" fill="#2563EB"/>
<path d="M23.7148 2.76562L29.4291 8.47991H25.2387C24.3971 8.47991 23.7148 7.79767 23.7148 6.9561V2.76562Z" fill="#93C5FD"/>
<path fill-rule="evenodd" clip-rule="evenodd" d="M10.3801 6.39389C10.3801 6.19829 10.5282 6.03448 10.7228 6.01486L14.7228 5.61134C14.9472 5.58869 15.142 5.76485 15.142 5.99036V7.00133V7.49061V9.41169V10.3725V10.5713C15.142 10.9921 14.8009 11.3332 14.3801 11.3332H13.9992C13.5784 11.3332 13.2373 10.9921 13.2373 10.5713V10.4857C13.2373 10.1367 13.4744 9.83226 13.8128 9.74691L14.1896 9.65189V7.58668L11.3325 7.87491V9.41169V10.3725V10.5713C11.3325 10.9921 10.9914 11.3332 10.5706 11.3332H10.1896C9.76885 11.3332 9.42773 10.9921 9.42773 10.5713V10.4857C9.42773 10.1367 9.66488 9.83226 10.0033 9.74691L10.3801 9.65189V7.12835V6.81085V6.39389Z" fill="white"/>
<path d="M11.0206 25.3634L11.9274 28.1897L12.8315 25.3634H14.1205V29.4258H13.1384V28.4771L13.2333 26.5352L12.2511 29.4258H11.6038L10.6189 26.5324L10.7137 28.4771V29.4258H9.73438V25.3634H11.0206ZM15.7249 28.0475V29.4258H14.7455V25.3634H16.3666C16.6773 25.3634 16.9516 25.421 17.1897 25.5363C17.4297 25.6498 17.6147 25.8126 17.745 26.0245C17.877 26.2348 17.9431 26.4738 17.9431 26.7416C17.9431 27.1378 17.8008 27.4551 17.5161 27.6931C17.2335 27.9293 16.8447 28.0475 16.3498 28.0475H15.7249ZM15.7249 27.2913H16.3666C16.5563 27.2913 16.7004 27.2439 16.799 27.1491C16.8996 27.0542 16.9497 26.9202 16.9497 26.7473C16.9497 26.5576 16.8987 26.4059 16.7963 26.2924C16.694 26.1791 16.5545 26.1213 16.3778 26.1195H15.7249V27.2913ZM19.2684 27.0011H19.7121C20.0636 27.0011 20.2393 26.8291 20.2393 26.485C20.2393 26.3511 20.1976 26.2423 20.1138 26.1585C20.0301 26.073 19.912 26.0302 19.7595 26.0302C19.6348 26.0302 19.526 26.0664 19.4331 26.139C19.3418 26.2115 19.2962 26.3017 19.2962 26.4096H18.3561C18.3561 26.1957 18.4155 26.005 18.5346 25.8377C18.6537 25.6702 18.8182 25.5401 19.0285 25.447C19.2405 25.3522 19.473 25.3047 19.726 25.3047C20.1781 25.3047 20.5333 25.408 20.7919 25.6145C21.0505 25.821 21.1797 26.1045 21.1797 26.4655C21.1797 26.6403 21.1257 26.8058 21.0178 26.9621C20.9118 27.1165 20.7565 27.2421 20.5519 27.3388C20.7676 27.4168 20.9369 27.536 21.0598 27.6959C21.1824 27.854 21.2438 28.0503 21.2438 28.2847C21.2438 28.6473 21.1044 28.9376 20.8254 29.1552C20.5464 29.3728 20.1799 29.4816 19.726 29.4816C19.4601 29.4816 19.2126 29.4315 18.9839 29.3309C18.7568 29.2287 18.5848 29.0882 18.4676 28.9097C18.3504 28.7291 18.2919 28.5246 18.2919 28.2958H19.2377C19.2377 28.4204 19.2879 28.5283 19.3884 28.6194C19.4889 28.7106 19.6126 28.7561 19.7595 28.7561C19.925 28.7561 20.0571 28.7106 20.1557 28.6194C20.2543 28.5265 20.3036 28.4084 20.3036 28.2651C20.3036 28.0605 20.2524 27.9154 20.15 27.8298C20.0478 27.7443 19.9064 27.7015 19.726 27.7015H19.2684V27.0011Z" fill="white"/>
</svg>
