<svg width="32" height="32" viewBox="0 0 32 32" fill="none" xmlns="http://www.w3.org/2000/svg">
<path d="M18.0013 11.3359H26.0013L18.0013 3.33594V11.3359ZM7.58464 1.33594H19.2513L28.0013 10.1359V27.7359C28.0013 29.356 26.6955 30.6693 25.0846 30.6693H7.58464C5.96589 30.6693 4.66797 29.3493 4.66797 27.7359V4.26927C4.66797 2.64924 5.9738 1.33594 7.58464 1.33594ZM15.0023 16.6693C15.6361 18.0646 16.4399 19.2119 17.3675 20.0026L18.0013 20.4987C16.6564 20.7468 14.8013 21.1809 12.838 21.9406L12.668 22.0026L13.4409 20.3902C14.1366 19.0414 14.6467 17.8166 15.0023 16.6693ZM24.2489 22.3279C24.5102 22.0666 24.6409 21.7327 24.6554 21.3698C24.699 21.0795 24.6264 20.8037 24.4812 20.5714C24.0602 19.8892 22.9714 19.5698 21.1713 19.5698L19.2985 19.6714L18.0355 18.8295C17.121 18.0746 16.2935 16.7537 15.7128 15.1134L15.7709 14.9101C16.2499 12.9795 16.7 10.6424 15.7418 9.68432C15.5095 9.45207 15.1902 9.33594 14.8563 9.33594H14.5079C13.9707 9.33594 13.4916 9.90207 13.361 10.4537C12.8238 12.3843 13.1432 13.444 13.6804 15.2005V15.215C13.3174 16.4924 12.8529 17.973 12.1125 19.4682L10.7188 22.0811L9.42681 22.7924C7.68474 23.8811 6.85725 25.1005 6.69756 25.8698C6.6395 26.1456 6.66853 26.3924 6.77015 26.6537L6.8137 26.7263L7.51053 27.1763L8.14929 27.3359C9.32519 27.3359 10.6608 25.9569 12.4609 22.8795L12.7222 22.7779C14.2175 22.2988 16.0757 21.965 18.5727 21.6892C20.068 22.4295 21.8246 22.7634 22.9279 22.7634C23.5666 22.7634 24.0021 22.6037 24.2489 22.3279ZM23.8662 21.1359L24.0013 21.2826C23.9863 21.4159 23.9412 21.4293 23.8662 21.4559H23.8061L23.5208 21.4826C22.8301 21.4826 21.7641 21.2293 20.668 20.8026C20.8031 20.6693 20.8632 20.6693 21.0133 20.6693C23.1154 20.6693 23.716 21.0026 23.8662 21.1359ZM10.668 23.3359C9.64233 24.9226 8.71136 25.8026 8.0013 26.0026C8.0802 25.4959 8.79026 24.6159 9.91057 23.7493L10.668 23.3359ZM14.9166 13.3359C14.61 11.9534 14.5966 10.8321 14.8233 10.1869L14.9166 10.0026L15.1166 10.0794C15.3433 10.4481 15.37 10.9396 15.2366 11.7691L15.1966 12.0149L14.9833 13.2745L14.9166 13.3359Z" fill="#F44336"/>
</svg>
