<svg width="27" height="26" viewBox="0 0 27 26" xmlns="http://www.w3.org/2000/svg">
  <defs>
    <mask id="cutout-mask">
      <rect width="100%" height="100%" fill="white"/>
      <path d="M17.3581 10.1738C16.6449 10.1738 15.961 10.4571 15.4567 10.9614C14.9524 11.4657 14.6691 12.1496 14.6691 12.8628C14.6659 13.4451 14.855 14.0122 15.2069 14.4762H10.9046C11.2565 14.0122 11.4455 13.4451 11.4424 12.8628C11.4424 12.331 11.2847 11.8111 10.9892 11.3689C10.6937 10.9267 10.2738 10.582 9.78243 10.3785C9.29108 10.175 8.75043 10.1217 8.22882 10.2255C7.70721 10.3293 7.22809 10.5853 6.85203 10.9614C6.47597 11.3375 6.21988 11.8166 6.11612 12.3382C6.01237 12.8598 6.06562 13.4005 6.26914 13.8918C6.47266 14.3831 6.81731 14.8031 7.25951 15.0986C7.7017 15.394 8.22158 15.5517 8.75341 15.5517H17.3581C18.0712 15.5517 18.7552 15.2684 19.2594 14.7642C19.7637 14.2599 20.047 13.5759 20.047 12.8628C20.047 12.1496 19.7637 11.4657 19.2594 10.9614C18.7552 10.4571 18.0712 10.1738 17.3581 10.1738ZM7.14004 12.8628C7.14004 12.5437 7.23466 12.2318 7.41194 11.9664C7.58922 11.7011 7.84119 11.4943 8.136 11.3722C8.4308 11.2501 8.7552 11.2182 9.06816 11.2804C9.38113 11.3427 9.6686 11.4963 9.89424 11.722C10.1199 11.9476 10.2735 12.2351 10.3358 12.548C10.398 12.861 10.3661 13.1854 10.244 13.4802C10.1219 13.775 9.91507 14.027 9.64975 14.2043C9.38443 14.3815 9.0725 14.4762 8.75341 14.4762C8.32552 14.4762 7.91515 14.3062 7.61258 14.0036C7.31002 13.701 7.14004 13.2907 7.14004 12.8628ZM17.3581 14.4762C17.039 14.4762 16.727 14.3815 16.4617 14.2043C16.1964 14.027 15.9896 13.775 15.8675 13.4802C15.7454 13.1854 15.7134 12.861 15.7757 12.548C15.8379 12.2351 15.9916 11.9476 16.2172 11.722C16.4429 11.4963 16.7303 11.3427 17.0433 11.2804C17.3563 11.2182 17.6807 11.2501 17.9755 11.3722C18.2703 11.4943 18.5223 11.7011 18.6995 11.9664C18.8768 12.2318 18.9714 12.5437 18.9714 12.8628C18.9714 13.2907 18.8015 13.701 18.4989 14.0036C18.1963 14.3062 17.786 14.4762 17.3581 14.4762Z" fill="black"/>
    </mask>
  </defs>

  <g mask="url(#cutout-mask)" fill="currentColor">
    <path d="M21.722 4.33301H4.38867C2.54701 4.33301 1.13867 5.74134 1.13867 7.58301V18.4163C1.13867 20.258 2.54701 21.6663 4.38867 21.6663H21.722C23.5637 21.6663 24.972 20.258 24.972 18.4163V7.58301C24.972 5.74134 23.5637 4.33301 21.722 4.33301ZM17.3887 16.2497H8.72201C6.88034 16.2497 5.47201 14.8413 5.47201 12.9997C5.47201 11.158 6.88034 9.74967 8.72201 9.74967C10.5637 9.74967 11.972 11.158 11.972 12.9997C11.972 13.3247 11.8637 13.758 11.7553 14.083H14.3553C14.247 13.758 14.1387 13.3247 14.1387 12.9997C14.1387 11.158 15.547 9.74967 17.3887 9.74967C19.2303 9.74967 20.6387 11.158 20.6387 12.9997C20.6387 14.8413 19.2303 16.2497 17.3887 16.2497Z"/>
    <rect x="2.75" y="8.30176" width="19.9401" height="9.11735"/>
  </g>
</svg>
