<svg width="25" height="24" viewBox="0 0 25 24" fill="currentColor" xmlns="http://www.w3.org/2000/svg">
<path d="M5.55469 17.5079L4.09845 17.5333C2.71795 17.5575 1.57924 16.458 1.55507 15.0775C1.55482 15.0629 1.55469 11.7034 1.55469 4.99902C1.55469 3.61831 2.67398 2.49902 4.05469 2.49902H20.0547C21.4354 2.49902 22.5547 3.61831 22.5547 4.99902V15.0573C22.5547 16.4381 21.4354 17.5573 20.0547 17.5573C20.0498 17.5573 16.7851 17.5383 10.2606 17.5002L6.40824 21.3526C6.09326 21.6676 5.55469 21.4445 5.55469 20.999V17.5079ZM7.05469 9.49902H16.0547C16.3308 9.49902 16.5547 9.27517 16.5547 8.99902C16.5547 8.72288 16.3308 8.49902 16.0547 8.49902H7.05469C6.77855 8.49902 6.55469 8.72288 6.55469 8.99902C6.55469 9.27517 6.77855 9.49902 7.05469 9.49902ZM7.05469 12.499H14.0547C14.3308 12.499 14.5547 12.2752 14.5547 11.999C14.5547 11.7229 14.3308 11.499 14.0547 11.499H7.05469C6.77855 11.499 6.55469 11.7229 6.55469 11.999C6.55469 12.2752 6.77855 12.499 7.05469 12.499Z" fill="currentColor"/>
</svg>
