<svg width="25" height="24" viewBox="0 0 25 24" fill="currentColor" xmlns="http://www.w3.org/2000/svg">
<path d="M10.4958 15.6487L11.0845 14.1488C9.50261 11.8821 10.3321 8.88383 12.7533 7.41375C13.1155 7.18441 13.5 6.99219 13.9008 6.84V4.125C13.9 3.42904 13.6232 2.76181 13.1311 2.26969C12.639 1.77757 11.9717 1.50077 11.2758 1.5H4.86328C4.16732 1.50076 3.50009 1.77757 3.00797 2.26969C2.51585 2.76181 2.23905 3.42904 2.23828 4.125V19.875C2.23905 20.571 2.51585 21.2382 3.00797 21.7303C3.50009 22.2224 4.16732 22.4992 4.86328 22.5H11.2758C11.9717 22.4992 12.639 22.2224 13.1311 21.7303C13.6232 21.2382 13.9 20.571 13.9008 19.875V16.4738C13.6366 16.5445 11.7754 17.2358 11.5383 17.1975C11.3543 17.1964 11.1734 17.1503 11.0112 17.0634C10.8491 16.9764 10.7106 16.8512 10.6079 16.6985C10.5051 16.5459 10.4412 16.3705 10.4217 16.1875C10.4022 16.0046 10.4276 15.8196 10.4958 15.6487ZM9.56954 3.75H6.56954C6.47105 3.74853 6.37708 3.70838 6.30795 3.63821C6.23882 3.56803 6.20008 3.47348 6.20008 3.37498C6.20009 3.27648 6.23884 3.18193 6.30798 3.11177C6.37712 3.0416 6.47109 3.00146 6.56958 3H9.56956C9.66805 3.00146 9.76201 3.04162 9.83115 3.11179C9.90028 3.18196 9.93903 3.27651 9.93903 3.37501C9.93902 3.47351 9.90027 3.56806 9.83113 3.63823C9.762 3.70839 9.66803 3.74854 9.56954 3.75Z" fill="currentColor"/>
<path d="M16.4587 7.12829C12.7659 6.99888 9.29223 10.7129 11.9363 14.0321L11.19 15.937C11.1647 16.0031 11.1586 16.0749 11.1724 16.1443C11.1862 16.2136 11.2193 16.2776 11.2679 16.329C11.3165 16.3803 11.3787 16.4169 11.4472 16.4345C11.5157 16.452 11.5877 16.4499 11.655 16.4283C12.3082 16.2049 13.5546 15.8047 14.1863 15.592C22.0657 18.1712 25.564 7.84137 16.4587 7.12829ZM13.9012 12.112C13.8191 12.1453 13.7307 12.1601 13.6421 12.1554C13.5536 12.1506 13.4673 12.1264 13.3892 12.0845C13.3111 12.0426 13.2432 11.984 13.1903 11.9129C13.1374 11.8418 13.1008 11.7599 13.0832 11.673C13.0656 11.5862 13.0673 11.4965 13.0882 11.4104C13.1091 11.3242 13.1488 11.2438 13.2043 11.1747C13.2598 11.1057 13.3299 11.0497 13.4095 11.0108C13.4892 10.9718 13.5764 10.9509 13.665 10.9495C13.8058 10.9473 13.9429 10.9944 14.0527 11.0826C14.1624 11.1709 14.2378 11.2947 14.2658 11.4327C14.2939 11.5707 14.2728 11.7141 14.2062 11.8382C14.1396 11.9623 14.0317 12.0591 13.9012 12.112ZM16.4587 12.1608C16.2993 12.159 16.147 12.0944 16.0348 11.981C15.9227 11.8676 15.8598 11.7146 15.8598 11.5552C15.8598 11.3957 15.9227 11.2427 16.0349 11.1293C16.147 11.0159 16.2993 10.9513 16.4588 10.9495C16.6182 10.9513 16.7705 11.0159 16.8827 11.1293C16.9948 11.2427 17.0577 11.3957 17.0577 11.5552C17.0577 11.7146 16.9948 11.8677 16.8827 11.981C16.7705 12.0944 16.6182 12.159 16.4587 12.1608ZM19.2525 12.1608C19.093 12.159 18.9407 12.0944 18.8286 11.981C18.7165 11.8676 18.6536 11.7146 18.6536 11.5552C18.6536 11.3957 18.7165 11.2427 18.8286 11.1293C18.9407 11.0159 19.0931 10.9513 19.2525 10.9495C19.412 10.9513 19.5643 11.0159 19.6764 11.1293C19.7885 11.2427 19.8514 11.3957 19.8514 11.5552C19.8514 11.7147 19.7885 11.8677 19.6764 11.9811C19.5643 12.0944 19.412 12.159 19.2525 12.1608Z" fill="currentColor"/>
</svg>
