<svg width="25" height="24" viewBox="0 0 25 24" fill="currentColor" xmlns="http://www.w3.org/2000/svg">
<path d="M14.0539 9.2002H10.0539C9.65391 9.2002 9.25391 9.5002 9.25391 10.0002V14.0002C9.25391 14.4002 9.55391 14.8002 10.0539 14.8002H14.0539C14.4539 14.8002 14.8539 14.5002 14.8539 14.0002V10.0002C14.8539 9.6002 14.4539 9.2002 14.0539 9.2002ZM14.0539 16.2002H10.0539C9.65391 16.2002 9.25391 16.5002 9.25391 17.0002V21.0002C9.25391 21.4002 9.55391 21.8002 10.0539 21.8002H14.0539C14.4539 21.8002 14.8539 21.5002 14.8539 21.0002V17.0002C14.8539 16.6002 14.4539 16.2002 14.0539 16.2002ZM7.05391 2.2002H3.05391C2.65391 2.2002 2.25391 2.6002 2.25391 3.0002V7.0002C2.25391 7.4002 2.55391 7.8002 3.05391 7.8002H7.05391C7.45391 7.8002 7.85391 7.5002 7.85391 7.0002V3.0002C7.85391 2.6002 7.45391 2.2002 7.05391 2.2002ZM7.05391 9.2002H3.05391C2.65391 9.2002 2.25391 9.5002 2.25391 10.0002V14.0002C2.25391 14.4002 2.55391 14.8002 3.05391 14.8002H7.05391C7.45391 14.8002 7.85391 14.5002 7.85391 14.0002V10.0002C7.85391 9.6002 7.45391 9.2002 7.05391 9.2002ZM21.0539 2.2002H17.0539C16.6539 2.2002 16.2539 2.5002 16.2539 3.0002V7.0002C16.2539 7.4002 16.5539 7.8002 17.0539 7.8002H21.0539C21.4539 7.8002 21.8539 7.5002 21.8539 7.0002V3.0002C21.8539 2.6002 21.4539 2.2002 21.0539 2.2002ZM14.0539 2.2002H10.0539C9.65391 2.2002 9.25391 2.6002 9.25391 3.0002V7.0002C9.25391 7.4002 9.55391 7.8002 10.0539 7.8002H14.0539C14.4539 7.8002 14.8539 7.5002 14.8539 7.0002V3.0002C14.8539 2.6002 14.4539 2.2002 14.0539 2.2002ZM21.0539 9.2002H17.0539C16.6539 9.2002 16.2539 9.5002 16.2539 10.0002V14.0002C16.2539 14.4002 16.5539 14.8002 17.0539 14.8002H21.0539C21.4539 14.8002 21.8539 14.5002 21.8539 14.0002V10.0002C21.8539 9.6002 21.4539 9.2002 21.0539 9.2002Z" fill="currentColor"/>
</svg>
