<svg width="19" height="19" viewBox="0 0 19 19" fill="none" xmlns="http://www.w3.org/2000/svg">
<path d="M8.69348 13.832L12.1247 9.50078H9.33098L9.81848 5.35703L6.57473 10.4008H9.31223L8.69348 13.832ZM8.13248 11.3758H5.81329C5.59879 11.3758 5.44229 11.283 5.34379 11.0973C5.24517 10.9118 5.25023 10.7282 5.35898 10.5465L9.7478 3.58891C9.8238 3.44753 9.93392 3.35709 10.0782 3.31759C10.2223 3.27822 10.3665 3.28259 10.5107 3.33072C10.655 3.37872 10.7694 3.46666 10.854 3.59453C10.9387 3.72241 10.9709 3.86472 10.9506 4.02147L10.4243 8.52578H12.9786C13.2084 8.52578 13.3718 8.62678 13.4689 8.82878C13.566 9.03066 13.5464 9.22247 13.4099 9.40422L8.59542 15.5555C8.49929 15.6719 8.38223 15.7491 8.24423 15.7871C8.10623 15.825 7.96898 15.8098 7.83248 15.7415C7.69598 15.6733 7.59286 15.5752 7.52311 15.4473C7.45336 15.3195 7.43486 15.1834 7.46761 15.0392L8.13248 11.3758Z" fill="#162D3A" fill-opacity="0.8"/>
</svg>
