<svg width="24" height="24" viewBox="0 0 24 24" fill="none" xmlns="http://www.w3.org/2000/svg">
<g clip-path="url(#clip0_4081_25013)">
<path d="M12 0.75C9.77497 0.75 7.59989 1.4098 5.74984 2.64597C3.89979 3.88213 2.45785 5.63914 1.60636 7.69481C0.754875 9.75048 0.532087 12.0125 0.966171 14.1948C1.40025 16.3771 2.47171 18.3816 4.04505 19.955C5.61839 21.5283 7.62295 22.5998 9.80524 23.0338C11.9875 23.4679 14.2495 23.2451 16.3052 22.3936C18.3609 21.5422 20.1179 20.1002 21.354 18.2502C22.5902 16.4001 23.25 14.225 23.25 12C23.25 9.01631 22.0647 6.15483 19.955 4.04505C17.8452 1.93526 14.9837 0.75 12 0.75ZM12 21.54C10.1132 21.54 8.26871 20.9805 6.69986 19.9322C5.13102 18.884 3.90825 17.394 3.18619 15.6508C2.46413 13.9076 2.27521 11.9894 2.64331 10.1388C3.01142 8.28826 3.92001 6.58839 5.25421 5.2542C6.5884 3.92001 8.28826 3.01141 10.1388 2.64331C11.9894 2.27521 13.9076 2.46413 15.6508 3.18619C17.394 3.90825 18.884 5.13101 19.9322 6.69986C20.9805 8.2687 21.54 10.1132 21.54 12C21.536 14.5289 20.5297 16.9532 18.7414 18.7414C16.9532 20.5297 14.529 21.536 12 21.54Z" fill="currentColor"/>
<path d="M12.5878 15.3822C12.8834 15.3019 13.1443 15.1266 13.3304 14.8833C13.5164 14.64 13.6173 14.3422 13.6173 14.0359C13.6173 13.7297 13.5164 13.4319 13.3304 13.1886C13.1443 12.9453 12.8834 12.77 12.5878 12.6897V15.3822ZM10.3828 9.95969C10.3984 10.263 10.5056 10.5545 10.6904 10.7956C10.8753 11.0367 11.1289 11.2159 11.4178 11.3097V8.61719C11.1261 8.70376 10.869 8.88008 10.6832 9.12108C10.4974 9.36209 10.3923 9.65552 10.3828 9.95969Z" fill="#currentColor"/>
<path d="M11.9972 3.49219C10.3151 3.49219 8.67071 3.991 7.27207 4.92554C5.87343 5.86008 4.78332 7.18838 4.1396 8.74246C3.49587 10.2965 3.32745 12.0066 3.65561 13.6564C3.98378 15.3062 4.7938 16.8217 5.98325 18.0111C7.17269 19.2006 8.68814 20.0106 10.3379 20.3388C11.9878 20.6669 13.6978 20.4985 15.2519 19.8548C16.806 19.2111 18.1343 18.121 19.0688 16.7223C20.0034 15.3237 20.5022 13.6793 20.5022 11.9972C20.5022 9.74152 19.6061 7.57824 18.0111 5.98324C16.4161 4.38825 14.2529 3.49219 11.9972 3.49219ZM14.7947 14.0372C14.7767 14.6538 14.5469 15.2455 14.144 15.7126C13.741 16.1798 13.1895 16.4939 12.5822 16.6022V17.2472H11.4122V16.6097C10.798 16.5092 10.2378 16.1984 9.82738 15.7305C9.41697 15.2627 9.18184 14.6667 9.16219 14.0447H10.3397C10.3492 14.3489 10.4543 14.6423 10.6401 14.8833C10.8259 15.1243 11.083 15.3006 11.3747 15.3872V12.5222C10.7599 12.423 10.1989 12.1127 9.78821 11.6445C9.37754 11.1763 9.14291 10.5797 9.12469 9.95719C9.14434 9.33513 9.37947 8.73921 9.78988 8.27134C10.2003 7.80347 10.7605 7.49271 11.3747 7.39219V6.74719H12.5447V7.38469C13.152 7.49299 13.7035 7.80712 14.1065 8.27426C14.5094 8.7414 14.7392 9.33304 14.7572 9.94969H13.6172C13.6077 9.64552 13.5026 9.35209 13.3168 9.11108C13.131 8.87008 12.8739 8.69376 12.5822 8.60719V11.4722C13.1901 11.5792 13.7424 11.8929 14.1456 12.3603C14.5488 12.8278 14.7781 13.4201 14.7947 14.0372Z" fill="currentColor"/>
</g>
<defs>
<clipPath id="clip0_4081_25013">
<rect width="24" height="24" fill="none"/>
</clipPath>
</defs>
</svg>
