<svg width="15" height="13" viewBox="0 0 15 13" fill="none" xmlns="http://www.w3.org/2000/svg">
<path d="M1.67144 9.33177C1.37566 9.33177 1.12305 9.22699 0.913609 9.01744C0.704276 8.80799 0.599609 8.55527 0.599609 8.25927V1.4656C0.599609 1.1696 0.704276 0.917715 0.913609 0.709938C1.12305 0.502271 1.37566 0.398438 1.67144 0.398438H11.6611C11.9569 0.398438 12.2095 0.503105 12.4189 0.712438C12.6283 0.921882 12.7329 1.17449 12.7329 1.47027V5.51127C12.7329 5.66783 12.6714 5.78905 12.5483 5.87494C12.4252 5.96071 12.2812 5.98221 12.1163 5.93944C11.9598 5.89244 11.8028 5.86277 11.6451 5.85044C11.4874 5.83799 11.3248 5.83177 11.1573 5.83177C10.2897 5.83177 9.55211 6.13005 8.94444 6.7266C8.33678 7.32316 8.03294 8.05521 8.03294 8.92277V8.9561C8.03294 9.06199 7.99683 9.15105 7.92461 9.22327C7.85228 9.2956 7.76317 9.33177 7.65728 9.33177H1.67144ZM6.66628 4.24844L2.22261 1.6381C2.06283 1.5501 1.90861 1.54699 1.75994 1.62877C1.61116 1.71044 1.53039 1.83938 1.51761 2.0156C1.50472 2.10672 1.52244 2.19627 1.57078 2.28427C1.61911 2.37238 1.68128 2.43994 1.75728 2.48694L6.39194 5.21644C6.47228 5.26766 6.56372 5.29327 6.66628 5.29327C6.76883 5.29327 6.86028 5.26766 6.94061 5.21644L11.5919 2.48694C11.6679 2.43994 11.7284 2.37272 11.7733 2.28527C11.8182 2.19794 11.8321 2.1066 11.8149 2.01127C11.8022 1.83649 11.7214 1.70966 11.5726 1.63077C11.4239 1.55199 11.2697 1.5566 11.1099 1.6446L6.66628 4.24844Z" fill="#162D3A"/>
<path fill-rule="evenodd" clip-rule="evenodd" d="M11.1036 11.3867C10.8703 11.3312 10.6741 11.257 10.5151 11.1642C10.3561 11.0715 10.2181 10.9538 10.1011 10.8111L9.59344 10.9892C9.52666 11.0115 9.46316 11.0119 9.40294 10.9906C9.34271 10.9691 9.29805 10.9343 9.26894 10.8861L9.12294 10.6167C9.0896 10.5685 9.07249 10.5132 9.0716 10.4508C9.07071 10.3884 9.09732 10.3308 9.15144 10.2779L9.55227 9.90842C9.48905 9.69475 9.45744 9.49031 9.45744 9.29508C9.45744 9.09975 9.48905 8.89864 9.55227 8.69175L9.15144 8.33025C9.09732 8.27903 9.06966 8.22325 9.06844 8.16292C9.0671 8.10269 9.0831 8.04842 9.11644 8.00008L9.26894 7.72458C9.29805 7.67625 9.34027 7.64142 9.3956 7.62008C9.45105 7.59875 9.50927 7.5992 9.57027 7.62142L10.0844 7.78292C10.2305 7.62225 10.3863 7.49725 10.5516 7.40792C10.717 7.31858 10.8995 7.24725 11.0989 7.19392L11.2189 6.68925C11.2369 6.62547 11.2699 6.57281 11.3178 6.53125C11.3655 6.48958 11.4185 6.46875 11.4766 6.46875H11.7689C11.827 6.46875 11.88 6.48958 11.9279 6.53125C11.9758 6.57281 12.0087 6.62547 12.0266 6.68925L12.1421 7.19058C12.3447 7.23069 12.5359 7.29925 12.7158 7.39625C12.8957 7.49336 13.0553 7.62225 13.1946 7.78292L13.6754 7.63808C13.7335 7.61586 13.7938 7.61542 13.8561 7.63675C13.9185 7.65808 13.9636 7.69225 13.9913 7.73925L14.1313 8.00208C14.1633 8.04908 14.1786 8.10547 14.1773 8.17125C14.176 8.23714 14.1498 8.29492 14.0986 8.34458L13.7266 8.69175C13.7942 8.90286 13.8269 9.10503 13.8248 9.29825C13.8227 9.49136 13.7823 9.70031 13.7036 9.92508L14.0899 10.2802C14.134 10.323 14.1599 10.3756 14.1676 10.4379C14.1754 10.5004 14.1612 10.56 14.1249 10.6167L13.9913 10.8861C13.9636 10.9343 13.9197 10.9691 13.8594 10.9906C13.7991 11.0119 13.7356 11.0115 13.6689 10.9892L13.1613 10.8111C13.0442 10.9606 12.9061 11.0829 12.7471 11.1778C12.5882 11.2726 12.3865 11.3479 12.1421 11.4034L12.0266 11.9046C12.0067 11.9684 11.9705 12.0211 11.9181 12.0627C11.8657 12.1043 11.8111 12.1251 11.7544 12.1251H11.4746C11.4178 12.1251 11.3633 12.1043 11.3109 12.0627C11.2585 12.0211 11.2223 11.9684 11.2023 11.9046L11.1036 11.3867ZM12.5248 10.1788C12.2808 10.4251 11.9869 10.5482 11.6431 10.5482C11.2992 10.5482 11.0041 10.4262 10.7578 10.1822C10.5114 9.93825 10.3883 9.64431 10.3883 9.30042C10.3883 8.95664 10.5103 8.66158 10.7543 8.41525C10.9983 8.16881 11.2922 8.04558 11.6359 8.04558C11.9797 8.04558 12.2748 8.16764 12.5213 8.41175C12.7676 8.65575 12.8908 8.94964 12.8908 9.29342C12.8908 9.63719 12.7688 9.93231 12.5248 10.1788Z" fill="#162D3A"/>
</svg>
