<svg width="43" height="32" viewBox="0 0 43 32" fill="none" xmlns="http://www.w3.org/2000/svg">
<g clip-path="url(#clip0_1033_12774)">
<path d="M34.458 12.988C34.031 6.376 29.433 0 21 0C13.287 0 7.339 5.733 7.024 13.384C2.804 14.697 0.5 19.213 0.5 22.5C0.5 27.561 4.706 32 9.5 32H16C16.1326 32 16.2598 31.9473 16.3536 31.8536C16.4473 31.7598 16.5 31.6326 16.5 31.5C16.5 31.3674 16.4473 31.2402 16.3536 31.1464C16.2598 31.0527 16.1326 31 16 31H9.5C5.238 31 1.5 27.028 1.5 22.5C1.5 19.449 4.174 14 9.5 14H11C11.1326 14 11.2598 13.9473 11.3536 13.8536C11.4473 13.7598 11.5 13.6326 11.5 13.5C11.5 13.3674 11.4473 13.2402 11.3536 13.1464C11.2598 13.0527 11.1326 13 11 13H9.5C8.991 13 8.51 13.057 8.041 13.139C8.433 7.149 12.986 1 21 1C29.588 1 33.5 7.739 33.5 14V15.5C33.5 15.6326 33.5527 15.7598 33.6464 15.8536C33.7402 15.9473 33.8674 16 34 16C34.1326 16 34.2598 15.9473 34.3536 15.8536C34.4473 15.7598 34.5 15.6326 34.5 15.5V13.991C37.519 14.322 41.5 17.562 41.5 22.5C41.5 26.326 37.809 31 33.5 31H26C22.762 31 21.5 29.738 21.5 26.5V12.783L25.578 16.853C25.6241 16.9008 25.6792 16.939 25.7401 16.9653C25.8011 16.9916 25.8667 17.0054 25.9331 17.0061C25.9995 17.0068 26.0653 16.9942 26.1268 16.9692C26.1883 16.9441 26.2442 16.9071 26.2912 16.8602C26.3382 16.8133 26.3754 16.7575 26.4006 16.6961C26.4258 16.6347 26.4386 16.5689 26.4381 16.5025C26.4376 16.4361 26.4239 16.3705 26.3978 16.3095C26.3717 16.2484 26.3337 16.1932 26.286 16.147L21.825 11.695C21.231 11.103 20.77 11.103 20.177 11.695L15.716 16.147C15.6249 16.2413 15.5745 16.3676 15.5757 16.4987C15.5768 16.6298 15.6294 16.7552 15.7221 16.8479C15.8148 16.9406 15.9402 16.9932 16.0713 16.9943C16.2024 16.9955 16.3287 16.9451 16.423 16.854L20.5 12.783V26.5C20.5 30.304 22.196 32 26 32H33.5C38.347 32 42.5 26.776 42.5 22.5C42.5 17.333 38.277 13.292 34.458 12.988Z" fill="#00A086"/>
</g>
<defs>
<clipPath id="clip0_1033_12774">
<rect width="42" height="32" fill="white" transform="translate(0.5)"/>
</clipPath>
</defs>
</svg>
