<svg width="24" height="24" viewBox="0 0 24 24" fill="currentColor" xmlns="http://www.w3.org/2000/svg">
<path d="M20.7399 14.0344C20.5125 13.9054 20.2875 13.7742 20.0625 13.6429C19.9969 13.6054 19.9336 13.5679 19.868 13.5304C19.868 13.5328 19.8704 13.5328 19.8727 13.5351C19.9336 13.5797 19.9899 13.6289 20.0368 13.6992L19.8727 13.5351C19.8329 13.507 19.793 13.4812 19.7485 13.4531L19.6782 13.4039L19.6805 13.4062C19.6782 13.4039 19.6618 13.3898 19.65 13.3828L19.6524 13.3851C19.6618 13.3922 19.6688 13.3969 19.6782 13.4039C19.6665 13.3922 19.6219 13.3594 19.6149 13.3523C19.5563 13.3008 19.4977 13.2469 19.4461 13.1883C19.4204 13.1601 19.3922 13.1297 19.3688 13.0992C19.3665 13.0969 19.3618 13.0898 19.3571 13.0828C19.3594 13.0875 19.3547 13.0828 19.3407 13.0617C19.3383 13.0594 19.336 13.057 19.336 13.0523L19.3313 13.0476C19.3313 13.0476 19.3336 13.0476 19.3336 13.05C19.2915 12.989 19.2516 12.9258 19.2141 12.8625L19.1579 12.757C19.1485 12.7359 19.1391 12.7172 19.1274 12.6961C19.1227 12.689 19.111 12.6562 19.1086 12.6515C19.1016 12.6304 19.0946 12.6094 19.0922 12.6047C19.0805 12.5672 19.0665 12.5273 19.0571 12.4898C19.0336 12.4101 19.0172 12.3304 19.0032 12.2508C19.0032 12.2414 18.9985 12.2039 18.9985 12.2015C18.9938 12.1594 18.9915 12.1172 18.9915 12.0773C18.9891 11.9976 18.9915 11.9203 18.9961 11.8406C18.9961 11.8265 18.9985 11.8125 19.0008 11.8008C19.0008 11.8031 18.9985 11.8054 18.9985 11.8054C19.0008 11.7937 19.0055 11.7187 19.0032 11.7703C19.0032 11.7797 19.0008 11.7914 19.0008 11.8008C19.0125 11.7726 19.0125 11.7117 19.0172 11.6859C19.0336 11.6015 19.0571 11.5172 19.0829 11.4351C19.0946 11.3976 19.111 11.3601 19.1227 11.3226V11.3203C19.1204 11.3273 19.118 11.332 19.1133 11.339C19.0852 11.3976 19.1415 11.2617 19.1227 11.3203C19.1274 11.3109 19.1321 11.3015 19.1344 11.2922C19.1719 11.2101 19.2165 11.1304 19.2633 11.0531L19.3196 10.9687C19.3243 10.964 19.329 10.9523 19.336 10.9429C19.329 10.9523 19.3243 10.9547 19.3243 10.9547C19.3243 10.9523 19.336 10.9383 19.3454 10.9289C19.343 10.9336 19.3383 10.9383 19.336 10.9429C19.3383 10.9383 19.343 10.9336 19.3477 10.9289C19.3993 10.8679 19.4508 10.8094 19.5071 10.7531C19.5282 10.732 19.6665 10.6312 19.6805 10.6008C19.6711 10.6195 19.6149 10.6429 19.6665 10.6078C19.6688 10.6054 19.6758 10.6031 19.6805 10.6008C19.6829 10.6008 19.6852 10.5984 19.6852 10.5984H19.6899C19.6922 10.589 19.7133 10.5797 19.725 10.5703C19.7625 10.5445 19.7977 10.5211 19.8375 10.4976C19.8797 10.4719 19.9196 10.4484 19.9618 10.425C20.1375 10.3242 20.311 10.2211 20.4868 10.1203C20.604 10.0523 20.7305 9.98904 20.8407 9.90935C21.2696 9.59529 21.4079 9.03748 21.1454 8.56638C20.8407 8.0156 20.5125 7.47185 20.1985 6.92576C20.0133 6.60232 19.8258 6.28123 19.6407 5.95779C19.6055 5.89451 19.5704 5.83123 19.5329 5.77029C19.2985 5.39295 18.8555 5.20076 18.4196 5.30388C18.2461 5.34373 18.0891 5.45154 17.9344 5.5406C17.7586 5.64373 17.5805 5.74451 17.4024 5.84763C17.3461 5.88045 17.2899 5.9156 17.2336 5.94841C17.1938 5.97185 17.154 5.99295 17.1118 6.0117C17.093 6.02107 17.0766 6.0281 17.0579 6.03748H17.0555C17.0579 6.03748 17.0602 6.03748 17.0602 6.03513C17.1258 6.0117 16.9969 6.06795 17.0555 6.03748C16.9641 6.07029 16.8727 6.1031 16.779 6.12654C16.7344 6.13826 16.6875 6.15232 16.643 6.15935C16.6383 6.15935 16.6313 6.16638 16.6266 6.16873H16.6219C16.6219 6.16873 16.6219 6.16404 16.6196 6.16404C16.6172 6.16404 16.6172 6.1617 16.6149 6.1617H16.6079H16.6102C16.6008 6.1617 16.5891 6.16404 16.5821 6.16404C16.486 6.17107 16.3899 6.17576 16.2915 6.17341C16.254 6.17107 16.2165 6.16873 16.1766 6.16638C16.1649 6.16638 16.1532 6.16404 16.1415 6.1617C16.1461 6.1617 16.1532 6.16404 16.1579 6.16404C16.2211 6.17576 16.0641 6.15466 16.1297 6.15935H16.1415C16.0688 6.14763 15.9961 6.13357 15.9235 6.11482C15.8532 6.09607 15.7829 6.07498 15.7149 6.0492C15.7079 6.04685 15.6985 6.04216 15.6915 6.03982C15.6938 6.03982 15.6961 6.04216 15.6985 6.04451C15.7524 6.07498 15.6118 6.01404 15.6727 6.03279C15.6797 6.03513 15.6868 6.03748 15.6915 6.03982C15.6586 6.02107 15.6211 6.00701 15.586 5.9906C15.5227 5.95779 15.4594 5.92263 15.4008 5.88279C15.3704 5.86404 15.3422 5.84295 15.3118 5.82185C15.3094 5.81951 15.3024 5.81482 15.2977 5.81248C15.3235 5.83826 15.2743 5.80076 15.2649 5.7867C15.2696 5.79373 15.286 5.8031 15.2977 5.81013C15.2954 5.80779 15.2907 5.8031 15.286 5.80076C15.1735 5.70232 15.0821 5.59451 14.979 5.48904C14.9836 5.49607 14.9883 5.5031 14.993 5.50779C15.0282 5.55935 14.9321 5.44216 14.9766 5.48435L14.979 5.4867C14.9743 5.48201 14.9696 5.47498 14.9672 5.47029C14.9461 5.44216 14.9274 5.4117 14.9063 5.38123C14.8641 5.3156 14.8266 5.24998 14.7915 5.18201C14.7774 5.15388 14.7657 5.12341 14.7516 5.09529C14.754 5.09998 14.7563 5.10466 14.7563 5.10935C14.775 5.16795 14.7141 5.02732 14.7446 5.08357C14.7469 5.08826 14.7493 5.0906 14.7516 5.09529C14.7469 5.08591 14.7446 5.07654 14.7399 5.06716C14.7118 4.99451 14.6883 4.91951 14.6696 4.84451C14.6532 4.77888 14.6415 4.71326 14.6297 4.64763V4.65701C14.6344 4.72263 14.6133 4.56326 14.625 4.62888C14.625 4.63591 14.6274 4.64295 14.6297 4.64763C14.6297 4.63591 14.6274 4.62185 14.625 4.60779C14.6204 4.5656 14.618 4.52107 14.618 4.47888C14.6133 4.33123 14.618 4.18357 14.618 4.03826V3.44763C14.618 3.13591 14.5125 2.83357 14.2665 2.62732C14.0579 2.45388 13.8141 2.37185 13.5446 2.36951H10.8047C10.4813 2.36951 10.1508 2.34138 9.86489 2.52654C9.55786 2.72576 9.40083 3.05857 9.39849 3.41951V4.41326C9.39849 4.4906 9.3938 4.5656 9.38677 4.6406V4.64529V4.64295C9.40317 4.55623 9.37974 4.72263 9.38677 4.64529C9.37974 4.69216 9.37036 4.7367 9.36099 4.78357C9.34692 4.8492 9.32817 4.91482 9.30708 4.98045C9.29302 5.02029 9.27895 5.05779 9.26489 5.09763C9.26489 5.09998 9.26255 5.10232 9.26255 5.10466C9.26255 5.10232 9.26489 5.10232 9.26489 5.09998C9.30239 5.03201 9.25552 5.12107 9.25083 5.1281C9.18755 5.2617 9.10786 5.38123 9.02583 5.5031L9.03052 5.49841C9.02349 5.50545 9.0188 5.51482 9.01646 5.51716C9.01646 5.51482 9.0188 5.51248 9.02349 5.50779C9.02583 5.50545 9.02583 5.5031 9.02817 5.50076C9.0188 5.51013 9.01177 5.51951 9.01177 5.51951C8.98833 5.54763 8.96489 5.57341 8.94145 5.5992C8.88989 5.65545 8.83364 5.70935 8.77505 5.75857C8.76099 5.77029 8.67895 5.85232 8.72817 5.80076C8.77505 5.75154 8.69302 5.8242 8.67661 5.83591C8.61333 5.88045 8.5477 5.92029 8.47974 5.95779C8.44692 5.9742 8.41646 5.99295 8.38364 6.00701C8.37427 6.0117 8.33911 6.0281 8.31802 6.03748C8.33442 6.03045 8.34614 6.02576 8.34849 6.02576C8.34614 6.02576 8.34145 6.0281 8.32739 6.03513C8.31333 6.04216 8.3063 6.04216 8.30395 6.04451L8.31333 6.03982C8.29458 6.04685 8.27114 6.05623 8.26646 6.05857C8.22661 6.07263 8.18677 6.0867 8.14692 6.09841C8.07661 6.11951 8.00395 6.13591 7.9313 6.14998C7.9102 6.15466 7.80239 6.15935 7.86099 6.1617H7.86567C7.88208 6.1617 7.9313 6.16404 7.86802 6.1617H7.86099C7.8352 6.16404 7.81177 6.16638 7.78599 6.16873C7.70161 6.17341 7.61724 6.17576 7.53286 6.17107C7.48833 6.16873 7.4438 6.16404 7.39927 6.1617C7.40395 6.1617 7.40864 6.16404 7.41099 6.16404C7.41567 6.16404 7.41802 6.16638 7.42271 6.16638C7.41333 6.16404 7.39692 6.1617 7.39224 6.1617H7.40161C7.37349 6.15701 7.34302 6.15232 7.31489 6.14529C7.22349 6.12654 7.13208 6.10076 7.04302 6.07263L6.98677 6.05154C6.97974 6.0492 6.95864 6.03982 6.94458 6.03513C6.95161 6.03748 6.95864 6.04216 6.96567 6.04451C6.96333 6.04216 6.95864 6.04216 6.95161 6.03748C6.93989 6.03279 6.9352 6.03045 6.93286 6.03045C6.9352 6.03045 6.93755 6.03279 6.94224 6.03279C6.93755 6.03045 6.9352 6.03045 6.9352 6.0281C6.90474 6.01404 6.87661 5.99998 6.84614 5.98357C6.77349 5.94607 6.70317 5.90154 6.63052 5.85935C6.45708 5.75857 6.28364 5.66013 6.11021 5.55935C5.96724 5.47732 5.82192 5.37888 5.66489 5.32498C5.21958 5.16795 4.72505 5.37654 4.4813 5.76795C4.44614 5.82185 4.41567 5.88045 4.38286 5.9367C4.20239 6.24841 4.02192 6.56248 3.84145 6.8742C3.52036 7.43201 3.19224 7.98513 2.87583 8.54529C2.64614 8.95076 2.69067 9.49216 3.05161 9.81091C3.18286 9.9281 3.34224 10.0078 3.49224 10.0945C3.6727 10.1976 3.85083 10.3008 4.0313 10.4062C4.0688 10.4273 4.10395 10.4484 4.14145 10.4695C4.20708 10.5047 4.26802 10.5445 4.32895 10.5867C4.33364 10.5914 4.35474 10.6078 4.37114 10.6172C4.36645 10.6125 4.36177 10.6078 4.35708 10.6054L4.35005 10.5984C4.36177 10.6078 4.38286 10.6242 4.38521 10.6265C4.38286 10.6265 4.37817 10.6242 4.37349 10.6195C4.40161 10.6453 4.43208 10.6687 4.4602 10.6945C4.5188 10.7484 4.5727 10.8047 4.62661 10.8633C4.6313 10.8679 4.6852 10.9429 4.69927 10.9523L4.69692 10.95L4.70161 10.9547H4.69927C4.70864 10.9687 4.71802 10.9828 4.72974 10.9969C4.77427 11.0625 4.81646 11.1304 4.85396 11.2008C4.8727 11.2359 4.89145 11.2711 4.90786 11.3086L4.91958 11.332C4.91724 11.3226 4.91255 11.3156 4.9102 11.3109C4.91255 11.3133 4.91489 11.3203 4.91958 11.332C4.92427 11.3461 4.92896 11.3531 4.92896 11.3554C4.92661 11.3531 4.92427 11.3461 4.92192 11.3367C4.92427 11.3437 4.92896 11.3531 4.92896 11.3554C4.95708 11.4304 4.98286 11.5078 5.00161 11.5851L5.02974 11.7047C5.03208 11.7211 5.03677 11.7398 5.03911 11.7562V11.7539C5.03911 11.7539 5.03911 11.7586 5.04146 11.7679V11.7726C5.05083 11.8172 5.04614 11.8054 5.04146 11.7867C5.0438 11.8851 5.0438 12.1758 5.04146 12.2414C5.03911 12.2508 5.03911 12.2625 5.03677 12.2719C5.02974 12.3117 5.02036 12.3515 5.01099 12.3914C4.98989 12.4758 4.96645 12.5578 4.93599 12.6398C4.93364 12.6469 4.92895 12.6586 4.92661 12.6679C4.9313 12.6586 4.93364 12.6562 4.93364 12.6539C4.93364 12.6586 4.92661 12.6726 4.91958 12.6867C4.92192 12.6797 4.92427 12.675 4.92661 12.6679C4.92427 12.6726 4.92192 12.6797 4.91724 12.6867C4.90317 12.7172 4.88677 12.7476 4.8727 12.7781C4.83052 12.8578 4.78364 12.9375 4.73442 13.0125C4.72974 13.0195 4.71099 13.0429 4.69458 13.0617C4.70395 13.0523 4.70864 13.0523 4.6852 13.0804C4.68052 13.0851 4.67817 13.0875 4.67583 13.0922V13.0945C4.66411 13.1062 4.65474 13.1203 4.64302 13.1344C4.58677 13.1976 4.52817 13.2586 4.46489 13.3148C4.43677 13.3406 4.4063 13.3664 4.37583 13.3922C4.37349 13.3945 4.37114 13.3969 4.3688 13.3969C4.41333 13.3664 4.35708 13.4109 4.35474 13.4109C4.35474 13.4086 4.35942 13.4062 4.3688 13.3969C4.36645 13.3992 4.36411 13.3992 4.36411 13.4015L4.25161 13.4789C4.23755 13.4883 4.2188 13.4953 4.20942 13.5047C4.18599 13.5187 4.19067 13.5164 4.22583 13.5023C4.29614 13.4765 4.26802 13.4883 4.14614 13.5375C3.85786 13.6898 3.57895 13.8656 3.29536 14.0297C2.97661 14.2148 2.77739 14.4961 2.73989 14.864C2.71645 15.0937 2.7938 15.3094 2.9063 15.5039C3.27192 16.1367 3.63755 16.7719 4.00317 17.4047C4.15317 17.6648 4.30552 17.9273 4.45552 18.1875C4.56099 18.3726 4.71099 18.539 4.90786 18.6281C5.25708 18.7875 5.59927 18.7476 5.92739 18.5601C6.23677 18.382 6.53911 18.1898 6.85552 18.0258C6.88833 18.0094 6.9188 17.9953 6.95161 17.9789C6.9352 17.9859 7.00786 17.9554 7.03364 17.9461C7.12739 17.9133 7.22583 17.8851 7.32192 17.8664C7.3477 17.8617 7.37583 17.857 7.40161 17.8523C7.40395 17.8523 7.41099 17.85 7.41802 17.85C7.40864 17.85 7.39927 17.8523 7.39927 17.8523C7.40161 17.8523 7.4063 17.8523 7.42271 17.85C7.43442 17.85 7.44145 17.8476 7.4438 17.8476C7.44145 17.8476 7.43442 17.85 7.42739 17.85C7.43442 17.85 7.43911 17.85 7.44145 17.8476C7.46958 17.8453 7.49536 17.8429 7.52349 17.8406C7.61489 17.8359 7.7063 17.8359 7.79771 17.8429H7.84692C7.8727 17.8429 7.89849 17.8453 7.90552 17.8523C7.90083 17.85 7.86333 17.8453 7.84927 17.8429C7.85395 17.8429 7.86333 17.8453 7.87739 17.8476C7.8938 17.85 7.90786 17.8523 7.92427 17.857C8.00161 17.8711 8.07895 17.8898 8.1563 17.9109C8.18677 17.9203 8.34849 17.9531 8.36255 17.9836C8.36255 17.9836 8.31333 17.9601 8.3063 17.9578C8.30864 17.9601 8.31567 17.9625 8.33677 17.9719C8.35083 17.9789 8.36489 17.9859 8.37895 17.9906C8.41645 18.0094 8.45161 18.0281 8.48911 18.0469C8.55239 18.082 8.61333 18.1195 8.67192 18.1594C8.69302 18.1734 8.75161 18.2015 8.75864 18.2226C8.75864 18.2203 8.66958 18.15 8.73521 18.2062C8.75161 18.2203 8.76567 18.232 8.78208 18.2461C8.83599 18.2929 8.88755 18.3422 8.93677 18.3937C8.9602 18.4195 8.98599 18.4453 9.00942 18.4734C9.0188 18.4851 9.02817 18.4969 9.03989 18.5086C9.03989 18.5086 9.03989 18.5109 9.04224 18.5109C9.03989 18.5062 9.0352 18.5015 9.03286 18.4992C9.00005 18.45 9.10552 18.5836 9.04224 18.5109C9.12427 18.6304 9.20161 18.7476 9.26489 18.8789C9.26724 18.8812 9.26958 18.8883 9.27427 18.8976C9.27427 18.8976 9.27427 18.8953 9.27192 18.8929C9.26958 18.8883 9.26958 18.8859 9.26958 18.8836C9.27192 18.8883 9.27427 18.8929 9.27661 18.9C9.27661 18.8976 9.27427 18.8976 9.27427 18.8976C9.28599 18.9304 9.30005 18.9633 9.30942 18.9961C9.33521 19.0711 9.3563 19.1461 9.37505 19.2234C9.38442 19.2586 9.39145 19.2961 9.39614 19.3312C9.39849 19.3406 9.39849 19.3523 9.40083 19.364V19.35C9.39849 19.2961 9.40786 19.3945 9.40786 19.3945C9.40552 19.3851 9.40317 19.3734 9.40083 19.364C9.40552 19.4414 9.41255 19.5164 9.41255 19.5937V20.3554C9.41255 20.5312 9.40317 20.714 9.44771 20.8851C9.55786 21.3117 9.93755 21.6 10.3665 21.6328H10.3758C10.3899 21.6328 10.404 21.6351 10.418 21.6351H13.2961C13.4133 21.6351 13.5305 21.6398 13.6454 21.6351C14.2149 21.607 14.6391 21.1453 14.6415 20.5804V19.7625C14.6415 19.6734 14.6391 19.5844 14.6438 19.4953C14.6438 19.4719 14.6368 19.3453 14.6555 19.3336C14.6532 19.3547 14.6508 19.3734 14.6461 19.3945C14.6485 19.3734 14.6532 19.3523 14.6555 19.3312C14.6579 19.3101 14.6625 19.289 14.6672 19.2679C14.6907 19.1554 14.7211 19.0453 14.761 18.9351C14.761 18.9351 14.7633 18.9258 14.768 18.9164C14.7657 18.9211 14.7633 18.9281 14.761 18.9328C14.7633 18.9258 14.7657 18.9211 14.768 18.914V18.9164C14.775 18.9023 14.7797 18.8906 14.7868 18.8765C14.8079 18.8297 14.8313 18.7851 14.8571 18.7383C14.8829 18.6937 14.9086 18.6492 14.9368 18.607C14.9485 18.5906 14.9602 18.5719 14.9719 18.5554C14.9813 18.5414 15.061 18.45 15.0071 18.5039L14.9907 18.5203C15 18.5086 15.0235 18.4851 15.0282 18.4804C15.0422 18.464 15.054 18.45 15.068 18.4336C15.1008 18.3961 15.136 18.3586 15.1735 18.3234C15.211 18.2883 15.2485 18.2531 15.286 18.2203C15.293 18.2133 15.3024 18.2062 15.3094 18.2015C15.3493 18.1711 15.3399 18.1758 15.286 18.2179C15.2954 18.1992 15.3446 18.1758 15.361 18.164C15.4454 18.1054 15.5321 18.0515 15.6235 18.007L15.6797 17.9789L15.7079 17.9648C15.7172 17.9601 15.7243 17.9578 15.729 17.9554C15.7196 17.9578 15.7032 17.9648 15.6821 17.9742C15.6961 17.9484 15.8157 17.925 15.8438 17.9156C15.9399 17.8851 16.036 17.8617 16.1344 17.8453H16.1438H16.1368C16.1555 17.8453 16.1813 17.8406 16.2 17.8383C16.2657 17.8336 16.3313 17.8289 16.3969 17.8289C16.4672 17.8289 16.5352 17.8359 16.6055 17.8383H16.6196C16.5516 17.8242 16.718 17.8429 16.6196 17.8383H16.6219C16.6547 17.8453 16.6875 17.85 16.7204 17.857C16.786 17.8711 16.8493 17.8875 16.9125 17.9062C16.9383 17.9133 16.9618 17.9226 16.9875 17.9297C17.0016 17.9344 17.0907 17.9719 17.093 17.9719C17.2055 18.0258 17.3133 18.089 17.4211 18.1523C17.6485 18.2836 17.8782 18.4148 18.1055 18.5484C18.2836 18.6515 18.4665 18.7242 18.6774 18.7242C19.0219 18.7242 19.3407 18.5437 19.5282 18.2578C19.5915 18.1617 19.6454 18.0562 19.704 17.9578C19.9946 17.4562 20.2829 16.9547 20.5735 16.4508C20.7657 16.1179 20.9602 15.7851 21.15 15.4523C21.4219 14.9414 21.2485 14.3273 20.7399 14.0344ZM10.3829 9.28826C10.3829 9.19685 10.3899 9.10545 10.404 9.01638C10.404 9.0117 10.4063 9.00701 10.4063 9.00232C10.4086 8.98591 10.4133 8.96716 10.4157 8.95076C10.4204 8.92966 10.425 8.90857 10.4297 8.88513C10.4344 8.86404 10.4415 8.84295 10.4461 8.82185C10.4485 8.81013 10.4532 8.80076 10.4555 8.79138C10.4696 8.7492 10.4836 8.70935 10.5024 8.66716C10.5094 8.65076 10.5165 8.63435 10.5258 8.61795C10.5305 8.60857 10.5329 8.60154 10.5375 8.59451C10.5516 8.56638 10.5657 8.5406 10.5821 8.51248L10.5961 8.49138C10.6008 8.48435 10.6032 8.47966 10.6079 8.47498L10.6219 8.45388C10.6313 8.43748 10.643 8.42341 10.6524 8.40935C10.6571 8.40232 10.6641 8.39529 10.6688 8.38591C10.6711 8.38357 10.6735 8.37888 10.6758 8.37654C10.6829 8.36716 10.6875 8.36013 10.6946 8.35076C10.7086 8.33201 10.725 8.3156 10.7391 8.29685C10.9993 8.00623 11.379 7.85388 11.7657 7.85388C12.0235 7.85388 12.2954 7.83279 12.5508 7.88435C12.9586 7.96873 13.3219 8.2617 13.493 8.64138C13.629 8.93904 13.6196 9.24138 13.6196 9.56013C13.6196 9.63513 13.6172 9.70779 13.6125 9.7781C13.6125 9.78748 13.6102 9.7992 13.6102 9.80857C13.6079 9.82966 13.6055 9.85076 13.6032 9.86951C13.6008 9.88357 13.5961 9.89763 13.5961 9.9117V9.92341C13.5938 9.93279 13.5938 9.94216 13.5915 9.95154C13.5891 9.9656 13.5868 9.97732 13.5844 9.99138C13.5844 9.99373 13.5821 9.99841 13.5821 10.0008C13.5797 10.0101 13.5774 10.0219 13.575 10.0312V10.0336C13.5727 10.0429 13.5727 10.0523 13.5704 10.0617V10.0734C13.5704 10.0851 13.5633 10.0945 13.5586 10.1062C13.5586 10.1086 13.5563 10.1109 13.5563 10.1133C13.554 10.1203 13.5516 10.125 13.5516 10.132C13.5516 10.1344 13.5516 10.1367 13.5493 10.139C13.5469 10.1461 13.5469 10.1508 13.5446 10.1578C13.5399 10.1695 13.5375 10.1836 13.5329 10.1953C13.5282 10.2094 13.5235 10.2211 13.5188 10.2351C13.5141 10.2445 13.5118 10.2539 13.5071 10.2633V10.2656L13.486 10.3148L13.4719 10.3429C13.4696 10.3476 13.4672 10.3547 13.4625 10.3594C13.4579 10.3711 13.4508 10.3804 13.4461 10.3922C13.4391 10.4039 13.4344 10.4156 13.4274 10.425C13.4204 10.4367 13.4157 10.4461 13.4086 10.4554L13.3805 10.4976C13.3735 10.5094 13.3641 10.5211 13.3571 10.5304C13.35 10.5422 13.3407 10.5515 13.3313 10.5633C13.3243 10.5726 13.3149 10.582 13.3079 10.5937C13.3079 10.5961 13.3055 10.5961 13.3055 10.5984C13.2961 10.6078 13.2891 10.6172 13.2797 10.6289C13.2633 10.6476 13.2469 10.664 13.2305 10.6828C13.2235 10.6898 13.2165 10.6969 13.2094 10.7015L13.1907 10.7203C13.1813 10.7273 13.1743 10.7367 13.1649 10.7437C13.1555 10.7531 13.1461 10.7601 13.1368 10.7672L13.1344 10.7695C13.125 10.7789 13.1133 10.7859 13.104 10.7953L13.0758 10.8164L13.0055 10.8656C12.9938 10.8726 12.9821 10.8797 12.9727 10.8867C12.9633 10.8914 12.9563 10.8961 12.9469 10.9008C12.9399 10.9054 12.9329 10.9078 12.9258 10.9125C12.9235 10.9148 12.9211 10.9148 12.9188 10.9172C12.9094 10.9219 12.9024 10.9265 12.893 10.9312C12.8649 10.9453 12.8344 10.9594 12.8063 10.9734C12.7969 10.9781 12.7899 10.9804 12.7805 10.9851C12.7782 10.9875 12.7735 10.9875 12.7711 10.9898C12.7641 10.9922 12.7547 10.9969 12.7454 10.9992L12.7313 11.0039C12.7172 11.0086 12.7055 11.0133 12.6915 11.0179C12.6891 11.0179 12.6868 11.0203 12.6844 11.0203C12.6821 11.0203 12.6797 11.0226 12.6774 11.0226C12.675 11.0226 12.6704 11.025 12.668 11.025C12.6633 11.0273 12.6586 11.0273 12.654 11.0297C12.6516 11.0297 12.6516 11.0297 12.6493 11.032C12.6469 11.032 12.6469 11.032 12.6446 11.0344H12.6399C12.6329 11.0367 12.6235 11.039 12.6165 11.0414C12.6118 11.0437 12.6047 11.0437 12.6 11.0461C12.5977 11.0461 12.5954 11.0484 12.5907 11.0484C12.586 11.0508 12.579 11.0508 12.5743 11.0531C12.5579 11.0578 12.5438 11.0601 12.5274 11.0625C12.5016 11.0672 12.4735 11.0719 12.4477 11.0765C12.3938 11.0836 12.3399 11.0883 12.2836 11.0906C12.279 11.0906 12.2719 11.0883 12.2672 11.0883H12.2579C11.9883 11.0883 11.7024 11.1164 11.4375 11.0578C11.379 11.0461 11.3227 11.0273 11.2688 11.0086C11.2407 10.9992 11.2149 10.9875 11.1868 10.9758C11.1727 10.9687 11.161 10.964 11.1469 10.957C11.1446 10.957 11.1422 10.9547 11.1399 10.9547C11.1235 10.9453 11.1047 10.9383 11.0883 10.9289C11.0813 10.9242 11.0743 10.9219 11.0672 10.9172C11.0602 10.9125 11.0508 10.9078 11.0438 10.9031C11.0391 10.9008 11.0344 10.8961 11.0297 10.8937C11.0274 10.8914 11.025 10.889 11.0204 10.889C11.0157 10.8867 11.0133 10.8844 11.0086 10.882C11.004 10.8797 11.0016 10.8773 10.9969 10.875C10.9946 10.875 10.9946 10.8726 10.9922 10.8726C10.9899 10.8703 10.9875 10.8679 10.9852 10.8679C10.9782 10.8633 10.9688 10.8562 10.9618 10.8515C10.9594 10.8492 10.9571 10.8492 10.9571 10.8469C10.95 10.8422 10.9454 10.8375 10.9383 10.8328C10.9336 10.8304 10.9313 10.8281 10.9266 10.8234L10.8985 10.8023L10.8704 10.7812C10.8516 10.7648 10.8329 10.7484 10.8165 10.732C10.8094 10.725 10.8 10.7179 10.793 10.7086C10.786 10.7015 10.779 10.6922 10.7696 10.6851L10.7532 10.6687C10.7438 10.6594 10.7368 10.65 10.7274 10.6406C10.718 10.6289 10.7086 10.6195 10.6993 10.6078L10.6782 10.5797C10.6735 10.5726 10.6688 10.5679 10.6641 10.5609C10.65 10.5422 10.6336 10.5211 10.6219 10.5023C10.6149 10.4929 10.6079 10.4812 10.6008 10.4695C10.5821 10.4414 10.5657 10.4156 10.5516 10.3875C10.5446 10.3758 10.5399 10.364 10.5329 10.3523C10.5258 10.3406 10.5211 10.3289 10.5141 10.3148C10.5071 10.2984 10.5 10.2844 10.493 10.2679C10.4883 10.2586 10.4836 10.2469 10.4813 10.2375C10.479 10.2328 10.479 10.2304 10.4766 10.2258C10.4719 10.2164 10.4696 10.2047 10.4649 10.1953C10.4579 10.1789 10.4532 10.1648 10.4485 10.1484L10.4415 10.1273V10.125C10.4274 10.0781 10.411 10.0312 10.404 9.98201C10.3969 9.9492 10.4086 9.91404 10.3852 9.87888V9.84373C10.3852 9.82498 10.3852 9.80623 10.3829 9.78748V9.77576C10.3829 9.7617 10.3829 9.74529 10.3805 9.73123V9.66326C10.3782 9.5367 10.3829 9.41013 10.3829 9.28826ZM14.7188 15.0234C14.7188 15.15 14.611 15.2578 14.4844 15.2578H9.51567C9.38911 15.2578 9.2813 15.15 9.2813 15.0234V13.5422C9.2813 13.2234 9.35395 12.9187 9.54614 12.6586C9.81567 12.2976 10.2282 12.075 10.6829 12.0703C11.0696 12.0656 11.4586 12.0703 11.8454 12.0703H13.2774C13.5727 12.0703 13.8657 12.1406 14.1094 12.314C14.4774 12.5765 14.7024 12.982 14.7165 13.4344V15.0234H14.7188Z" fill="currentColor"/>
</svg>
