<svg width="20" height="18" viewBox="0 0 20 18" fill="currentColor" xmlns="http://www.w3.org/2000/svg">
<path d="M5.177 8.58075C5.06417 8.69342 4.92167 8.74975 4.7495 8.74975C4.5775 8.74975 4.43525 8.69342 4.32275 8.58075C4.21008 8.46825 4.15375 8.32583 4.15375 8.1535V7.846C4.15375 7.67366 4.21017 7.53125 4.323 7.41875C4.43583 7.30608 4.57833 7.24975 4.7505 7.24975C4.9225 7.24975 5.06475 7.30608 5.17725 7.41875C5.28992 7.53125 5.34625 7.67366 5.34625 7.846V8.1535C5.34625 8.32583 5.28983 8.46825 5.177 8.58075ZM7.677 10.5807C7.56417 10.6934 7.42167 10.7497 7.2495 10.7497C7.0775 10.7497 6.93525 10.6934 6.82275 10.5807C6.71008 10.4682 6.65375 10.3258 6.65375 10.1535V5.846C6.65375 5.67366 6.71017 5.53125 6.823 5.41875C6.93583 5.30608 7.07833 5.24975 7.2505 5.24975C7.4225 5.24975 7.56475 5.30608 7.67725 5.41875C7.78992 5.53125 7.84625 5.67366 7.84625 5.846V10.1535C7.84625 10.3258 7.78983 10.4682 7.677 10.5807ZM10.427 12.5807C10.3142 12.6934 10.1717 12.7497 9.9995 12.7497C9.8275 12.7497 9.68525 12.6934 9.57275 12.5807C9.46008 12.4682 9.40375 12.3258 9.40375 12.1535V3.846C9.40375 3.67366 9.46017 3.53125 9.573 3.41875C9.68583 3.30608 9.82833 3.24975 10.0005 3.24975C10.1725 3.24975 10.3147 3.30608 10.4272 3.41875C10.5399 3.53125 10.5963 3.67366 10.5963 3.846V12.1535C10.5963 12.3258 10.5398 12.4682 10.427 12.5807ZM13.177 10.5807C13.0642 10.6934 12.9217 10.7497 12.7495 10.7497C12.5775 10.7497 12.4352 10.6934 12.3227 10.5807C12.2101 10.4682 12.1538 10.3258 12.1538 10.1535V5.846C12.1538 5.67366 12.2102 5.53125 12.323 5.41875C12.4358 5.30608 12.5783 5.24975 12.7505 5.24975C12.9225 5.24975 13.0648 5.30608 13.1773 5.41875C13.2899 5.53125 13.3462 5.67366 13.3462 5.846V10.1535C13.3462 10.3258 13.2898 10.4682 13.177 10.5807ZM15.677 8.58075C15.5642 8.69342 15.4217 8.74975 15.2495 8.74975C15.0775 8.74975 14.9352 8.69342 14.8227 8.58075C14.7101 8.46825 14.6537 8.32583 14.6537 8.1535V7.846C14.6537 7.67366 14.7102 7.53125 14.823 7.41875C14.9358 7.30608 15.0783 7.24975 15.2505 7.24975C15.4225 7.24975 15.5648 7.30608 15.6772 7.41875C15.7899 7.53125 15.8462 7.67366 15.8462 7.846V8.1535C15.8462 8.32583 15.7898 8.46825 15.677 8.58075ZM2.0365 17.5015L4.0385 15.4997H17.6923C18.1974 15.4997 18.625 15.3247 18.975 14.9747C19.325 14.6247 19.5 14.1972 19.5 13.692V4.66672L19.2762 4.89051C19.005 5.16176 18.6886 5.29739 18.3271 5.29739C17.9656 5.29739 17.6492 5.16176 17.378 4.89051L15.3098 2.82239C15.0386 2.55139 14.903 2.23501 14.903 1.87326C14.903 1.51176 15.0386 1.19551 15.3098 0.924509L15.7345 0.499748H2.30775C1.80258 0.499748 1.375 0.674748 1.025 1.02475C0.675 1.37475 0.5 1.80233 0.5 2.3075V16.8535C0.5 17.2567 0.684917 17.5367 1.05475 17.6935C1.42475 17.8502 1.752 17.7862 2.0365 17.5015ZM17.0558 0.499748L16.3148 1.24082C16.134 1.42149 16.0436 1.63232 16.0436 1.87332C16.0436 2.11449 16.134 2.32541 16.3148 2.50607L17.6936 3.88482C17.8744 4.06565 18.0853 4.15607 18.3263 4.15607C18.5673 4.15607 18.7783 4.06565 18.9591 3.88482L19.5 3.34391V2.3075C19.5 1.80233 19.325 1.37475 18.975 1.02475C18.625 0.674748 18.1974 0.499748 17.6923 0.499748H17.0558Z" fill="currentColor"/>
</svg>
