<svg width="350" height="382" viewBox="0 0 350 382" fill="none" xmlns="http://www.w3.org/2000/svg">
<rect width="349.333" height="382" rx="2" fill="#FFFCFA"/>
<rect x="0.5" y="0.5" width="348.333" height="381" rx="1.5" stroke="#162D3A" stroke-opacity="0.1"/>
<rect x="32.8398" y="40.4287" width="58.2857" height="58.2857" rx="29.1429" fill="white"/>
<rect x="33.3256" y="40.9144" width="57.3143" height="57.3143" rx="28.6571" stroke="#FFDDDD" stroke-opacity="0.5" stroke-width="0.971429"/>
<rect x="37.2123" y="44.8002" width="49.5429" height="49.5429" rx="24.7714" fill="white" fill-opacity="0.7"/>
<rect x="37.2123" y="44.8002" width="49.5429" height="49.5429" rx="24.7714" stroke="white" stroke-width="0.971429"/>
<g clip-path="url(#clip0_9249_68941)">
<path d="M66.1601 76.0845C67.0958 75.8934 67.9547 75.4314 68.63 74.7561C69.3054 74.0808 69.7673 73.2219 69.9584 72.2862L68.5309 71.9948C68.3969 72.6506 68.0732 73.2526 67.5998 73.7259C67.1265 74.1993 66.5245 74.523 65.8687 74.657L66.1601 76.0845ZM66.1601 74.7148C66.9057 74.8668 66.9057 75.9325 66.1601 76.0845L65.8687 74.657C65.0604 74.8221 65.0604 75.9771 65.8687 76.1423L66.1601 74.7148ZM69.9584 78.5131C69.7673 77.5773 69.3054 76.7184 68.63 76.0431C67.9547 75.3678 67.0958 74.9059 66.1601 74.7148L65.8687 76.1423C66.5245 76.2762 67.1265 76.6 67.5998 77.0733C68.0732 77.5466 68.3969 78.1486 68.5309 78.8045L69.9584 78.5131ZM68.5887 78.5131C68.7407 77.7675 69.8064 77.7675 69.9584 78.5131L68.5309 78.8045C68.696 79.6127 69.851 79.6127 70.0162 78.8045L68.5887 78.5131ZM72.387 74.7148C71.4512 74.9059 70.5923 75.3678 69.917 76.0431C69.2417 76.7184 68.7798 77.5773 68.5887 78.5131L70.0162 78.8045C70.1501 78.1486 70.4739 77.5466 70.9472 77.0733C71.4205 76.6 72.0226 76.2762 72.6784 76.1423L72.387 74.7148ZM72.387 76.0845C71.6414 75.9325 71.6414 74.8668 72.387 74.7148L72.6784 76.1423C73.4866 75.9771 73.4866 74.8221 72.6784 74.657L72.387 76.0845ZM68.5887 72.2862C68.7798 73.2219 69.2417 74.0808 69.917 74.7561C70.5923 75.4314 71.4512 75.8934 72.387 76.0845L72.6784 74.657C72.0226 74.523 71.4205 74.1993 70.9472 73.7259C70.4739 73.2526 70.1501 72.6506 70.0162 71.9948L68.5887 72.2862ZM70.0162 71.9948C69.851 71.1865 68.696 71.1865 68.5309 71.9948L69.9584 72.2862C69.8059 73.0318 68.7407 73.0318 68.5887 72.2862L70.0162 71.9948ZM64.6286 67.9935C64.6898 67.6962 65.1144 67.6962 65.1756 67.9935C65.2415 68.3146 65.4003 68.6093 65.6321 68.8411C65.8639 69.0729 66.1586 69.2316 66.4797 69.2976C66.777 69.3588 66.777 69.7833 66.4797 69.8445C66.1586 69.9105 65.8639 70.0692 65.6321 70.301C65.4003 70.5328 65.2415 70.8275 65.1756 71.1487C65.1144 71.4459 64.6898 71.4459 64.6286 71.1487C64.5627 70.8275 64.4039 70.5328 64.1721 70.301C63.9403 70.0692 63.6456 69.9105 63.3245 69.8445C63.0272 69.7833 63.0272 69.3588 63.3245 69.2976C63.6456 69.2316 63.9403 69.0729 64.1721 68.8411C64.4039 68.6093 64.5627 68.3146 64.6286 67.9935Z" fill="#D11E28"/>
<path d="M63.3059 77.9825C63.4755 77.89 63.6015 77.7339 63.6561 77.5486C63.7106 77.3632 63.6893 77.1637 63.5968 76.9941C63.5043 76.8244 63.3482 76.6985 63.1629 76.6439C62.9775 76.5893 62.7781 76.6107 62.6084 76.7031L63.3059 77.9825ZM69.5143 69.0857C69.5143 69.2789 69.591 69.4642 69.7277 69.6009C69.8643 69.7375 70.0496 69.8143 70.2429 69.8143C70.4361 69.8143 70.6214 69.7375 70.758 69.6009C70.8947 69.4642 70.9714 69.2789 70.9714 69.0857H69.5143ZM53.7286 76.1091H53V76.1111L53.7286 76.1091ZM56.2815 77.949L56.5098 78.6407H56.5117L56.2815 77.949ZM58.5857 64.4714C58.3925 64.4714 58.2072 64.5482 58.0705 64.6848C57.9339 64.8214 57.8571 65.0067 57.8571 65.2C57.8571 65.3932 57.9339 65.5785 58.0705 65.7151C58.2072 65.8518 58.3925 65.9285 58.5857 65.9285V64.4714ZM65.3857 65.9285C65.5789 65.9285 65.7643 65.8518 65.9009 65.7151C66.0375 65.5785 66.1143 65.3932 66.1143 65.2C66.1143 65.0067 66.0375 64.8214 65.9009 64.6848C65.7643 64.5482 65.5789 64.4714 65.3857 64.4714V65.9285ZM58.5857 68.8428C58.3925 68.8428 58.2072 68.9196 58.0705 69.0562C57.9339 69.1929 57.8571 69.3782 57.8571 69.5714C57.8571 69.7646 57.9339 69.9499 58.0705 70.0866C58.2072 70.2232 58.3925 70.3 58.5857 70.3V68.8428ZM60.2857 70.3C60.4789 70.3 60.6643 70.2232 60.8009 70.0866C60.9375 69.9499 61.0143 69.7646 61.0143 69.5714C61.0143 69.3782 60.9375 69.1929 60.8009 69.0562C60.6643 68.9196 60.4789 68.8428 60.2857 68.8428V70.3ZM64.0257 59.6143H59.9457V61.0714H64.0257V59.6143ZM61.9095 78.7441L63.3059 77.9825L62.6084 76.7031L61.2115 77.4652L61.9095 78.7441ZM70.9714 69.0857V66.56H69.5143V69.0857H70.9714ZM57.216 78.4056C57.4577 78.3252 57.7146 78.301 57.9671 78.3349C58.2196 78.3687 58.4616 78.4597 58.6736 78.6008L59.4819 77.3885C59.0851 77.1241 58.6332 76.9538 58.1607 76.8905C57.6882 76.8272 57.2074 76.8726 56.7551 77.0232L57.216 78.4056ZM53 76.1111C53.0049 77.9286 54.784 79.2114 56.5098 78.6407L56.0527 77.2573C55.8705 77.3176 55.6766 77.3338 55.4869 77.3047C55.2972 77.2755 55.1171 77.2017 54.9614 77.0895C54.8057 76.9773 54.6788 76.8297 54.5911 76.659C54.5035 76.4882 54.4576 76.2991 54.4571 76.1072L53 76.1111ZM59.9457 59.6143C58.8694 59.6143 58.0189 59.6138 57.334 59.6696C56.6414 59.7265 56.0551 59.8445 55.5199 60.117L56.1809 61.4153C56.4767 61.2647 56.8503 61.171 57.453 61.1219C58.0641 61.0719 58.8456 61.0714 59.9457 61.0714V59.6143ZM54.4571 66.56C54.4571 65.4598 54.4576 64.6783 54.5077 64.0673C54.5567 63.4645 54.6505 63.091 54.801 62.7952L53.5027 62.1337C53.2302 62.6689 53.1122 63.2557 53.0554 63.9483C52.9995 64.6331 53 65.4836 53 66.56H54.4571ZM55.5199 60.117C54.6516 60.5594 53.9451 61.2653 53.5027 62.1337L54.801 62.7952C55.1038 62.2012 55.5869 61.7179 56.1809 61.4153L55.5199 60.117ZM58.6736 78.6008C59.1488 78.9173 59.7013 79.0978 60.2716 79.1231C60.8419 79.1483 61.4082 79.0173 61.9095 78.7441L61.2115 77.4652C60.9435 77.6111 60.6408 77.6811 60.336 77.6675C60.0312 77.654 59.7359 77.5575 59.4819 77.3885L58.6736 78.6008ZM64.0257 61.0714C65.1259 61.0714 65.9069 61.0719 66.5184 61.1219C67.1212 61.171 67.4947 61.2647 67.7905 61.4153L68.4515 60.117C67.9163 59.8445 67.33 59.7265 66.6369 59.6696C65.9525 59.6138 65.1021 59.6143 64.0257 59.6143V61.0714ZM70.9714 66.56C70.9714 65.4836 70.9719 64.6331 70.9161 63.9483C70.8592 63.2557 70.7412 62.6694 70.4687 62.1341L69.1694 62.7957C69.32 63.0915 69.4142 63.465 69.4633 64.0678C69.5133 64.6788 69.5138 65.4603 69.5138 66.5605L70.9714 66.56ZM67.7905 61.4153C68.3846 61.718 68.8672 62.201 69.1699 62.7952L70.4687 62.1341C70.0263 61.2658 69.3199 60.5594 68.4515 60.117L67.7905 61.4153ZM58.5857 65.9285H65.3857V64.4714H58.5857V65.9285ZM58.5857 70.3H60.2857V68.8428H58.5857V70.3ZM53 66.56V76.1091H54.4571V66.56H53ZM56.5117 78.6407L57.216 78.4056L56.7546 77.0232L56.0508 77.2578L56.5117 78.6407Z" fill="#1F1E1C"/>
</g>
<rect x="145.668" y="21" width="58.2857" height="58.2857" rx="29.1429" fill="white"/>
<rect x="146.154" y="21.4857" width="57.3143" height="57.3143" rx="28.6571" stroke="#FFDDDD" stroke-opacity="0.5" stroke-width="0.971429"/>
<rect x="150.04" y="25.3715" width="49.5429" height="49.5429" rx="24.7714" fill="white" fill-opacity="0.7"/>
<rect x="150.04" y="25.3715" width="49.5429" height="49.5429" rx="24.7714" stroke="white" stroke-width="0.971429"/>
<path fill-rule="evenodd" clip-rule="evenodd" d="M167.316 44.1927C167.255 43.8954 166.83 43.8954 166.769 44.1927C166.703 44.5138 166.545 44.8085 166.313 45.0403C166.081 45.2721 165.786 45.4308 165.465 45.4968C165.168 45.558 165.168 45.9825 165.465 46.0437C165.786 46.1097 166.081 46.2684 166.313 46.5002C166.545 46.732 166.703 47.0268 166.769 47.3479C166.83 47.6451 167.255 47.6451 167.316 47.3479C167.382 47.0267 167.541 46.7319 167.772 46.5001C168.004 46.2683 168.299 46.1096 168.62 46.0437C168.918 45.9825 168.918 45.558 168.62 45.4968C168.299 45.4309 168.004 45.2722 167.772 45.0404C167.541 44.8086 167.382 44.5138 167.316 44.1927ZM170.412 47.5125C170.311 47.0171 169.603 47.0171 169.501 47.5125C169.392 48.0481 169.128 48.5397 168.741 48.9262C168.355 49.3127 167.863 49.5772 167.328 49.6866C166.832 49.7876 166.832 50.4958 167.328 50.5973C167.863 50.7067 168.355 50.971 168.741 51.3575C169.128 51.7439 169.392 52.2354 169.501 52.7709C169.603 53.2663 170.311 53.2663 170.412 52.7709C170.522 52.2353 170.786 51.7438 171.173 51.3574C171.559 50.9709 172.051 50.7066 172.586 50.5973C173.082 50.4958 173.082 49.7876 172.586 49.6866C172.051 49.5773 171.559 49.3129 171.172 48.9263C170.786 48.5398 170.521 48.0481 170.412 47.5125Z" fill="#D11E28"/>
<path d="M175.054 41.8848C175.054 41.6916 175.13 41.5063 175.267 41.3696C175.404 41.233 175.589 41.1562 175.782 41.1562C175.975 41.1562 176.161 41.233 176.297 41.3696C176.434 41.5063 176.511 41.6916 176.511 41.8848H175.054ZM176.511 58.3991C176.511 58.5923 176.434 58.7777 176.297 58.9143C176.161 59.0509 175.975 59.1277 175.782 59.1277C175.589 59.1277 175.404 59.0509 175.267 58.9143C175.13 58.7777 175.054 58.5923 175.054 58.3991H176.511ZM171.168 45.7705C171.168 45.5773 171.245 45.392 171.381 45.2554C171.518 45.1187 171.703 45.042 171.897 45.042C172.09 45.042 172.275 45.1187 172.412 45.2554C172.548 45.392 172.625 45.5773 172.625 45.7705H171.168ZM172.625 46.742C172.625 46.9352 172.548 47.1205 172.412 47.2571C172.275 47.3938 172.09 47.4705 171.897 47.4705C171.703 47.4705 171.518 47.3938 171.381 47.2571C171.245 47.1205 171.168 46.9352 171.168 46.742H172.625ZM171.168 53.542C171.168 53.3487 171.245 53.1634 171.381 53.0268C171.518 52.8902 171.703 52.8134 171.897 52.8134C172.09 52.8134 172.275 52.8902 172.412 53.0268C172.548 53.1634 172.625 53.3487 172.625 53.542H171.168ZM172.625 54.5134C172.625 54.7066 172.548 54.8919 172.412 55.0286C172.275 55.1652 172.09 55.242 171.897 55.242C171.703 55.242 171.518 55.1652 171.381 55.0286C171.245 54.8919 171.168 54.7066 171.168 54.5134H172.625ZM178.939 45.7705C178.939 45.5773 179.016 45.392 179.153 45.2554C179.289 45.1187 179.475 45.042 179.668 45.042C179.861 45.042 180.047 45.1187 180.183 45.2554C180.32 45.392 180.397 45.5773 180.397 45.7705H178.939ZM180.397 54.5134C180.397 54.7066 180.32 54.8919 180.183 55.0286C180.047 55.1652 179.861 55.242 179.668 55.242C179.475 55.242 179.289 55.1652 179.153 55.0286C179.016 54.8919 178.939 54.7066 178.939 54.5134H180.397ZM182.825 49.1705C182.825 48.9773 182.902 48.792 183.039 48.6554C183.175 48.5187 183.36 48.442 183.554 48.442C183.747 48.442 183.932 48.5187 184.069 48.6554C184.205 48.792 184.282 48.9773 184.282 49.1705H182.825ZM184.282 51.1134C184.282 51.3066 184.205 51.4919 184.069 51.6286C183.932 51.7652 183.747 51.842 183.554 51.842C183.36 51.842 183.175 51.7652 183.039 51.6286C182.902 51.4919 182.825 51.3066 182.825 51.1134H184.282ZM176.511 41.8848V58.3991H175.054V41.8848H176.511ZM172.625 45.7705V46.742H171.168V45.7705H172.625ZM172.625 53.542V54.5134H171.168V53.542H172.625ZM180.397 45.7705V54.5134H178.939V45.7705H180.397ZM184.282 49.1705V51.1134H182.825V49.1705H184.282Z" fill="#1F1E1C"/>
<rect x="258.211" y="40.4287" width="58.2857" height="58.2857" rx="29.1429" fill="white"/>
<rect x="258.697" y="40.9144" width="57.3143" height="57.3143" rx="28.6571" stroke="#FFDDDD" stroke-opacity="0.5" stroke-width="0.971429"/>
<rect x="262.583" y="44.8002" width="49.5429" height="49.5429" rx="24.7714" fill="white" fill-opacity="0.7"/>
<rect x="262.583" y="44.8002" width="49.5429" height="49.5429" rx="24.7714" stroke="white" stroke-width="0.971429"/>
<path d="M293.214 60.1411C293.315 59.6457 294.023 59.6457 294.124 60.1411C294.234 60.6766 294.498 61.1681 294.884 61.5545C295.271 61.9409 295.762 62.2053 296.298 62.3147C296.793 62.4162 296.793 63.1244 296.298 63.2259C295.762 63.3353 295.271 63.5996 294.884 63.986C294.498 64.3725 294.234 64.864 294.124 65.3994C294.023 65.8949 293.315 65.8949 293.214 65.3994C293.104 64.8639 292.84 64.3724 292.453 63.9859C292.067 63.5995 291.575 63.3352 291.04 63.2259C290.544 63.1244 290.544 62.4162 291.04 62.3147C291.575 62.2054 292.067 61.9411 292.453 61.5546C292.84 61.1682 293.104 60.6766 293.214 60.1411Z" fill="#D11E28"/>
<path d="M280.024 75.3892C279.892 75.5305 279.822 75.7184 279.829 75.9115C279.835 76.1047 279.918 76.2873 280.06 76.4191C280.201 76.551 280.389 76.6213 280.582 76.6146C280.775 76.6079 280.958 76.5247 281.09 76.3834L280.024 75.3892ZM293.624 76.3834C293.756 76.5247 293.939 76.6079 294.132 76.6146C294.325 76.6213 294.513 76.551 294.654 76.4191C294.795 76.2873 294.879 76.1047 294.885 75.9115C294.892 75.7184 294.822 75.5305 294.69 75.3892L293.624 76.3834ZM289.604 60.8692C289.791 60.9174 289.99 60.8893 290.156 60.791C290.322 60.6927 290.443 60.5323 290.491 60.3451C290.539 60.158 290.511 59.9593 290.413 59.7929C290.315 59.6265 290.154 59.5059 289.967 59.4577L289.604 60.8692ZM296.93 65.3941C296.853 65.2171 296.708 65.078 296.528 65.0076C296.348 64.9371 296.148 64.941 295.971 65.0184C295.794 65.0959 295.655 65.2404 295.584 65.4204C295.514 65.6003 295.518 65.8009 295.595 65.978L296.93 65.3941ZM281.09 76.3834C284.479 72.7522 290.235 72.7522 293.624 76.3834L294.69 75.3892C290.724 71.1411 283.989 71.1411 280.024 75.3892L281.09 76.3834ZM287.357 69.0861C286.97 69.0861 286.6 68.9325 286.327 68.6593C286.053 68.386 285.9 68.0154 285.9 67.6289H284.443C284.443 68.4018 284.75 69.1431 285.296 69.6896C285.843 70.2362 286.584 70.5432 287.357 70.5432V69.0861ZM288.814 67.6289C288.814 68.0154 288.661 68.386 288.387 68.6593C288.114 68.9325 287.743 69.0861 287.357 69.0861V70.5432C288.13 70.5432 288.871 70.2362 289.418 69.6896C289.964 69.1431 290.271 68.4018 290.271 67.6289H288.814ZM287.357 66.1718C287.743 66.1718 288.114 66.3253 288.387 66.5986C288.661 66.8718 288.814 67.2425 288.814 67.6289H290.271C290.271 66.856 289.964 66.1147 289.418 65.5682C288.871 65.0217 288.13 64.7146 287.357 64.7146V66.1718ZM287.357 64.7146C286.584 64.7146 285.843 65.0217 285.296 65.5682C284.75 66.1147 284.443 66.856 284.443 67.6289H285.9C285.9 67.2425 286.053 66.8718 286.327 66.5986C286.6 66.3253 286.97 66.1718 287.357 66.1718V64.7146ZM296.343 69.5718C296.343 74.5343 292.319 78.5575 287.357 78.5575V80.0146C293.124 80.0146 297.8 75.3391 297.8 69.5718H296.343ZM287.357 78.5575C282.394 78.5575 278.371 74.5343 278.371 69.5718H276.914C276.914 75.3391 281.59 80.0146 287.357 80.0146V78.5575ZM278.371 69.5718C278.371 64.6092 282.394 60.5861 287.357 60.5861V59.1289C281.59 59.1289 276.914 63.8044 276.914 69.5718H278.371ZM287.357 60.5861C288.134 60.5861 288.887 60.6847 289.604 60.8692L289.967 59.4577C289.114 59.2385 288.237 59.128 287.357 59.1289V60.5861ZM295.595 65.978C296.09 67.1114 296.345 68.3349 296.343 69.5718H297.8C297.8 68.0879 297.49 66.674 296.93 65.3941L295.595 65.978Z" fill="#1F1E1C"/>
<rect x="128.629" y="144.963" width="91.56" height="91.56" rx="45.78" fill="#F2FAF9" fill-opacity="0.3"/>
<rect x="129.038" y="145.372" width="90.7427" height="90.7427" rx="45.3713" stroke="#D11E28" stroke-opacity="0.04" stroke-width="0.817308"/>
<rect x="132.516" y="148.849" width="83.7886" height="83.7886" rx="41.8943" fill="#F2FAF9" fill-opacity="0.5"/>
<rect x="132.924" y="149.257" width="82.9713" height="82.9713" rx="41.4856" stroke="#D11E28" stroke-opacity="0.08" stroke-width="0.817308"/>
<rect x="136.402" y="152.734" width="76.0171" height="76.0171" rx="38.0086" fill="url(#paint0_linear_9249_68941)"/>
<g clip-path="url(#clip1_9249_68941)">
<mask id="mask0_9249_68941" style="mask-type:luminance" maskUnits="userSpaceOnUse" x="154" y="171" width="40" height="40">
<path d="M193.838 171.312H154.98V210.17H193.838V171.312Z" fill="white"/>
</mask>
<g mask="url(#mask0_9249_68941)">
<path d="M159.342 197.733C161.784 197.234 164.025 196.028 165.788 194.266C167.55 192.503 168.756 190.261 169.255 187.819L166.876 187.333C166.472 189.309 165.497 191.122 164.071 192.548C162.645 193.974 160.831 194.95 158.855 195.354L159.342 197.733ZM159.342 196.706C159.459 196.734 159.563 196.799 159.639 196.892C159.714 196.985 159.757 197.1 159.76 197.22C159.757 197.34 159.714 197.455 159.639 197.548C159.563 197.641 159.459 197.706 159.342 197.733L158.855 195.354C156.824 195.769 156.824 198.67 158.855 199.086L159.342 196.706ZM169.255 206.62C168.756 204.178 167.55 201.936 165.788 200.174C164.025 198.411 161.784 197.205 159.342 196.706L158.855 199.086C160.831 199.489 162.645 200.465 164.071 201.891C165.497 203.317 166.472 205.13 166.876 207.106L169.255 206.62ZM168.229 206.62C168.256 206.503 168.321 206.399 168.414 206.323C168.507 206.247 168.622 206.205 168.742 206.201C168.862 206.204 168.978 206.247 169.07 206.323C169.163 206.399 169.229 206.504 169.256 206.621L166.876 207.106C167.291 209.137 170.193 209.137 170.608 207.106L168.229 206.62ZM178.142 196.706C175.7 197.205 173.459 198.411 171.696 200.174C169.934 201.936 168.728 204.178 168.229 206.62L170.608 207.106C171.012 205.13 171.987 203.317 173.413 201.891C174.839 200.465 176.653 199.489 178.629 199.086L178.142 196.706ZM178.142 197.733C178.026 197.706 177.921 197.64 177.846 197.548C177.77 197.455 177.727 197.339 177.724 197.22C177.727 197.1 177.77 196.984 177.846 196.891C177.922 196.799 178.026 196.733 178.143 196.706L178.629 199.086C180.66 198.67 180.66 195.769 178.629 195.354L178.142 197.733ZM168.229 187.819C168.728 190.261 169.934 192.503 171.696 194.266C173.459 196.028 175.7 197.234 178.142 197.733L178.629 195.354C176.653 194.95 174.839 193.974 173.413 192.548C171.987 191.122 171.012 189.309 170.608 187.333L168.229 187.819ZM170.608 187.333C170.193 185.302 167.291 185.302 166.876 187.333L169.256 187.819C169.229 187.936 169.164 188.04 169.071 188.116C168.978 188.192 168.862 188.235 168.742 188.238C168.622 188.235 168.507 188.192 168.414 188.116C168.321 188.04 168.256 187.935 168.229 187.819L170.608 187.333Z" fill="white"/>
<path d="M180.552 188.647C182.111 188.328 183.543 187.559 184.668 186.433C185.794 185.308 186.564 183.876 186.882 182.317L184.503 181.831C184.28 182.924 183.74 183.927 182.951 184.716C182.162 185.505 181.159 186.045 180.066 186.268L180.552 188.647ZM180.552 186.364C181.794 186.618 181.794 188.394 180.552 188.647L180.066 186.268C178.719 186.543 178.719 188.468 180.066 188.743L180.552 186.364ZM186.882 192.695C186.564 191.135 185.794 189.704 184.668 188.578C183.543 187.453 182.111 186.683 180.552 186.364L180.066 188.743C181.159 188.967 182.162 189.506 182.951 190.295C183.74 191.084 184.28 192.087 184.503 193.18L186.882 192.695ZM184.599 192.695C184.853 191.452 186.629 191.452 186.882 192.695L184.503 193.18C184.778 194.527 186.703 194.527 186.979 193.18L184.599 192.695ZM190.93 186.364C189.37 186.683 187.939 187.453 186.813 188.578C185.688 189.704 184.918 191.135 184.599 192.695L186.979 193.18C187.202 192.087 187.741 191.084 188.53 190.295C189.319 189.506 190.323 188.967 191.416 188.743L190.93 186.364ZM190.93 188.647C189.687 188.394 189.687 186.618 190.93 186.364L191.416 188.743C192.763 188.468 192.763 186.543 191.416 186.268L190.93 188.647ZM184.599 182.317C184.918 183.876 185.688 185.308 186.813 186.433C187.939 187.559 189.37 188.328 190.93 188.647L191.416 186.268C190.323 186.045 189.319 185.505 188.53 184.716C187.741 183.927 187.202 182.924 186.979 181.831L184.599 182.317ZM186.979 181.831C186.703 180.484 184.778 180.484 184.503 181.831L186.882 182.317C186.628 183.559 184.853 183.559 184.599 182.317L186.979 181.831ZM173.649 173.409C173.817 172.584 174.998 172.584 175.167 173.409C175.349 174.302 175.79 175.121 176.434 175.765C177.078 176.409 177.897 176.85 178.789 177.032C179.615 177.201 179.615 178.381 178.789 178.551C177.897 178.733 177.078 179.173 176.434 179.818C175.79 180.462 175.349 181.281 175.167 182.173C174.998 182.999 173.817 182.999 173.649 182.173C173.467 181.281 173.026 180.461 172.382 179.817C171.737 179.173 170.918 178.733 170.026 178.551C169.2 178.381 169.2 177.201 170.026 177.032C170.918 176.85 171.737 176.409 172.382 175.765C173.026 175.121 173.467 174.302 173.649 173.409Z" fill="white"/>
</g>
</g>
<rect x="30.668" y="283" width="58.2857" height="58.2857" rx="29.1429" fill="white"/>
<rect x="31.1537" y="283.486" width="57.3143" height="57.3143" rx="28.6571" stroke="#FFDDDD" stroke-opacity="0.5" stroke-width="0.971429"/>
<rect x="35.0404" y="287.371" width="49.5429" height="49.5429" rx="24.7714" fill="white" fill-opacity="0.7"/>
<rect x="35.0404" y="287.371" width="49.5429" height="49.5429" rx="24.7714" stroke="white" stroke-width="0.971429"/>
<g clip-path="url(#clip2_9249_68941)">
<path d="M63.0336 306.024C64.0829 305.81 65.0466 305.292 65.8039 304.534C66.5613 303.777 67.0793 302.814 67.2938 301.765L65.8658 301.473C65.7085 302.242 65.3286 302.949 64.7733 303.504C64.2181 304.059 63.5119 304.439 62.7426 304.596L63.0336 306.024ZM63.0341 304.662C63.7753 304.814 63.7748 305.873 63.0336 306.024L62.7426 304.596C61.9295 304.763 61.9295 305.924 62.7426 306.09L63.0341 304.662ZM67.2938 308.922C67.0793 307.873 66.5613 306.909 65.8039 306.152C65.0466 305.395 64.0834 304.877 63.0341 304.662L62.7426 306.09C63.5119 306.248 64.2181 306.627 64.7733 307.183C65.3286 307.738 65.7085 308.444 65.8658 309.213L67.2938 308.922ZM65.9318 308.922C66.0834 308.181 67.1422 308.181 67.2938 308.922L65.8658 309.213C66.0324 310.027 67.1937 310.027 67.3598 309.213L65.9318 308.922ZM70.1915 304.662C69.1422 304.877 68.179 305.395 67.4217 306.152C66.6643 306.909 66.1462 307.873 65.9318 308.922L67.3598 309.213C67.5171 308.444 67.897 307.738 68.4523 307.183C69.0075 306.627 69.7137 306.248 70.483 306.09L70.1915 304.662ZM70.1915 306.024C69.4503 305.873 69.4503 304.814 70.1915 304.662L70.483 306.09C71.2961 305.924 71.2961 304.763 70.483 304.597L70.1915 306.024ZM65.9318 301.765C66.1462 302.814 66.6643 303.777 67.4217 304.534C68.179 305.292 69.1422 305.81 70.1915 306.024L70.483 304.596C69.7137 304.439 69.0075 304.059 68.4523 303.504C67.897 302.949 67.5171 302.242 67.3598 301.473L65.9318 301.765ZM67.3598 301.473C67.1932 300.66 66.0319 300.66 65.8658 301.473L67.2938 301.765C67.1422 302.506 66.0834 302.506 65.9318 301.765L67.3598 301.473Z" fill="#D11E28"/>
<path d="M70.2568 311.657C70.2568 311.463 70.18 311.278 70.0434 311.141C69.9068 311.005 69.7215 310.928 69.5282 310.928C69.335 310.928 69.1497 311.005 69.0131 311.141C68.8764 311.278 68.7997 311.463 68.7997 311.657H70.2568ZM59.814 304.128C60.0072 304.128 60.1925 304.051 60.3291 303.915C60.4658 303.778 60.5425 303.593 60.5425 303.399C60.5425 303.206 60.4658 303.021 60.3291 302.884C60.1925 302.748 60.0072 302.671 59.814 302.671V304.128ZM55.8466 308.622C55.6859 308.517 55.4903 308.48 55.3024 308.519C55.1145 308.558 54.9494 308.669 54.843 308.828C54.7366 308.988 54.6974 309.183 54.734 309.371C54.7706 309.56 54.88 309.726 55.0384 309.834L55.8466 308.622ZM63.1756 310.451C63.3281 310.332 63.4272 310.158 63.4512 309.966C63.4752 309.774 63.422 309.581 63.3033 309.428C63.1847 309.276 63.0103 309.176 62.8186 309.153C62.6268 309.129 62.4334 309.182 62.2809 309.3L63.1756 310.451ZM63.3111 319.185H56.3168V320.642H63.3111V319.185ZM50.8282 313.697V309.617H49.3711V313.697H50.8282ZM68.7997 311.657V313.697H70.2568V311.657H68.7997ZM56.3168 304.128H59.814V302.671H56.3168V304.128ZM56.3168 319.185C55.2167 319.185 54.4352 319.185 53.8241 319.135C53.2214 319.086 52.8478 318.992 52.552 318.841L51.8905 320.14C52.4258 320.412 53.0125 320.53 53.7051 320.587C54.39 320.643 55.2405 320.642 56.3168 320.642V319.185ZM49.3711 313.697C49.3711 314.772 49.3706 315.623 49.4265 316.308C49.4833 317.001 49.6013 317.587 49.8738 318.122L51.1721 317.461C51.0216 317.166 50.9278 316.792 50.8788 316.189C50.8287 315.578 50.8282 314.797 50.8282 313.697H49.3711ZM52.5525 318.841C51.9583 318.538 51.475 318.055 51.1721 317.461L49.8738 318.122C50.3162 318.991 51.0222 319.697 51.8905 320.14L52.5525 318.841ZM63.3111 320.642C64.387 320.642 65.2379 320.643 65.9223 320.587C66.6154 320.53 67.2022 320.412 67.7374 320.14L67.0754 318.84C66.7796 318.991 66.4061 319.085 65.8033 319.134C65.1918 319.184 64.4107 319.185 63.3106 319.185L63.3111 320.642ZM68.7997 313.697C68.7997 314.797 68.7992 315.578 68.7491 316.189C68.7001 316.792 68.6063 317.166 68.4553 317.461L69.7541 318.123C70.0266 317.588 70.1446 317.001 70.2014 316.308C70.2573 315.623 70.2568 314.773 70.2568 313.697H68.7997ZM67.7374 320.14C68.6057 319.697 69.3117 318.991 69.7541 318.123L68.4548 317.461C68.1521 318.055 67.6693 318.538 67.0754 318.84L67.7374 320.14ZM50.8282 309.617C50.8282 308.516 50.8287 307.735 50.8788 307.124C50.9278 306.521 51.0216 306.148 51.1721 305.852L49.8738 305.191C49.6013 305.726 49.4833 306.312 49.4265 307.005C49.3706 307.69 49.3711 308.54 49.3711 309.617H50.8282ZM56.3168 302.671C55.2405 302.671 54.39 302.67 53.7051 302.726C53.0125 302.783 52.4258 302.901 51.8905 303.174L52.5525 304.472C52.8483 304.321 53.2218 304.228 53.8246 304.179C54.4356 304.129 55.2172 304.128 56.3173 304.128L56.3168 302.671ZM51.1721 305.852C51.4748 305.258 51.958 304.774 52.5525 304.471L51.8905 303.174C51.0222 303.616 50.3162 304.322 49.8738 305.191L51.1721 305.852ZM55.0384 309.834L57.5704 311.522L58.3787 310.31L55.8466 308.622L55.0384 309.834ZM62.006 311.36L63.1756 310.451L62.2809 309.3L61.1118 310.21L62.006 311.36ZM57.5704 311.522C58.2332 311.964 59.0183 312.186 59.8143 312.157C60.6104 312.128 61.3771 311.849 62.006 311.36L61.1118 310.21C60.7243 310.511 60.2518 310.683 59.7613 310.701C59.2708 310.719 58.7871 310.582 58.3787 310.31L57.5704 311.522Z" fill="#1F1E1C"/>
</g>
<rect x="145.523" y="302.714" width="58.2857" height="58.2857" rx="29.1429" fill="white"/>
<rect x="146.009" y="303.2" width="57.3143" height="57.3143" rx="28.6571" stroke="#FFDDDD" stroke-opacity="0.5" stroke-width="0.971429"/>
<rect x="149.896" y="307.085" width="49.5429" height="49.5429" rx="24.7714" fill="white" fill-opacity="0.7"/>
<rect x="149.896" y="307.085" width="49.5429" height="49.5429" rx="24.7714" stroke="white" stroke-width="0.971429"/>
<path d="M168.323 327.771C168.221 327.275 167.513 327.275 167.412 327.771C167.303 328.306 167.038 328.798 166.652 329.184C166.265 329.571 165.774 329.835 165.238 329.944C164.743 330.046 164.743 330.754 165.238 330.855C165.774 330.965 166.265 331.229 166.652 331.616C167.038 332.002 167.303 332.494 167.412 333.029C167.513 333.524 168.221 333.524 168.323 333.029C168.432 332.494 168.697 332.002 169.083 331.616C169.469 331.229 169.961 330.965 170.496 330.855C170.992 330.754 170.992 330.046 170.496 329.944C169.961 329.835 169.469 329.571 169.083 329.184C168.697 328.798 168.432 328.306 168.323 327.771ZM164.679 323.965C164.741 323.668 165.165 323.668 165.226 323.965C165.292 324.286 165.451 324.581 165.683 324.813C165.915 325.045 166.209 325.203 166.53 325.269C166.828 325.33 166.828 325.755 166.53 325.816C166.209 325.882 165.915 326.041 165.683 326.273C165.451 326.505 165.292 326.799 165.226 327.12C165.165 327.418 164.741 327.418 164.679 327.12C164.613 326.799 164.455 326.505 164.223 326.273C163.991 326.041 163.696 325.882 163.375 325.816C163.078 325.755 163.078 325.33 163.375 325.269C163.696 325.203 163.991 325.045 164.223 324.813C164.455 324.581 164.613 324.286 164.679 323.965Z" fill="#D11E28"/>
<path d="M170.364 325.715C170.18 325.769 170.024 325.892 169.931 326.059C169.837 326.226 169.813 326.423 169.863 326.608C169.914 326.793 170.035 326.95 170.201 327.046C170.367 327.142 170.564 327.169 170.749 327.121L170.364 325.715ZM167.464 335.32C167.468 335.13 167.398 334.946 167.269 334.807C167.14 334.668 166.962 334.585 166.772 334.576C166.583 334.566 166.397 334.631 166.254 334.756C166.112 334.881 166.024 335.057 166.009 335.246L167.464 335.32ZM167.733 338.714C167.664 338.781 167.608 338.861 167.57 338.95C167.532 339.039 167.512 339.135 167.511 339.231C167.51 339.328 167.529 339.424 167.565 339.514C167.602 339.603 167.656 339.685 167.725 339.753C167.793 339.821 167.874 339.875 167.964 339.912C168.054 339.949 168.15 339.967 168.246 339.966C168.343 339.965 168.439 339.945 168.527 339.907C168.616 339.869 168.697 339.813 168.764 339.743L167.733 338.714ZM173.452 335.056C173.589 334.919 173.665 334.734 173.665 334.54C173.665 334.347 173.588 334.162 173.452 334.025C173.315 333.889 173.13 333.812 172.936 333.812C172.743 333.812 172.558 333.889 172.421 334.026L173.452 335.056ZM180.87 332.377L180.355 332.892L180.785 333.322L181.285 332.976L180.87 332.377ZM175.1 326.607L174.501 326.192L174.155 326.692L174.585 327.122L175.1 326.607ZM171.894 341.485L176.622 341.245L176.548 339.79L171.82 340.03L171.894 341.485ZM181.761 337.117L181.946 336.441L180.541 336.056L180.356 336.731L181.761 337.117ZM180.5 330.976L176.501 326.978L175.471 328.008L179.47 332.006L180.5 330.976ZM171.036 325.531L170.363 325.715L170.749 327.121L171.421 326.936L171.036 325.531ZM166.009 335.247L165.992 335.583L167.448 335.657L167.465 335.32L166.009 335.247ZM176.501 326.978C175.803 326.279 175.344 325.809 174.782 325.523L174.122 326.822C174.429 326.978 174.703 327.24 175.471 328.008L176.501 326.978ZM171.421 326.936C172.469 326.649 172.837 326.556 173.18 326.573L173.25 325.118C172.619 325.087 171.988 325.27 171.036 325.531L171.421 326.936ZM174.782 325.523C174.305 325.281 173.783 325.143 173.25 325.118L173.18 326.573C173.508 326.589 173.829 326.674 174.122 326.822L174.782 325.523ZM181.946 336.441C182.207 335.489 182.39 334.858 182.36 334.227L180.904 334.297C180.921 334.64 180.829 335.009 180.541 336.056L181.946 336.441ZM179.47 332.006C180.238 332.774 180.499 333.048 180.655 333.355L181.954 332.696C181.669 332.132 181.198 331.674 180.5 330.976L179.47 332.006ZM182.36 334.227C182.334 333.694 182.196 333.172 181.954 332.696L180.655 333.355C180.803 333.648 180.888 333.969 180.904 334.297L182.36 334.227ZM176.622 341.246C177.831 341.184 178.637 341.155 179.323 340.844L178.721 339.517C178.348 339.687 177.882 339.722 176.548 339.79L176.622 341.246ZM180.356 336.731C180.002 338.019 179.867 338.465 179.622 338.793L180.787 339.668C181.239 339.065 181.441 338.284 181.761 337.117L180.356 336.731ZM179.323 340.844C179.902 340.581 180.406 340.176 180.787 339.668L179.622 338.793C179.387 339.106 179.077 339.355 178.721 339.517L179.323 340.844ZM171.82 340.03C170.87 340.078 170.204 340.111 169.685 340.093C169.173 340.076 168.879 340.01 168.657 339.903L168.022 341.214C168.505 341.448 169.032 341.529 169.635 341.55C170.23 341.57 170.97 341.532 171.894 341.485L171.82 340.03ZM165.992 335.582C165.945 336.507 165.907 337.247 165.927 337.842C165.948 338.445 166.029 338.972 166.263 339.455L167.575 338.821C167.468 338.599 167.401 338.304 167.384 337.793C167.366 337.274 167.4 336.607 167.448 335.657L165.992 335.582ZM168.657 339.903C168.185 339.674 167.804 339.293 167.575 338.821L166.263 339.455C166.635 340.223 167.254 340.843 168.022 341.214L168.657 339.903ZM168.764 339.743L173.452 335.056L172.421 334.026L167.733 338.714L168.764 339.743ZM180.596 325.199L181.437 326.04L182.278 326.881L183.308 325.85L182.468 325.01L181.627 324.169L180.596 325.199ZM181.928 330.758L180.456 331.778L181.285 332.976L182.758 331.956L181.928 330.758ZM181.386 331.862L175.615 326.091L174.585 327.122L180.355 332.892L181.386 331.862ZM175.699 327.022L176.719 325.549L175.521 324.72L174.501 326.192L175.699 327.022ZM182.278 326.881C182.762 327.365 183.091 327.695 183.321 327.969C183.547 328.238 183.624 328.392 183.655 328.508L185.063 328.133C184.953 327.719 184.722 327.37 184.437 327.032C184.157 326.698 183.774 326.316 183.308 325.85L182.278 326.881ZM182.758 331.956C183.299 331.581 183.744 331.274 184.08 330.996C184.42 330.713 184.71 330.413 184.893 330.025L183.574 329.404C183.523 329.512 183.42 329.65 183.15 329.874C182.874 330.102 182.491 330.369 181.928 330.758L182.758 331.956ZM183.655 328.508C183.735 328.807 183.706 329.124 183.574 329.404L184.893 330.025C185.17 329.434 185.231 328.764 185.063 328.133L183.655 328.508ZM181.627 324.169C181.161 323.703 180.779 323.32 180.445 323.04C180.107 322.756 179.759 322.524 179.344 322.414L178.969 323.823C179.085 323.853 179.239 323.93 179.508 324.156C179.782 324.386 180.112 324.715 180.596 325.199L181.627 324.169ZM176.719 325.549C177.108 324.986 177.375 324.603 177.603 324.328C177.827 324.057 177.966 323.954 178.074 323.903L177.452 322.585C177.065 322.768 176.764 323.057 176.481 323.398C176.203 323.733 175.896 324.178 175.521 324.72L176.719 325.549ZM179.344 322.415C178.713 322.246 178.043 322.307 177.452 322.585L178.073 323.904C178.352 323.772 178.67 323.743 178.969 323.823L179.344 322.415Z" fill="#1F1E1C"/>
<rect x="259.668" y="283" width="58.2857" height="58.2857" rx="29.1429" fill="white"/>
<rect x="260.154" y="283.486" width="57.3143" height="57.3143" rx="28.6571" stroke="#FFDDDD" stroke-opacity="0.5" stroke-width="0.971429"/>
<rect x="264.04" y="287.371" width="49.5429" height="49.5429" rx="24.7714" fill="white" fill-opacity="0.7"/>
<rect x="264.04" y="287.371" width="49.5429" height="49.5429" rx="24.7714" stroke="white" stroke-width="0.971429"/>
<g clip-path="url(#clip3_9249_68941)">
<path d="M287.068 306.513C286.132 306.322 285.273 305.86 284.598 305.185C283.923 304.51 283.461 303.651 283.27 302.715L284.697 302.424C284.831 303.079 285.155 303.681 285.628 304.154C286.102 304.628 286.704 304.952 287.359 305.086L287.068 306.513ZM287.068 305.144C286.322 305.296 286.322 306.361 287.068 306.513L287.359 305.086C288.168 305.251 288.168 306.406 287.359 306.571L287.068 305.144ZM283.27 308.942C283.461 308.006 283.923 307.147 284.598 306.472C285.273 305.797 286.132 305.335 287.068 305.144L287.359 306.571C286.704 306.705 286.102 307.029 285.628 307.502C285.155 307.975 284.831 308.577 284.697 309.233L283.27 308.942ZM284.639 308.942C284.487 308.196 283.422 308.196 283.27 308.942L284.697 309.233C284.532 310.042 283.377 310.042 283.212 309.233L284.639 308.942ZM280.841 305.144C281.777 305.335 282.636 305.797 283.311 306.472C283.986 307.147 284.448 308.006 284.639 308.942L283.212 309.233C283.078 308.578 282.754 307.976 282.281 307.502C281.807 307.029 281.205 306.705 280.55 306.571L280.841 305.144ZM280.841 306.513C281.587 306.361 281.587 305.296 280.841 305.144L280.55 306.571C279.741 306.406 279.741 305.251 280.55 305.086L280.841 306.513ZM284.639 302.715C284.448 303.651 283.986 304.51 283.311 305.185C282.636 305.86 281.777 306.322 280.841 306.513L280.55 305.086C281.205 304.952 281.807 304.628 282.281 304.155C282.754 303.681 283.078 303.079 283.212 302.424L284.639 302.715ZM283.212 302.424C283.377 301.615 284.532 301.615 284.697 302.424L283.269 302.715C283.422 303.461 284.487 303.461 284.639 302.715L283.212 302.424ZM278.824 300.851C278.885 300.554 279.31 300.554 279.371 300.851C279.437 301.172 279.596 301.467 279.827 301.699C280.059 301.93 280.354 302.089 280.675 302.155C280.972 302.216 280.972 302.641 280.675 302.702C280.354 302.768 280.059 302.927 279.827 303.158C279.596 303.39 279.437 303.685 279.371 304.006C279.31 304.303 278.885 304.303 278.824 304.006C278.758 303.685 278.599 303.39 278.367 303.158C278.136 302.927 277.841 302.768 277.52 302.702C277.223 302.641 277.223 302.216 277.52 302.155C277.841 302.089 278.136 301.93 278.367 301.699C278.599 301.467 278.758 301.172 278.824 300.851Z" fill="#D11E28"/>
<path d="M288.811 304.128C288.618 304.128 288.433 304.051 288.296 303.915C288.159 303.778 288.083 303.593 288.083 303.399C288.083 303.206 288.159 303.021 288.296 302.884C288.433 302.748 288.618 302.671 288.811 302.671V304.128ZM279.847 309.078C279.876 308.986 279.924 308.9 279.987 308.826C280.049 308.752 280.127 308.691 280.213 308.648C280.3 308.604 280.394 308.578 280.491 308.571C280.588 308.564 280.685 308.577 280.777 308.609C280.869 308.64 280.954 308.689 281.026 308.754C281.099 308.819 281.158 308.897 281.199 308.985C281.241 309.072 281.265 309.168 281.269 309.265C281.274 309.362 281.259 309.458 281.225 309.55L279.847 309.078ZM290.865 313.946C290.947 313.896 291.038 313.862 291.133 313.847C291.228 313.832 291.326 313.837 291.419 313.859C291.513 313.882 291.601 313.924 291.678 313.981C291.756 314.038 291.821 314.11 291.871 314.192C291.92 314.275 291.953 314.366 291.967 314.462C291.981 314.557 291.976 314.654 291.952 314.747C291.928 314.841 291.886 314.928 291.828 315.005C291.77 315.082 291.698 315.147 291.615 315.196L290.865 313.946ZM286.008 315.196C285.925 315.147 285.852 315.082 285.794 315.005C285.736 314.928 285.694 314.841 285.671 314.747C285.647 314.654 285.642 314.557 285.656 314.462C285.67 314.366 285.702 314.275 285.752 314.192C285.801 314.11 285.867 314.038 285.944 313.981C286.022 313.924 286.11 313.882 286.203 313.859C286.297 313.837 286.394 313.832 286.489 313.847C286.584 313.862 286.676 313.896 286.758 313.946L286.008 315.196ZM280.797 312.142C280.797 316.569 284.385 320.157 288.811 320.157V321.614C283.58 321.614 279.34 317.373 279.34 312.142H280.797ZM296.826 312.142C296.826 307.716 293.238 304.128 288.811 304.128V302.671C294.042 302.671 298.283 306.911 298.283 312.142H296.826ZM296.293 315.023C296.646 314.103 296.826 313.127 296.826 312.142H298.283C298.283 313.341 298.06 314.489 297.653 315.546L296.293 315.023ZM296.322 319.571L295.971 317.606L297.406 317.35L297.757 319.315L296.322 319.571ZM295.976 319.92C296.024 319.928 296.072 319.924 296.118 319.91C296.164 319.895 296.206 319.87 296.24 319.835C296.274 319.801 296.299 319.759 296.313 319.713C296.328 319.667 296.33 319.619 296.322 319.571L297.757 319.315C297.97 320.514 296.93 321.561 295.73 321.356L295.976 319.92ZM293.653 319.521L295.976 319.92L295.73 321.356L293.407 320.958L293.653 319.521ZM288.811 320.157C289.691 320.157 290.537 320.015 291.326 319.754L291.783 321.138C290.848 321.447 289.848 321.614 288.811 321.614V320.157ZM293.407 320.958C293.027 320.892 292.915 320.875 292.831 320.873L292.864 319.416C293.082 319.421 293.325 319.465 293.653 319.521L293.407 320.958ZM291.326 319.754C291.786 319.602 292.105 319.495 292.322 319.457L292.572 320.892C292.491 320.907 292.314 320.962 291.783 321.138L291.326 319.754ZM292.831 320.873C292.787 320.871 292.744 320.872 292.7 320.874C292.657 320.878 292.614 320.884 292.572 320.892L292.322 319.457C292.501 319.423 292.682 319.409 292.864 319.416L292.831 320.873ZM297.653 315.546C297.427 316.132 297.354 316.327 297.336 316.417L295.909 316.121C295.959 315.881 296.097 315.53 296.293 315.023L297.653 315.546ZM295.972 317.606C295.906 317.238 295.855 316.967 295.851 316.724L297.308 316.704C297.31 316.798 297.33 316.924 297.406 317.35L295.972 317.606ZM297.336 316.417C297.319 316.498 297.314 316.534 297.312 316.559C297.308 316.608 297.307 316.656 297.308 316.704L295.851 316.724C295.845 316.521 295.865 316.319 295.91 316.121L297.336 316.417ZM281.225 309.549C280.941 310.384 280.796 311.26 280.797 312.142H279.34C279.34 311.071 279.518 310.04 279.846 309.078L281.225 309.549ZM291.615 315.196C290.768 315.704 289.799 315.971 288.811 315.971C287.824 315.971 286.855 315.704 286.008 315.196L286.758 313.946C287.378 314.318 288.088 314.514 288.811 314.514C289.535 314.514 290.244 314.318 290.865 313.946L291.615 315.196Z" fill="#1F1E1C"/>
</g>
<circle opacity="0.4" cx="174.639" cy="143.971" r="0.971429" fill="#D11E28" fill-opacity="0.2"/>
<circle opacity="0.4" cx="174.639" cy="81.9714" r="0.971429" fill="#D11E28"/>
<circle opacity="0.4" cx="174.639" cy="236.971" r="0.971429" fill="#D11E28" fill-opacity="0.2"/>
<circle opacity="0.8" cx="61.6394" cy="278.971" r="0.971429" fill="#D11E28"/>
<circle opacity="0.4" cx="60.6394" cy="101.971" r="0.971429" fill="#D11E28"/>
<circle opacity="0.4" cx="174.639" cy="298.971" r="0.971429" fill="#D11E28"/>
<circle opacity="0.4" cx="287.639" cy="278.971" r="0.971429" fill="#D11E28"/>
<circle opacity="0.4" cx="287.639" cy="102.971" r="0.971429" fill="#D11E28"/>
<path d="M174.664 141.456V85.1133" stroke="#D11E28" stroke-opacity="0.2" stroke-width="0.971429" stroke-linecap="round"/>
<path d="M287.35 105.513L285.909 108.909C282.669 116.547 275.126 121.461 266.83 121.34L193.559 120.267C185.958 120.156 179.053 124.676 176.113 131.686C175.157 133.966 174.664 136.414 174.664 138.886L174.664 141.456" stroke="#D11E28" stroke-opacity="0.2" stroke-width="0.971429" stroke-linecap="round"/>
<path d="M61.9787 105.513L63.0887 108.28C66.2323 116.116 73.8783 121.206 82.3206 121.083L155.194 120.016C162.886 119.904 169.902 124.395 173.019 131.428C174.104 133.877 174.665 136.526 174.665 139.204L174.665 141.456" stroke="#D11E28" stroke-opacity="0.2" stroke-width="0.971429" stroke-linecap="round"/>
<path d="M212.552 120.571C206.83 120.394 199.62 120.277 193.534 120.202C185.937 120.107 179.065 124.655 176.127 131.662C175.164 133.958 174.667 136.424 174.667 138.914L174.666 141.457" stroke="url(#paint1_linear_9249_68941)" stroke-width="0.971429" stroke-linecap="round"/>
<path d="M174.668 240.542L174.668 294.942" stroke="#D11E28" stroke-opacity="0.2" stroke-width="0.971429" stroke-linecap="round"/>
<path d="M287.338 276.681L285.897 273.285C282.657 265.648 275.114 260.733 266.819 260.855L193.528 261.927C185.939 262.038 179.044 257.526 176.109 250.526C175.148 248.234 174.656 245.773 174.662 243.288L174.669 240.543" stroke="#D11E28" stroke-opacity="0.2" stroke-width="0.971429" stroke-linecap="round"/>
<path d="M61.9834 276.486L63.0054 274.008C66.1971 266.269 73.7927 261.266 82.1629 261.388L155.181 262.457C162.873 262.569 169.889 258.078 173.006 251.045C174.091 248.596 174.652 245.947 174.652 243.268L174.652 241.017" stroke="#D11E28" stroke-opacity="0.2" stroke-width="0.971429" stroke-linecap="round"/>
<path d="M61.9833 276.485L63.0065 274.005C66.1987 266.268 73.7937 261.265 82.1632 261.388L155.183 262.456C162.875 262.569 169.891 258.077 173.008 251.044C174.093 248.596 174.654 245.947 174.654 243.268L174.654 241.017" stroke="url(#paint2_linear_9249_68941)" stroke-width="0.971429" stroke-linecap="round"/>
<defs>
<linearGradient id="paint0_linear_9249_68941" x1="212.419" y1="228.752" x2="136.402" y2="152.734" gradientUnits="userSpaceOnUse">
<stop stop-color="#D11E28"/>
<stop offset="1" stop-color="#751419"/>
</linearGradient>
<linearGradient id="paint1_linear_9249_68941" x1="230.527" y1="121.056" x2="174.184" y2="141.456" gradientUnits="userSpaceOnUse">
<stop stop-color="#D11E28"/>
<stop offset="1" stop-color="#D11E28" stop-opacity="0.2"/>
</linearGradient>
<linearGradient id="paint2_linear_9249_68941" x1="12.4538" y1="282.796" x2="152.298" y2="199.429" gradientUnits="userSpaceOnUse">
<stop stop-color="#D11E28" stop-opacity="0"/>
<stop offset="1" stop-color="#D11E28"/>
</linearGradient>
<clipPath id="clip0_9249_68941">
<rect width="23.3143" height="23.3143" fill="white" transform="translate(50.3281 57.9141)"/>
</clipPath>
<clipPath id="clip1_9249_68941">
<rect width="38.8571" height="38.8571" fill="white" transform="translate(154.98 171.314)"/>
</clipPath>
<clipPath id="clip2_9249_68941">
<rect width="23.3143" height="23.3143" fill="white" transform="translate(48.1562 300.485)"/>
</clipPath>
<clipPath id="clip3_9249_68941">
<rect width="23.3143" height="23.3143" fill="white" transform="translate(277.156 300.485)"/>
</clipPath>
</defs>
</svg>
