<svg width="350" height="382" viewBox="0 0 350 382" fill="none" xmlns="http://www.w3.org/2000/svg">
<rect width="349.333" height="382" rx="2" fill="#FFFCFA"/>
<rect x="0.5" y="0.5" width="348.333" height="381" rx="1.5" stroke="#162D3A" stroke-opacity="0.1"/>
<rect x="13.168" y="37.5" width="323" height="307" rx="8.5" stroke="#D11E28" stroke-opacity="0.07"/>
<rect x="16.668" y="41" width="316" height="300" rx="7.95996" fill="white"/>
<rect x="16.9996" y="41.3317" width="315.337" height="299.337" rx="7.6283" stroke="#D11E28" stroke-opacity="0.1" stroke-width="0.66333"/>
<path d="M32.659 67.078C31.983 67.078 31.333 66.9697 30.709 66.753C30.0936 66.5277 29.617 66.2417 29.279 65.895L29.656 65.154C29.9766 65.466 30.4056 65.7303 30.943 65.947C31.489 66.155 32.061 66.259 32.659 66.259C33.231 66.259 33.6946 66.1897 34.05 66.051C34.414 65.9037 34.6783 65.7087 34.843 65.466C35.0163 65.2233 35.103 64.9547 35.103 64.66C35.103 64.3047 34.999 64.0187 34.791 63.802C34.5916 63.5853 34.3273 63.4163 33.998 63.295C33.6686 63.165 33.3046 63.0523 32.906 62.957C32.5073 62.8617 32.1086 62.762 31.71 62.658C31.3113 62.5453 30.943 62.398 30.605 62.216C30.2756 62.034 30.007 61.7957 29.799 61.501C29.5996 61.1977 29.5 60.8033 29.5 60.318C29.5 59.8673 29.617 59.4557 29.851 59.083C30.0936 58.7017 30.462 58.3983 30.956 58.173C31.45 57.939 32.0826 57.822 32.854 57.822C33.3653 57.822 33.8723 57.8957 34.375 58.043C34.8776 58.1817 35.311 58.3767 35.675 58.628L35.35 59.395C34.96 59.135 34.544 58.9443 34.102 58.823C33.6686 58.7017 33.2483 58.641 32.841 58.641C32.295 58.641 31.8443 58.7147 31.489 58.862C31.1336 59.0093 30.8693 59.2087 30.696 59.46C30.5313 59.7027 30.449 59.98 30.449 60.292C30.449 60.6473 30.5486 60.9333 30.748 61.15C30.956 61.3667 31.2246 61.5357 31.554 61.657C31.892 61.7783 32.2603 61.8867 32.659 61.982C33.0576 62.0773 33.452 62.1813 33.842 62.294C34.2406 62.4067 34.6046 62.554 34.934 62.736C35.272 62.9093 35.5406 63.1433 35.74 63.438C35.948 63.7327 36.052 64.1183 36.052 64.595C36.052 65.037 35.9306 65.4487 35.688 65.83C35.4453 66.2027 35.0726 66.506 34.57 66.74C34.076 66.9653 33.439 67.078 32.659 67.078ZM40.852 67.065C40.1413 67.065 39.5173 66.9177 38.98 66.623C38.4427 66.3197 38.0223 65.908 37.719 65.388C37.4157 64.8593 37.264 64.257 37.264 63.581C37.264 62.905 37.407 62.307 37.693 61.787C37.9877 61.267 38.3863 60.8597 38.889 60.565C39.4003 60.2617 39.9723 60.11 40.605 60.11C41.2463 60.11 41.814 60.2573 42.308 60.552C42.8107 60.838 43.205 61.2453 43.491 61.774C43.777 62.294 43.92 62.8963 43.92 63.581C43.92 63.6243 43.9157 63.672 43.907 63.724C43.907 63.7673 43.907 63.815 43.907 63.867H37.966V63.178H43.413L43.049 63.451C43.049 62.957 42.9407 62.5193 42.724 62.138C42.516 61.748 42.23 61.4447 41.866 61.228C41.502 61.0113 41.0817 60.903 40.605 60.903C40.137 60.903 39.7167 61.0113 39.344 61.228C38.9713 61.4447 38.681 61.748 38.473 62.138C38.265 62.528 38.161 62.9743 38.161 63.477V63.62C38.161 64.14 38.2737 64.5993 38.499 64.998C38.733 65.388 39.0537 65.6957 39.461 65.921C39.877 66.1377 40.3493 66.246 40.878 66.246C41.294 66.246 41.6797 66.1723 42.035 66.025C42.399 65.8777 42.711 65.6523 42.971 65.349L43.491 65.947C43.1877 66.311 42.8063 66.5883 42.347 66.779C41.8963 66.9697 41.398 67.065 40.852 67.065ZM48.6977 67.065C47.9871 67.065 47.3631 66.9177 46.8257 66.623C46.2884 66.3197 45.8681 65.908 45.5647 65.388C45.2614 64.8593 45.1097 64.257 45.1097 63.581C45.1097 62.905 45.2527 62.307 45.5387 61.787C45.8334 61.267 46.2321 60.8597 46.7347 60.565C47.2461 60.2617 47.8181 60.11 48.4507 60.11C49.0921 60.11 49.6597 60.2573 50.1537 60.552C50.6564 60.838 51.0507 61.2453 51.3367 61.774C51.6227 62.294 51.7657 62.8963 51.7657 63.581C51.7657 63.6243 51.7614 63.672 51.7527 63.724C51.7527 63.7673 51.7527 63.815 51.7527 63.867H45.8117V63.178H51.2587L50.8947 63.451C50.8947 62.957 50.7864 62.5193 50.5697 62.138C50.3617 61.748 50.0757 61.4447 49.7117 61.228C49.3477 61.0113 48.9274 60.903 48.4507 60.903C47.9827 60.903 47.5624 61.0113 47.1897 61.228C46.8171 61.4447 46.5267 61.748 46.3187 62.138C46.1107 62.528 46.0067 62.9743 46.0067 63.477V63.62C46.0067 64.14 46.1194 64.5993 46.3447 64.998C46.5787 65.388 46.8994 65.6957 47.3067 65.921C47.7227 66.1377 48.1951 66.246 48.7237 66.246C49.1397 66.246 49.5254 66.1723 49.8807 66.025C50.2447 65.8777 50.5567 65.6523 50.8167 65.349L51.3367 65.947C51.0334 66.311 50.6521 66.5883 50.1927 66.779C49.7421 66.9697 49.2437 67.065 48.6977 67.065ZM59.9458 67.065C59.2351 67.065 58.6111 66.9177 58.0738 66.623C57.5364 66.3197 57.1161 65.908 56.8128 65.388C56.5094 64.8593 56.3578 64.257 56.3578 63.581C56.3578 62.905 56.5008 62.307 56.7868 61.787C57.0814 61.267 57.4801 60.8597 57.9828 60.565C58.4941 60.2617 59.0661 60.11 59.6988 60.11C60.3401 60.11 60.9078 60.2573 61.4018 60.552C61.9044 60.838 62.2988 61.2453 62.5848 61.774C62.8708 62.294 63.0138 62.8963 63.0138 63.581C63.0138 63.6243 63.0094 63.672 63.0008 63.724C63.0008 63.7673 63.0008 63.815 63.0008 63.867H57.0598V63.178H62.5068L62.1428 63.451C62.1428 62.957 62.0344 62.5193 61.8178 62.138C61.6098 61.748 61.3238 61.4447 60.9598 61.228C60.5958 61.0113 60.1754 60.903 59.6988 60.903C59.2308 60.903 58.8104 61.0113 58.4378 61.228C58.0651 61.4447 57.7748 61.748 57.5668 62.138C57.3588 62.528 57.2548 62.9743 57.2548 63.477V63.62C57.2548 64.14 57.3674 64.5993 57.5928 64.998C57.8268 65.388 58.1474 65.6957 58.5548 65.921C58.9708 66.1377 59.4431 66.246 59.9718 66.246C60.3878 66.246 60.7734 66.1723 61.1288 66.025C61.4928 65.8777 61.8048 65.6523 62.0648 65.349L62.5848 65.947C62.2814 66.311 61.9001 66.5883 61.4408 66.779C60.9901 66.9697 60.4918 67.065 59.9458 67.065ZM66.5205 67L63.4915 60.175H64.4535L67.2355 66.506H66.7805L69.6015 60.175H70.5115L67.4695 67H66.5205ZM74.52 67.065C73.8093 67.065 73.1853 66.9177 72.648 66.623C72.1107 66.3197 71.6903 65.908 71.387 65.388C71.0837 64.8593 70.932 64.257 70.932 63.581C70.932 62.905 71.075 62.307 71.361 61.787C71.6557 61.267 72.0543 60.8597 72.557 60.565C73.0683 60.2617 73.6403 60.11 74.273 60.11C74.9143 60.11 75.482 60.2573 75.976 60.552C76.4787 60.838 76.873 61.2453 77.159 61.774C77.445 62.294 77.588 62.8963 77.588 63.581C77.588 63.6243 77.5837 63.672 77.575 63.724C77.575 63.7673 77.575 63.815 77.575 63.867H71.634V63.178H77.081L76.717 63.451C76.717 62.957 76.6087 62.5193 76.392 62.138C76.184 61.748 75.898 61.4447 75.534 61.228C75.17 61.0113 74.7497 60.903 74.273 60.903C73.805 60.903 73.3847 61.0113 73.012 61.228C72.6393 61.4447 72.349 61.748 72.141 62.138C71.933 62.528 71.829 62.9743 71.829 63.477V63.62C71.829 64.14 71.9417 64.5993 72.167 64.998C72.401 65.388 72.7217 65.6957 73.129 65.921C73.545 66.1377 74.0173 66.246 74.546 66.246C74.962 66.246 75.3477 66.1723 75.703 66.025C76.067 65.8777 76.379 65.6523 76.639 65.349L77.159 65.947C76.8557 66.311 76.4743 66.5883 76.015 66.779C75.5643 66.9697 75.066 67.065 74.52 67.065ZM79.4667 67V60.175H80.3507V62.034L80.2597 61.709C80.4504 61.189 80.771 60.7947 81.2217 60.526C81.6724 60.2487 82.2314 60.11 82.8987 60.11V61.007C82.864 61.007 82.8294 61.007 82.7947 61.007C82.76 60.9983 82.7254 60.994 82.6907 60.994C81.9714 60.994 81.408 61.215 81.0007 61.657C80.5934 62.0903 80.3897 62.71 80.3897 63.516V67H79.4667ZM84.9269 69.587C84.6062 69.587 84.2986 69.535 84.0039 69.431C83.7179 69.327 83.4709 69.171 83.2629 68.963L83.6919 68.274C83.8652 68.4387 84.0516 68.5643 84.2509 68.651C84.4589 68.7463 84.6886 68.794 84.9399 68.794C85.2432 68.794 85.5032 68.7073 85.7199 68.534C85.9452 68.3693 86.1576 68.0747 86.3569 67.65L86.7989 66.649L86.9029 66.506L89.7109 60.175H90.6209L87.2019 67.819C87.0112 68.261 86.7989 68.612 86.5649 68.872C86.3396 69.132 86.0926 69.314 85.8239 69.418C85.5552 69.5307 85.2562 69.587 84.9269 69.587ZM86.7469 67.195L83.6009 60.175H84.5629L87.3449 66.441L86.7469 67.195ZM94.2692 67.065C93.6279 67.065 93.1339 66.8917 92.7872 66.545C92.4406 66.1983 92.2672 65.7087 92.2672 65.076V58.667H93.1902V65.024C93.1902 65.4227 93.2899 65.7303 93.4892 65.947C93.6972 66.1637 93.9919 66.272 94.3732 66.272C94.7806 66.272 95.1186 66.155 95.3872 65.921L95.7122 66.584C95.5302 66.7487 95.3092 66.87 95.0492 66.948C94.7979 67.026 94.5379 67.065 94.2692 67.065ZM91.0452 60.942V60.175H95.2702V60.942H91.0452ZM100.876 60.11C101.431 60.11 101.916 60.2183 102.332 60.435C102.757 60.643 103.086 60.9637 103.32 61.397C103.563 61.8303 103.684 62.3763 103.684 63.035V67H102.761V63.126C102.761 62.4067 102.579 61.865 102.215 61.501C101.86 61.1283 101.357 60.942 100.707 60.942C100.222 60.942 99.7975 61.0417 99.4335 61.241C99.0781 61.4317 98.8008 61.7133 98.6015 62.086C98.4108 62.45 98.3155 62.892 98.3155 63.412V67H97.3925V57.354H98.3155V62.047L98.1335 61.696C98.3501 61.202 98.6968 60.8163 99.1735 60.539C99.6501 60.253 100.218 60.11 100.876 60.11ZM106.178 67V60.175H107.101V67H106.178ZM106.646 58.667C106.455 58.667 106.295 58.602 106.165 58.472C106.035 58.342 105.97 58.186 105.97 58.004C105.97 57.822 106.035 57.6703 106.165 57.549C106.295 57.419 106.455 57.354 106.646 57.354C106.836 57.354 106.997 57.4147 107.127 57.536C107.257 57.6573 107.322 57.809 107.322 57.991C107.322 58.1817 107.257 58.342 107.127 58.472C107.005 58.602 106.845 58.667 106.646 58.667ZM113.153 60.11C113.708 60.11 114.193 60.2183 114.609 60.435C115.034 60.643 115.363 60.9637 115.597 61.397C115.84 61.8303 115.961 62.3763 115.961 63.035V67H115.038V63.126C115.038 62.4067 114.856 61.865 114.492 61.501C114.137 61.1283 113.634 60.942 112.984 60.942C112.499 60.942 112.074 61.0417 111.71 61.241C111.355 61.4317 111.077 61.7133 110.878 62.086C110.687 62.45 110.592 62.892 110.592 63.412V67H109.669V60.175H110.553V62.047L110.41 61.696C110.627 61.202 110.973 60.8163 111.45 60.539C111.927 60.253 112.494 60.11 113.153 60.11ZM121.366 69.587C120.742 69.587 120.144 69.496 119.572 69.314C119 69.132 118.536 68.872 118.181 68.534L118.649 67.832C118.97 68.118 119.364 68.3433 119.832 68.508C120.309 68.6813 120.811 68.768 121.34 68.768C122.207 68.768 122.844 68.5643 123.251 68.157C123.658 67.7583 123.862 67.1343 123.862 66.285V64.582L123.992 63.412L123.901 62.242V60.175H124.785V66.168C124.785 67.3467 124.495 68.209 123.914 68.755C123.342 69.3097 122.493 69.587 121.366 69.587ZM121.197 66.74C120.547 66.74 119.962 66.6013 119.442 66.324C118.922 66.038 118.51 65.6437 118.207 65.141C117.912 64.6383 117.765 64.062 117.765 63.412C117.765 62.762 117.912 62.19 118.207 61.696C118.51 61.1933 118.922 60.8033 119.442 60.526C119.962 60.2487 120.547 60.11 121.197 60.11C121.804 60.11 122.35 60.2357 122.835 60.487C123.32 60.7383 123.706 61.111 123.992 61.605C124.278 62.099 124.421 62.7013 124.421 63.412C124.421 64.1227 124.278 64.725 123.992 65.219C123.706 65.713 123.32 66.09 122.835 66.35C122.35 66.61 121.804 66.74 121.197 66.74ZM121.288 65.921C121.791 65.921 122.237 65.817 122.627 65.609C123.017 65.3923 123.325 65.0977 123.55 64.725C123.775 64.3437 123.888 63.906 123.888 63.412C123.888 62.918 123.775 62.4847 123.55 62.112C123.325 61.7393 123.017 61.449 122.627 61.241C122.237 61.0243 121.791 60.916 121.288 60.916C120.794 60.916 120.348 61.0243 119.949 61.241C119.559 61.449 119.251 61.7393 119.026 62.112C118.809 62.4847 118.701 62.918 118.701 63.412C118.701 63.906 118.809 64.3437 119.026 64.725C119.251 65.0977 119.559 65.3923 119.949 65.609C120.348 65.817 120.794 65.921 121.288 65.921ZM135.033 67V65.492L134.994 65.245V62.723C134.994 62.1423 134.829 61.696 134.5 61.384C134.179 61.072 133.698 60.916 133.057 60.916C132.615 60.916 132.194 60.9897 131.796 61.137C131.397 61.2843 131.059 61.4793 130.782 61.722L130.366 61.033C130.712 60.7383 131.128 60.513 131.614 60.357C132.099 60.1923 132.61 60.11 133.148 60.11C134.032 60.11 134.712 60.331 135.189 60.773C135.674 61.2063 135.917 61.8693 135.917 62.762V67H135.033ZM132.68 67.065C132.168 67.065 131.722 66.9827 131.341 66.818C130.968 66.6447 130.682 66.4107 130.483 66.116C130.283 65.8127 130.184 65.466 130.184 65.076C130.184 64.7207 130.266 64.4 130.431 64.114C130.604 63.8193 130.881 63.5853 131.263 63.412C131.653 63.23 132.173 63.139 132.823 63.139H135.176V63.828H132.849C132.19 63.828 131.731 63.945 131.471 64.179C131.219 64.413 131.094 64.7033 131.094 65.05C131.094 65.44 131.245 65.752 131.549 65.986C131.852 66.22 132.277 66.337 132.823 66.337C133.343 66.337 133.789 66.22 134.162 65.986C134.543 65.7433 134.82 65.3967 134.994 64.946L135.202 65.583C135.028 66.0337 134.725 66.3933 134.292 66.662C133.867 66.9307 133.33 67.065 132.68 67.065ZM140.582 67.065C139.94 67.065 139.446 66.8917 139.1 66.545C138.753 66.1983 138.58 65.7087 138.58 65.076V58.667H139.503V65.024C139.503 65.4227 139.602 65.7303 139.802 65.947C140.01 66.1637 140.304 66.272 140.686 66.272C141.093 66.272 141.431 66.155 141.7 65.921L142.025 66.584C141.843 66.7487 141.622 66.87 141.362 66.948C141.11 67.026 140.85 67.065 140.582 67.065ZM137.358 60.942V60.175H141.583V60.942H137.358ZM151.384 67V65.492L151.345 65.245V62.723C151.345 62.1423 151.181 61.696 150.851 61.384C150.531 61.072 150.05 60.916 149.408 60.916C148.966 60.916 148.546 60.9897 148.147 61.137C147.749 61.2843 147.411 61.4793 147.133 61.722L146.717 61.033C147.064 60.7383 147.48 60.513 147.965 60.357C148.451 60.1923 148.962 60.11 149.499 60.11C150.383 60.11 151.064 60.331 151.54 60.773C152.026 61.2063 152.268 61.8693 152.268 62.762V67H151.384ZM149.031 67.065C148.52 67.065 148.074 66.9827 147.692 66.818C147.32 66.6447 147.034 66.4107 146.834 66.116C146.635 65.8127 146.535 65.466 146.535 65.076C146.535 64.7207 146.618 64.4 146.782 64.114C146.956 63.8193 147.233 63.5853 147.614 63.412C148.004 63.23 148.524 63.139 149.174 63.139H151.527V63.828H149.2C148.542 63.828 148.082 63.945 147.822 64.179C147.571 64.413 147.445 64.7033 147.445 65.05C147.445 65.44 147.597 65.752 147.9 65.986C148.204 66.22 148.628 66.337 149.174 66.337C149.694 66.337 150.141 66.22 150.513 65.986C150.895 65.7433 151.172 65.3967 151.345 64.946L151.553 65.583C151.38 66.0337 151.077 66.3933 150.643 66.662C150.219 66.9307 149.681 67.065 149.031 67.065ZM161.09 69.587C160.466 69.587 159.868 69.496 159.296 69.314C158.724 69.132 158.26 68.872 157.905 68.534L158.373 67.832C158.693 68.118 159.088 68.3433 159.556 68.508C160.032 68.6813 160.535 68.768 161.064 68.768C161.93 68.768 162.567 68.5643 162.975 68.157C163.382 67.7583 163.586 67.1343 163.586 66.285V64.582L163.716 63.412L163.625 62.242V60.175H164.509V66.168C164.509 67.3467 164.218 68.209 163.638 68.755C163.066 69.3097 162.216 69.587 161.09 69.587ZM160.921 66.74C160.271 66.74 159.686 66.6013 159.166 66.324C158.646 66.038 158.234 65.6437 157.931 65.141C157.636 64.6383 157.489 64.062 157.489 63.412C157.489 62.762 157.636 62.19 157.931 61.696C158.234 61.1933 158.646 60.8033 159.166 60.526C159.686 60.2487 160.271 60.11 160.921 60.11C161.527 60.11 162.073 60.2357 162.559 60.487C163.044 60.7383 163.43 61.111 163.716 61.605C164.002 62.099 164.145 62.7013 164.145 63.412C164.145 64.1227 164.002 64.725 163.716 65.219C163.43 65.713 163.044 66.09 162.559 66.35C162.073 66.61 161.527 66.74 160.921 66.74ZM161.012 65.921C161.514 65.921 161.961 65.817 162.351 65.609C162.741 65.3923 163.048 65.0977 163.274 64.725C163.499 64.3437 163.612 63.906 163.612 63.412C163.612 62.918 163.499 62.4847 163.274 62.112C163.048 61.7393 162.741 61.449 162.351 61.241C161.961 61.0243 161.514 60.916 161.012 60.916C160.518 60.916 160.071 61.0243 159.673 61.241C159.283 61.449 158.975 61.7393 158.75 62.112C158.533 62.4847 158.425 62.918 158.425 63.412C158.425 63.906 158.533 64.3437 158.75 64.725C158.975 65.0977 159.283 65.3923 159.673 65.609C160.071 65.817 160.518 65.921 161.012 65.921ZM167.077 67V57.354H168V67H167.077ZM174.845 67V65.492L174.806 65.245V62.723C174.806 62.1423 174.642 61.696 174.312 61.384C173.992 61.072 173.511 60.916 172.869 60.916C172.427 60.916 172.007 60.9897 171.608 61.137C171.21 61.2843 170.872 61.4793 170.594 61.722L170.178 61.033C170.525 60.7383 170.941 60.513 171.426 60.357C171.912 60.1923 172.423 60.11 172.96 60.11C173.844 60.11 174.525 60.331 175.001 60.773C175.487 61.2063 175.729 61.8693 175.729 62.762V67H174.845ZM172.492 67.065C171.981 67.065 171.535 66.9827 171.153 66.818C170.781 66.6447 170.495 66.4107 170.295 66.116C170.096 65.8127 169.996 65.466 169.996 65.076C169.996 64.7207 170.079 64.4 170.243 64.114C170.417 63.8193 170.694 63.5853 171.075 63.412C171.465 63.23 171.985 63.139 172.635 63.139H174.988V63.828H172.661C172.003 63.828 171.543 63.945 171.283 64.179C171.032 64.413 170.906 64.7033 170.906 65.05C170.906 65.44 171.058 65.752 171.361 65.986C171.665 66.22 172.089 66.337 172.635 66.337C173.155 66.337 173.602 66.22 173.974 65.986C174.356 65.7433 174.633 65.3967 174.806 64.946L175.014 65.583C174.841 66.0337 174.538 66.3933 174.104 66.662C173.68 66.9307 173.142 67.065 172.492 67.065ZM181.72 60.11C182.275 60.11 182.76 60.2183 183.176 60.435C183.601 60.643 183.93 60.9637 184.164 61.397C184.407 61.8303 184.528 62.3763 184.528 63.035V67H183.605V63.126C183.605 62.4067 183.423 61.865 183.059 61.501C182.704 61.1283 182.201 60.942 181.551 60.942C181.066 60.942 180.641 61.0417 180.277 61.241C179.922 61.4317 179.645 61.7133 179.445 62.086C179.255 62.45 179.159 62.892 179.159 63.412V67H178.236V60.175H179.12V62.047L178.977 61.696C179.194 61.202 179.541 60.8163 180.017 60.539C180.494 60.253 181.062 60.11 181.72 60.11ZM189.855 67.065C189.179 67.065 188.573 66.9177 188.035 66.623C187.507 66.3197 187.091 65.908 186.787 65.388C186.484 64.8593 186.332 64.257 186.332 63.581C186.332 62.8963 186.484 62.294 186.787 61.774C187.091 61.254 187.507 60.8467 188.035 60.552C188.573 60.2573 189.179 60.11 189.855 60.11C190.436 60.11 190.96 60.2227 191.428 60.448C191.896 60.6733 192.265 61.0113 192.533 61.462L191.844 61.93C191.61 61.5833 191.32 61.3277 190.973 61.163C190.627 60.9983 190.25 60.916 189.842 60.916C189.357 60.916 188.919 61.0287 188.529 61.254C188.139 61.4707 187.832 61.7783 187.606 62.177C187.381 62.5757 187.268 63.0437 187.268 63.581C187.268 64.1183 187.381 64.5863 187.606 64.985C187.832 65.3837 188.139 65.6957 188.529 65.921C188.919 66.1377 189.357 66.246 189.842 66.246C190.25 66.246 190.627 66.1637 190.973 65.999C191.32 65.8343 191.61 65.583 191.844 65.245L192.533 65.713C192.265 66.155 191.896 66.493 191.428 66.727C190.96 66.9523 190.436 67.065 189.855 67.065ZM197.131 67.065C196.421 67.065 195.797 66.9177 195.259 66.623C194.722 66.3197 194.302 65.908 193.998 65.388C193.695 64.8593 193.543 64.257 193.543 63.581C193.543 62.905 193.686 62.307 193.972 61.787C194.267 61.267 194.666 60.8597 195.168 60.565C195.68 60.2617 196.252 60.11 196.884 60.11C197.526 60.11 198.093 60.2573 198.587 60.552C199.09 60.838 199.484 61.2453 199.77 61.774C200.056 62.294 200.199 62.8963 200.199 63.581C200.199 63.6243 200.195 63.672 200.186 63.724C200.186 63.7673 200.186 63.815 200.186 63.867H194.245V63.178H199.692L199.328 63.451C199.328 62.957 199.22 62.5193 199.003 62.138C198.795 61.748 198.509 61.4447 198.145 61.228C197.781 61.0113 197.361 60.903 196.884 60.903C196.416 60.903 195.996 61.0113 195.623 61.228C195.251 61.4447 194.96 61.748 194.752 62.138C194.544 62.528 194.44 62.9743 194.44 63.477V63.62C194.44 64.14 194.553 64.5993 194.778 64.998C195.012 65.388 195.333 65.6957 195.74 65.921C196.156 66.1377 196.629 66.246 197.157 66.246C197.573 66.246 197.959 66.1723 198.314 66.025C198.678 65.8777 198.99 65.6523 199.25 65.349L199.77 65.947C199.467 66.311 199.086 66.5883 198.626 66.779C198.176 66.9697 197.677 67.065 197.131 67.065ZM205.571 61.527C205.381 61.527 205.216 61.4577 205.077 61.319C204.947 61.1803 204.882 61.0113 204.882 60.812C204.882 60.604 204.947 60.435 205.077 60.305C205.216 60.175 205.381 60.11 205.571 60.11C205.762 60.11 205.922 60.175 206.052 60.305C206.191 60.435 206.26 60.604 206.26 60.812C206.26 61.0113 206.191 61.1803 206.052 61.319C205.922 61.4577 205.762 61.527 205.571 61.527ZM205.571 67.065C205.381 67.065 205.216 66.9957 205.077 66.857C204.947 66.7183 204.882 66.5493 204.882 66.35C204.882 66.142 204.947 65.973 205.077 65.843C205.216 65.713 205.381 65.648 205.571 65.648C205.762 65.648 205.922 65.713 206.052 65.843C206.191 65.973 206.26 66.142 206.26 66.35C206.26 66.5493 206.191 66.7183 206.052 66.857C205.922 66.9957 205.762 67.065 205.571 67.065Z" fill="#1F1E1C"/>
<path d="M61.8346 273.59L59.668 272.93V302.236H319.668V132.236L317.501 141.39L317.501 141.391C315.335 150.545 311.001 168.852 306.668 175.478C302.335 182.104 298.001 177.048 293.668 173.658C289.335 170.268 285.001 168.545 280.668 165.419C276.335 162.293 272.001 157.763 267.668 160.831C263.335 163.9 259.001 174.566 254.668 181.075C250.335 187.585 246.001 189.938 241.668 189.903C237.335 189.868 233.001 187.444 228.668 189.539C224.335 191.633 220.001 198.246 215.668 200.438C211.335 202.629 207.001 200.398 202.668 205.42C198.335 210.442 194.001 222.716 189.668 223.929C185.335 225.143 181.001 215.297 176.668 212.985C172.335 210.673 168.001 215.895 163.668 223.275C159.335 230.655 155.001 240.193 150.668 247.912C146.335 255.631 142.001 261.531 137.668 260.179C133.335 258.827 129.001 250.224 124.668 249.586C120.335 248.947 116.001 256.273 111.668 263.64L111.392 264.11C107.151 271.321 102.909 278.532 98.668 283.959C94.3346 289.503 90.0013 293.184 85.668 291.695C81.3346 290.207 77.0013 283.548 72.668 279.559C68.3347 275.57 64.0014 274.25 61.8347 273.59H61.8346Z" fill="url(#paint0_linear_9249_69241)"/>
<path d="M61.8346 287.239L59.668 286.894V302.236H319.668V213.236L317.501 218.029C315.335 222.821 311.001 232.406 306.668 235.875C302.335 239.343 298.001 236.696 293.668 234.922C289.335 233.147 285.001 232.245 280.668 230.608C276.335 228.972 272.001 226.6 267.668 228.207C263.335 229.813 259.001 235.397 254.668 238.805C250.335 242.213 246.001 243.445 241.668 243.426C237.335 243.408 233.001 242.139 228.668 243.236C224.335 244.332 220.001 247.794 215.668 248.942C211.335 250.089 207.001 248.921 202.668 251.55C198.335 254.179 194.001 260.605 189.668 261.24C185.335 261.876 181.001 256.721 176.668 255.511C172.335 254.3 168.001 257.034 163.668 260.898C159.335 264.761 155.001 269.755 150.668 273.796C146.335 277.837 142.001 280.926 137.668 280.218C133.335 279.51 129.001 275.006 124.668 274.672C120.335 274.338 116.001 278.173 111.668 282.03L111.392 282.276C107.151 286.051 102.909 289.826 98.668 292.667C94.3346 295.57 90.0013 297.497 85.668 296.718C81.3346 295.938 77.0013 292.453 72.668 290.364C68.3346 288.276 64.0013 287.585 61.8346 287.239Z" fill="url(#paint1_linear_9249_69241)"/>
<path d="M59.668 272.233L61.8346 272.89C64.0013 273.547 68.3346 274.86 72.668 278.83C77.0013 282.799 81.3346 289.425 85.668 290.906C90.0013 292.387 94.3346 288.724 98.668 283.207C103.001 277.691 107.335 270.32 111.668 262.99C116.001 255.659 120.335 248.369 124.668 249.005C129.001 249.64 133.335 258.201 137.668 259.546C142.001 260.891 146.335 255.02 150.668 247.339C155.001 239.659 159.335 230.168 163.668 222.824C168.001 215.481 172.335 210.285 176.668 212.585C181.001 214.886 185.335 224.683 189.668 223.475C194.001 222.268 198.335 210.055 202.668 205.058C207.001 200.061 211.335 202.28 215.668 200.1C220.001 197.919 224.335 191.339 228.668 189.255C233.001 187.171 237.335 189.582 241.668 189.617C246.001 189.652 250.335 187.311 254.668 180.833C259.001 174.356 263.335 163.743 267.668 160.69C272.001 157.637 276.335 162.144 280.668 165.255C285.001 168.365 289.335 170.08 293.668 173.453C298.001 176.826 302.335 181.857 306.668 175.264C311.001 168.671 315.335 150.454 317.501 141.345L319.668 132.236" stroke="#E8AE24" stroke-width="1.31049" stroke-linecap="round"/>
<path d="M59.668 285.675L61.8346 286.005C64.0013 286.336 68.3346 286.997 72.668 288.994C77.0013 290.991 81.3346 294.325 85.668 295.07C90.0013 295.815 94.3346 293.972 98.668 291.197C103.001 288.421 107.335 284.712 111.668 281.024C116.001 277.336 120.335 273.668 124.668 273.988C129.001 274.307 133.335 278.615 137.668 279.291C142.001 279.968 146.335 277.014 150.668 273.15C155.001 269.285 159.335 264.51 163.668 260.815C168.001 257.12 172.335 254.506 176.668 255.664C181.001 256.821 185.335 261.751 189.668 261.143C194.001 260.535 198.335 254.39 202.668 251.876C207.001 249.362 211.335 250.479 215.668 249.382C220.001 248.284 224.335 244.974 228.668 243.925C233.001 242.876 237.335 244.09 241.668 244.107C246.001 244.125 250.335 242.947 254.668 239.688C259.001 236.429 263.335 231.089 267.668 229.553C272.001 228.016 276.335 230.284 280.668 231.849C285.001 233.414 289.335 234.277 293.668 235.974C298.001 237.671 302.335 240.203 306.668 236.885C311.001 233.568 315.335 224.402 317.501 219.819L319.668 215.236" stroke="#D11E28" stroke-width="1.31049" stroke-linecap="round"/>
<path d="M29.5177 102.039V101.871C29.5177 99.8514 32.0058 100.019 32.0058 98.81C32.0058 98.2998 31.7053 97.9923 31.1462 97.9923C30.5311 97.9923 30.2306 98.3068 30.1467 98.824H29.5107C29.6295 97.9783 30.1956 97.4611 31.1532 97.4611C32.1317 97.4611 32.6349 98.0412 32.6349 98.803C32.6349 100.257 30.4123 100.243 30.1537 101.55H32.6838V102.039H29.5177ZM36.8576 100.543C36.8576 101.466 36.2845 102.123 35.1872 102.123C34.1807 102.123 33.5796 101.62 33.4608 100.774H34.0759C34.1528 101.277 34.5162 101.592 35.1802 101.592C35.8861 101.592 36.2426 101.2 36.2426 100.55C36.2426 100.026 35.9909 99.481 35.1802 99.481C34.649 99.481 34.3555 99.7046 34.1877 99.9563L33.6356 99.9003L33.7753 97.5449H36.6479V98.0342H34.2646L34.1877 99.3062C34.4463 99.0966 34.7678 98.9498 35.2291 98.9498C36.4173 98.9498 36.8576 99.7046 36.8576 100.543ZM39.1513 102.123C38.04 102.123 37.397 101.256 37.397 99.7955C37.397 98.2928 38.054 97.4611 39.1513 97.4611C40.2556 97.4611 40.8986 98.3277 40.8986 99.7955C40.8986 101.298 40.2416 102.123 39.1513 102.123ZM39.1513 101.592C39.8712 101.592 40.2696 100.949 40.2696 99.7955C40.2696 98.6493 39.8642 97.9923 39.1513 97.9923C38.4244 97.9923 38.026 98.6283 38.026 99.7955C38.026 100.928 38.4314 101.592 39.1513 101.592ZM41.6547 102.039V97.0068H42.2697V99.9213L43.8703 98.3277H44.6251L42.9337 99.9842L44.723 102.039H43.9402L42.2697 100.145V102.039H41.6547Z" fill="#6D7076"/>
<line x1="58.8086" y1="99.0312" x2="320.667" y2="99.0312" stroke="#D4D4D8" stroke-width="0.5" stroke-dasharray="1.75 1.75"/>
<path d="M29.5177 169.131V168.963C29.5177 166.943 32.0058 167.111 32.0058 165.902C32.0058 165.392 31.7053 165.084 31.1462 165.084C30.5311 165.084 30.2306 165.399 30.1467 165.916H29.5107C29.6295 165.07 30.1956 164.553 31.1532 164.553C32.1317 164.553 32.6349 165.133 32.6349 165.895C32.6349 167.349 30.4123 167.335 30.1537 168.642H32.6838V169.131H29.5177ZM35.1243 169.215C34.013 169.215 33.37 168.348 33.37 166.887C33.37 165.385 34.027 164.553 35.1243 164.553C36.2286 164.553 36.8716 165.42 36.8716 166.887C36.8716 168.39 36.2146 169.215 35.1243 169.215ZM35.1243 168.684C35.8442 168.684 36.2426 168.041 36.2426 166.887C36.2426 165.741 35.8372 165.084 35.1243 165.084C34.3974 165.084 33.999 165.72 33.999 166.887C33.999 168.02 34.4044 168.684 35.1243 168.684ZM39.1513 169.215C38.04 169.215 37.397 168.348 37.397 166.887C37.397 165.385 38.054 164.553 39.1513 164.553C40.2556 164.553 40.8986 165.42 40.8986 166.887C40.8986 168.39 40.2416 169.215 39.1513 169.215ZM39.1513 168.684C39.8712 168.684 40.2696 168.041 40.2696 166.887C40.2696 165.741 39.8642 165.084 39.1513 165.084C38.4244 165.084 38.026 165.72 38.026 166.887C38.026 168.02 38.4314 168.684 39.1513 168.684ZM41.6547 169.131V164.099H42.2697V167.013L43.8703 165.42H44.6251L42.9337 167.076L44.723 169.131H43.9402L42.2697 167.237V169.131H41.6547Z" fill="#6D7076"/>
<line x1="58.8086" y1="166.123" x2="320.667" y2="166.123" stroke="#D4D4D8" stroke-width="0.5" stroke-dasharray="1.75 1.75"/>
<path d="M30.0488 236.222V235.732H30.9085V232.587H30.0488V232.098H30.5591C30.9225 232.098 31.0134 232.014 31.0134 231.811V231.728H31.5515V235.732H32.4112V236.222H30.0488ZM36.8576 234.726C36.8576 235.649 36.2845 236.306 35.1872 236.306C34.1807 236.306 33.5796 235.802 33.4608 234.957H34.0759C34.1528 235.46 34.5162 235.774 35.1802 235.774C35.8861 235.774 36.2426 235.383 36.2426 234.733C36.2426 234.209 35.9909 233.664 35.1802 233.664C34.649 233.664 34.3555 233.887 34.1877 234.139L33.6356 234.083L33.7753 231.728H36.6479V232.217H34.2646L34.1877 233.489C34.4463 233.279 34.7678 233.132 35.2291 233.132C36.4173 233.132 36.8576 233.887 36.8576 234.726ZM39.1513 236.306C38.04 236.306 37.397 235.439 37.397 233.978C37.397 232.475 38.054 231.644 39.1513 231.644C40.2556 231.644 40.8986 232.51 40.8986 233.978C40.8986 235.481 40.2416 236.306 39.1513 236.306ZM39.1513 235.774C39.8712 235.774 40.2696 235.131 40.2696 233.978C40.2696 232.832 39.8642 232.175 39.1513 232.175C38.4244 232.175 38.026 232.811 38.026 233.978C38.026 235.11 38.4314 235.774 39.1513 235.774ZM41.6547 236.222V231.189H42.2697V234.104L43.8703 232.51H44.6251L42.9337 234.167L44.723 236.222H43.9402L42.2697 234.328V236.222H41.6547Z" fill="#6D7076"/>
<line x1="58.8086" y1="233.214" x2="320.667" y2="233.214" stroke="#D4D4D8" stroke-width="0.5" stroke-dasharray="1.75 1.75"/>
<path d="M30.0488 303.313V302.824H30.9085V299.679H30.0488V299.19H30.5591C30.9225 299.19 31.0134 299.106 31.0134 298.903V298.819H31.5515V302.824H32.4112V303.313H30.0488ZM35.1243 303.397C34.013 303.397 33.37 302.531 33.37 301.07C33.37 299.567 34.027 298.735 35.1243 298.735C36.2286 298.735 36.8716 299.602 36.8716 301.07C36.8716 302.573 36.2146 303.397 35.1243 303.397ZM35.1243 302.866C35.8442 302.866 36.2426 302.223 36.2426 301.07C36.2426 299.924 35.8372 299.267 35.1243 299.267C34.3974 299.267 33.999 299.903 33.999 301.07C33.999 302.202 34.4044 302.866 35.1243 302.866ZM39.1513 303.397C38.04 303.397 37.397 302.531 37.397 301.07C37.397 299.567 38.054 298.735 39.1513 298.735C40.2556 298.735 40.8986 299.602 40.8986 301.07C40.8986 302.573 40.2416 303.397 39.1513 303.397ZM39.1513 302.866C39.8712 302.866 40.2696 302.223 40.2696 301.07C40.2696 299.924 39.8642 299.267 39.1513 299.267C38.4244 299.267 38.026 299.903 38.026 301.07C38.026 302.202 38.4314 302.866 39.1513 302.866ZM41.6547 303.313V298.281H42.2697V301.196L43.8703 299.602H44.6251L42.9337 301.259L44.723 303.313H43.9402L42.2697 301.419V303.313H41.6547Z" fill="#6D7076"/>
<line x1="58.8086" y1="300.306" x2="320.667" y2="300.306" stroke="#D4D4D8" stroke-width="0.5" stroke-dasharray="1.75 1.75"/>
<path d="M59.7276 317.606H60.3706C60.4265 318.207 60.6921 318.571 61.2233 318.571C61.7615 318.571 62.076 318.165 62.076 317.487V314.286H62.719V317.418C62.719 318.473 62.1459 319.123 61.2233 319.123C60.3357 319.123 59.7835 318.529 59.7276 317.606ZM64.2657 316.537H63.6507C63.7695 315.719 64.3077 315.237 65.2163 315.237C66.2088 315.237 66.691 315.817 66.691 316.684V318.144C66.691 318.571 66.726 318.836 66.8238 319.039H66.1738C66.1039 318.892 66.083 318.676 66.076 318.452C65.7615 318.92 65.2582 319.123 64.8109 319.123C64.0421 319.123 63.5249 318.766 63.5249 318.061C63.5249 317.55 63.8045 317.18 64.3496 316.998C64.8528 316.83 65.3631 316.789 66.076 316.782V316.698C66.076 316.097 65.7964 315.768 65.1604 315.768C64.6292 315.768 64.3426 316.062 64.2657 316.537ZM64.1539 318.047C64.1539 318.389 64.4405 318.592 64.8738 318.592C65.5588 318.592 66.076 318.054 66.076 317.418V317.243C64.4964 317.257 64.1539 317.592 64.1539 318.047ZM67.6993 319.039V315.328H68.3144V315.831C68.566 315.44 68.9714 315.237 69.4606 315.237C70.2504 315.237 70.7187 315.698 70.7187 316.558V319.039H70.1037V316.684C70.1037 316.125 69.852 315.761 69.2929 315.761C68.6778 315.761 68.3144 316.313 68.3144 316.844V319.039H67.6993Z" fill="#6D7076"/>
<path d="M109.618 319.039V314.286H112.84V314.811H110.261V316.439H112.581V316.963H110.261V319.039H109.618ZM116.647 317.83C116.444 318.697 115.822 319.123 114.976 319.123C113.9 319.123 113.25 318.396 113.25 317.187C113.25 315.929 113.9 315.237 114.941 315.237C115.99 315.237 116.619 315.957 116.619 317.138V317.292H113.879C113.914 318.123 114.305 318.592 114.976 318.592C115.501 318.592 115.871 318.34 116.004 317.83H116.647ZM114.941 315.768C114.347 315.768 113.991 316.139 113.9 316.83H115.976C115.892 316.145 115.522 315.768 114.941 315.768ZM118.054 319.039H117.438V314.007H118.054V315.789C118.298 315.44 118.655 315.237 119.095 315.237C120.08 315.237 120.675 315.964 120.675 317.173C120.675 318.431 120.066 319.123 119.095 319.123C118.655 319.123 118.298 318.941 118.054 318.599V319.039ZM119.053 315.768C118.403 315.768 118.054 316.264 118.054 317.173C118.054 318.075 118.417 318.592 119.053 318.592C119.696 318.592 120.045 318.089 120.045 317.173C120.045 316.278 119.682 315.768 119.053 315.768Z" fill="#6D7076"/>
<path d="M158.91 319.039V314.286H159.798L161.258 317.774L161.398 318.2L161.545 317.774L162.999 314.286H163.858V319.039H163.215V315.062L162.88 315.999L161.608 319.039H161.153L159.881 315.992L159.553 315.083V319.039H158.91ZM165.461 316.537H164.846C164.964 315.719 165.503 315.237 166.411 315.237C167.404 315.237 167.886 315.817 167.886 316.684V318.144C167.886 318.571 167.921 318.836 168.019 319.039H167.369C167.299 318.892 167.278 318.676 167.271 318.452C166.956 318.92 166.453 319.123 166.006 319.123C165.237 319.123 164.72 318.766 164.72 318.061C164.72 317.55 164.999 317.18 165.545 316.998C166.048 316.83 166.558 316.789 167.271 316.782V316.698C167.271 316.097 166.991 315.768 166.355 315.768C165.824 315.768 165.538 316.062 165.461 316.537ZM165.349 318.047C165.349 318.389 165.635 318.592 166.069 318.592C166.754 318.592 167.271 318.054 167.271 317.418V317.243C165.691 317.257 165.349 317.592 165.349 318.047ZM168.894 319.039V315.328H169.509V315.901C169.761 315.447 170.159 315.237 170.607 315.237C170.753 315.237 170.886 315.272 170.956 315.328V315.88C170.851 315.845 170.718 315.831 170.572 315.831C169.831 315.831 169.509 316.292 169.509 316.963V319.039H168.894Z" fill="#6D7076"/>
<path d="M212.602 319.039L212.155 317.9H209.876L209.429 319.039H208.793L210.659 314.286H211.4L213.273 319.039H212.602ZM210.876 315.328L210.072 317.383H211.959L211.155 315.328L211.016 314.908L210.876 315.328ZM214.522 320.577H213.907V315.328H214.522V315.789C214.767 315.44 215.123 315.237 215.563 315.237C216.549 315.237 217.143 315.964 217.143 317.173C217.143 318.431 216.535 319.123 215.563 319.123C215.123 319.123 214.767 318.941 214.522 318.599V320.577ZM215.521 315.768C214.871 315.768 214.522 316.264 214.522 317.173C214.522 318.075 214.885 318.592 215.521 318.592C216.164 318.592 216.514 318.089 216.514 317.173C216.514 316.278 216.15 315.768 215.521 315.768ZM217.934 319.039V315.328H218.549V315.901C218.8 315.447 219.199 315.237 219.646 315.237C219.793 315.237 219.926 315.272 219.996 315.328V315.88C219.891 315.845 219.758 315.831 219.611 315.831C218.87 315.831 218.549 316.292 218.549 316.963V319.039H217.934Z" fill="#6D7076"/>
<path d="M257.733 319.039V314.286H258.621L260.081 317.774L260.221 318.2L260.368 317.774L261.822 314.286H262.681V319.039H262.038V315.062L261.703 315.999L260.431 319.039H259.976L258.704 315.992L258.376 315.083V319.039H257.733ZM264.284 316.537H263.669C263.787 315.719 264.326 315.237 265.234 315.237C266.227 315.237 266.709 315.817 266.709 316.684V318.144C266.709 318.571 266.744 318.836 266.842 319.039H266.192C266.122 318.892 266.101 318.676 266.094 318.452C265.779 318.92 265.276 319.123 264.829 319.123C264.06 319.123 263.543 318.766 263.543 318.061C263.543 317.55 263.822 317.18 264.368 316.998C264.871 316.83 265.381 316.789 266.094 316.782V316.698C266.094 316.097 265.814 315.768 265.178 315.768C264.647 315.768 264.361 316.062 264.284 316.537ZM264.172 318.047C264.172 318.389 264.458 318.592 264.892 318.592C265.577 318.592 266.094 318.054 266.094 317.418V317.243C264.514 317.257 264.172 317.592 264.172 318.047ZM267.817 320.661C267.677 320.661 267.53 320.626 267.453 320.605V320.129H267.642C268.096 320.129 268.222 320.039 268.586 319.207L268.711 318.92L267.195 315.328H267.859L268.865 317.781L269.033 318.277L269.201 317.781L270.179 315.328H270.808L269.075 319.528C268.704 320.423 268.46 320.661 267.817 320.661Z" fill="#6D7076"/>
<path d="M308.065 317.606H308.708C308.763 318.207 309.029 318.571 309.56 318.571C310.098 318.571 310.413 318.165 310.413 317.487V314.286H311.056V317.418C311.056 318.473 310.483 319.123 309.56 319.123C308.673 319.123 308.12 318.529 308.065 317.606ZM314.399 317.522V315.328H315.014V319.039H314.399V318.536C314.147 318.927 313.756 319.123 313.274 319.123C312.498 319.123 312.036 318.669 312.036 317.809V315.328H312.652V317.683C312.652 318.242 312.896 318.599 313.441 318.599C314.042 318.599 314.399 318.054 314.399 317.522ZM315.995 319.039V315.328H316.61V315.831C316.862 315.44 317.267 315.237 317.757 315.237C318.546 315.237 319.015 315.698 319.015 316.558V319.039H318.4V316.684C318.4 316.125 318.148 315.761 317.589 315.761C316.974 315.761 316.61 316.313 316.61 316.844V319.039H315.995Z" fill="#6D7076"/>
<defs>
<linearGradient id="paint0_linear_9249_69241" x1="189.668" y1="201.98" x2="190.706" y2="302.672" gradientUnits="userSpaceOnUse">
<stop stop-color="#E8AE24" stop-opacity="0.3"/>
<stop offset="1" stop-color="#E8AE24" stop-opacity="0.08"/>
</linearGradient>
<linearGradient id="paint1_linear_9249_69241" x1="189.668" y1="249.749" x2="189.952" y2="302.469" gradientUnits="userSpaceOnUse">
<stop stop-color="#D1212B" stop-opacity="0.4"/>
<stop offset="1" stop-color="#D1212B" stop-opacity="0.08"/>
</linearGradient>
</defs>
</svg>
