<svg width="156" height="32" viewBox="0 0 156 32" fill="none" xmlns="http://www.w3.org/2000/svg">
<path d="M27.5086 27.2127L27.2579 22.7648C27.249 22.6065 27.0617 22.5281 26.9427 22.6328L23.2139 25.9125C23.1015 26.0113 23.1422 26.1953 23.2859 26.2375L27.2653 27.4057C27.3913 27.4427 27.516 27.3438 27.5086 27.2127Z" fill="#D1212B"/>
<path d="M14.3595 3.18569C20.4712 2.09534 26.5904 5.52256 28.581 11.4755C30.5715 17.4284 27.7449 23.8473 22.2068 26.6526C21.7824 26.8674 21.2843 26.6402 21.1384 26.2046L20.6349 24.6986C20.5092 24.3229 20.6857 23.9239 21.0215 23.7425C25.0533 21.5645 27.076 16.8383 25.6146 12.4675C24.153 8.09673 19.6942 5.53807 15.1632 6.22337C14.7859 6.28045 14.4049 6.06772 14.2792 5.69212L13.7756 4.1862C13.6298 3.75035 13.8911 3.26929 14.3595 3.18569Z" fill="#D1212B" stroke="#D1212B" stroke-width="0.521314"/>
<path fill-rule="evenodd" clip-rule="evenodd" d="M16.894 28.4189C17.6755 28.3746 18.1475 27.5805 17.8992 26.8381L17.7476 26.3846L15.9806 21.1007C15.7565 20.4303 15.0313 20.0686 14.3609 20.2927L11.5591 21.2296C11.0288 21.407 10.4391 21.2229 10.1454 20.7471C9.63706 19.9237 9.21473 19.0292 8.89458 18.0718C8.57443 17.1144 8.37377 16.1458 8.28454 15.1823C8.23298 14.6255 8.59335 14.1237 9.12363 13.9464L12.5323 12.8065C13.2027 12.5824 13.5645 11.8572 13.3403 11.1868L11.4478 5.52748L11.373 5.30384C11.133 4.58603 10.3215 4.22803 9.66934 4.61217C4.57402 7.61352 2.08839 13.862 4.03909 19.6955C5.91048 25.2918 11.2732 28.7372 16.894 28.4189Z" fill="#E8AE24"/>
<path fill-rule="evenodd" clip-rule="evenodd" d="M15.0006 9.01309C14.9194 8.77484 15.0766 8.52123 15.3277 8.50379C18.6011 8.27646 21.72 10.1661 22.777 13.3263C23.7973 16.3773 22.5697 19.6375 20.0077 21.4677C19.6999 21.6876 19.2796 21.5302 19.1572 21.1723L18.7469 19.972C18.661 19.7207 18.753 19.4455 18.9554 19.2736C20.459 17.997 21.1175 15.9662 20.4905 14.091C19.8566 12.1959 18.078 10.9645 16.0831 10.8724C15.8182 10.8602 15.5774 10.699 15.4916 10.4481L15.0006 9.01309C15.0653 9.0053 15.1299 8.99683 15.1945 8.99082L15.0006 9.01309Z" fill="#315F98"/>
<path d="M148.619 29.0903C146.688 29.0814 145.078 27.4322 145.117 25.5017C145.154 23.5837 146.734 22.0503 148.66 22.0646C150.59 22.0788 152.138 23.63 152.145 25.5569C152.152 27.532 150.588 29.0992 148.619 29.0903Z" fill="#D1222C"/>
<path d="M44.2251 10.792C44.8189 10.0683 45.5612 9.48378 46.4519 9.03842C47.3612 8.59305 48.3632 8.37037 49.4581 8.37037C51.1282 8.37037 52.4736 8.9178 53.4942 10.0127C54.5334 11.1075 55.053 12.592 55.053 14.4663C55.053 15.0415 54.9973 15.6632 54.886 16.3312C54.6076 17.9271 54.0602 19.3374 53.2437 20.5622C52.4272 21.7684 51.4437 22.7055 50.2932 23.3735C49.1426 24.023 47.9272 24.3478 46.6467 24.3478C45.5704 24.3478 44.6612 24.1251 43.9189 23.6797C43.1766 23.2344 42.6292 22.6591 42.2766 21.954L40.5787 31.5293H35.8188L39.855 8.59305H44.6148L44.2251 10.792ZM50.0705 16.3312C50.1261 16.0158 50.154 15.7281 50.154 15.4683C50.154 14.5405 49.8849 13.8168 49.3468 13.2972C48.8272 12.7776 48.1591 12.5178 47.3426 12.5178C46.3962 12.5178 45.5333 12.8611 44.7539 13.5477C43.9746 14.2343 43.4735 15.1714 43.2508 16.3591C43.1952 16.6931 43.1673 16.9993 43.1673 17.2776C43.1673 18.1869 43.4271 18.9014 43.9467 19.4209C44.4663 19.9405 45.1344 20.2003 45.9509 20.2003C46.8973 20.2003 47.7601 19.857 48.5395 19.1704C49.3375 18.4653 49.8478 17.5189 50.0705 16.3312Z" fill="#333333"/>
<path d="M68.3223 8.42604C69.844 8.42604 71.0409 8.86213 71.9131 9.7343C72.8038 10.6065 73.2491 11.8219 73.2491 13.3807C73.2491 13.9003 73.1935 14.457 73.0821 15.0508L71.4677 24.1251H66.7357L68.2388 15.691C68.2945 15.3756 68.3223 15.0972 68.3223 14.856C68.3223 14.0766 68.0996 13.4735 67.6543 13.0467C67.2275 12.6199 66.6244 12.4065 65.845 12.4065C64.9171 12.4065 64.1378 12.6941 63.5068 13.2694C62.8759 13.8446 62.4676 14.6518 62.2821 15.691V15.6354L60.779 24.1251H56.0192L59.6656 3.52705H64.4254L63.1728 10.6529C63.7852 9.96626 64.5367 9.42811 65.4275 9.03842C66.3182 8.63017 67.2831 8.42604 68.3223 8.42604Z" fill="#333333"/>
<path d="M81.8733 24.3478C80.5372 24.3478 79.3495 24.0787 78.3104 23.5406C77.2712 23.0024 76.464 22.2416 75.8887 21.2581C75.332 20.2746 75.0536 19.1333 75.0536 17.8343C75.0536 16.0714 75.4712 14.4663 76.3062 13.0189C77.1413 11.5714 78.2918 10.4395 79.7578 9.62296C81.2238 8.7879 82.8568 8.37037 84.6568 8.37037C85.9929 8.37037 87.1805 8.64873 88.2197 9.20543C89.2774 9.74358 90.0939 10.5044 90.6692 11.4879C91.2445 12.4714 91.5321 13.6127 91.5321 14.9116C91.5321 16.6931 91.1053 18.3075 90.2517 19.755C89.4166 21.1838 88.2568 22.3065 86.7723 23.123C85.3063 23.9395 83.6733 24.3478 81.8733 24.3478ZM82.5413 20.256C83.3207 20.256 84.0166 20.024 84.629 19.5601C85.2599 19.0776 85.7424 18.4653 86.0764 17.723C86.429 16.9622 86.6053 16.1735 86.6053 15.357C86.6053 14.4292 86.3547 13.7147 85.8537 13.2137C85.3527 12.7127 84.7217 12.4621 83.9609 12.4621C83.163 12.4621 82.4578 12.7034 81.8454 13.1859C81.2516 13.6498 80.7877 14.2622 80.4537 15.023C80.1197 15.7838 79.9526 16.5818 79.9526 17.4168C79.9526 18.3261 80.1939 19.0313 80.6764 19.5323C81.1588 20.0148 81.7805 20.256 82.5413 20.256Z" fill="#333333"/>
<path d="M104.718 8.42604C106.277 8.42604 107.502 8.86213 108.392 9.7343C109.283 10.6065 109.728 11.8219 109.728 13.3807C109.728 13.9003 109.673 14.457 109.561 15.0508L107.947 24.1251H103.215L104.718 15.691C104.774 15.3756 104.802 15.0972 104.802 14.856C104.802 14.0766 104.579 13.4735 104.134 13.0467C103.707 12.6199 103.104 12.4065 102.324 12.4065C101.396 12.4065 100.617 12.6941 99.9862 13.2694C99.3552 13.8446 98.947 14.6518 98.7614 15.691V15.5519L97.2583 24.1251H92.4985L95.2263 8.59305H99.9862L99.6243 10.6807C100.237 9.99409 100.979 9.44667 101.851 9.03842C102.742 8.63017 103.698 8.42604 104.718 8.42604Z" fill="#333333"/>
<path d="M116.682 6.97861C115.94 6.97861 115.346 6.78377 114.901 6.39407C114.474 5.98583 114.261 5.47551 114.261 4.86314C114.261 4.02808 114.586 3.31365 115.235 2.71983C115.885 2.12601 116.673 1.8291 117.601 1.8291C118.343 1.8291 118.928 2.03323 119.355 2.44148C119.781 2.83117 119.995 3.34148 119.995 3.97241C119.995 4.78891 119.67 5.49407 119.021 6.08789C118.371 6.6817 117.592 6.97861 116.682 6.97861ZM118.742 8.59305L116.014 24.1251H111.255L113.982 8.59305H118.742Z" fill="#333333"/>
<path d="M130.32 6.36624C129.41 6.31057 128.742 6.44047 128.315 6.75593C127.907 7.0714 127.629 7.63738 127.48 8.45388L127.453 8.59305H130.013L129.317 12.5457H126.757L124.725 24.1251H119.937L121.969 12.5457H120.243L120.939 8.59305H122.665L122.748 8.14769C123.101 6.23634 123.908 4.78891 125.17 3.8054C126.45 2.80333 128.148 2.3023 130.264 2.3023C130.598 2.3023 130.848 2.31158 131.015 2.33014L130.32 6.36624Z" fill="#333333"/>
<path d="M135.785 8.59305L137.678 18.3075L142.967 8.59305H148.116L134.338 31.5014H129.216L134.171 23.5962L130.496 8.59305H135.785Z" fill="#333333"/>
</svg>
