<svg width="27" height="24" viewBox="0 0 27 24" fill="none" xmlns="http://www.w3.org/2000/svg">
<path d="M-0.000190735 24V20H0.69212C2.33315 20 3.64084 19.7179 4.6152 19.1538C5.58956 18.5897 6.3075 17.6923 6.76904 16.4615C7.1793 15.2821 7.38443 13.7692 7.38443 11.9231V6.15385L9.23058 9.61538C8.8716 9.82051 8.41007 9.97436 7.84596 10.0769C7.23058 10.1795 6.64083 10.2308 6.07673 10.2308C4.64083 10.2308 3.46135 9.76923 2.53827 8.84615C1.56391 7.97436 1.07673 6.74359 1.07673 5.15385C1.07673 3.66667 1.53827 2.4359 2.46135 1.46154C3.33315 0.487179 4.53827 0 6.07673 0C7.05109 0 7.97417 0.230768 8.84596 0.692307C9.71776 1.15384 10.4357 1.97436 10.9998 3.15384C11.5639 4.33333 11.846 6.02564 11.846 8.23077V9.84615C11.846 13.5897 11.3844 16.4872 10.4613 18.5385C9.53827 20.5897 8.23058 22 6.53827 22.7692C4.84596 23.5897 2.84596 24 0.538271 24H-0.000190735ZM14.9229 24V20H15.6152C17.2562 20 18.5639 19.7179 19.5383 19.1538C20.5126 18.5897 21.2306 17.6923 21.6921 16.4615C22.1024 15.2821 22.3075 13.7692 22.3075 11.9231V6.15385L24.1537 9.61538C23.7947 9.82051 23.3331 9.97436 22.769 10.0769C22.1537 10.1795 21.5639 10.2308 20.9998 10.2308C19.5639 10.2308 18.3844 9.76923 17.4613 8.84615C16.487 7.97436 15.9998 6.74359 15.9998 5.15385C15.9998 3.66667 16.4613 2.4359 17.3844 1.46154C18.2562 0.487179 19.4614 0 20.9998 0C21.9742 0 22.8972 0.230768 23.769 0.692307C24.6408 1.15384 25.3588 1.97436 25.9229 3.15384C26.487 4.33333 26.769 6.02564 26.769 8.23077V9.84615C26.769 13.5897 26.3075 16.4872 25.3844 18.5385C24.4614 20.5897 23.1537 22 21.4613 22.7692C19.769 23.5897 17.769 24 15.4613 24H14.9229Z" fill="#D11E28"/>
</svg>
