<svg width="164" height="52" viewBox="0 0 164 52" fill="none" xmlns="http://www.w3.org/2000/svg">
<rect x="0.458333" y="0.458333" width="163.083" height="51.0833" rx="6.875" fill="black"/>
<rect x="0.458333" y="0.458333" width="163.083" height="51.0833" rx="6.875" stroke="#A6A6A6" stroke-width="0.916667"/>
<path d="M105.585 24.889V27.0816H104.03V28.5194H105.585V33.4049C105.585 35.0731 106.439 35.7404 108.588 35.7404C108.966 35.7404 109.326 35.7007 109.64 35.653V34.2311C109.37 34.2549 109.2 34.2708 108.903 34.2708C107.941 34.2708 107.518 33.8736 107.518 32.968V28.5194H109.64V27.0816H107.518V24.889H105.585Z" fill="white"/>
<path d="M115.114 35.8596C117.973 35.8596 119.727 34.1675 119.727 31.3633C119.727 28.575 117.964 26.875 115.114 26.875C112.255 26.875 110.493 28.575 110.493 31.3633C110.493 34.1675 112.246 35.8596 115.114 35.8596ZM115.114 34.3423C113.433 34.3423 112.489 33.254 112.489 31.3633C112.489 29.4886 113.433 28.3923 115.114 28.3923C116.787 28.3923 117.74 29.4886 117.74 31.3633C117.74 33.246 116.787 34.3423 115.114 34.3423Z" fill="white"/>
<path d="M121.227 35.6928H123.16V30.5848C123.16 29.3694 124.194 28.5512 125.659 28.5512C126.001 28.5512 126.576 28.6068 126.738 28.6544V26.9703C126.532 26.9227 126.163 26.8988 125.875 26.8988C124.598 26.8988 123.511 27.5185 123.232 28.3685H123.088V27.0418H121.227V35.6928Z" fill="white"/>
<path d="M131.538 28.3287C132.968 28.3287 133.903 29.2105 133.948 30.5689H129.003C129.111 29.2185 130.109 28.3287 131.538 28.3287ZM133.939 33.3573C133.579 34.0325 132.779 34.4058 131.61 34.4058C130.064 34.4058 129.066 33.4446 129.003 31.9273V31.832H135.917V31.2362C135.917 28.5194 134.271 26.875 131.547 26.875C128.787 26.875 127.034 28.6306 127.034 31.3951C127.034 34.1596 128.751 35.8596 131.556 35.8596C133.795 35.8596 135.359 34.9063 135.8 33.3573H133.939Z" fill="white"/>
<path d="M92.9084 32.4981C93.0575 34.6224 95.0611 35.9809 98.0432 35.9809C101.23 35.9809 103.224 34.5565 103.224 32.284C103.224 30.4973 102.088 29.5093 99.3292 28.9412L97.8475 28.6201C96.0955 28.2578 95.3872 27.772 95.3872 26.9239C95.3872 25.8536 96.4869 25.1537 98.1363 25.1537C99.7019 25.1537 100.783 25.8371 100.979 26.9322H103.01C102.889 24.9314 100.895 23.5234 98.1643 23.5234C95.2288 23.5234 93.2718 24.9314 93.2718 27.0474C93.2718 28.793 94.3808 29.8304 96.813 30.3327L98.5464 30.7032C100.326 31.0737 101.109 31.6171 101.109 32.5228C101.109 33.5767 99.879 34.3424 98.2016 34.3424C96.403 34.3424 95.1543 33.6261 94.9772 32.4981H92.9084Z" fill="white"/>
<path d="M72.8837 26.8988C71.553 26.8988 70.4022 27.4867 69.8088 28.4717H69.6649V27.0418H67.8038V38.5685H69.7368V34.382H69.8897C70.4022 35.2956 71.5081 35.8358 72.9017 35.8358C75.3742 35.8358 76.9477 34.1119 76.9477 31.3633C76.9477 28.6147 75.3742 26.8988 72.8837 26.8988ZM72.3353 34.3026C70.7169 34.3026 69.7009 33.1745 69.7009 31.3713C69.7009 29.5601 70.7169 28.432 72.3442 28.432C73.9806 28.432 74.9606 29.5362 74.9606 31.3633C74.9606 33.1984 73.9806 34.3026 72.3353 34.3026Z" fill="white"/>
<path d="M83.7118 26.8988C82.3811 26.8988 81.2303 27.4867 80.6369 28.4717H80.493V27.0418H78.6319V38.5685H80.5649V34.382H80.7178C81.2303 35.2956 82.3362 35.8358 83.7298 35.8358C86.2023 35.8358 87.7758 34.1119 87.7758 31.3633C87.7758 28.6147 86.2023 26.8988 83.7118 26.8988ZM83.1634 34.3026C81.545 34.3026 80.529 33.1745 80.529 31.3713C80.529 29.5601 81.545 28.432 83.1723 28.432C84.8087 28.432 85.7887 29.5362 85.7887 31.3633C85.7887 33.1984 84.8087 34.3026 83.1634 34.3026Z" fill="white"/>
<path d="M64.3355 35.6928H66.5534L61.6982 23.8116H59.4523L54.5972 35.6928H56.7405L57.98 32.5393H63.1054L64.3355 35.6928ZM60.4681 25.9688H60.6265L62.5742 30.9914H58.5111L60.4681 25.9688Z" fill="white"/>
<path d="M55.8945 14.8504V20.5819H58.2367C60.1698 20.5819 61.2892 19.5293 61.2892 17.6983C61.2892 15.895 60.1608 14.8504 58.2367 14.8504H55.8945ZM56.9015 15.6606H58.1243C59.4685 15.6606 60.2642 16.4153 60.2642 17.7102C60.2642 19.0249 59.482 19.7716 58.1243 19.7716H56.9015V15.6606Z" fill="white"/>
<path d="M64.7175 20.6653C66.147 20.6653 67.0237 19.8193 67.0237 18.4172C67.0237 17.023 66.1425 16.173 64.7175 16.173C63.2879 16.173 62.4068 17.023 62.4068 18.4172C62.4068 19.8193 63.2834 20.6653 64.7175 20.6653ZM64.7175 19.9067C63.8768 19.9067 63.4048 19.3625 63.4048 18.4172C63.4048 17.4798 63.8768 16.9317 64.7175 16.9317C65.5536 16.9317 66.0301 17.4798 66.0301 18.4172C66.0301 19.3585 65.5536 19.9067 64.7175 19.9067Z" fill="white"/>
<path d="M74.4889 16.2564H73.5224L72.6503 19.5571H72.5738L71.5668 16.2564H70.6408L69.6338 19.5571H69.5618L68.6852 16.2564H67.7052L69.0538 20.5819H70.0473L71.0543 17.3964H71.1308L72.1423 20.5819H73.1448L74.4889 16.2564Z" fill="white"/>
<path d="M75.602 20.5819H76.5686V18.0518C76.5686 17.3765 77.0226 16.9555 77.7374 16.9555C78.4522 16.9555 78.7938 17.3011 78.7938 17.9962V20.5819H79.7604V17.7817C79.7604 16.7529 79.158 16.173 78.0656 16.173C77.3283 16.173 76.8428 16.463 76.6045 16.9436H76.5326V16.2564H75.602V20.5819Z" fill="white"/>
<path d="M81.2826 20.5819H82.2491V14.5684H81.2826V20.5819Z" fill="white"/>
<path d="M85.8842 20.6653C87.3138 20.6653 88.1904 19.8193 88.1904 18.4172C88.1904 17.023 87.3093 16.173 85.8842 16.173C84.4546 16.173 83.5735 17.023 83.5735 18.4172C83.5735 19.8193 84.4501 20.6653 85.8842 20.6653ZM85.8842 19.9067C85.0435 19.9067 84.5715 19.3625 84.5715 18.4172C84.5715 17.4798 85.0435 16.9317 85.8842 16.9317C86.7204 16.9317 87.1969 17.4798 87.1969 18.4172C87.1969 19.3585 86.7204 19.9067 85.8842 19.9067Z" fill="white"/>
<path d="M91.0702 19.9345C90.5443 19.9345 90.1621 19.7081 90.1621 19.3188C90.1621 18.9375 90.4678 18.7349 91.1422 18.6952L92.338 18.6277V18.9892C92.338 19.5254 91.7985 19.9345 91.0702 19.9345ZM90.823 20.6534C91.4658 20.6534 92.0008 20.4071 92.293 19.9742H92.3694V20.5819H93.3V17.6268C93.3 16.7132 92.6077 16.173 91.3804 16.173C90.27 16.173 89.4788 16.6497 89.3799 17.3924H90.315C90.4229 17.0866 90.796 16.9118 91.3355 16.9118C91.9963 16.9118 92.338 17.17 92.338 17.6268V18.0001L91.0118 18.0677C89.8474 18.1312 89.1911 18.58 89.1911 19.3585C89.1911 20.149 89.8789 20.6534 90.823 20.6534Z" fill="white"/>
<path d="M96.58 20.6534C97.2543 20.6534 97.8252 20.3714 98.1174 19.8987H98.1938V20.5819H99.1199V14.5684H98.1534V16.9436H98.0815C97.8162 16.467 97.2498 16.1849 96.58 16.1849C95.3437 16.1849 94.548 17.0508 94.548 18.4172C94.548 19.7875 95.3347 20.6534 96.58 20.6534ZM96.8542 16.9515C97.6634 16.9515 98.1714 17.5195 98.1714 18.4212C98.1714 19.3268 97.6679 19.8868 96.8542 19.8868C96.036 19.8868 95.546 19.3347 95.546 18.4172C95.546 17.5076 96.0405 16.9515 96.8542 16.9515Z" fill="white"/>
<path d="M105.388 20.6653C106.817 20.6653 107.694 19.8193 107.694 18.4172C107.694 17.023 106.813 16.173 105.388 16.173C103.958 16.173 103.077 17.023 103.077 18.4172C103.077 19.8193 103.954 20.6653 105.388 20.6653ZM105.388 19.9067C104.547 19.9067 104.075 19.3625 104.075 18.4172C104.075 17.4798 104.547 16.9317 105.388 16.9317C106.224 16.9317 106.7 17.4798 106.7 18.4172C106.7 19.3585 106.224 19.9067 105.388 19.9067Z" fill="white"/>
<path d="M108.973 20.5819H109.94V18.0518C109.94 17.3765 110.394 16.9555 111.109 16.9555C111.823 16.9555 112.165 17.3011 112.165 17.9962V20.5819H113.132V17.7817C113.132 16.7529 112.529 16.173 111.437 16.173C110.7 16.173 110.214 16.463 109.976 16.9436H109.904V16.2564H108.973V20.5819Z" fill="white"/>
<path d="M117.583 15.18V16.2763H116.805V16.9952H117.583V19.438C117.583 20.2721 118.01 20.6057 119.085 20.6057C119.273 20.6057 119.453 20.5859 119.611 20.5621V19.8511C119.476 19.863 119.39 19.8709 119.242 19.8709C118.761 19.8709 118.55 19.6723 118.55 19.2195V16.9952H119.611V16.2763H118.55V15.18H117.583Z" fill="white"/>
<path d="M120.908 20.5819H121.874V18.0557C121.874 17.4004 122.315 16.9595 123.106 16.9595C123.79 16.9595 124.154 17.309 124.154 18.0001V20.5819H125.12V17.7896C125.12 16.7609 124.477 16.177 123.434 16.177C122.697 16.177 122.18 16.467 121.942 16.9515H121.865V14.5684H120.908V20.5819Z" fill="white"/>
<path d="M128.607 16.8999C129.322 16.8999 129.789 17.3408 129.812 18.02H127.339C127.393 17.3448 127.892 16.8999 128.607 16.8999ZM129.807 19.4142C129.627 19.7518 129.227 19.9385 128.643 19.9385C127.87 19.9385 127.371 19.4578 127.339 18.6992V18.6515H130.796V18.3536C130.796 16.9952 129.974 16.173 128.611 16.173C127.231 16.173 126.355 17.0508 126.355 18.4331C126.355 19.8153 127.213 20.6653 128.616 20.6653C129.735 20.6653 130.518 20.1887 130.738 19.4142H129.807Z" fill="white"/>
<path d="M44.1089 25.9419C44.1323 24.3332 45.1102 22.8109 46.6614 21.9683C45.6828 20.7335 44.0437 19.9505 42.3384 19.9034C40.5195 19.7347 38.7561 20.865 37.8293 20.865C36.8845 20.865 35.4574 19.9202 33.9207 19.9481C31.9177 20.0053 30.0503 21.0115 29.0758 22.5587C26.981 25.7632 28.5435 30.4726 30.5502 33.0629C31.5542 34.3313 32.7276 35.7481 34.2629 35.6978C35.7653 35.6428 36.3264 34.8514 38.1399 34.8514C39.9366 34.8514 40.4631 35.6978 42.0296 35.6659C43.6417 35.6428 44.6574 34.3919 45.6262 33.1115C46.3475 32.2077 46.9026 31.2089 47.2709 30.1519C45.3763 29.4439 44.1111 27.7594 44.1089 25.9419Z" fill="white"/>
<path d="M41.1501 18.1999C42.0291 17.2676 42.4621 16.0693 42.3573 14.8594C41.0143 14.984 39.7738 15.5511 38.8829 16.4476C38.0118 17.3236 37.5584 18.5009 37.6441 19.6645C38.9875 19.6767 40.3082 19.125 41.1501 18.1999Z" fill="white"/>
</svg>
