<svg width="28" height="28" viewBox="0 0 28 28" fill="none" xmlns="http://www.w3.org/2000/svg">
<path d="M9.51474 3.11108C5.99982 3.11108 3.11133 5.99571 3.11133 9.51449V18.4855C3.11133 22.0004 5.99596 24.8889 9.51474 24.8889H18.4857C22.0006 24.8889 24.8891 22.0042 24.8891 18.4855V9.51449C24.8891 5.99958 22.0045 3.11108 18.4857 3.11108H9.51474ZM9.51474 5.09088H18.4857C20.9334 5.09088 22.9093 7.06681 22.9093 9.51449V18.4855C22.9093 20.9331 20.9334 22.9091 18.4857 22.9091H9.51474C7.06706 22.9091 5.09113 20.9331 5.09113 18.4855V9.51449C5.09113 7.06681 7.06706 5.09088 9.51474 5.09088ZM19.8468 7.25629C19.348 7.25629 18.9497 7.65457 18.9497 8.15338C18.9497 8.6522 19.348 9.05048 19.8468 9.05048C20.3456 9.05048 20.7439 8.6522 20.7439 8.15338C20.7439 7.65457 20.3456 7.25629 19.8468 7.25629ZM14.0002 8.06058C10.7328 8.06058 8.06082 10.7325 8.06082 14C8.06082 17.2674 10.7328 19.9394 14.0002 19.9394C17.2677 19.9394 19.9396 17.2674 19.9396 14C19.9396 10.7325 17.2677 8.06058 14.0002 8.06058ZM14.0002 10.0404C16.2004 10.0404 17.9598 11.7998 17.9598 14C17.9598 16.2002 16.2004 17.9596 14.0002 17.9596C11.8 17.9596 10.0406 16.2002 10.0406 14C10.0406 11.7998 11.8 10.0404 14.0002 10.0404Z" fill="#1F1E1C"/>
</svg>
