<svg width="28" height="28" viewBox="0 0 28 28" fill="none" xmlns="http://www.w3.org/2000/svg">
<path d="M25.1996 25.2005V16.9965C25.1996 12.9645 24.3316 9.88452 19.6276 9.88452C17.3596 9.88452 15.8476 11.1165 15.2316 12.2925H15.1756V10.2485H10.7236V25.2005H15.3716V17.7805C15.3716 15.8205 15.7356 13.9445 18.1436 13.9445C20.5236 13.9445 20.5516 16.1565 20.5516 17.8925V25.1725H25.1996V25.2005Z" fill="#1F1E1C"/>
<path d="M3.16162 10.2476H7.80962V25.1996H3.16162V10.2476Z" fill="#1F1E1C"/>
<path d="M5.48683 2.80127C4.00283 2.80127 2.79883 4.00527 2.79883 5.48927C2.79883 6.97327 4.00283 8.20527 5.48683 8.20527C6.97083 8.20527 8.17483 6.97327 8.17483 5.48927C8.17483 4.00527 6.97083 2.80127 5.48683 2.80127Z" fill="#1F1E1C"/>
</svg>
