<svg width="14" height="14" viewBox="0 0 14 14" fill="none" xmlns="http://www.w3.org/2000/svg">
<path d="M11.6668 5.83341C11.6668 8.746 8.43575 11.7793 7.35075 12.7162C7.24967 12.7922 7.12663 12.8333 7.00016 12.8333C6.8737 12.8333 6.75066 12.7922 6.64958 12.7162C5.56458 11.7793 2.3335 8.746 2.3335 5.83341C2.3335 4.59574 2.82516 3.40875 3.70033 2.53358C4.5755 1.65841 5.76249 1.16675 7.00016 1.16675C8.23784 1.16675 9.42482 1.65841 10.3 2.53358C11.1752 3.40875 11.6668 4.59574 11.6668 5.83341Z" stroke="black" stroke-width="0.8" stroke-linecap="round" stroke-linejoin="round"/>
<path d="M7 7.58325C7.9665 7.58325 8.75 6.79975 8.75 5.83325C8.75 4.86675 7.9665 4.08325 7 4.08325C6.0335 4.08325 5.25 4.86675 5.25 5.83325C5.25 6.79975 6.0335 7.58325 7 7.58325Z" stroke="black" stroke-width="0.8" stroke-linecap="round" stroke-linejoin="round"/>
</svg>
