<svg width="164" height="52" viewBox="0 0 164 52" fill="none" xmlns="http://www.w3.org/2000/svg">
<rect x="0.464062" y="0.464062" width="163.072" height="51.0719" rx="6.96094" fill="black"/>
<rect x="0.464062" y="0.464062" width="163.072" height="51.0719" rx="6.96094" stroke="#A6A6A6" stroke-width="0.928125"/>
<path d="M116.285 34.7993H117.924V23.8206H116.285V34.7993ZM131.045 27.7756L129.167 32.5352H129.11L127.161 27.7756H125.396L128.32 34.4278L126.652 38.1285H128.361L132.867 27.7756H131.045ZM121.751 33.5523C121.216 33.5523 120.467 33.2837 120.467 32.62C120.467 31.7726 121.399 31.4478 122.204 31.4478C122.924 31.4478 123.264 31.6029 123.701 31.8149C123.574 32.832 122.698 33.5523 121.751 33.5523ZM121.95 27.5354C120.763 27.5354 119.535 28.0582 119.026 29.2163L120.481 29.8235C120.791 29.2163 121.37 29.0187 121.978 29.0187C122.825 29.0187 123.687 29.5268 123.701 30.431V30.5439C123.404 30.3744 122.768 30.1202 121.992 30.1202C120.424 30.1202 118.828 30.9816 118.828 32.5918C118.828 34.0607 120.114 35.0072 121.554 35.0072C122.655 35.0072 123.264 34.5128 123.644 33.9335H123.701V34.7815H125.283V30.572C125.283 28.6228 123.827 27.5354 121.95 27.5354ZM111.823 29.112H109.492V25.3489H111.823C113.048 25.3489 113.743 26.3629 113.743 27.2304C113.743 28.0812 113.048 29.112 111.823 29.112ZM111.78 23.8206H107.854V34.7993H109.492V30.6399H111.78C113.597 30.6399 115.382 29.3254 115.382 27.2304C115.382 25.1358 113.597 23.8206 111.78 23.8206ZM90.3691 33.5544C89.237 33.5544 88.2895 32.6062 88.2895 31.3051C88.2895 29.9889 89.237 29.0272 90.3691 29.0272C91.4867 29.0272 92.3639 29.9889 92.3639 31.3051C92.3639 32.6062 91.4867 33.5544 90.3691 33.5544ZM92.2507 28.3903H92.194C91.8263 27.9518 91.1186 27.5557 90.2278 27.5557C88.3599 27.5557 86.6481 29.1971 86.6481 31.3051C86.6481 33.3987 88.3599 35.0257 90.2278 35.0257C91.1186 35.0257 91.8263 34.6294 92.194 34.177H92.2507V34.7142C92.2507 36.1437 91.4867 36.9073 90.2559 36.9073C89.2518 36.9073 88.6292 36.1859 88.3743 35.5776L86.9456 36.1718C87.3555 37.1618 88.4446 38.3789 90.2559 38.3789C92.1803 38.3789 93.8074 37.2469 93.8074 34.4878V27.7821H92.2507V28.3903ZM94.9394 34.7993H96.5799V23.8206H94.9394V34.7993ZM98.9993 31.1775C98.9571 29.7343 100.118 28.9988 100.952 28.9988C101.603 28.9988 102.154 29.3243 102.339 29.7909L98.9993 31.1775ZM104.092 29.9322C103.781 29.0979 102.833 27.5557 100.895 27.5557C98.9708 27.5557 97.3722 29.0695 97.3722 31.2907C97.3722 33.3846 98.9571 35.0257 101.079 35.0257C102.791 35.0257 103.781 33.9791 104.192 33.3705L102.918 32.5214C102.494 33.1441 101.914 33.5544 101.079 33.5544C100.245 33.5544 99.6501 33.1723 99.2686 32.4224L104.262 30.3569L104.092 29.9322ZM64.3039 28.7017V30.2862H68.0955C67.9823 31.1775 67.6852 31.8282 67.2324 32.281C66.6804 32.8326 65.8174 33.4412 64.3039 33.4412C61.9694 33.4412 60.1445 31.5596 60.1445 29.2252C60.1445 26.8908 61.9694 25.0089 64.3039 25.0089C65.5631 25.0089 66.4825 25.5042 67.1617 26.1409L68.2797 25.023C67.3315 24.1177 66.0726 23.4244 64.3039 23.4244C61.106 23.4244 58.418 26.0277 58.418 29.2252C58.418 32.4224 61.106 35.0257 64.3039 35.0257C66.0297 35.0257 67.3315 34.4597 68.35 33.3987C69.397 32.3517 69.7226 30.8804 69.7226 29.6918C69.7226 29.3243 69.694 28.9847 69.6375 28.7017H64.3039ZM74.0332 33.5544C72.9011 33.5544 71.9249 32.6206 71.9249 31.2907C71.9249 29.9466 72.9011 29.0272 74.0332 29.0272C75.1648 29.0272 76.1411 29.9466 76.1411 31.2907C76.1411 32.6206 75.1648 33.5544 74.0332 33.5544ZM74.0332 27.5557C71.967 27.5557 70.2837 29.126 70.2837 31.2907C70.2837 33.4412 71.967 35.0257 74.0332 35.0257C76.0986 35.0257 77.7823 33.4412 77.7823 31.2907C77.7823 29.126 76.0986 27.5557 74.0332 27.5557ZM82.2116 33.5544C81.0803 33.5544 80.1036 32.6206 80.1036 31.2907C80.1036 29.9466 81.0803 29.0272 82.2116 29.0272C83.3436 29.0272 84.3195 29.9466 84.3195 31.2907C84.3195 32.6206 83.3436 33.5544 82.2116 33.5544ZM82.2116 27.5557C80.1462 27.5557 78.4629 29.126 78.4629 31.2907C78.4629 33.4412 80.1462 35.0257 82.2116 35.0257C84.2777 35.0257 85.961 33.4412 85.961 31.2907C85.961 29.126 84.2777 27.5557 82.2116 27.5557Z" fill="white"/>
<path d="M61.4351 20.0762C60.6477 20.0762 59.9705 19.7991 59.4245 19.2532C58.8782 18.7069 58.6016 18.0229 58.6016 17.2276C58.6016 16.4322 58.8784 15.7494 59.4245 15.2019C59.9705 14.6559 60.6478 14.379 61.4351 14.379C61.8362 14.379 62.2106 14.4482 62.5683 14.5925C62.9262 14.7368 63.219 14.9371 63.4496 15.1992L63.504 15.2611L62.8897 15.8751L62.8283 15.7997C62.6754 15.6118 62.481 15.4658 62.2345 15.3597C61.989 15.2539 61.7201 15.205 61.4351 15.205C60.8805 15.205 60.4204 15.3933 60.0362 15.7762C60.0361 15.7762 60.0359 15.7762 60.0358 15.7763C59.6603 16.1669 59.4715 16.6424 59.4715 17.2276C59.4715 17.8132 59.6605 18.2888 60.0365 18.6795C60.4207 19.0622 60.8808 19.2515 61.4351 19.2515C61.9427 19.2515 62.3626 19.1098 62.6927 18.8292H62.6928C63.0001 18.5681 63.1845 18.2153 63.2498 17.7655H61.3473V16.9559H64.072L64.0837 17.03C64.106 17.1723 64.1218 17.3097 64.1218 17.4416C64.1218 18.197 63.8915 18.8136 63.4396 19.2673C62.9296 19.808 62.2588 20.0762 61.4351 20.0762L61.4351 20.0762ZM85.0949 20.0762C84.3064 20.0762 83.6371 19.799 83.0981 19.2532C83.098 19.2532 83.098 19.2531 83.0979 19.253C83.0978 19.253 83.0978 19.2529 83.0977 19.2529C82.558 18.713 82.2902 18.0288 82.2902 17.2276C82.2902 16.4263 82.558 15.7421 83.0977 15.2022C83.0978 15.2022 83.0978 15.2022 83.0979 15.2021L83.0981 15.2019C83.6371 14.656 84.3064 14.3789 85.0949 14.3789C85.8819 14.3789 86.5514 14.6561 87.0904 15.2101C87.6303 15.7499 87.8982 16.4328 87.8982 17.2275C87.8982 18.0288 87.6304 18.7129 87.0907 19.2529L87.0905 19.253C86.5512 19.7992 85.8755 20.0762 85.0949 20.0762L85.0949 20.0762ZM64.9015 19.9582V14.497H64.9893H68.1631V15.323H65.7564V16.8228H67.9271V17.6323H65.7564V19.1335H68.1631V19.9582H64.9015ZM70.1593 19.9582V15.323H68.6828V14.497H72.4906V15.323H72.4028H71.0141V19.9582H70.1593ZM74.9241 19.9582V14.497H75.779V14.5848V19.9582H74.9241ZM77.9309 19.9582V15.323H76.4544V14.497H80.2622V15.323H80.1743H78.7857V19.9582H77.9309ZM88.657 19.9582V14.497H89.621L92.0742 18.4244L92.0531 17.6788V14.497H92.908V19.9582H92.0621L89.4908 15.8322L89.5119 16.5773V16.5785V19.9582H88.657ZM85.0949 19.2515C85.6495 19.2515 86.1022 19.0624 86.4712 18.6802L86.4717 18.6795L86.4722 18.6789C86.8465 18.3046 87.0297 17.8226 87.0297 17.2275C87.0297 16.6339 86.8464 16.1503 86.4722 15.7761L86.4717 15.7756L86.4712 15.7751C86.1022 15.393 85.6496 15.2049 85.0949 15.2049C84.5393 15.2049 84.0867 15.3926 83.7107 15.7747L83.7104 15.7751C83.343 16.1584 83.1602 16.6341 83.1602 17.2275C83.1602 17.8224 83.343 18.2966 83.7104 18.6799L83.7107 18.6803C84.0868 19.0625 84.5394 19.2515 85.0949 19.2515V19.2515Z" fill="white"/>
<path d="M40.5644 25.5103L31.2148 35.4338C31.2152 35.4358 31.2159 35.4375 31.2162 35.4396C31.503 36.5171 32.4872 37.3105 33.6552 37.3105C34.1222 37.3105 34.5605 37.1843 34.9365 36.9627L34.9664 36.9452L45.4905 30.8724L40.5644 25.5103Z" fill="#EA4335"/>
<path d="M50.0268 23.8202L50.0179 23.8141L45.4743 21.1802L40.3555 25.7351L45.4921 30.8711L50.0117 28.2633C50.8041 27.8356 51.342 27.0002 51.342 26.037C51.342 25.0806 50.8113 24.2494 50.0268 23.8202Z" fill="#FBBC04"/>
<path d="M31.2186 16.5993C31.1624 16.8065 31.1328 17.0236 31.1328 17.249V34.7842C31.1328 35.0093 31.162 35.2271 31.2189 35.4336L40.8903 25.764L31.2186 16.5993Z" fill="#4285F4"/>
<path d="M40.6337 26.0176L45.473 21.1797L34.9608 15.0849C34.5787 14.856 34.1328 14.724 33.6556 14.724C32.4875 14.724 31.502 15.5188 31.2152 16.5977C31.2148 16.5987 31.2148 16.5994 31.2148 16.6004L40.6337 26.0176Z" fill="#34A853"/>
</svg>
