<svg width="18" height="18" viewBox="0 0 18 18" fill="none" xmlns="http://www.w3.org/2000/svg">
<g clip-path="url(#clip0_10117_21550)">
<mask id="mask0_10117_21550" style="mask-type:luminance" maskUnits="userSpaceOnUse" x="0" y="0" width="18" height="18">
<path d="M18 0H0V18H18V0Z" fill="white"/>
</mask>
<g mask="url(#mask0_10117_21550)">
<path d="M7.71429 9.64244L6.75 7.71387L4.82143 10.2853L2.25 12.2139L4.5 13.821L6.42857 16.7139L7.71429 14.1424L10.6071 11.8924L7.71429 9.64244Z" fill="#42A5F5"/>
<path d="M2.02071 12.2382C4.33328 11.7655 6.14053 9.95822 6.6132 7.64567L5.51098 7.42041C5.12856 9.29138 3.66641 10.7536 1.79542 11.1359L2.02071 12.2382ZM2.02071 11.7625C2.06873 11.7724 2.12493 11.8037 2.16552 11.8576C2.20204 11.9061 2.21484 11.9576 2.21484 12.0003C2.21484 12.0431 2.20204 12.0946 2.16552 12.143C2.12493 12.197 2.06873 12.2283 2.02071 12.2382L1.79542 11.1359C0.854653 11.3283 0.854653 12.6724 1.79542 12.8647L2.02071 11.7625ZM6.6132 16.355C6.14053 14.0424 4.33328 12.2352 2.02071 11.7625L1.79542 12.8647C3.66641 13.2471 5.12856 14.7093 5.51098 16.5803L6.6132 16.355ZM6.13753 16.355C6.14736 16.307 6.17878 16.2508 6.23264 16.2102C6.28112 16.1737 6.33257 16.1608 6.37536 16.1608C6.41818 16.1608 6.46965 16.1737 6.51806 16.2102C6.57199 16.2508 6.60336 16.307 6.6132 16.355L5.51098 16.5803C5.70328 17.521 7.04745 17.521 7.23973 16.5803L6.13753 16.355ZM10.73 11.7625C8.41744 12.2352 6.61018 14.0424 6.13753 16.355L7.23973 16.5803C7.62216 14.7093 9.08434 13.2471 10.9553 12.8647L10.73 11.7625ZM10.73 12.2382C10.682 12.2283 10.6258 12.197 10.5852 12.143C10.5487 12.0946 10.5358 12.0431 10.5358 12.0003C10.5358 11.9576 10.5487 11.9061 10.5852 11.8576C10.6258 11.8037 10.682 11.7724 10.73 11.7625L10.9553 12.8647C11.8961 12.6724 11.8961 11.3283 10.9553 11.1359L10.73 12.2382ZM6.13753 7.64567C6.61018 9.95822 8.41744 11.7655 10.73 12.2382L10.9553 11.1359C9.08434 10.7536 7.62216 9.29138 7.23973 7.42041L6.13753 7.64567ZM7.23973 7.42041C7.04745 6.47965 5.70328 6.47965 5.51098 7.42041L6.6132 7.64567C6.60336 7.69369 6.57199 7.74988 6.51806 7.7905C6.46965 7.82702 6.41818 7.83981 6.37536 7.83981C6.33257 7.83981 6.28112 7.82702 6.23264 7.7905C6.17878 7.74988 6.14736 7.69369 6.13753 7.64567L7.23973 7.42041Z" fill="#42A5F5"/>
<path d="M8.64887 0.969602C8.72711 0.586956 9.27379 0.586956 9.35203 0.969602C9.52477 1.81472 10.1852 2.47518 11.0303 2.64792C11.413 2.72613 11.413 3.27286 11.0303 3.35107C10.1852 3.52381 9.52477 4.18425 9.35203 5.02939C9.27379 5.41204 8.72711 5.41204 8.64887 5.02939C8.47614 4.18425 7.81567 3.52381 6.97057 3.35107C6.58794 3.27286 6.58794 2.72613 6.97057 2.64792C7.81567 2.47518 8.47614 1.81472 8.64887 0.969602Z" fill="#FBC02D"/>
<path fill-rule="evenodd" clip-rule="evenodd" d="M11.6213 6.92685C12.6564 6.71529 13.4653 5.9064 13.6768 4.87133C13.8044 4.24731 14.696 4.24732 14.8235 4.87133C15.0351 5.9064 15.844 6.71529 16.8791 6.92685C17.5031 7.05439 17.5031 7.94597 16.8791 8.07351C15.844 8.28508 15.0351 9.09399 14.8235 10.1291C14.696 10.7531 13.8044 10.7531 13.6768 10.1291C13.4653 9.09399 12.6564 8.28508 11.6213 8.07351C10.9973 7.94597 10.9974 7.05439 11.6213 6.92685Z" fill="#FBC02D"/>
</g>
</g>
<defs>
<clipPath id="clip0_10117_21550">
<rect width="18" height="18" fill="white"/>
</clipPath>
</defs>
</svg>
