<svg width="18" height="18" viewBox="0 0 18 18" fill="none" xmlns="http://www.w3.org/2000/svg">
<path d="M14.5 5.53031C14.5 8.74981 12 9.24981 12 12.2503C12 13.7993 10.4385 13.9298 9.25 13.9298C8.2235 13.9298 5.957 13.5403 5.957 12.2493C5.957 9.25031 3.5 8.75031 3.5 5.53031C3.5 2.51481 6.1425 0.0703125 9.0415 0.0703125C11.9415 0.0703125 14.5 2.51481 14.5 5.53031Z" fill="#FFD983"/>
<path d="M11.083 16.2498C11.083 16.6638 9.96602 17.4998 8.99952 17.4998C8.03302 17.4998 6.91602 16.6638 6.91602 16.2498C6.91602 15.8358 8.03252 15.9998 8.99952 15.9998C9.96652 15.9998 11.083 15.8358 11.083 16.2498Z" fill="#CCD6DD"/>
<path d="M11.3534 5.14642C11.2597 5.05269 11.1325 5.00003 10.9999 5.00003C10.8673 5.00003 10.7402 5.05269 10.6464 5.14642L8.99992 6.79292L7.35342 5.14642C7.307 5.1 7.25189 5.06318 7.19124 5.03805C7.13058 5.01293 7.06558 5 6.99992 5C6.93427 5 6.86927 5.01293 6.80861 5.03805C6.74796 5.06318 6.69285 5.1 6.64642 5.14642C6.6 5.19285 6.56318 5.24796 6.53805 5.30861C6.51293 5.36927 6.5 5.43427 6.5 5.49992C6.5 5.56558 6.51293 5.63058 6.53805 5.69124C6.56318 5.75189 6.6 5.807 6.64642 5.85342L8.49992 7.70692V12.9999C8.49992 13.1325 8.5526 13.2597 8.64637 13.3535C8.74014 13.4472 8.86732 13.4999 8.99992 13.4999C9.13253 13.4999 9.25971 13.4472 9.35348 13.3535C9.44725 13.2597 9.49992 13.1325 9.49992 12.9999V7.70692L11.3534 5.85342C11.4472 5.75966 11.4998 5.63251 11.4998 5.49992C11.4998 5.36734 11.4472 5.24019 11.3534 5.14642Z" fill="#FFCC4D"/>
<path d="M12 15.5C12 15.7652 11.8946 16.0196 11.7071 16.2071C11.5196 16.3946 11.2652 16.5 11 16.5H7C6.73478 16.5 6.48043 16.3946 6.29289 16.2071C6.10536 16.0196 6 15.7652 6 15.5V12.5H12V15.5Z" fill="#99AAB5"/>
<path d="M6.0001 16.0001C5.87489 15.9997 5.75442 15.9522 5.66249 15.8672C5.57056 15.7822 5.51387 15.6658 5.50363 15.541C5.49339 15.4162 5.53034 15.2921 5.60718 15.1933C5.68401 15.0944 5.79515 15.028 5.9186 15.0071L11.9186 14.0071C11.9834 13.996 12.0497 13.9978 12.1138 14.0125C12.1779 14.0271 12.2384 14.0544 12.2919 14.0926C12.3454 14.1308 12.3907 14.1793 12.4254 14.2351C12.46 14.291 12.4832 14.3532 12.4936 14.4181C12.5153 14.5489 12.4842 14.6829 12.4071 14.7907C12.33 14.8985 12.2133 14.9713 12.0826 14.9931L6.0826 15.9931C6.05534 15.9977 6.02775 16.0001 6.0001 16.0001ZM6.0001 14.0001C5.87489 13.9997 5.75442 13.9522 5.66249 13.8672C5.57056 13.7822 5.51387 13.6658 5.50363 13.541C5.49339 13.4162 5.53034 13.2921 5.60718 13.1933C5.68401 13.0944 5.79515 13.028 5.9186 13.0071L11.9186 12.0071C11.9834 11.996 12.0497 11.9979 12.1138 12.0126C12.1778 12.0273 12.2383 12.0545 12.2918 12.0928C12.3452 12.131 12.3906 12.1794 12.4252 12.2352C12.4599 12.2911 12.4831 12.3532 12.4936 12.4181C12.5153 12.5489 12.4842 12.6829 12.4071 12.7907C12.33 12.8985 12.2133 12.9713 12.0826 12.9931L6.0826 13.9931C6.05534 13.9977 6.02775 14.0001 6.0001 14.0001Z" fill="#CCD6DD"/>
</svg>
