<svg width="18" height="18" viewBox="0 0 18 18" fill="none" xmlns="http://www.w3.org/2000/svg">
<path d="M14.3789 8.14741C14.2664 8.14733 14.1569 8.11057 14.0655 8.04232C13.9742 7.97407 13.9058 7.87775 13.8698 7.76692C13.6729 7.15387 13.3417 6.59683 12.9025 6.13978C12.4632 5.68272 11.9278 5.33816 11.3387 5.13329C11.2086 5.0818 11.1029 4.97988 11.0435 4.84896C10.9842 4.71803 10.976 4.56828 11.0205 4.43115C11.0651 4.29402 11.1589 4.1802 11.2824 4.11357C11.406 4.04695 11.5495 4.03272 11.6828 4.07387C12.4283 4.33439 13.1057 4.77109 13.6618 5.3497C14.2179 5.92831 14.6376 6.63311 14.888 7.4088C14.9162 7.48052 14.9298 7.55756 14.9279 7.63504C14.926 7.71252 14.9087 7.78874 14.877 7.85888C14.8453 7.92902 14.8 7.99155 14.7439 8.0425C14.6877 8.09346 14.622 8.13172 14.551 8.15487C14.4936 8.16319 14.4353 8.16067 14.3789 8.14741Z" fill="#FBC02D"/>
<path d="M16.5299 8.14896C16.4022 8.1489 16.2787 8.10158 16.1815 8.01547C16.0843 7.92935 16.0197 7.81006 15.9993 7.67894C15.8067 6.48925 15.2627 5.39156 14.4428 4.53849C13.6229 3.68541 12.568 3.11935 11.4246 2.919C11.3532 2.90923 11.2845 2.88464 11.2224 2.84672C11.1604 2.80879 11.1063 2.75828 11.0633 2.6982C11.0204 2.63811 10.9894 2.56967 10.9724 2.49692C10.9553 2.42417 10.9524 2.34859 10.964 2.27467C10.9755 2.20075 11.0011 2.12999 11.0394 2.06658C11.0777 2.00317 11.1279 1.9484 11.1869 1.90552C11.2459 1.86263 11.3125 1.83251 11.3829 1.81693C11.4533 1.80135 11.526 1.80063 11.5967 1.81482C12.9636 2.05073 14.2254 2.72571 15.2052 3.74519C16.185 4.76467 16.8337 6.07755 17.0605 7.49988C17.0832 7.64629 17.0492 7.79612 16.9658 7.91643C16.8825 8.03674 16.7566 8.11769 16.6159 8.1415L16.5299 8.14896Z" fill="#FBC02D"/>
<path d="M16.5294 11.8417L14.5217 9.73031C14.2853 9.48611 13.9657 9.34907 13.6326 9.34907C13.2995 9.34907 12.9799 9.48611 12.7435 9.73031L11.4672 11.0658C10.7232 10.7551 10.0474 10.2908 9.4805 9.70098C8.91363 9.11115 8.46744 8.40797 8.16882 7.63385L9.45231 6.30585C9.68701 6.05988 9.81872 5.72733 9.81872 5.38072C9.81872 5.03411 9.68701 4.70157 9.45231 4.45559L7.42311 2.36659C7.18671 2.12239 6.86711 1.98535 6.53399 1.98535C6.20088 1.98535 5.88127 2.12239 5.64487 2.36659L3.96702 4.09748C3.63806 4.43579 3.40716 4.86352 3.30066 5.33184C3.19415 5.80016 3.21635 6.29021 3.36471 6.74603C4.06243 8.91455 5.23449 10.8849 6.78857 12.5019C8.34265 14.119 10.2363 15.3385 12.3204 16.0645C12.5771 16.1532 12.8459 16.1985 13.1163 16.1987C13.441 16.2015 13.7629 16.1369 14.0632 16.0088C14.3636 15.8807 14.6365 15.6917 14.8659 15.4527L16.5294 13.6919C16.7641 13.446 16.8958 13.1134 16.8958 12.7668C16.8958 12.4202 16.7641 12.0877 16.5294 11.8417Z" fill="#42A5F5"/>
</svg>
