<svg width="18" height="18" viewBox="0 0 18 18" fill="none" xmlns="http://www.w3.org/2000/svg">
<g clip-path="url(#clip0_10117_21259)">
<path d="M7.125 11.8125V12.9375C7.125 14.4914 9.89531 15.75 13.3125 15.75C16.7297 15.75 19.5 14.4914 19.5 12.9375V11.8125H7.125Z" fill="#FFC107"/>
<path d="M13.3125 14.625C16.7298 14.625 19.5 13.3658 19.5 11.8125C19.5 10.2592 16.7298 9 13.3125 9C9.89524 9 7.125 10.2592 7.125 11.8125C7.125 13.3658 9.89524 14.625 13.3125 14.625Z" fill="#FFD54F"/>
<path d="M17.2461 13.9816V15.1066C17.675 14.9449 18.0512 14.7586 18.3711 14.5512V13.5H18.248C17.9563 13.6793 17.6223 13.841 17.2461 13.9816Z" fill="#FFE082"/>
<path d="M14.9961 14.5168V15.6418C15.3898 15.5926 15.766 15.5223 16.1211 15.4414V14.3164C15.766 14.4008 15.3898 14.4676 14.9961 14.5168Z" fill="#FFE082"/>
<path d="M7.125 9.5625V10.6875C7.125 12.2414 9.89531 13.5 13.3125 13.5C16.7297 13.5 19.5 12.2414 19.5 10.6875V9.5625H7.125Z" fill="#FFC107"/>
<path d="M13.3125 12.375C16.7298 12.375 19.5 11.1158 19.5 9.5625C19.5 8.0092 16.7298 6.75 13.3125 6.75C9.89524 6.75 7.125 8.0092 7.125 9.5625C7.125 11.1158 9.89524 12.375 13.3125 12.375Z" fill="#FFD54F"/>
<path d="M17.2461 11.7346V12.8596C17.675 12.6979 18.0512 12.5115 18.3711 12.3041V11.2529H18.248C17.9563 11.4322 17.6223 11.5939 17.2461 11.7346Z" fill="#FFE082"/>
<path d="M14.9961 12.2697V13.3947C15.3898 13.3455 15.766 13.2752 16.1211 13.1943V12.0693C15.766 12.1537 15.3898 12.2205 14.9961 12.2697Z" fill="#FFE082"/>
<path d="M7.125 7.3125V8.4375C7.125 9.99141 9.89531 11.25 13.3125 11.25C16.7297 11.25 19.5 9.99141 19.5 8.4375V7.3125H7.125Z" fill="#FFC107"/>
<path d="M13.3125 10.125C16.7298 10.125 19.5 8.8658 19.5 7.3125C19.5 5.7592 16.7298 4.5 13.3125 4.5C9.89524 4.5 7.125 5.7592 7.125 7.3125C7.125 8.8658 9.89524 10.125 13.3125 10.125Z" fill="#FFD54F"/>
<path d="M17.2461 9.48164V10.6066C17.675 10.4449 18.0512 10.2586 18.3711 10.0512V9H18.248C17.9563 9.1793 17.6223 9.34102 17.2461 9.48164Z" fill="#FFE082"/>
<path d="M14.9961 10.0168V11.1418C15.3898 11.0926 15.766 11.0223 16.1211 10.9414V9.81641C15.766 9.90078 15.3898 9.96758 14.9961 10.0168Z" fill="#FFE082"/>
<path d="M7.125 5.0625V6.1875C7.125 7.74141 9.89531 9 13.3125 9C16.7297 9 19.5 7.74141 19.5 6.1875V5.0625H7.125Z" fill="#FFC107"/>
<path d="M13.3125 7.875C16.7298 7.875 19.5 6.6158 19.5 5.0625C19.5 3.5092 16.7298 2.25 13.3125 2.25C9.89524 2.25 7.125 3.5092 7.125 5.0625C7.125 6.6158 9.89524 7.875 13.3125 7.875Z" fill="#FFD54F"/>
<path d="M17.2461 7.23164V8.35664C17.675 8.19492 18.0512 8.00859 18.3711 7.80117V6.75H18.248C17.9563 6.9293 17.6223 7.09102 17.2461 7.23164Z" fill="#FFE082"/>
<path d="M14.9961 7.7668V8.8918C15.3898 8.84258 15.766 8.77227 16.1211 8.69141V7.56641C15.766 7.65078 15.3898 7.71758 14.9961 7.7668Z" fill="#FFE082"/>
<path d="M7.125 2.8125V3.9375C7.125 5.49141 9.89531 6.75 13.3125 6.75C16.7297 6.75 19.5 5.49141 19.5 3.9375V2.8125H7.125Z" fill="#FFC107"/>
<path d="M13.3125 5.625C16.7298 5.625 19.5 4.3658 19.5 2.8125C19.5 1.2592 16.7298 0 13.3125 0C9.89524 0 7.125 1.2592 7.125 2.8125C7.125 4.3658 9.89524 5.625 13.3125 5.625Z" fill="#FFD54F"/>
<path d="M17.2461 4.98164V6.10664C17.675 5.94492 18.0512 5.75859 18.3711 5.55117V4.5H18.248C17.9563 4.6793 17.6223 4.84102 17.2461 4.98164Z" fill="#FFE082"/>
<path d="M14.9961 5.5168V6.6418C15.3898 6.59258 15.766 6.52227 16.1211 6.44141V5.31641C15.766 5.40078 15.3898 5.46758 14.9961 5.5168Z" fill="#FFE082"/>
<path d="M7.68555 7.8752C7.49922 7.8752 7.26016 7.86816 7.07031 7.8752V8.42715C7.07031 8.62051 7.09492 8.81738 7.17578 9.0002C7.09492 9.18301 7.11953 9.36934 7.11953 9.5627V10.6877C7.11953 10.8811 7.16172 11.0674 7.24258 11.2502C7.16172 11.433 7.11953 11.6193 7.11953 11.8127V12.9377C7.11953 14.4916 9.88984 15.8521 13.307 15.8521C13.8766 15.8521 14.3969 15.8135 14.9207 15.7502C14.9523 15.5814 14.9945 15.3178 14.9945 15.1877V11.8127C14.998 9.22871 11.3207 7.8752 7.68555 7.8752Z" fill="white"/>
<path d="M1.5 14.0625V15.1875C1.5 16.7414 4.27031 18 7.6875 18C11.1047 18 13.875 16.7414 13.875 15.1875V14.0625H1.5Z" fill="#FFC107"/>
<path d="M7.6875 16.875C11.1048 16.875 13.875 15.6158 13.875 14.0625C13.875 12.5092 11.1048 11.25 7.6875 11.25C4.27024 11.25 1.5 12.5092 1.5 14.0625C1.5 15.6158 4.27024 16.875 7.6875 16.875Z" fill="#FFD54F"/>
<path d="M11.6211 16.2316V17.3566C12.05 17.1949 12.4262 17.0086 12.7461 16.8012V15.75H12.623C12.3313 15.9293 11.9973 16.091 11.6211 16.2316Z" fill="#FFE082"/>
<path d="M9.37109 16.7668V17.8918C9.76484 17.8426 10.141 17.7723 10.4961 17.6914V16.5664C10.141 16.6508 9.76484 16.7176 9.37109 16.7668Z" fill="#FFE082"/>
<path d="M1.5 11.8125V12.9375C1.5 14.4914 4.27031 15.75 7.6875 15.75C11.1047 15.75 13.875 14.4914 13.875 12.9375V11.8125H1.5Z" fill="#FFC107"/>
<path d="M7.6875 14.625C11.1048 14.625 13.875 13.3658 13.875 11.8125C13.875 10.2592 11.1048 9 7.6875 9C4.27024 9 1.5 10.2592 1.5 11.8125C1.5 13.3658 4.27024 14.625 7.6875 14.625Z" fill="#FFD54F"/>
<path d="M11.6211 13.9816V15.1066C12.05 14.9449 12.4262 14.7586 12.7461 14.5512V13.5H12.623C12.3313 13.6793 11.9973 13.841 11.6211 13.9816Z" fill="#FFE082"/>
<path d="M9.37109 14.5168V15.6418C9.76484 15.5926 10.141 15.5223 10.4961 15.4414V14.3164C10.141 14.4008 9.76484 14.4676 9.37109 14.5168Z" fill="#FFE082"/>
</g>
<defs>
<clipPath id="clip0_10117_21259">
<rect width="18" height="18" fill="white"/>
</clipPath>
</defs>
</svg>
