<svg width="18" height="18" viewBox="0 0 18 18" fill="none" xmlns="http://www.w3.org/2000/svg">
<path d="M4.89605 8.10851C5.39065 8.10851 5.79161 7.70755 5.79161 7.21294C5.79161 6.71834 5.39065 6.31738 4.89605 6.31738C4.40144 6.31738 4.00049 6.71834 4.00049 7.21294C4.00049 7.70755 4.40144 8.10851 4.89605 8.10851Z" fill="#FBC02D"/>
<path d="M4.89605 2.3878C5.39065 2.3878 5.79161 1.98685 5.79161 1.49224C5.79161 0.997636 5.39065 0.59668 4.89605 0.59668C4.40144 0.59668 4.00049 0.997636 4.00049 1.49224C4.00049 1.98685 4.40144 2.3878 4.89605 2.3878Z" fill="#FBC02D"/>
<path d="M8.04888 2.3878C8.54349 2.3878 8.94444 1.98685 8.94444 1.49224C8.94444 0.997636 8.54349 0.59668 8.04888 0.59668C7.55428 0.59668 7.15332 0.997636 7.15332 1.49224C7.15332 1.98685 7.55428 2.3878 8.04888 2.3878Z" fill="#FBC02D"/>
<path d="M11.2027 2.3878C11.6973 2.3878 12.0983 1.98685 12.0983 1.49224C12.0983 0.997636 11.6973 0.59668 11.2027 0.59668C10.7081 0.59668 10.3071 0.997636 10.3071 1.49224C10.3071 1.98685 10.7081 2.3878 11.2027 2.3878Z" fill="#FBC02D"/>
<path d="M4.89605 5.25792C5.39065 5.25792 5.79161 4.85696 5.79161 4.36236C5.79161 3.86775 5.39065 3.4668 4.89605 3.4668C4.40144 3.4668 4.00049 3.86775 4.00049 4.36236C4.00049 4.85696 4.40144 5.25792 4.89605 5.25792Z" fill="#FBC02D"/>
<path d="M11.2027 5.25792C11.6973 5.25792 12.0983 4.85696 12.0983 4.36236C12.0983 3.86775 11.6973 3.4668 11.2027 3.4668C10.7081 3.4668 10.3071 3.86775 10.3071 4.36236C10.3071 4.85696 10.7081 5.25792 11.2027 5.25792Z" fill="#FBC02D"/>
<path d="M13.9985 9.57141V9.28151C13.9985 8.97816 13.8323 8.69894 13.5655 8.55451L10.1112 6.68514C9.8554 6.54656 9.54447 6.55277 9.29455 6.70203C9.22216 6.74512 9.16046 6.80096 9.10565 6.86197V4.36178C9.10565 3.88573 8.71992 3.5 8.24387 3.5C7.76782 3.5 7.38209 3.88573 7.38209 4.36178V10.1888C7.38209 10.2691 7.36141 10.3453 7.38209 10.4194V11.426L5.7516 9.22463C5.46446 8.8451 4.92361 8.7703 4.54442 9.05744C4.1649 9.34459 4.09009 9.8851 4.37724 10.2646L8.0398 15.1051C8.09668 15.1802 8.16734 15.2419 8.24387 15.294V16.8521C8.24387 17.1564 8.49068 17.4033 8.79506 17.4033H12.1046C12.409 17.4033 12.6558 17.1564 12.6558 16.8521V15.6504C13.4697 15.0596 13.9999 14.1109 13.9999 13.0375V9.57141H13.9985Z" fill="#42A5F5"/>
</svg>
