<svg width="151" height="40" viewBox="0 0 151 40" fill="none" xmlns="http://www.w3.org/2000/svg">
<path d="M16.2568 0.556222C17.5415 -0.185419 19.1236 -0.185396 20.4082 0.556222L34.5889 8.74275C35.8735 9.4844 36.6649 10.8552 36.665 12.3384V28.7134C36.6649 30.1967 35.8734 31.5675 34.5889 32.3092L22.0088 39.5709C21.5901 38.862 21.1916 38.1279 20.8174 37.3697C19.868 35.4415 19.1359 33.4843 18.6133 31.5465C18.1468 29.8166 18.9797 27.9999 20.5947 27.2242L22.8545 26.1392C23.7264 25.7203 24.3179 24.878 24.416 23.9156L25.1846 16.3775C25.2787 15.4326 25.0033 14.4908 24.1045 14.1851L20.4033 12.9244C17.1319 11.8106 13.5834 13.6613 12.6465 16.9879C10.74 23.7587 11.5259 32.1218 15.3965 39.9986L2.07617 32.3092C0.791623 31.5675 0.000157466 30.1967 0 28.7134V12.3384C0.000113655 10.8552 0.791587 9.4844 2.07617 8.74275L16.2568 0.556222Z" fill="#00A086"/>
<path d="M148.21 27.6082C148.394 27.7141 148.62 27.7141 148.803 27.6082L150.263 26.7652C150.447 26.6593 150.56 26.4637 150.56 26.252V24.5658C150.56 24.3541 150.447 24.1585 150.263 24.0526L148.803 23.2096C148.62 23.1037 148.394 23.1037 148.21 23.2096L146.75 24.0526C146.567 24.1585 146.454 24.3541 146.454 24.5658V26.252C146.454 26.4637 146.567 26.6593 146.75 26.7652L148.21 27.6082Z" fill="#00A086"/>
<path d="M132.893 33.7809V30.851H135.425C136.012 30.851 136.515 30.7752 136.932 30.6235C137.349 30.4907 137.691 30.2442 137.956 29.8839C138.222 29.5426 138.44 29.078 138.61 28.4901L143.076 12.4473H146.29L141.455 29.2866C141.151 30.3485 140.725 31.2113 140.175 31.875C139.644 32.5388 138.961 33.0223 138.127 33.3257C137.311 33.6291 136.325 33.7809 135.169 33.7809H132.893ZM137.615 27.4377V24.7354H140.914V27.4377H137.615ZM136.79 27.4377L131.584 12.4473H134.969L139.947 27.4377H136.79Z" fill="#162D3A"/>
<path d="M123.876 27.5525V11.6804C123.876 9.95471 124.34 8.68418 125.269 7.86876C126.217 7.03438 127.592 6.61719 129.394 6.61719H131.328V9.26255H129.024C128.398 9.26255 127.905 9.4427 127.545 9.803C127.204 10.1633 127.033 10.6563 127.033 11.2821V27.5525H123.876ZM121.856 14.9231V12.4484H131.584L132.662 14.9231H121.856Z" fill="#162D3A"/>
<path d="M116.356 27.5523V12.2206H119.684V27.5523H116.356ZM114.108 14.7806V12.2206H119.684V14.7806H114.108ZM117.436 10.0872C116.754 10.0872 116.242 9.90709 115.9 9.54679C115.578 9.18649 115.417 8.72189 115.417 8.153C115.417 7.60306 115.578 7.14795 115.9 6.78765C116.242 6.40838 116.754 6.21875 117.436 6.21875C118.138 6.21875 118.65 6.40838 118.972 6.78765C119.314 7.14795 119.484 7.60306 119.484 8.153C119.484 8.72189 119.314 9.18649 118.972 9.54679C118.65 9.90709 118.138 10.0872 117.436 10.0872Z" fill="#162D3A"/>
<path d="M98.4478 27.5525V12.2207H101.093V18.7915H100.78C100.78 17.2744 100.979 15.9944 101.378 14.9514C101.795 13.9085 102.421 13.1215 103.255 12.5905C104.089 12.0406 105.123 11.7656 106.355 11.7656H106.498C108.394 11.7656 109.807 12.363 110.736 13.5576C111.665 14.7523 112.13 16.4969 112.13 18.7915V27.5525H108.802V18.3364C108.802 17.2744 108.498 16.4211 107.891 15.7763C107.285 15.1126 106.45 14.7808 105.388 14.7808C104.307 14.7808 103.435 15.1221 102.771 15.8048C102.108 16.4685 101.776 17.3598 101.776 18.4786V27.5525H98.4478Z" fill="#162D3A"/>
<path d="M87.5047 28.0647C86.1583 28.0647 84.9731 27.8467 83.9491 27.4105C82.9251 26.9554 82.0623 26.358 81.3607 25.6185C80.659 24.8789 80.128 24.0445 79.7677 23.1153C79.4074 22.1672 79.2273 21.1906 79.2273 20.1855V19.6166C79.2273 18.6116 79.4074 17.635 79.7677 16.6868C80.147 15.7387 80.6875 14.8948 81.3891 14.1552C82.1097 13.3967 82.982 12.7994 84.006 12.3632C85.03 11.9271 86.1963 11.709 87.5047 11.709C88.8132 11.709 89.9699 11.9271 90.975 12.3632C91.999 12.7994 92.8713 13.3967 93.5919 14.1552C94.3125 14.8948 94.853 15.7387 95.2133 16.6868C95.5925 17.635 95.7822 18.6116 95.7822 19.6166V20.1855C95.7822 21.1906 95.602 22.1672 95.2417 23.1153C94.8814 24.0445 94.3504 24.8789 93.6488 25.6185C92.9472 26.358 92.0843 26.9554 91.0603 27.4105C90.0363 27.8467 88.8511 28.0647 87.5047 28.0647ZM87.5047 25.1634C88.5477 25.1634 89.439 24.9358 90.1785 24.4807C90.9181 24.0066 91.4775 23.3713 91.8568 22.5749C92.255 21.7784 92.4541 20.8872 92.4541 19.9011C92.4541 18.896 92.255 17.9953 91.8568 17.1988C91.4585 16.4024 90.8897 15.7766 90.1501 15.3215C89.4105 14.8474 88.5287 14.6104 87.5047 14.6104C86.4807 14.6104 85.5989 14.8474 84.8594 15.3215C84.1198 15.7766 83.5509 16.4024 83.1527 17.1988C82.7544 17.9953 82.5553 18.896 82.5553 19.9011C82.5553 20.8872 82.745 21.7784 83.1242 22.5749C83.5225 23.3713 84.0914 24.0066 84.8309 24.4807C85.5705 24.9358 86.4617 25.1634 87.5047 25.1634Z" fill="#162D3A"/>
<path d="M63.1396 27.5518V6.78711H66.4677V19.0468H65.785C65.785 17.5298 65.9746 16.2308 66.3539 15.1499C66.7521 14.05 67.3495 13.2156 68.1459 12.6467C68.9613 12.0589 69.9854 11.7649 71.218 11.7649H71.3602C73.1617 11.7649 74.5176 12.3718 75.4278 13.5854C76.357 14.7991 76.8216 16.5437 76.8216 18.8193V27.5518H73.4935V18.3357C73.4935 17.2358 73.1712 16.373 72.5264 15.7472C71.9006 15.1025 71.0852 14.7801 70.0802 14.7801C68.9993 14.7801 68.127 15.1404 67.4633 15.861C66.7995 16.5816 66.4677 17.5298 66.4677 18.7055V27.5518H63.1396Z" fill="#162D3A"/>
<path d="M48.9912 20.7531V17.7664H53.3148C54.225 17.7664 54.9741 17.5958 55.562 17.2544C56.1688 16.8941 56.6334 16.4106 56.9557 15.8037C57.2781 15.178 57.4393 14.4763 57.4393 13.6988C57.4393 12.9024 57.2781 12.2007 56.9557 11.5939C56.6334 10.9681 56.1688 10.4846 55.562 10.1432C54.9741 9.8019 54.225 9.63123 53.3148 9.63123H48.9912V6.64453H52.9166C54.6422 6.64453 56.0929 6.92898 57.2686 7.49787C58.4633 8.04781 59.3641 8.83478 59.9709 9.85879C60.5967 10.8638 60.9096 12.068 60.9096 13.4713V13.9264C60.9096 15.3107 60.5967 16.5149 59.9709 17.5389C59.3641 18.5629 58.4633 19.3593 57.2686 19.9282C56.0929 20.4782 54.6422 20.7531 52.9166 20.7531H48.9912ZM46.1467 27.5514V6.64453H49.5601V27.5514H46.1467Z" fill="#162D3A"/>
</svg>
