<svg width="38" height="40" viewBox="0 0 38 40" fill="none" xmlns="http://www.w3.org/2000/svg">
<path d="M16.9243 0.556952C18.2089 -0.184685 19.7911 -0.184663 21.0757 0.556952L35.2563 8.74348C36.5409 9.48513 37.3324 10.8559 37.3325 12.3392V28.7142C37.3324 30.1974 36.5409 31.5682 35.2563 32.3099L22.6763 39.5716C22.2576 38.8628 21.8591 38.1287 21.4849 37.3704C20.5355 35.4423 19.8033 33.4851 19.2808 31.5472C18.8143 29.8173 19.6472 28.0006 21.2622 27.2249L23.522 26.14C24.3939 25.721 24.9854 24.8787 25.0835 23.9163L25.8521 16.3782C25.9462 15.4333 25.6708 14.4916 24.772 14.1859L21.0708 12.9251C17.7994 11.8113 14.2508 13.6621 13.314 16.9886C11.4074 23.7594 12.1933 32.1226 16.064 39.9993L2.74365 32.3099C1.4591 31.5682 0.667635 30.1974 0.66748 28.7142V12.3392C0.667597 10.8559 1.45907 9.48513 2.74365 8.74348L16.9243 0.556952Z" fill="#00A086"/>
</svg>
