<svg width="218" height="65" viewBox="0 0 218 65" fill="none" xmlns="http://www.w3.org/2000/svg">
<path d="M26.8607 1.38976C28.9161 0.20309 31.4487 0.203083 33.5042 1.38976L56.1937 14.4894C58.2492 15.6761 59.5159 17.8698 59.5159 20.2433V46.4435C59.5158 48.8169 58.2491 51.0097 56.1937 52.1964L36.0638 63.8175C35.3937 62.6831 34.7564 61.5085 34.1575 60.295C32.6384 57.2097 31.4654 54.0776 30.6292 50.9767C29.883 48.2088 31.217 45.3017 33.8011 44.0607L37.4163 42.3253C38.8116 41.6551 39.7583 40.3067 39.9153 38.7667L41.1448 26.7062C41.2956 25.1941 40.8554 23.6867 39.4173 23.1974L33.4935 21.1808C28.259 19.3989 22.5821 22.3599 21.0833 27.6827C18.0328 38.5162 19.2898 51.897 25.4827 64.5001L4.1712 52.1964C2.11578 51.0097 0.849094 48.8169 0.848938 46.4435V20.2433C0.848971 17.8698 2.11568 15.6761 4.1712 14.4894L26.8607 1.38976Z" fill="#00A086"/>
<path d="M210.101 36.369C210.349 36.5119 210.654 36.5119 210.901 36.369L212.873 35.2309C213.12 35.088 213.273 34.8239 213.273 34.5381V32.2618C213.273 31.976 213.12 31.7119 212.873 31.569L210.901 30.4309C210.654 30.2879 210.349 30.2879 210.101 30.4309L208.13 31.569C207.882 31.7119 207.73 31.976 207.73 32.2618V34.5381C207.73 34.8239 207.882 35.088 208.13 35.2309L210.101 36.369Z" fill="#00A086"/>
<path d="M189.423 44.7037V40.7485H192.84C193.634 40.7485 194.312 40.6461 194.876 40.4413C195.439 40.2621 195.9 39.9293 196.258 39.4429C196.616 38.9821 196.911 38.3549 197.141 37.5613L203.17 15.9034H207.509L200.981 38.6365C200.572 40.0701 199.996 41.2349 199.253 42.1309C198.536 43.0269 197.615 43.6797 196.488 44.0893C195.388 44.4989 194.056 44.7037 192.495 44.7037H189.423ZM195.797 36.1404V32.4924H200.252V36.1404H195.797ZM194.684 36.1404L187.656 15.9034H192.226L198.946 36.1404H194.684Z" fill="#162D3A"/>
<path d="M177.25 36.2943V14.8669C177.25 12.5373 177.877 10.822 179.131 9.72123C180.411 8.59482 182.267 8.03162 184.699 8.03162H187.311V11.6029H184.2C183.355 11.6029 182.69 11.8461 182.203 12.3325C181.743 12.8189 181.512 13.4845 181.512 14.3293V36.2943H177.25ZM174.523 19.2445V15.9037H187.656L189.111 19.2445H174.523Z" fill="#162D3A"/>
<path d="M167.098 36.2943V15.5965H171.59V36.2943H167.098ZM164.064 19.0525V15.5965H171.59V19.0525H164.064ZM168.557 12.7165C167.635 12.7165 166.944 12.4733 166.483 11.9869C166.048 11.5005 165.83 10.8733 165.83 10.1052C165.83 9.36284 166.048 8.74843 166.483 8.26203C166.944 7.75002 167.635 7.49402 168.557 7.49402C169.504 7.49402 170.195 7.75002 170.63 8.26203C171.091 8.74843 171.322 9.36284 171.322 10.1052C171.322 10.8733 171.091 11.5005 170.63 11.9869C170.195 12.4733 169.504 12.7165 168.557 12.7165Z" fill="#162D3A"/>
<path d="M142.922 36.2944V15.5966H146.494V24.4671H146.071C146.071 22.4191 146.34 20.691 146.878 19.283C147.441 17.875 148.286 16.8126 149.412 16.0958C150.538 15.3534 151.934 14.9822 153.598 14.9822H153.79C156.35 14.9822 158.257 15.7886 159.511 17.4014C160.766 19.0142 161.393 21.3694 161.393 24.4671V36.2944H156.9V23.8527C156.9 22.4191 156.49 21.267 155.671 20.3966C154.852 19.5006 153.726 19.0526 152.292 19.0526C150.833 19.0526 149.655 19.5134 148.759 20.435C147.863 21.331 147.415 22.5343 147.415 24.0447V36.2944H142.922Z" fill="#162D3A"/>
<path d="M128.148 36.9855C126.33 36.9855 124.73 36.6911 123.348 36.1023C121.966 35.4879 120.801 34.6815 119.854 33.6831C118.906 32.6847 118.19 31.5582 117.703 30.3038C117.217 29.0238 116.974 27.7054 116.974 26.3486V25.5806C116.974 24.2238 117.217 22.9054 117.703 21.6253C118.215 20.3453 118.945 19.2061 119.892 18.2077C120.865 17.1837 122.042 16.3773 123.425 15.7885C124.807 15.1997 126.382 14.9053 128.148 14.9053C129.915 14.9053 131.476 15.1997 132.833 15.7885C134.215 16.3773 135.393 17.1837 136.366 18.2077C137.339 19.2061 138.068 20.3453 138.555 21.6253C139.067 22.9054 139.323 24.2238 139.323 25.5806V26.3486C139.323 27.7054 139.079 29.0238 138.593 30.3038C138.107 31.5582 137.39 32.6847 136.443 33.6831C135.495 34.6815 134.331 35.4879 132.948 36.1023C131.566 36.6911 129.966 36.9855 128.148 36.9855ZM128.148 33.0687C129.556 33.0687 130.759 32.7615 131.758 32.147C132.756 31.507 133.511 30.6494 134.023 29.5742C134.561 28.499 134.83 27.2958 134.83 25.9646C134.83 24.6078 134.561 23.3918 134.023 22.3166C133.486 21.2413 132.718 20.3965 131.719 19.7821C130.721 19.1421 129.53 18.8221 128.148 18.8221C126.766 18.8221 125.575 19.1421 124.577 19.7821C123.578 20.3965 122.81 21.2413 122.273 22.3166C121.735 23.3918 121.466 24.6078 121.466 25.9646C121.466 27.2958 121.722 28.499 122.234 29.5742C122.772 30.6494 123.54 31.507 124.538 32.147C125.537 32.7615 126.74 33.0687 128.148 33.0687Z" fill="#162D3A"/>
<path d="M95.2562 36.2944V8.26208H99.749V24.8127H98.8274C98.8274 22.7646 99.0834 21.011 99.5954 19.5518C100.133 18.067 100.939 16.9406 102.015 16.1726C103.115 15.379 104.498 14.9822 106.162 14.9822H106.354C108.786 14.9822 110.616 15.8014 111.845 17.4398C113.1 19.0782 113.727 21.4334 113.727 24.5055V36.2944H109.234V23.8526C109.234 22.3678 108.799 21.203 107.928 20.3582C107.083 19.4878 105.983 19.0526 104.626 19.0526C103.167 19.0526 101.989 19.539 101.093 20.5118C100.197 21.4846 99.749 22.7646 99.749 24.3518V36.2944H95.2562Z" fill="#162D3A"/>
<path d="M76.1553 27.1167V23.0846H81.9922C83.221 23.0846 84.2322 22.8542 85.0258 22.3934C85.845 21.907 86.4723 21.2542 86.9075 20.435C87.3427 19.5902 87.5603 18.643 87.5603 17.5934C87.5603 16.5182 87.3427 15.5709 86.9075 14.7517C86.4723 13.9069 85.845 13.2541 85.0258 12.7933C84.2322 12.3325 83.221 12.1021 81.9922 12.1021H76.1553V8.07007H81.4546C83.7842 8.07007 85.7426 8.45407 87.3299 9.22208C88.9427 9.96449 90.1587 11.0269 90.9779 12.4093C91.8227 13.7661 92.2451 15.3917 92.2451 17.2862V17.9006C92.2451 19.7694 91.8227 21.395 90.9779 22.7774C90.1587 24.1598 88.9427 25.235 87.3299 26.0031C85.7426 26.7455 83.7842 27.1167 81.4546 27.1167H76.1553ZM72.3153 36.2944V8.07007H76.9234V36.2944H72.3153Z" fill="#162D3A"/>
<path d="M73.0549 54.2585V47.5385H75.1189C75.5989 47.5385 75.9893 47.6153 76.2901 47.7689C76.5909 47.9225 76.8117 48.1273 76.9525 48.3833C77.0997 48.6329 77.1733 48.9113 77.1733 49.2185C77.1733 49.5705 77.0965 49.8617 76.9429 50.0921C76.7957 50.3225 76.6037 50.4985 76.3669 50.6201C76.1301 50.7417 75.8837 50.8217 75.6277 50.8601L75.6853 50.7641C75.9669 50.7705 76.2325 50.8473 76.4821 50.9945C76.7317 51.1417 76.9333 51.3401 77.0869 51.5897C77.2469 51.8329 77.3269 52.1113 77.3269 52.4249C77.3269 52.7513 77.2533 53.0553 77.1061 53.3369C76.9589 53.6121 76.7285 53.8361 76.4149 54.0089C76.1013 54.1753 75.6885 54.2585 75.1765 54.2585H73.0549ZM73.4869 53.8745H75.1957C75.7269 53.8745 76.1397 53.7465 76.4341 53.4905C76.7285 53.2345 76.8757 52.8761 76.8757 52.4153C76.8757 51.9865 76.7189 51.6409 76.4053 51.3785C76.0981 51.1097 75.6821 50.9753 75.1573 50.9753H73.4869V53.8745ZM73.4869 50.6009H75.1765C75.6693 50.6009 76.0501 50.4793 76.3189 50.2361C76.5877 49.9865 76.7221 49.6569 76.7221 49.2473C76.7221 48.8569 76.5845 48.5369 76.3093 48.2873C76.0405 48.0377 75.6533 47.9129 75.1477 47.9129H73.4869V50.6009ZM80.2769 54.3737C79.8225 54.3737 79.4289 54.2681 79.0961 54.0569C78.7697 53.8457 78.5169 53.5481 78.3377 53.1641C78.1585 52.7801 78.0689 52.3289 78.0689 51.8105C78.0689 51.2857 78.1617 50.8377 78.3473 50.4665C78.5393 50.0953 78.8017 49.8105 79.1345 49.6121C79.4737 49.4073 79.8609 49.3049 80.2961 49.3049C80.7634 49.3049 81.1538 49.4105 81.4674 49.6217C81.781 49.8265 82.0178 50.0985 82.1778 50.4377C82.3378 50.7769 82.4178 51.1481 82.4178 51.5513C82.4178 51.6153 82.4178 51.6761 82.4178 51.7337C82.4178 51.7913 82.4146 51.8585 82.4082 51.9353H78.3761V51.5609H81.9954C81.989 50.9401 81.8258 50.4729 81.5058 50.1593C81.1858 49.8457 80.7762 49.6889 80.2769 49.6889C79.9697 49.6889 79.6817 49.7593 79.4129 49.9001C79.1441 50.0409 78.9233 50.2585 78.7505 50.5529C78.5841 50.8473 78.5009 51.2217 78.5009 51.6761V51.8489C78.5009 52.3353 78.5841 52.7385 78.7505 53.0585C78.9169 53.3721 79.1345 53.6057 79.4033 53.7593C79.6721 53.9129 79.9633 53.9897 80.2769 53.9897C80.6801 53.9897 81.013 53.8969 81.2754 53.7113C81.5378 53.5193 81.7298 53.2505 81.8514 52.9049H82.2834C82.2002 53.1865 82.069 53.4393 81.8898 53.6633C81.717 53.8873 81.4962 54.0633 81.2274 54.1913C80.9586 54.3129 80.6417 54.3737 80.2769 54.3737ZM85.5853 54.2585V47.5385H86.0173V54.2585H85.5853ZM87.2482 54.2585V49.4201H87.6322L87.6706 50.3993C87.837 50.0345 88.0674 49.7625 88.3618 49.5833C88.6626 49.3977 88.9954 49.3049 89.3602 49.3049C89.7122 49.3049 90.0226 49.3753 90.2914 49.5161C90.5602 49.6569 90.7714 49.8745 90.925 50.1689C91.0786 50.4569 91.1554 50.8313 91.1554 51.2921V54.2585H90.7234V51.3593C90.7234 50.7897 90.6018 50.3705 90.3586 50.1017C90.1154 49.8329 89.7634 49.6985 89.3026 49.6985C88.9954 49.6985 88.717 49.7753 88.4674 49.9289C88.2242 50.0761 88.0322 50.2937 87.8914 50.5817C87.7506 50.8697 87.6802 51.2249 87.6802 51.6473V54.2585H87.2482ZM93.9019 54.3737C93.5499 54.3737 93.2331 54.3161 92.9515 54.2009C92.6699 54.0793 92.4427 53.9001 92.2699 53.6633C92.1035 53.4265 91.9979 53.1321 91.9531 52.7801H92.4139C92.4395 53.0361 92.5195 53.2537 92.6539 53.4329C92.7947 53.6121 92.9739 53.7497 93.1915 53.8457C93.4091 53.9353 93.6491 53.9801 93.9115 53.9801C94.1739 53.9801 94.3947 53.9385 94.5739 53.8553C94.7595 53.7721 94.9003 53.6569 94.9963 53.5097C95.0987 53.3561 95.1499 53.1865 95.1499 53.0009C95.1499 52.7641 95.0987 52.5817 94.9963 52.4537C94.9003 52.3193 94.7531 52.2169 94.5547 52.1465C94.3563 52.0761 94.1067 52.0121 93.8059 51.9545C93.5627 51.9097 93.3419 51.8521 93.1435 51.7817C92.9515 51.7113 92.7851 51.6249 92.6443 51.5225C92.5035 51.4201 92.3947 51.2953 92.3179 51.1481C92.2475 50.9945 92.2123 50.8217 92.2123 50.6297C92.2123 50.3673 92.2763 50.1369 92.4043 49.9385C92.5387 49.7401 92.7243 49.5865 92.9611 49.4777C93.1979 49.3625 93.4795 49.3049 93.8059 49.3049C94.2667 49.3049 94.6475 49.4265 94.9483 49.6697C95.2555 49.9129 95.4315 50.2713 95.4763 50.7449H95.0347C95.0155 50.4313 94.8971 50.1785 94.6795 49.9865C94.4683 49.7945 94.1739 49.6985 93.7963 49.6985C93.4315 49.6985 93.1499 49.7817 92.9515 49.9481C92.7595 50.1081 92.6635 50.3225 92.6635 50.5913C92.6635 50.7449 92.7019 50.8825 92.7787 51.0041C92.8619 51.1257 92.9931 51.2345 93.1723 51.3305C93.3515 51.4201 93.5915 51.4969 93.8923 51.5609C94.2059 51.6185 94.4907 51.6921 94.7467 51.7817C95.0091 51.8713 95.2171 52.0057 95.3707 52.1849C95.5243 52.3641 95.6011 52.6201 95.6011 52.9529C95.6011 53.2281 95.5307 53.4745 95.3899 53.6921C95.2555 53.9033 95.0603 54.0697 94.8043 54.1913C94.5547 54.3129 94.2539 54.3737 93.9019 54.3737ZM96.5862 56.3706V49.4201H96.9702L97.0182 50.6297C97.1142 50.3865 97.2518 50.1657 97.431 49.9673C97.6102 49.7689 97.8278 49.6089 98.0838 49.4873C98.3462 49.3657 98.6406 49.3049 98.967 49.3049C99.4342 49.3049 99.8374 49.4169 100.177 49.6409C100.522 49.8585 100.788 50.1593 100.973 50.5433C101.159 50.9209 101.252 51.3561 101.252 51.8489C101.252 52.3353 101.159 52.7705 100.973 53.1545C100.788 53.5321 100.522 53.8297 100.177 54.0473C99.8374 54.2649 99.431 54.3737 98.9574 54.3737C98.4966 54.3737 98.0966 54.2553 97.7574 54.0185C97.4182 53.7817 97.1718 53.4521 97.0182 53.0297V56.3706H96.5862ZM98.9382 53.9801C99.303 53.9801 99.623 53.8937 99.8982 53.7209C100.18 53.5481 100.401 53.3017 100.561 52.9817C100.721 52.6617 100.801 52.2809 100.801 51.8393C100.801 51.4041 100.721 51.0265 100.561 50.7065C100.401 50.3865 100.18 50.1401 99.8982 49.9673C99.623 49.7881 99.303 49.6985 98.9382 49.6985C98.5734 49.6985 98.2502 49.7913 97.9686 49.9769C97.687 50.1561 97.4662 50.4089 97.3062 50.7353C97.1526 51.0553 97.0758 51.4233 97.0758 51.8393C97.0758 52.2617 97.1526 52.6361 97.3062 52.9625C97.4662 53.2825 97.687 53.5321 97.9686 53.7113C98.2502 53.8905 98.5734 53.9801 98.9382 53.9801ZM102.311 54.2585V49.4201H102.743V54.2585H102.311ZM102.532 48.1433C102.442 48.1433 102.362 48.1113 102.292 48.0473C102.228 47.9769 102.196 47.8937 102.196 47.7977C102.196 47.7017 102.228 47.6249 102.292 47.5673C102.362 47.5033 102.442 47.4713 102.532 47.4713C102.622 47.4713 102.698 47.5033 102.762 47.5673C102.833 47.6249 102.868 47.7017 102.868 47.7977C102.868 47.8937 102.833 47.9769 102.762 48.0473C102.698 48.1113 102.622 48.1433 102.532 48.1433ZM103.974 54.2585V49.4201H104.358L104.406 50.3993C104.515 50.1433 104.656 49.9353 104.829 49.7753C105.008 49.6153 105.219 49.4969 105.462 49.4201C105.705 49.3433 105.981 49.3049 106.288 49.3049V49.7465H106.115C105.923 49.7465 105.725 49.7721 105.52 49.8233C105.321 49.8745 105.136 49.9673 104.963 50.1017C104.797 50.2297 104.662 50.4153 104.56 50.6585C104.457 50.9017 104.406 51.2121 104.406 51.5897V54.2585H103.974ZM108.751 54.3737C108.296 54.3737 107.903 54.2681 107.57 54.0569C107.243 53.8457 106.991 53.5481 106.811 53.1641C106.632 52.7801 106.543 52.3289 106.543 51.8105C106.543 51.2857 106.635 50.8377 106.821 50.4665C107.013 50.0953 107.275 49.8105 107.608 49.6121C107.947 49.4073 108.335 49.3049 108.77 49.3049C109.237 49.3049 109.627 49.4105 109.941 49.6217C110.255 49.8265 110.491 50.0985 110.651 50.4377C110.811 50.7769 110.891 51.1481 110.891 51.5513C110.891 51.6153 110.891 51.6761 110.891 51.7337C110.891 51.7913 110.888 51.8585 110.882 51.9353H106.85V51.5609H110.469C110.463 50.9401 110.299 50.4729 109.979 50.1593C109.659 49.8457 109.25 49.6889 108.751 49.6889C108.443 49.6889 108.155 49.7593 107.887 49.9001C107.618 50.0409 107.397 50.2585 107.224 50.5529C107.058 50.8473 106.975 51.2217 106.975 51.6761V51.8489C106.975 52.3353 107.058 52.7385 107.224 53.0585C107.391 53.3721 107.608 53.6057 107.877 53.7593C108.146 53.9129 108.437 53.9897 108.751 53.9897C109.154 53.9897 109.487 53.8969 109.749 53.7113C110.011 53.5193 110.203 53.2505 110.325 52.9049H110.757C110.674 53.1865 110.543 53.4393 110.363 53.6633C110.191 53.8873 109.97 54.0633 109.701 54.1913C109.432 54.3129 109.115 54.3737 108.751 54.3737ZM113.848 54.3737C113.381 54.3737 112.974 54.2649 112.629 54.0473C112.29 53.8233 112.027 53.5225 111.842 53.1449C111.656 52.7609 111.563 52.3257 111.563 51.8393C111.563 51.3529 111.656 50.9209 111.842 50.5433C112.027 50.1593 112.293 49.8585 112.638 49.6409C112.984 49.4169 113.39 49.3049 113.858 49.3049C114.325 49.3049 114.725 49.4265 115.058 49.6697C115.397 49.9065 115.643 50.2329 115.797 50.6489V47.3465H116.229V54.2585H115.845L115.787 53.0681C115.691 53.3113 115.55 53.5321 115.365 53.7305C115.186 53.9225 114.968 54.0793 114.712 54.2009C114.456 54.3161 114.168 54.3737 113.848 54.3737ZM113.877 53.9801C114.242 53.9801 114.565 53.8905 114.846 53.7113C115.128 53.5257 115.346 53.2729 115.499 52.9529C115.659 52.6265 115.739 52.2553 115.739 51.8393C115.739 51.4169 115.659 51.0457 115.499 50.7257C115.346 50.3993 115.128 50.1465 114.846 49.9673C114.571 49.7881 114.248 49.6985 113.877 49.6985C113.518 49.6985 113.195 49.7849 112.907 49.9577C112.626 50.1305 112.405 50.3801 112.245 50.7065C112.085 51.0265 112.005 51.4041 112.005 51.8393C112.005 52.2745 112.085 52.6521 112.245 52.9721C112.411 53.2921 112.635 53.5417 112.917 53.7209C113.198 53.8937 113.518 53.9801 113.877 53.9801ZM119.679 54.2585V47.5385H121.744C122.224 47.5385 122.614 47.6153 122.915 47.7689C123.216 47.9225 123.436 48.1273 123.577 48.3833C123.724 48.6329 123.798 48.9113 123.798 49.2185C123.798 49.5705 123.721 49.8617 123.568 50.0921C123.42 50.3225 123.228 50.4985 122.992 50.6201C122.755 50.7417 122.508 50.8217 122.252 50.8601L122.31 50.7641C122.592 50.7705 122.857 50.8473 123.107 50.9945C123.356 51.1417 123.558 51.3401 123.712 51.5897C123.872 51.8329 123.952 52.1113 123.952 52.4249C123.952 52.7513 123.878 53.0553 123.731 53.3369C123.584 53.6121 123.353 53.8361 123.04 54.0089C122.726 54.1753 122.313 54.2585 121.801 54.2585H119.679ZM120.112 53.8745H121.82C122.352 53.8745 122.764 53.7465 123.059 53.4905C123.353 53.2345 123.5 52.8761 123.5 52.4153C123.5 51.9865 123.344 51.6409 123.03 51.3785C122.723 51.1097 122.307 50.9753 121.782 50.9753H120.112V53.8745ZM120.112 50.6009H121.801C122.294 50.6009 122.675 50.4793 122.944 50.2361C123.212 49.9865 123.347 49.6569 123.347 49.2473C123.347 48.8569 123.209 48.5369 122.934 48.2873C122.665 48.0377 122.278 47.9129 121.772 47.9129H120.112V50.6009ZM125.356 56.3706L126.575 53.7209H126.412L124.425 49.4201H124.905L126.719 53.3945L128.553 49.4201H129.014L125.807 56.3706H125.356ZM134.817 54.3737C134.184 54.3737 133.63 54.2297 133.157 53.9417C132.689 53.6473 132.328 53.2409 132.072 52.7225C131.816 52.1977 131.688 51.5897 131.688 50.8985C131.688 50.2073 131.816 49.6025 132.072 49.0841C132.328 48.5593 132.689 48.1529 133.157 47.8649C133.63 47.5705 134.184 47.4233 134.817 47.4233C135.553 47.4233 136.145 47.5929 136.593 47.9321C137.041 48.2649 137.336 48.7385 137.477 49.3529H136.997C136.881 48.8921 136.645 48.5209 136.286 48.2393C135.934 47.9577 135.445 47.8169 134.817 47.8169C134.286 47.8169 133.819 47.9385 133.416 48.1817C133.019 48.4249 132.705 48.7769 132.475 49.2377C132.251 49.6985 132.139 50.2521 132.139 50.8985C132.139 51.5449 132.251 52.0985 132.475 52.5593C132.705 53.0137 133.019 53.3657 133.416 53.6153C133.819 53.8585 134.286 53.9801 134.817 53.9801C135.438 53.9801 135.928 53.8393 136.286 53.5577C136.651 53.2697 136.888 52.8953 136.997 52.4345H137.477C137.336 53.0489 137.041 53.5257 136.593 53.8649C136.145 54.2041 135.553 54.3737 134.817 54.3737ZM140.522 54.3737C140.08 54.3737 139.684 54.2713 139.331 54.0665C138.986 53.8617 138.711 53.5705 138.506 53.1929C138.307 52.8089 138.208 52.3609 138.208 51.8489C138.208 51.3177 138.311 50.8633 138.515 50.4857C138.72 50.1081 138.999 49.8169 139.351 49.6121C139.703 49.4073 140.1 49.3049 140.541 49.3049C140.989 49.3049 141.386 49.4073 141.732 49.6121C142.084 49.8169 142.359 50.1081 142.557 50.4857C142.762 50.8633 142.864 51.3177 142.864 51.8489C142.864 52.3609 142.762 52.8089 142.557 53.1929C142.352 53.5705 142.074 53.8617 141.722 54.0665C141.37 54.2713 140.97 54.3737 140.522 54.3737ZM140.522 53.9897C140.855 53.9897 141.162 53.9097 141.444 53.7497C141.732 53.5897 141.965 53.3497 142.144 53.0297C142.324 52.7097 142.413 52.3129 142.413 51.8393C142.413 51.3657 142.324 50.9689 142.144 50.6489C141.972 50.3289 141.741 50.0921 141.453 49.9385C141.172 49.7785 140.868 49.6985 140.541 49.6985C140.215 49.6985 139.908 49.7785 139.62 49.9385C139.331 50.0985 139.098 50.3385 138.919 50.6585C138.746 50.9721 138.659 51.3657 138.659 51.8393C138.659 52.3129 138.746 52.7097 138.919 53.0297C139.098 53.3497 139.328 53.5897 139.61 53.7497C139.892 53.9097 140.196 53.9897 140.522 53.9897ZM143.815 54.2585V49.4201H144.199L144.247 50.3417C144.401 50.0025 144.612 49.7465 144.881 49.5737C145.156 49.3945 145.473 49.3049 145.831 49.3049C146.049 49.3049 146.257 49.3401 146.455 49.4105C146.66 49.4809 146.839 49.5993 146.993 49.7657C147.153 49.9321 147.275 50.1593 147.358 50.4473C147.479 50.1145 147.678 49.8425 147.953 49.6313C148.235 49.4137 148.574 49.3049 148.971 49.3049C149.329 49.3049 149.639 49.3785 149.902 49.5257C150.164 49.6665 150.369 49.8873 150.516 50.1881C150.663 50.4889 150.737 50.8793 150.737 51.3593V54.2585H150.305V51.3881C150.305 50.8057 150.19 50.3801 149.959 50.1113C149.729 49.8361 149.393 49.6985 148.951 49.6985C148.683 49.6985 148.436 49.7657 148.212 49.9001C147.988 50.0345 147.809 50.2329 147.675 50.4953C147.547 50.7577 147.483 51.0873 147.483 51.4841V54.2585H147.05V51.3593C147.05 50.7897 146.938 50.3705 146.714 50.1017C146.497 49.8329 146.19 49.6985 145.793 49.6985C145.486 49.6985 145.217 49.7753 144.986 49.9289C144.756 50.0825 144.574 50.3065 144.439 50.6009C144.311 50.8953 144.247 51.2633 144.247 51.7049V54.2585H143.815ZM151.798 54.2585V49.4201H152.182L152.23 50.3417C152.384 50.0025 152.595 49.7465 152.864 49.5737C153.139 49.3945 153.456 49.3049 153.814 49.3049C154.032 49.3049 154.24 49.3401 154.438 49.4105C154.643 49.4809 154.822 49.5993 154.976 49.7657C155.136 49.9321 155.258 50.1593 155.341 50.4473C155.462 50.1145 155.661 49.8425 155.936 49.6313C156.218 49.4137 156.557 49.3049 156.954 49.3049C157.312 49.3049 157.622 49.3785 157.885 49.5257C158.147 49.6665 158.352 49.8873 158.499 50.1881C158.646 50.4889 158.72 50.8793 158.72 51.3593V54.2585H158.288V51.3881C158.288 50.8057 158.173 50.3801 157.942 50.1113C157.712 49.8361 157.376 49.6985 156.934 49.6985C156.666 49.6985 156.419 49.7657 156.195 49.9001C155.971 50.0345 155.792 50.2329 155.658 50.4953C155.53 50.7577 155.466 51.0873 155.466 51.4841V54.2585H155.034V51.3593C155.034 50.7897 154.922 50.3705 154.698 50.1017C154.48 49.8329 154.173 49.6985 153.776 49.6985C153.469 49.6985 153.2 49.7753 152.97 49.9289C152.739 50.0825 152.557 50.3065 152.422 50.6009C152.294 50.8953 152.23 51.2633 152.23 51.7049V54.2585H151.798ZM161.471 54.3737C161.125 54.3737 160.815 54.3065 160.54 54.1721C160.271 54.0313 160.06 53.8169 159.906 53.5289C159.753 53.2345 159.676 52.8537 159.676 52.3865V49.4201H160.108V52.3289C160.108 52.8921 160.229 53.3081 160.473 53.5769C160.722 53.8457 161.081 53.9801 161.548 53.9801C161.861 53.9801 162.137 53.9065 162.373 53.7593C162.617 53.6121 162.805 53.3945 162.94 53.1065C163.081 52.8121 163.151 52.4537 163.151 52.0313V49.4201H163.583V54.2585H163.209L163.151 53.2793C162.991 53.6505 162.761 53.9257 162.46 54.1049C162.159 54.2841 161.829 54.3737 161.471 54.3737ZM164.755 54.2585V49.4201H165.139L165.178 50.3993C165.344 50.0345 165.574 49.7625 165.869 49.5833C166.17 49.3977 166.502 49.3049 166.867 49.3049C167.219 49.3049 167.53 49.3753 167.798 49.5161C168.067 49.6569 168.278 49.8745 168.432 50.1689C168.586 50.4569 168.662 50.8313 168.662 51.2921V54.2585H168.23V51.3593C168.23 50.7897 168.109 50.3705 167.866 50.1017C167.622 49.8329 167.27 49.6985 166.81 49.6985C166.502 49.6985 166.224 49.7753 165.974 49.9289C165.731 50.0761 165.539 50.2937 165.398 50.5817C165.258 50.8697 165.187 51.2249 165.187 51.6473V54.2585H164.755ZM169.786 54.2585V49.4201H170.218V54.2585H169.786ZM170.007 48.1433C169.918 48.1433 169.838 48.1113 169.767 48.0473C169.703 47.9769 169.671 47.8937 169.671 47.7977C169.671 47.7017 169.703 47.6249 169.767 47.5673C169.838 47.5033 169.918 47.4713 170.007 47.4713C170.097 47.4713 170.174 47.5033 170.238 47.5673C170.308 47.6249 170.343 47.7017 170.343 47.7977C170.343 47.8937 170.308 47.9769 170.238 48.0473C170.174 48.1113 170.097 48.1433 170.007 48.1433ZM173.504 54.3737C173.069 54.3737 172.678 54.2713 172.333 54.0665C171.987 53.8553 171.715 53.5609 171.517 53.1833C171.324 52.7993 171.228 52.3545 171.228 51.8489C171.228 51.3305 171.328 50.8825 171.526 50.5049C171.731 50.1209 172.006 49.8265 172.352 49.6217C172.697 49.4105 173.081 49.3049 173.504 49.3049C174.048 49.3049 174.499 49.4457 174.857 49.7273C175.222 50.0089 175.453 50.3705 175.549 50.8121H175.097C175.021 50.4665 174.838 50.1945 174.55 49.9961C174.269 49.7977 173.92 49.6985 173.504 49.6985C173.197 49.6985 172.902 49.7785 172.621 49.9385C172.339 50.0921 172.112 50.3289 171.939 50.6489C171.766 50.9625 171.68 51.3625 171.68 51.8489C171.68 52.2201 171.731 52.5401 171.833 52.8089C171.936 53.0777 172.073 53.3017 172.246 53.4809C172.425 53.6537 172.624 53.7817 172.841 53.8649C173.059 53.9481 173.28 53.9897 173.504 53.9897C173.773 53.9897 174.016 53.9481 174.233 53.8649C174.457 53.7753 174.646 53.6473 174.8 53.4809C174.953 53.3081 175.053 53.1033 175.097 52.8665H175.549C175.459 53.3017 175.235 53.6633 174.877 53.9513C174.525 54.2329 174.067 54.3737 173.504 54.3737ZM177.957 54.3737C177.592 54.3737 177.285 54.3033 177.036 54.1625C176.786 54.0217 176.597 53.8393 176.469 53.6153C176.341 53.3849 176.277 53.1385 176.277 52.8761C176.277 52.5241 176.357 52.2361 176.517 52.0121C176.677 51.7881 176.901 51.6217 177.189 51.5129C177.484 51.3977 177.823 51.3401 178.207 51.3401H179.666C179.666 50.9945 179.615 50.7001 179.512 50.4569C179.416 50.2137 179.266 50.0249 179.061 49.8905C178.856 49.7561 178.588 49.6889 178.255 49.6889C177.864 49.6889 177.541 49.7817 177.285 49.9673C177.036 50.1529 176.876 50.4345 176.805 50.8121H176.364C176.408 50.4729 176.52 50.1945 176.7 49.9769C176.885 49.7529 177.112 49.5865 177.381 49.4777C177.65 49.3625 177.941 49.3049 178.255 49.3049C178.696 49.3049 179.052 49.3945 179.32 49.5737C179.589 49.7465 179.784 49.9833 179.906 50.2841C180.034 50.5785 180.098 50.9145 180.098 51.2921V54.2585H179.714L179.666 53.2889C179.615 53.3913 179.544 53.5065 179.455 53.6345C179.365 53.7625 179.253 53.8809 179.119 53.9897C178.984 54.0985 178.821 54.1881 178.629 54.2585C178.444 54.3353 178.22 54.3737 177.957 54.3737ZM178.005 53.9801C178.28 53.9801 178.52 53.9289 178.725 53.8265C178.93 53.7177 179.103 53.5769 179.244 53.4041C179.384 53.2249 179.49 53.0329 179.56 52.8281C179.631 52.6233 179.666 52.4217 179.666 52.2233V51.7145H178.236C177.858 51.7145 177.56 51.7657 177.343 51.8681C177.125 51.9641 176.968 52.0985 176.872 52.2713C176.783 52.4441 176.738 52.6425 176.738 52.8665C176.738 53.0713 176.786 53.2601 176.882 53.4329C176.978 53.5993 177.122 53.7337 177.314 53.8361C177.506 53.9321 177.736 53.9801 178.005 53.9801ZM182.664 54.2585C182.408 54.2585 182.191 54.2201 182.012 54.1433C181.839 54.0665 181.704 53.9353 181.608 53.7497C181.519 53.5577 181.474 53.3017 181.474 52.9817V49.7945H180.629V49.4201H181.474L181.541 48.3641H181.906V49.4201H183.423V49.7945H181.906V52.9721C181.906 53.3113 181.973 53.5481 182.108 53.6825C182.242 53.8169 182.469 53.8841 182.789 53.8841H183.327V54.2585H182.664ZM184.319 54.2585V49.4201H184.751V54.2585H184.319ZM184.539 48.1433C184.45 48.1433 184.37 48.1113 184.299 48.0473C184.235 47.9769 184.203 47.8937 184.203 47.7977C184.203 47.7017 184.235 47.6249 184.299 47.5673C184.37 47.5033 184.45 47.4713 184.539 47.4713C184.629 47.4713 184.706 47.5033 184.77 47.5673C184.84 47.6249 184.875 47.7017 184.875 47.7977C184.875 47.8937 184.84 47.9769 184.77 48.0473C184.706 48.1113 184.629 48.1433 184.539 48.1433ZM188.074 54.3737C187.633 54.3737 187.236 54.2713 186.884 54.0665C186.538 53.8617 186.263 53.5705 186.058 53.1929C185.86 52.8089 185.761 52.3609 185.761 51.8489C185.761 51.3177 185.863 50.8633 186.068 50.4857C186.273 50.1081 186.551 49.8169 186.903 49.6121C187.255 49.4073 187.652 49.3049 188.093 49.3049C188.541 49.3049 188.938 49.4073 189.284 49.6121C189.636 49.8169 189.911 50.1081 190.109 50.4857C190.314 50.8633 190.417 51.3177 190.417 51.8489C190.417 52.3609 190.314 52.8089 190.109 53.1929C189.905 53.5705 189.626 53.8617 189.274 54.0665C188.922 54.2713 188.522 54.3737 188.074 54.3737ZM188.074 53.9897C188.407 53.9897 188.714 53.9097 188.996 53.7497C189.284 53.5897 189.517 53.3497 189.697 53.0297C189.876 52.7097 189.965 52.3129 189.965 51.8393C189.965 51.3657 189.876 50.9689 189.697 50.6489C189.524 50.3289 189.293 50.0921 189.005 49.9385C188.724 49.7785 188.42 49.6985 188.093 49.6985C187.767 49.6985 187.46 49.7785 187.172 49.9385C186.884 50.0985 186.65 50.3385 186.471 50.6585C186.298 50.9721 186.212 51.3657 186.212 51.8393C186.212 52.3129 186.298 52.7097 186.471 53.0297C186.65 53.3497 186.881 53.5897 187.162 53.7497C187.444 53.9097 187.748 53.9897 188.074 53.9897ZM191.368 54.2585V49.4201H191.752L191.79 50.3993C191.956 50.0345 192.187 49.7625 192.481 49.5833C192.782 49.3977 193.115 49.3049 193.48 49.3049C193.832 49.3049 194.142 49.3753 194.411 49.5161C194.68 49.6569 194.891 49.8745 195.044 50.1689C195.198 50.4569 195.275 50.8313 195.275 51.2921V54.2585H194.843V51.3593C194.843 50.7897 194.721 50.3705 194.478 50.1017C194.235 49.8329 193.883 49.6985 193.422 49.6985C193.115 49.6985 192.836 49.7753 192.587 49.9289C192.344 50.0761 192.152 50.2937 192.011 50.5817C191.87 50.8697 191.8 51.2249 191.8 51.6473V54.2585H191.368ZM196.456 54.3065C196.341 54.3065 196.245 54.2681 196.168 54.1913C196.092 54.1081 196.053 54.0089 196.053 53.8937C196.053 53.7849 196.092 53.6921 196.168 53.6153C196.245 53.5321 196.341 53.4905 196.456 53.4905C196.572 53.4905 196.668 53.5321 196.745 53.6153C196.821 53.6921 196.86 53.7881 196.86 53.9033C196.86 54.0121 196.821 54.1081 196.745 54.1913C196.668 54.2681 196.572 54.3065 196.456 54.3065Z" fill="#162D3A"/>
</svg>
