

<svg class="icon" viewBox="0 0 32 32" xmlns="http://www.w3.org/2000/svg">
  <path d="M14.6899 3.75064C14.7471 3.44477 14.9094 3.16852 15.1487 2.96973C15.3881 2.77093 15.6894 2.66211 16.0006 2.66211C16.3117 2.66211 16.6131 2.77093 16.8525 2.96973C17.0918 3.16852 17.2541 3.44477 17.3113 3.75064L18.7126 11.1613C18.8121 11.6882 19.0682 12.1728 19.4473 12.5519C19.8264 12.9311 20.3111 13.1871 20.8379 13.2866L28.2486 14.688C28.5545 14.7451 28.8307 14.9074 29.0295 15.1468C29.2283 15.3861 29.3371 15.6875 29.3371 15.9986C29.3371 16.3098 29.2283 16.6111 29.0295 16.8505C28.8307 17.0899 28.5545 17.2522 28.2486 17.3093L20.8379 18.7106C20.3111 18.8102 19.8264 19.0662 19.4473 19.4453C19.0682 19.8245 18.8121 20.3091 18.7126 20.836L17.3113 28.2466C17.2541 28.5525 17.0918 28.8287 16.8525 29.0275C16.6131 29.2263 16.3117 29.3352 16.0006 29.3352C15.6894 29.3352 15.3881 29.2263 15.1487 29.0275C14.9094 28.8287 14.7471 28.5525 14.6899 28.2466L13.2886 20.836C13.1891 20.3091 12.933 19.8245 12.5539 19.4453C12.1747 19.0662 11.6901 18.8102 11.1633 18.7106L3.75259 17.3093C3.44673 17.2522 3.17048 17.0899 2.97168 16.8505C2.77288 16.6111 2.66406 16.3098 2.66406 15.9986C2.66406 15.6875 2.77288 15.3861 2.97168 15.1468C3.17048 14.9074 3.44673 14.7451 3.75259 14.688L11.1633 13.2866C11.6901 13.1871 12.1747 12.9311 12.5539 12.5519C12.933 12.1728 13.1891 11.6882 13.2886 11.1613L14.6899 3.75064Z"/>
  <path d="M26.6641 2.66602V7.99935"/>
  <path d="M29.3333 5.33398H24"/>
  <path d="M5.33464 29.3333C6.80739 29.3333 8.0013 28.1394 8.0013 26.6667C8.0013 25.1939 6.80739 24 5.33464 24C3.86188 24 2.66797 25.1939 2.66797 26.6667C2.66797 28.1394 3.86188 29.3333 5.33464 29.3333Z"/>
</svg>
