<svg width="32" height="32" viewBox="0 0 32 32" fill="none" xmlns="http://www.w3.org/2000/svg">
<path d="M15.5566 13.7451C18.7949 13.7451 21.4287 11.1108 21.4287 7.87256C21.4287 4.63428 18.7949 2 15.5566 2C12.3184 2 9.68359 4.63428 9.68359 7.87256C9.68359 11.1108 12.3184 13.7451 15.5566 13.7451ZM19.4287 7.87256C19.4287 10.0078 17.6914 11.7451 15.5566 11.7451C13.4209 11.7451 11.6836 10.0078 11.6836 7.87256C11.6836 5.7373 13.4209 4 15.5566 4C17.6914 4 19.4287 5.7373 19.4287 7.87256Z" fill="#1F1E1C" stroke="#F5F5F4" stroke-width="0.5"/>
<path d="M8.95508 30.0005H17.1357C17.6885 30.0005 18.1357 29.5527 18.1357 29.0005C18.1357 28.7205 18.0195 28.4689 17.8341 28.2874C17.6538 28.1109 17.4082 28.0005 17.1357 28.0005H8.95508C7.75879 28.0005 6.78516 27.0269 6.78516 25.8306C6.78516 23.4922 7.69727 21.293 9.35254 19.6377C11.0078 17.9819 13.2109 17.0703 15.5557 17.0703C17.8994 17.0703 20.1025 17.9819 21.7588 19.6377C22.458 20.3374 23.0361 21.1489 23.4766 22.0498C23.5283 22.1553 23.6028 22.2403 23.6823 22.318C23.976 22.6053 24.4224 22.6994 24.8145 22.5088C25.3105 22.2661 25.5156 21.667 25.2734 21.1709C24.7354 20.0713 24.0283 19.0801 23.1729 18.2236C21.1387 16.1899 18.4336 15.0703 15.5557 15.0703C12.6768 15.0703 9.97168 16.1904 7.93848 18.2236C5.90527 20.2563 4.78516 22.958 4.78516 25.8306C4.78516 28.1299 6.65625 30.0005 8.95508 30.0005Z" fill="#1F1E1C" stroke="#F5F5F4" stroke-width="0.5"/>
<path d="M19.457 26.6297C19.4223 26.9235 19.502 27.2275 19.7274 27.4526L21.8231 29.5479C22.0184 29.7432 22.2743 29.8408 22.5302 29.8408C22.786 29.8408 23.0419 29.7432 23.2372 29.5479L26.9198 25.8652C27.3104 25.4746 27.3104 24.8418 26.9198 24.4512C26.5292 24.0605 25.8964 24.0605 25.5057 24.4512L22.5302 27.4268L21.1415 26.0386C20.9105 25.8076 20.5972 25.7302 20.2969 25.7724C20.0895 25.8016 19.887 25.879 19.7274 26.0386C19.5623 26.2037 19.4826 26.4145 19.457 26.6297Z" fill="#1F1E1C" stroke="#F5F5F4" stroke-width="0.5"/>
</svg>
