<svg width="32" height="32" viewBox="0 0 32 32" fill="none" xmlns="http://www.w3.org/2000/svg">
<path d="M17.2656 3.34375C20.2863 3.34375 23.1832 4.54371 25.3192 6.67964C27.4551 8.81558 28.6551 11.7125 28.6551 14.7332" stroke="#1F1E1C" stroke-width="1.5" stroke-linecap="round" stroke-linejoin="round"/>
<path d="M17.2656 8.40625C18.9438 8.40625 20.5532 9.07289 21.7398 10.2595C22.9265 11.4462 23.5931 13.0556 23.5931 14.7337" stroke="#1F1E1C" stroke-width="1.5" stroke-linecap="round" stroke-linejoin="round"/>
<path d="M18.321 21.7795C18.5823 21.8995 18.8768 21.9269 19.1558 21.8572C19.4349 21.7875 19.6818 21.6249 19.856 21.396L20.3053 20.8076C20.541 20.4932 20.8467 20.2381 21.1982 20.0624C21.5496 19.8867 21.9372 19.7952 22.3301 19.7952H26.1266C26.7978 19.7952 27.4416 20.0618 27.9162 20.5365C28.3909 21.0111 28.6576 21.6549 28.6576 22.3262V26.1227C28.6576 26.7939 28.3909 27.4377 27.9162 27.9123C27.4416 28.387 26.7978 28.6536 26.1266 28.6536C20.0852 28.6536 14.2913 26.2537 10.0194 21.9819C5.74757 17.71 3.34766 11.9161 3.34766 5.87474C3.34766 5.20348 3.61431 4.55971 4.08897 4.08506C4.56362 3.61041 5.20739 3.34375 5.87865 3.34375H9.67513C10.3464 3.34375 10.9902 3.61041 11.4648 4.08506C11.9395 4.55971 12.2061 5.20348 12.2061 5.87474V9.67122C12.2061 10.0641 12.1146 10.4517 11.9389 10.8031C11.7632 11.1546 11.5081 11.4603 11.1937 11.696L10.6015 12.1402C10.3691 12.3176 10.2054 12.5699 10.138 12.8544C10.0707 13.1388 10.1039 13.4378 10.2319 13.7006C11.9615 17.2134 14.806 20.0544 18.321 21.7795Z" stroke="#1F1E1C" stroke-width="1.5" stroke-linecap="round" stroke-linejoin="round"/>
</svg>
