<svg width="32" height="32" viewBox="0 0 32 32" fill="none" xmlns="http://www.w3.org/2000/svg">
<path d="M5.33397 18.6675C5.08166 18.6684 4.83428 18.5976 4.62058 18.4635C4.40688 18.3294 4.23562 18.1373 4.12671 17.9097C4.0178 17.6821 3.9757 17.4283 4.00531 17.1777C4.03492 16.9272 4.13501 16.6901 4.29397 16.4942L17.494 2.8942C17.593 2.77991 17.7279 2.70268 17.8766 2.67518C18.0253 2.64768 18.1789 2.67155 18.3123 2.74287C18.4456 2.8142 18.5508 2.92873 18.6104 3.06768C18.6701 3.20663 18.6807 3.36173 18.6406 3.50754L16.0806 11.5342C16.0052 11.7362 15.9798 11.9536 16.0068 12.1675C16.0337 12.3815 16.1122 12.5858 16.2354 12.7628C16.3587 12.9398 16.523 13.0842 16.7143 13.1837C16.9057 13.2833 17.1183 13.3349 17.334 13.3342H26.6673C26.9196 13.3333 27.167 13.4041 27.3807 13.5382C27.5944 13.6724 27.7657 13.8644 27.8746 14.092C27.9835 14.3196 28.0256 14.5734 27.996 14.824C27.9664 15.0746 27.8663 15.3116 27.7073 15.5075L14.5073 29.1075C14.4083 29.2218 14.2734 29.2991 14.1247 29.3266C13.976 29.3541 13.8223 29.3302 13.689 29.2589C13.5557 29.1875 13.4505 29.073 13.3909 28.9341C13.3312 28.7951 13.3205 28.64 13.3606 28.4942L15.9206 20.4675C15.9961 20.2655 16.0215 20.0482 15.9945 19.8342C15.9676 19.6202 15.8891 19.416 15.7659 19.239C15.6426 19.062 15.4783 18.9175 15.2869 18.818C15.0956 18.7185 14.883 18.6668 14.6673 18.6675H5.33397Z" stroke="#1F1E1C" stroke-width="1.5" stroke-linecap="round" stroke-linejoin="round"/>
</svg>
