<svg width="99" height="99" viewBox="0 0 99 99" fill="none" xmlns="http://www.w3.org/2000/svg">
<rect x="0.0786133" width="98.843" height="98.843" rx="49.4215" fill="url(#paint0_linear_3579_69926)" fill-opacity="0.5"/>
<rect x="7.18799" y="7.11133" width="84.621" height="84.621" rx="40.5327" fill="#28EB25" fill-opacity="0.06"/>
<rect x="7.01021" y="6.93355" width="84.9766" height="84.9766" rx="40.7105" stroke="#25EB36" stroke-opacity="0.13" stroke-width="0.35555"/>
<g clip-path="url(#clip0_3579_69926)">
<rect x="13.2349" y="13.1562" width="72.5323" height="72.5323" rx="36.2661" fill="#C5FFC9"/>
<g filter="url(#filter0_f_3579_69926)">
<ellipse cx="49.5009" cy="13.8636" rx="37.1801" ry="9.89099" fill="white"/>
</g>
<g filter="url(#filter1_f_3579_69926)">
<ellipse cx="50.0015" cy="67.2969" rx="13.376" ry="5.27734" fill="#099E06"/>
</g>
<rect x="32.8716" y="33.2852" width="34.0223" height="30.1311" rx="6" fill="white"/>
<path d="M50.1304 26C62.8839 26.0001 73.2603 36.3763 73.2603 49.1299C73.2602 61.8834 62.8838 72.2597 50.1304 72.2598C37.3769 72.2598 27.0005 61.8834 27.0005 49.1299C27.0005 36.3763 37.3769 26 50.1304 26ZM61.0405 41.293C60.65 40.9026 60.0169 40.9025 59.6265 41.293L45.6665 55.252L39.7075 49.293L39.6313 49.2246C39.2386 48.9043 38.6596 48.9269 38.2935 49.293C37.9029 49.6835 37.9029 50.3165 38.2935 50.707L44.9604 57.374C45.351 57.7642 45.9841 57.7644 46.3745 57.374L61.0405 42.707C61.4311 42.3165 61.4311 41.6835 61.0405 41.293Z" fill="url(#paint1_linear_3579_69926)"/>
</g>
<rect x="13.0571" y="12.9785" width="72.8878" height="72.8878" rx="36.4439" stroke="#37D478" stroke-width="0.35555"/>
<defs>
<filter id="filter0_f_3579_69926" x="2.64983" y="-5.69831" width="93.7023" height="39.1232" filterUnits="userSpaceOnUse" color-interpolation-filters="sRGB">
<feFlood flood-opacity="0" result="BackgroundImageFix"/>
<feBlend mode="normal" in="SourceGraphic" in2="BackgroundImageFix" result="shape"/>
<feGaussianBlur stdDeviation="4.83549" result="effect1_foregroundBlur_3579_69926"/>
</filter>
<filter id="filter1_f_3579_69926" x="32.6255" y="58.0195" width="34.752" height="18.5547" filterUnits="userSpaceOnUse" color-interpolation-filters="sRGB">
<feFlood flood-opacity="0" result="BackgroundImageFix"/>
<feBlend mode="normal" in="SourceGraphic" in2="BackgroundImageFix" result="shape"/>
<feGaussianBlur stdDeviation="2" result="effect1_foregroundBlur_3579_69926"/>
</filter>
<linearGradient id="paint0_linear_3579_69926" x1="49.5001" y1="0" x2="49.5001" y2="59.5856" gradientUnits="userSpaceOnUse">
<stop stop-color="#39EB25"/>
<stop offset="1" stop-color="#78EB25" stop-opacity="0"/>
</linearGradient>
<linearGradient id="paint1_linear_3579_69926" x1="49.392" y1="23.7578" x2="49.392" y2="70.0175" gradientUnits="userSpaceOnUse">
<stop stop-color="#1A9D25"/>
<stop offset="0.550776" stop-color="#95EE9E"/>
<stop offset="1" stop-color="#328C42"/>
</linearGradient>
<clipPath id="clip0_3579_69926">
<rect x="13.2349" y="13.1562" width="72.5323" height="72.5323" rx="36.2661" fill="white"/>
</clipPath>
</defs>
</svg>
