<svg width="99" height="99" viewBox="0 0 99 99" fill="none" xmlns="http://www.w3.org/2000/svg">
<rect x="0.0786133" width="98.843" height="98.843" rx="49.4215" fill="url(#paint0_linear_1746_34194)" fill-opacity="0.5"/>
<rect x="7.18799" y="7.11133" width="84.621" height="84.621" rx="40.5327" fill="#2563EB" fill-opacity="0.06"/>
<rect x="7.01021" y="6.93355" width="84.9766" height="84.9766" rx="40.7105" stroke="#2563EB" stroke-opacity="0.13" stroke-width="0.35555"/>
<g clip-path="url(#clip0_1746_34194)">
<rect x="13.2349" y="13.1553" width="72.5323" height="72.5323" rx="36.2661" fill="#C5D7FF"/>
<g filter="url(#filter0_f_1746_34194)">
<ellipse cx="49.5009" cy="13.8636" rx="37.1801" ry="9.89099" fill="white"/>
</g>
<g filter="url(#filter1_f_1746_34194)">
<ellipse cx="50.0015" cy="67.2959" rx="13.376" ry="5.27734" fill="#06279E"/>
</g>
<rect x="32.8716" y="33.2861" width="34.0223" height="30.1311" rx="6" fill="white"/>
<path d="M50.3881 25.8701C37.6345 25.8701 27.2583 36.2464 27.2583 48.9999C27.2583 61.7535 37.6345 72.1298 50.3881 72.1298C63.1417 72.1298 73.5179 61.7535 73.5179 48.9999C73.5179 36.2464 63.1417 25.8701 50.3881 25.8701ZM59.632 58.2438C57.0837 60.7921 53.7349 62.0673 50.3881 62.0673C47.0413 62.0673 43.6926 60.7921 41.1442 58.2438C40.752 57.8516 40.752 57.214 41.1442 56.8218C41.5364 56.4296 42.174 56.4296 42.5662 56.8218C46.8804 61.1361 53.8978 61.1361 58.21 56.8218C62.5222 52.5076 62.5242 45.4902 58.21 41.178C53.8958 36.8658 46.8784 36.8638 42.5662 41.178C42.3691 41.4033 42.1599 41.6809 41.9649 41.9604H46.3655C46.9206 41.9604 47.3711 42.411 47.3711 42.9661C47.3711 43.5212 46.9206 43.9717 46.3655 43.9717H40.3317C40.3015 43.9717 40.2774 43.9576 40.2472 43.9556C40.217 43.9536 40.1889 43.9637 40.1587 43.9576C40.1205 43.9516 40.0903 43.9275 40.0521 43.9154C39.9857 43.8953 39.9254 43.8752 39.8651 43.843C39.8088 43.8128 39.7585 43.7786 39.7082 43.7384C39.6579 43.6982 39.6116 43.6559 39.5694 43.6057C39.5272 43.5554 39.495 43.5051 39.4628 43.4488C39.4306 43.3925 39.4065 43.3382 39.3864 43.2758C39.3643 43.2115 39.3542 43.1471 39.3462 43.0787C39.3441 43.0385 39.326 43.0063 39.326 42.9661V36.9322C39.326 36.3771 39.7766 35.9266 40.3317 35.9266C40.8868 35.9266 41.3373 36.3771 41.3373 36.9322V39.5871C46.4922 34.6695 54.6118 34.7339 59.632 39.7561C64.7286 44.8527 64.7286 53.1472 59.632 58.2438Z" fill="url(#paint1_linear_1746_34194)"/>
</g>
<rect x="13.0571" y="12.9775" width="72.8878" height="72.8878" rx="36.4439" stroke="#2563EB" stroke-width="0.35555"/>
<defs>
<filter id="filter0_f_1746_34194" x="2.64983" y="-5.69831" width="93.7023" height="39.1242" filterUnits="userSpaceOnUse" color-interpolation-filters="sRGB">
<feFlood flood-opacity="0" result="BackgroundImageFix"/>
<feBlend mode="normal" in="SourceGraphic" in2="BackgroundImageFix" result="shape"/>
<feGaussianBlur stdDeviation="4.83549" result="effect1_foregroundBlur_1746_34194"/>
</filter>
<filter id="filter1_f_1746_34194" x="32.6255" y="58.0186" width="34.752" height="18.5547" filterUnits="userSpaceOnUse" color-interpolation-filters="sRGB">
<feFlood flood-opacity="0" result="BackgroundImageFix"/>
<feBlend mode="normal" in="SourceGraphic" in2="BackgroundImageFix" result="shape"/>
<feGaussianBlur stdDeviation="2" result="effect1_foregroundBlur_1746_34194"/>
</filter>
<linearGradient id="paint0_linear_1746_34194" x1="49.5001" y1="0" x2="49.5001" y2="59.5856" gradientUnits="userSpaceOnUse">
<stop stop-color="#2563EB"/>
<stop offset="1" stop-color="#2563EB" stop-opacity="0"/>
</linearGradient>
<linearGradient id="paint1_linear_1746_34194" x1="50.3881" y1="25.8701" x2="50.3881" y2="72.1298" gradientUnits="userSpaceOnUse">
<stop stop-color="#5678F2"/>
<stop offset="0.550776" stop-color="#95A8EE"/>
<stop offset="1" stop-color="#32458C"/>
</linearGradient>
<clipPath id="clip0_1746_34194">
<rect x="13.2349" y="13.1553" width="72.5323" height="72.5323" rx="36.2661" fill="white"/>
</clipPath>
</defs>
</svg>
