<svg width="26" height="26" viewBox="0 0 26 26" fill="none" xmlns="http://www.w3.org/2000/svg">
<rect width="26" height="26" rx="13" fill="#F19D3D"/>
<g clip-path="url(#clip0_6979_22950)">
<path d="M17.1936 16.6045L14.9724 15.0011C14.8976 14.9467 14.8076 14.9175 14.7151 14.9175C14.6227 14.9175 14.5326 14.9467 14.4579 15.0011L13.5006 15.7011C12.0926 15.0381 10.9595 13.9052 10.2964 12.4973L10.9964 11.54C11.0507 11.4653 11.08 11.3752 11.08 11.2828C11.08 11.1903 11.0507 11.1003 10.9964 11.0255L9.39556 8.80652C9.35863 8.75486 9.31089 8.71186 9.25566 8.6805C9.20043 8.64915 9.13904 8.6302 9.07575 8.62496C9.01253 8.61909 8.9488 8.62744 8.88922 8.64939C8.82965 8.67134 8.77574 8.70635 8.73144 8.75183L7.44388 10.0407C7.20892 10.2739 7.03794 10.5637 6.94738 10.8822C6.85681 11.2006 6.84971 11.537 6.92675 11.859C7.33378 13.6161 8.22573 15.2238 9.50118 16.4992C10.7766 17.7746 12.3844 18.6664 14.1416 19.0733C14.289 19.108 14.4399 19.1257 14.5913 19.1258C14.8455 19.1258 15.0972 19.0756 15.3319 18.978C15.5666 18.8804 15.7797 18.7373 15.9589 18.5571L17.2465 17.2695C17.2915 17.2247 17.3262 17.1707 17.3482 17.1112C17.3702 17.0516 17.379 16.988 17.3739 16.9248C17.3689 16.8615 17.3502 16.8001 17.319 16.7448C17.2879 16.6895 17.2451 16.6416 17.1936 16.6045ZM14.7501 8.20714V7.31246C14.7502 7.22925 14.7265 7.14775 14.6818 7.07753C14.6372 7.00731 14.5734 6.95128 14.4981 6.916C14.4227 6.88073 14.3388 6.86769 14.2563 6.87839C14.1738 6.8891 14.0961 6.92312 14.0322 6.97646L11.4072 9.16396C11.358 9.20502 11.3183 9.2564 11.2912 9.31446C11.264 9.37252 11.2499 9.43585 11.2499 9.49996C11.2499 9.56407 11.264 9.62739 11.2912 9.68546C11.3183 9.74352 11.358 9.7949 11.4072 9.83596L14.0322 12.0235C14.0961 12.0768 14.1738 12.1108 14.2563 12.1215C14.3388 12.1322 14.4227 12.1192 14.4981 12.0839C14.5734 12.0486 14.6372 11.9926 14.6818 11.9224C14.7265 11.8522 14.7502 11.7707 14.7501 11.6875V10.8361C15.3922 10.9061 16.0086 11.127 16.549 11.4806C17.0894 11.8342 17.5386 12.3106 17.8599 12.8709L18.3079 13.6562C18.3558 13.74 18.4302 13.8057 18.5193 13.8428C18.6085 13.88 18.7074 13.8866 18.8008 13.8616C18.8941 13.8366 18.9765 13.7815 19.0351 13.7047C19.0938 13.628 19.1255 13.534 19.1251 13.4375V13C19.1237 11.7997 18.6744 10.6432 17.8653 9.75678C17.0561 8.87033 15.9452 8.31774 14.7501 8.20714ZM14.3126 9.93746C14.1966 9.93746 14.0853 9.98355 14.0033 10.0656C13.9212 10.1476 13.8751 10.2589 13.8751 10.375V10.7534L12.3714 9.49996L13.8751 8.24652V8.62496C13.8751 8.74099 13.9212 8.85227 14.0033 8.93432C14.0853 9.01636 14.1966 9.06246 14.3126 9.06246C15.1021 9.06329 15.8732 9.30109 16.5261 9.74506C17.179 10.189 17.6835 10.8188 17.9745 11.5527C17.5093 11.0445 16.9436 10.6385 16.3132 10.3604C15.6829 10.0824 15.0016 9.93835 14.3126 9.93746Z" fill="white"/>
</g>
<defs>
<clipPath id="clip0_6979_22950">
<rect width="14" height="14" fill="white" transform="translate(6 6)"/>
</clipPath>
</defs>
</svg>
