<svg width="26" height="26" viewBox="0 0 26 26" fill="none" xmlns="http://www.w3.org/2000/svg">
<rect width="26" height="26" rx="13" fill="#F59D48"/>
<g clip-path="url(#clip0_6979_22888)">
<path d="M10.6873 8.68832C10.6239 8.62488 10.5276 8.60738 10.4445 8.64457C10.3614 8.67957 10.3111 8.76269 10.3154 8.85457L10.3658 9.90676C10.4292 11.2214 9.93045 12.5077 8.99639 13.4374L7.46076 14.9708L6.84826 15.5833C6.72357 15.7058 6.65576 15.8699 6.65576 16.0449C6.65576 16.2199 6.72357 16.3818 6.84826 16.5064L8.38389 18.0377C8.51076 18.1646 8.67701 18.228 8.84545 18.228C9.01389 18.228 9.17795 18.1646 9.30701 18.0377L9.46014 17.8846L10.917 19.3393C11.0658 19.488 11.2604 19.5624 11.4551 19.5624C11.6498 19.5624 11.8445 19.488 11.9933 19.3393C12.1376 19.1971 12.2164 19.0046 12.2164 18.8011C12.2164 18.5977 12.1376 18.4074 11.9933 18.263L10.5364 16.8105L11.4551 15.8918C12.3892 14.9621 13.6798 14.4633 14.9967 14.5268L16.0511 14.5771C16.1429 14.5836 16.2261 14.5311 16.2633 14.448C16.2983 14.3649 16.2808 14.2686 16.2173 14.203L10.6873 8.68832ZM9.30482 17.4208L8.99639 17.7271C8.91326 17.8124 8.77545 17.8124 8.69232 17.7271L7.1567 16.1958C7.11514 16.1543 7.09326 16.1018 7.09326 16.0449C7.09326 15.988 7.11514 15.9333 7.1567 15.8918L7.61607 15.4346L9.45576 17.2699L9.30482 17.4208ZM10.0748 16.653H10.0726L9.76639 16.9614L7.9267 15.1239L9.1517 13.9011L10.9914 15.7386L10.0748 16.653Z" fill="white"/>
<path d="M16.937 8.84351C16.937 8.36007 16.5454 7.96851 16.062 7.96851C15.9417 7.96851 15.8433 7.87007 15.8433 7.74976C15.8433 7.62944 15.9417 7.53101 16.062 7.53101C16.5454 7.53101 16.937 7.13944 16.937 6.65601C16.937 6.53569 17.0354 6.43726 17.1558 6.43726C17.2761 6.43726 17.3745 6.53569 17.3745 6.65601C17.3745 7.13944 17.7661 7.53101 18.2495 7.53101C18.3698 7.53101 18.4683 7.62944 18.4683 7.74976C18.4683 7.87007 18.3698 7.96851 18.2495 7.96851C17.7661 7.96851 17.3745 8.36007 17.3745 8.84351C17.3745 8.96382 17.2761 9.06226 17.1558 9.06226C17.0354 9.06226 16.937 8.96382 16.937 8.84351Z" fill="white"/>
<path d="M17.5933 10.1562C17.5933 11.0006 18.2801 11.6875 19.1245 11.6875C19.2448 11.6875 19.3433 11.7859 19.3433 11.9062C19.3433 12.0266 19.2448 12.125 19.1245 12.125C18.2801 12.125 17.5933 12.8119 17.5933 13.6562C17.5933 13.7766 17.4948 13.875 17.3745 13.875C17.2542 13.875 17.1558 13.7766 17.1558 13.6562C17.1558 12.8119 16.4689 12.125 15.6245 12.125C15.5042 12.125 15.4058 12.0266 15.4058 11.9062C15.4058 11.7859 15.5042 11.6875 15.6245 11.6875C16.4689 11.6875 17.1558 11.0006 17.1558 10.1562C17.1558 10.0359 17.2542 9.9375 17.3745 9.9375C17.4948 9.9375 17.5933 10.0359 17.5933 10.1562Z" fill="white"/>
<rect x="8.77197" y="14.2507" width="2.73438" height="2.55924" transform="rotate(45.7306 8.77197 14.2507)" fill="white"/>
<path d="M14.0844 10.0643C14.0844 9.76573 13.8426 9.52391 13.544 9.52391C13.4697 9.52391 13.4089 9.46312 13.4089 9.38882C13.4089 9.31452 13.4697 9.25372 13.544 9.25372C13.8426 9.25372 14.0844 9.0119 14.0844 8.71334C14.0844 8.63904 14.1452 8.57825 14.2195 8.57825C14.2938 8.57825 14.3546 8.63904 14.3546 8.71334C14.3546 9.0119 14.5964 9.25372 14.895 9.25372C14.9693 9.25372 15.0301 9.31452 15.0301 9.38882C15.0301 9.46312 14.9693 9.52391 14.895 9.52391C14.5964 9.52391 14.3546 9.76573 14.3546 10.0643C14.3546 10.1386 14.2938 10.1994 14.2195 10.1994C14.1452 10.1994 14.0844 10.1386 14.0844 10.0643Z" fill="white"/>
</g>
<defs>
<clipPath id="clip0_6979_22888">
<rect width="14" height="14" fill="white" transform="translate(6 6)"/>
</clipPath>
</defs>
</svg>
