<svg width="26" height="26" viewBox="0 0 26 26" fill="none" xmlns="http://www.w3.org/2000/svg">
<rect width="26" height="26" rx="13" fill="#7043BE"/>
<g clip-path="url(#clip0_6979_22900)">
<path d="M17.9799 13.4736H16.8972C17.0076 13.7758 17.0679 14.1019 17.0679 14.4417V18.5337C17.0679 18.6754 17.0432 18.8114 16.9983 18.9379H18.7883C19.4569 18.9379 20.0009 18.3939 20.0009 17.7253V15.4946C20.0009 14.3802 19.0943 13.4736 17.9799 13.4736Z" fill="white"/>
<path d="M8.9345 14.4417C8.9345 14.1018 8.99479 13.7758 9.10515 13.4736H8.02245C6.90808 13.4736 6.00146 14.3802 6.00146 15.4946V17.7253C6.00146 18.394 6.54542 18.9379 7.21405 18.9379H9.00403C8.95916 18.8114 8.9345 18.6754 8.9345 18.5337V14.4417Z" fill="white"/>
<path d="M14.2377 12.4205H11.7624C10.6481 12.4205 9.74146 13.3271 9.74146 14.4415V18.5335C9.74146 18.7567 9.92242 18.9377 10.1457 18.9377H15.8544C16.0777 18.9377 16.2586 18.7567 16.2586 18.5335V14.4415C16.2586 13.3271 15.352 12.4205 14.2377 12.4205Z" fill="white"/>
<path d="M13.0001 7.06201C11.6599 7.06201 10.5696 8.15232 10.5696 9.49252C10.5696 10.4016 11.0713 11.1955 11.8123 11.6123C12.1637 11.81 12.5689 11.923 13.0001 11.923C13.4312 11.923 13.8364 11.81 14.1878 11.6123C14.9288 11.1955 15.4305 10.4015 15.4305 9.49252C15.4305 8.15235 14.3402 7.06201 13.0001 7.06201Z" fill="white"/>
<path d="M8.73272 9.32739C7.73043 9.32739 6.91504 10.1428 6.91504 11.1451C6.91504 12.1474 7.73043 12.9628 8.73272 12.9628C8.98696 12.9628 9.22906 12.9101 9.44899 12.8154C9.82923 12.6517 10.1428 12.3619 10.3368 11.9989C10.4729 11.7442 10.5504 11.4535 10.5504 11.1451C10.5504 10.1428 9.73501 9.32739 8.73272 9.32739Z" fill="white"/>
<path d="M17.2674 9.32715C16.2651 9.32715 15.4497 10.1425 15.4497 11.1448C15.4497 11.4533 15.5272 11.744 15.6633 11.9987C15.8573 12.3617 16.1709 12.6515 16.5511 12.8152C16.771 12.9098 17.0131 12.9625 17.2674 12.9625C18.2697 12.9625 19.0851 12.1471 19.0851 11.1448C19.0851 10.1425 18.2697 9.32715 17.2674 9.32715Z" fill="white"/>
</g>
<defs>
<clipPath id="clip0_6979_22900">
<rect width="14" height="14" fill="white" transform="translate(6 6)"/>
</clipPath>
</defs>
</svg>
