<svg width="26" height="26" viewBox="0 0 26 26" fill="none" xmlns="http://www.w3.org/2000/svg">
<rect width="26" height="26" rx="13" fill="#F96981"/>
<path d="M7.75 9.0625V16.9375C7.75 18.145 8.73 19.125 9.9375 19.125H16.0625C17.27 19.125 18.25 18.145 18.25 16.9375V9.0625C18.25 7.855 17.27 6.875 16.0625 6.875H9.9375C8.73 6.875 7.75 7.855 7.75 9.0625ZM12.125 10.375H15.625C15.8656 10.375 16.0625 10.5719 16.0625 10.8125C16.0625 11.0531 15.8656 11.25 15.625 11.25H12.125C11.8844 11.25 11.6875 11.0531 11.6875 10.8125C11.6875 10.5719 11.8844 10.375 12.125 10.375ZM12.125 12.5625H15.625C15.8656 12.5625 16.0625 12.7594 16.0625 13C16.0625 13.2406 15.8656 13.4375 15.625 13.4375H12.125C11.8844 13.4375 11.6875 13.2406 11.6875 13C11.6875 12.7594 11.8844 12.5625 12.125 12.5625ZM12.125 14.75H15.625C15.8656 14.75 16.0625 14.9469 16.0625 15.1875C16.0625 15.4281 15.8656 15.625 15.625 15.625H12.125C11.8844 15.625 11.6875 15.4281 11.6875 15.1875C11.6875 14.9469 11.8844 14.75 12.125 14.75ZM10.3794 10.375H10.3838C10.6244 10.375 10.8213 10.5719 10.8213 10.8125C10.8213 11.0531 10.6244 11.25 10.3838 11.25C10.1431 11.25 9.94188 11.0531 9.94188 10.8125C9.94188 10.5719 10.1388 10.375 10.3794 10.375ZM10.3794 12.5625H10.3838C10.6244 12.5625 10.8213 12.7594 10.8213 13C10.8213 13.2406 10.6244 13.4375 10.3838 13.4375C10.1431 13.4375 9.94188 13.2406 9.94188 13C9.94188 12.7594 10.1388 12.5625 10.3794 12.5625ZM10.3794 14.75H10.3838C10.6244 14.75 10.8213 14.9469 10.8213 15.1875C10.8213 15.4281 10.6244 15.625 10.3838 15.625C10.1431 15.625 9.94188 15.4281 9.94188 15.1875C9.94188 14.9469 10.1388 14.75 10.3794 14.75Z" fill="white"/>
</svg>
