<svg width="26" height="26" viewBox="0 0 26 26" fill="none" xmlns="http://www.w3.org/2000/svg">
<rect width="26" height="26" rx="13" fill="#EC4747"/>
<g clip-path="url(#clip0_6979_22880)">
<path d="M15.5001 15.6598C15.229 15.3886 14.7898 15.3884 14.5184 15.6598L13.5064 16.6721C13.2352 16.9432 12.7955 16.9427 12.5244 16.6715L9.42512 13.5723C9.15372 13.3006 9.15345 12.8614 9.42458 12.5903L10.4369 11.578C10.7083 11.3066 10.708 10.8671 10.4369 10.5963L8.62729 8.78691C8.51696 8.6763 8.33709 8.67604 8.22622 8.78691L7.83241 9.18072C6.2056 10.8075 6.2056 13.4456 7.83241 15.0724L11.0243 18.2643C12.6511 19.8908 15.2894 19.8913 16.9162 18.2643L17.31 17.8704C17.4209 17.7596 17.4204 17.5797 17.3092 17.4686L15.5001 15.6598ZM18.7167 10.2043H17.9991V9.20166H18.7167C19.0874 9.20166 19.3878 8.90126 19.3878 8.53054C19.3878 8.15981 19.0874 7.85941 18.7167 7.85941H17.9991V7.18748C17.9991 6.81675 17.6987 6.51636 17.328 6.51636C16.9573 6.51636 16.6569 6.81675 16.6569 7.18748V7.85941H15.6542V7.18748C15.6542 6.81675 15.3538 6.51636 14.9831 6.51636C14.6124 6.51636 14.312 6.81675 14.312 7.18748V7.85941H13.6784C13.3077 7.85941 13.0073 8.15981 13.0073 8.53054C13.0073 8.90126 13.3077 9.20166 13.6784 9.20166H14.312V10.2043H13.6784C13.3077 10.2043 13.0073 10.5047 13.0073 10.8754C13.0073 11.2462 13.3077 11.5466 13.6784 11.5466H14.312V12.2257C14.312 12.5965 14.6124 12.8969 14.9831 12.8969C15.3538 12.8969 15.6542 12.5965 15.6542 12.2257V11.5466H16.6569V12.2257C16.6569 12.5965 16.9573 12.8969 17.328 12.8969C17.6987 12.8969 17.9991 12.5965 17.9991 12.2257V11.5466H18.7167C19.0874 11.5466 19.3878 11.2462 19.3878 10.8754C19.3878 10.5047 19.0874 10.2043 18.7167 10.2043ZM15.6542 10.2043V9.20166H16.6569V10.2043H15.6542Z" fill="white"/>
</g>
<defs>
<clipPath id="clip0_6979_22880">
<rect width="14" height="14" fill="white" transform="translate(6 6)"/>
</clipPath>
</defs>
</svg>
