<svg width="26" height="26" viewBox="0 0 26 26" fill="none" xmlns="http://www.w3.org/2000/svg">
<rect width="26" height="26" rx="13" fill="#6293FF"/>
<g clip-path="url(#clip0_6979_22958)">
<path d="M16.3223 6.74768C16.5343 6.74793 16.7446 6.79022 16.9404 6.8717C17.1362 6.95322 17.3143 7.07298 17.4639 7.22327C17.7681 7.52667 17.9404 7.9381 17.9424 8.3678V13.2701C17.5786 13.1425 17.1867 13.0739 16.7793 13.0739C14.9979 13.074 13.5262 14.4011 13.2998 16.1207H11.4551L9.28906 17.9821C9.22971 18.0313 9.15745 18.0632 9.08105 18.0739C9.00476 18.0845 8.92693 18.0737 8.85645 18.0426C8.78839 18.0111 8.7298 17.9607 8.68848 17.8981C8.64735 17.8356 8.62437 17.7629 8.62207 17.6881V16.1354H8.21777C7.78822 16.1353 7.37601 15.9645 7.07227 15.6608C6.76853 15.357 6.59772 14.9448 6.59766 14.5153V8.3678C6.5977 7.93822 6.76854 7.52607 7.07227 7.22229C7.37601 6.91855 7.78822 6.74777 8.21777 6.74768H16.3223ZM8.64062 11.235C8.35911 11.2352 8.13086 11.4642 8.13086 11.7457C8.13097 12.0272 8.35918 12.2553 8.64062 12.2555H13.9414C14.223 12.2555 14.4511 12.0273 14.4512 11.7457C14.4512 11.464 14.2231 11.235 13.9414 11.235H8.64062ZM8.61719 9.20764C8.32421 9.20768 8.08713 9.44498 8.08691 9.73792C8.08691 10.031 8.32407 10.2691 8.61719 10.2692H15.9229C16.216 10.2691 16.4531 10.031 16.4531 9.73792C16.4529 9.44498 16.2158 9.20768 15.9229 9.20764H8.61719Z" fill="white"/>
<path d="M16.7791 19.0834C15.4041 19.0834 14.2791 17.9584 14.2791 16.5834C14.2791 15.2084 15.4041 14.0834 16.7791 14.0834C18.1541 14.0834 19.2791 15.2084 19.2791 16.5834C19.2791 17.9584 18.1541 19.0834 16.7791 19.0834ZM17.9353 16.3334C17.8728 16.2709 17.8103 16.2396 17.7166 16.2396C17.6228 16.2396 17.5603 16.2709 17.4978 16.3334L17.0916 16.7396V15.3334C17.0916 15.1459 16.9666 15.0209 16.7791 15.0209C16.5916 15.0209 16.4666 15.1459 16.4666 15.3334V16.7396L16.0603 16.3334C15.9353 16.2084 15.7478 16.2084 15.6228 16.3334C15.4978 16.4584 15.4978 16.6459 15.6228 16.7709L16.5603 17.7396C16.6228 17.8021 16.6853 17.8334 16.7791 17.8334C16.8728 17.8334 16.9353 17.8021 16.9978 17.7396L17.9353 16.7709C18.0603 16.6459 18.0603 16.4584 17.9353 16.3334Z" fill="white"/>
</g>
<defs>
<clipPath id="clip0_6979_22958">
<rect width="14" height="14" fill="white" transform="translate(6 6)"/>
</clipPath>
</defs>
</svg>
