<svg width="26" height="26" viewBox="0 0 26 26" fill="none" xmlns="http://www.w3.org/2000/svg">
<rect width="26" height="26" rx="13" fill="#4ECC40"/>
<path d="M10.9584 12.7083C12.2417 12.7083 13.2917 11.6583 13.2917 10.375C13.2917 9.09163 12.2417 8.04163 10.9584 8.04163C9.67508 8.04163 8.62508 9.09163 8.62508 10.375C8.62508 11.6583 9.67508 12.7083 10.9584 12.7083ZM13.5834 12.1833C14.5751 13 16.0334 12.825 16.8501 11.8333C17.6667 10.8416 17.4917 9.38329 16.5001 8.56663C16.0917 8.21663 15.5667 8.04163 15.0417 8.04163C14.5167 8.04163 13.9917 8.21663 13.5834 8.56663C14.5751 9.38329 14.7501 10.7833 13.9334 11.8333C13.8751 11.95 13.7001 12.0666 13.5834 12.1833ZM19.3584 17.3166C19.0084 15.1583 17.2001 13.5833 15.0417 13.5833C14.5167 13.5833 14.0501 13.6416 13.5834 13.8166C15.1001 14.3416 16.2084 15.6833 16.4417 17.2583C16.5001 17.55 16.2667 17.9 15.9167 17.9H15.8584H18.7751C19.1251 17.9 19.3584 17.6666 19.3584 17.3166ZM10.9584 13.5833C8.80008 13.5833 6.93341 15.1583 6.64175 17.3166C6.58341 17.6083 6.81675 17.9583 7.16675 17.9583H7.22508H14.6917C15.0417 17.9583 15.2751 17.725 15.2751 17.375V17.3166C14.9834 15.1583 13.1167 13.5833 10.9584 13.5833Z" fill="white"/>
</svg>
