<svg width="26" height="26" viewBox="0 0 26 26" fill="none" xmlns="http://www.w3.org/2000/svg">
<rect width="26" height="26" rx="13" fill="#728AAC"/>
<path fill-rule="evenodd" clip-rule="evenodd" d="M11.2332 11.637C11.2332 11.7975 11.1856 11.9544 11.0964 12.0879C11.0072 12.2214 10.8804 12.3254 10.7321 12.3868C10.5838 12.4483 10.4206 12.4643 10.2632 12.433C10.1057 12.4017 9.9611 12.3244 9.84759 12.2109C9.73408 12.0974 9.65678 11.9528 9.62546 11.7953C9.59414 11.6379 9.61022 11.4747 9.67165 11.3264C9.73308 11.1781 9.83711 11.0513 9.97058 10.9621C10.1041 10.8729 10.261 10.8253 10.4215 10.8253C10.6368 10.8253 10.8432 10.9108 10.9954 11.063C11.1476 11.2153 11.2332 11.4217 11.2332 11.637Z" fill="white"/>
<path fill-rule="evenodd" clip-rule="evenodd" d="M15.2847 11.637C15.2847 11.7975 15.2371 11.9544 15.1479 12.0879C15.0587 12.2214 14.9319 12.3254 14.7836 12.3868C14.6353 12.4483 14.4721 12.4643 14.3147 12.433C14.1572 12.4017 14.0126 12.3244 13.8991 12.2109C13.7856 12.0974 13.7083 11.9528 13.677 11.7953C13.6457 11.6379 13.6617 11.4747 13.7232 11.3264C13.7846 11.1781 13.8886 11.0513 14.0221 10.9621C14.1556 10.8729 14.3125 10.8253 14.473 10.8253C14.6883 10.8253 14.8947 10.9108 15.0469 11.063C15.1992 11.2153 15.2847 11.4217 15.2847 11.637Z" fill="white"/>
<path fill-rule="evenodd" clip-rule="evenodd" d="M17.1178 6.90161C17.3137 6.98311 17.4915 7.10244 17.6411 7.25277C17.9456 7.55618 18.1176 7.96775 18.1196 8.39758V13.3568C17.7259 13.2039 17.2978 13.1201 16.8501 13.1201C15.0748 13.1201 13.6074 14.4381 13.373 16.149H11.6335L9.46796 18.0098C9.40862 18.059 9.33672 18.0907 9.26033 18.1014C9.18395 18.112 9.10611 18.1012 9.03556 18.07C8.96751 18.0385 8.90959 17.9886 8.86828 17.926C8.82696 17.8634 8.80389 17.7905 8.80163 17.7156V16.1632H8.39758C7.968 16.1632 7.55601 15.9925 7.25225 15.6888C6.94848 15.385 6.77783 14.973 6.77783 14.5434V8.39758C6.77783 7.968 6.94848 7.55601 7.25225 7.25225C7.55601 6.94848 7.968 6.77783 8.39758 6.77783H16.4999C16.712 6.77805 16.922 6.82011 17.1178 6.90161ZM13.6583 13.0471C13.9062 13.1886 14.1871 13.2621 14.4725 13.2604C14.9021 13.2604 15.3141 13.0862 15.6179 12.7824C15.9216 12.4787 16.0923 12.0667 16.0923 11.6371C16.0923 11.2075 15.9216 10.7955 15.6179 10.4917C15.3141 10.188 14.9021 10.0173 14.4725 10.0173H10.4072C10.0513 10.0204 9.70639 10.1406 9.42566 10.3593C9.14493 10.578 8.94404 10.8831 8.85404 11.2274C8.76403 11.5717 8.78993 11.9361 8.92772 12.2642C9.06551 12.5923 9.30753 12.8659 9.61637 13.0427C9.92522 13.2195 10.2837 13.2897 10.6364 13.2424C10.9891 13.1951 11.3165 13.033 11.5678 12.781C11.8192 12.5291 11.9805 12.2014 12.027 11.8486C12.0735 11.4957 12.0025 11.1374 11.8249 10.829H13.0548C12.9127 11.0765 12.8384 11.3572 12.8394 11.6426C12.8403 11.9281 12.9165 12.2082 13.0603 12.4548C13.2041 12.7014 13.4104 12.9057 13.6583 13.0471Z" fill="white"/>
<path d="M16.7798 19.083C15.4048 19.083 14.2798 17.958 14.2798 16.583C14.2798 15.208 15.4048 14.083 16.7798 14.083C18.1548 14.083 19.2798 15.208 19.2798 16.583C19.2798 17.958 18.1548 19.083 16.7798 19.083ZM17.936 16.333C17.8735 16.2705 17.811 16.2393 17.7173 16.2393C17.6235 16.2393 17.561 16.2705 17.4985 16.333L17.0923 16.7393V15.333C17.0923 15.1455 16.9673 15.0205 16.7798 15.0205C16.5923 15.0205 16.4673 15.1455 16.4673 15.333V16.7393L16.061 16.333C15.936 16.208 15.7485 16.208 15.6235 16.333C15.4985 16.458 15.4985 16.6455 15.6235 16.7705L16.561 17.7393C16.6235 17.8018 16.686 17.833 16.7798 17.833C16.8735 17.833 16.936 17.8018 16.9985 17.7393L17.936 16.7705C18.061 16.6455 18.061 16.458 17.936 16.333Z" fill="white"/>
</svg>
