<svg width="41" height="41" viewBox="0 0 41 41" fill="none" xmlns="http://www.w3.org/2000/svg">
<rect x="0.5" y="0.5" width="40" height="40" rx="6.66667" fill="#00A086"/>
<path d="M31.7167 21.381H29.2033C28.962 21.381 28.7578 21.2997 28.5908 21.1371C28.4235 20.9744 28.3399 20.773 28.3399 20.5327C28.3399 20.2923 28.4216 20.0886 28.5849 19.9218C28.7482 19.7548 28.9505 19.6713 29.1918 19.6713H31.7052C31.9467 19.6713 32.151 19.7526 32.3181 19.9152C32.4853 20.0779 32.5689 20.2793 32.5689 20.5196C32.5689 20.76 32.4873 20.9637 32.324 21.1305C32.1607 21.2975 31.9583 21.381 31.7167 21.381ZM26.6377 26.9884C26.7844 26.8012 26.9724 26.6844 27.2019 26.6379C27.4312 26.5917 27.6395 26.6309 27.8267 26.7556L29.8826 28.1777C30.0902 28.3123 30.2171 28.5052 30.2634 28.7564C30.3099 29.0076 30.2597 29.2268 30.1128 29.414C29.9662 29.601 29.7782 29.7177 29.5489 29.7641C29.3196 29.8106 29.1114 29.7714 28.9242 29.6464L26.8679 28.2247C26.6605 28.0901 26.5337 27.8972 26.4874 27.646C26.441 27.3948 26.4911 27.1756 26.6377 26.9884ZM29.8297 12.7766L27.7431 14.246C27.5559 14.3708 27.3422 14.4045 27.102 14.3473C26.8617 14.2899 26.6791 14.1676 26.5542 13.9804C26.4295 13.7934 26.3903 13.5797 26.4368 13.3392C26.4831 13.099 26.5998 12.9165 26.787 12.7918L28.8736 11.3552C29.0608 11.2305 29.2745 11.1913 29.5147 11.2375C29.755 11.284 29.9376 11.4007 30.0625 11.5877C30.1872 11.7749 30.2264 11.9886 30.1799 12.2289C30.1336 12.4693 30.0169 12.6519 29.8297 12.7766ZM11.3586 23.1263H10.5442C9.96267 23.1263 9.46486 22.9193 9.05079 22.5052C8.63672 22.0911 8.42969 21.5933 8.42969 21.0118V20.0405C8.42969 19.459 8.63672 18.9612 9.05079 18.5471C9.46486 18.133 9.96267 17.926 10.5442 17.926H14.9376L19.9479 14.9872C20.3004 14.7713 20.6507 14.759 20.9988 14.9503C21.3471 15.1415 21.5212 15.4404 21.5212 15.847V25.1724C21.5212 25.5791 21.3416 25.8779 20.9823 26.0691C20.6233 26.2604 20.2675 26.2482 19.915 26.0323L15.1349 23.1263H13.8575V28.0518C13.8575 28.4047 13.7377 28.703 13.4982 28.9467C13.2586 29.1907 12.9618 29.3127 12.6078 29.3127C12.2535 29.3127 11.9568 29.1929 11.7177 28.9533C11.4783 28.714 11.3586 28.4173 11.3586 28.0633V23.1263ZM23.6052 24.0696V16.9827C24.0335 17.4059 24.3614 17.9352 24.5889 18.5704C24.8167 19.2057 24.9306 19.8586 24.9306 20.5291C24.9306 21.1999 24.8167 21.8519 24.5889 22.4851C24.3614 23.1182 24.0335 23.6464 23.6052 24.0696Z" fill="white"/>
</svg>
