<svg width="68" height="48" viewBox="0 0 68 48" fill="none" xmlns="http://www.w3.org/2000/svg">
<rect x="0.186523" width="67.2" height="48" rx="4.8" fill="#0571C1"/>
<g clip-path="url(#clip0_4081_25163)">
<path d="M12.8804 19.6033H14.6404L13.7604 17.3633L12.8804 19.6033Z" fill="white"/>
<path d="M34.7185 17.6816C34.5585 17.6016 34.3185 17.6016 34.0785 17.6016H32.4785V18.8816H34.0785C34.3185 18.8816 34.5585 18.8816 34.7185 18.8016C34.8785 18.7216 34.9585 18.4816 34.9585 18.2416C35.0385 17.9216 34.8785 17.7616 34.7185 17.6816Z" fill="white"/>
<path d="M51.843 15.2812V16.2412L51.363 15.2812H47.603V16.2412L47.123 15.2812H42.003C41.123 15.2812 40.403 15.4413 39.763 15.7613V15.2812H36.163V15.7613C35.763 15.4413 35.283 15.2812 34.643 15.2812H21.763L20.883 17.2812L20.003 15.2812H15.923V16.2412L15.443 15.2812H12.003L10.403 19.0412L8.56299 23.2012H12.643L13.123 21.9212H14.243L14.723 23.2012H19.363V22.2412L19.763 23.2012H22.083L22.483 22.2412V23.2012H33.603V21.1212H33.763C33.923 21.1212 33.923 21.1213 33.923 21.3613V23.1212H39.683V22.6412C40.163 22.8812 40.883 23.1212 41.843 23.1212H44.243L44.723 21.8412H45.843L46.323 23.1212H50.963V21.9212L51.683 23.1212H55.443V15.2812H51.843ZM24.803 22.0012H23.443V17.6012L21.523 22.0012H20.323L18.403 17.6012V22.0012H15.683L15.123 20.8012H12.403L11.923 22.0813H10.403L12.803 16.4012H14.803L17.043 21.7613V16.4012H19.203L20.963 20.2412L22.563 16.4012H24.803V22.0012ZM30.243 17.6012H27.123V18.6412H30.163V19.7613H27.123V20.8812H30.243V22.0813H25.763V16.4012H30.243V17.6012ZM36.243 19.9212C36.403 20.2412 36.483 20.4813 36.483 20.9613V22.0813H35.123V21.3613C35.123 21.0413 35.123 20.5612 34.883 20.2412C34.643 20.0012 34.403 20.0012 33.923 20.0012H32.483V22.0813H31.123V16.4012H34.163C34.883 16.4012 35.363 16.4012 35.763 16.6412C36.163 16.8812 36.403 17.2812 36.403 17.9212C36.403 18.8012 35.843 19.2812 35.443 19.4412C35.843 19.5212 36.083 19.7612 36.243 19.9212ZM38.643 22.0012H37.283V16.3212H38.643V22.0012ZM54.403 22.0012H52.483L49.923 17.7613V22.0012H47.203L46.723 20.8012H43.923L43.443 22.0813H41.923C41.283 22.0813 40.483 21.9212 40.003 21.4412C39.523 20.9612 39.283 20.3212 39.283 19.2812C39.283 18.4813 39.443 17.6812 40.003 17.0412C40.403 16.5612 41.123 16.4012 42.003 16.4012H43.283V17.6012H42.003C41.523 17.6012 41.283 17.6812 40.963 17.9212C40.723 18.1612 40.563 18.6412 40.563 19.2012C40.563 19.8412 40.643 20.2413 40.963 20.5613C41.203 20.8013 41.523 20.8812 41.923 20.8812H42.483L44.323 16.4813H46.323L48.563 21.8412V16.4813H50.563L52.883 20.4012V16.4813H54.243V22.0012H54.403Z" fill="white"/>
<path d="M44.4041 19.6033H46.2441L45.3641 17.3633L44.4041 19.6033ZM30.8041 31.1233V26.5633L28.7241 28.8033L30.8041 31.1233Z" fill="white"/>
<path d="M22.2412 27.1172V28.1572H25.2012V29.2772H22.2412V30.4772H25.5212L27.0412 28.7972L25.6012 27.1172H22.2412Z" fill="white"/>
<path d="M33.8402 27.1172H32.1602V28.5572H33.9202C34.4002 28.5572 34.7202 28.3172 34.7202 27.8372C34.6402 27.3572 34.3202 27.1172 33.8402 27.1172Z" fill="white"/>
<path d="M58.5616 28.4828V24.8828H55.2016C54.4816 24.8828 53.9216 25.0428 53.5216 25.3628V24.8828H49.8416C49.2816 24.8828 48.5616 25.0428 48.2416 25.3628V24.8828H41.7616V25.3628C41.2816 24.9628 40.4016 24.8828 40.0016 24.8828H35.6816V25.3628C35.2816 24.9628 34.3216 24.8828 33.8416 24.8828H29.0416L27.9216 26.0828L26.8816 24.8828H19.6816V32.7228H26.7216L27.8416 31.5228L28.8816 32.7228H33.2016V30.8828H33.7616C34.3216 30.8828 35.0416 30.8828 35.6016 30.6428V32.8028H39.2016V30.7228H39.3616C39.6016 30.7228 39.6016 30.7228 39.6016 30.9628V32.8028H50.4816C51.2016 32.8028 51.9216 32.6428 52.3216 32.3228V32.8028H55.7616C56.4816 32.8028 57.2016 32.7228 57.6816 32.4028C58.4816 31.9228 58.9616 31.0428 58.9616 30.0028C58.9616 29.4428 58.8016 28.8828 58.5616 28.4828ZM33.7616 29.7628H32.1616V31.6828H29.6016L28.0016 29.8428L26.3216 31.6828H21.0416V26.0028H26.4016L28.0016 27.8428L29.6816 26.0028H33.9216C34.9616 26.0028 36.1616 26.3228 36.1616 27.8428C36.0816 29.4428 34.9616 29.7628 33.7616 29.7628ZM41.7616 29.4428C41.9216 29.6828 42.0016 30.0028 42.0016 30.4828V31.6028H40.6416V30.8828C40.6416 30.5628 40.6416 30.0028 40.4016 29.7628C40.2416 29.5228 39.9216 29.5228 39.4416 29.5228H38.0016V31.6028H36.6416V25.9228H39.6816C40.3216 25.9228 40.8816 25.9228 41.2816 26.1628C41.6816 26.4028 42.0016 26.8028 42.0016 27.4428C42.0016 28.3228 41.4416 28.8028 41.0416 28.9628C41.4416 29.1228 41.6816 29.2828 41.7616 29.4428ZM47.2816 27.1228H44.1616V28.1628H47.2016V29.2828H44.1616V30.4028H47.2816V31.6028H42.8016V25.9228H47.2816V27.1228ZM50.6416 31.6028H48.0816V30.4028H50.6416C50.8816 30.4028 51.0416 30.4028 51.2016 30.2428C51.2816 30.1628 51.3616 30.0028 51.3616 29.8428C51.3616 29.6828 51.2816 29.5228 51.2016 29.4428C51.1216 29.3628 50.9616 29.2828 50.7216 29.2828C49.4416 29.2028 47.9216 29.2828 47.9216 27.5228C47.9216 26.7228 48.4016 25.8428 49.8416 25.8428H52.4816V27.2028H50.0016C49.7616 27.2028 49.6016 27.2028 49.4416 27.2828C49.2816 27.3628 49.2816 27.5228 49.2816 27.6828C49.2816 27.9228 49.4416 28.0028 49.6016 28.0828C49.7616 28.1628 49.9216 28.1628 50.0816 28.1628H50.8016C51.5216 28.1628 52.0016 28.3228 52.3216 28.6428C52.5616 28.8828 52.7216 29.2828 52.7216 29.8428C52.7216 31.0428 52.0016 31.6028 50.6416 31.6028ZM57.5216 31.0428C57.2016 31.3628 56.6416 31.6028 55.8416 31.6028H53.2816V30.4028H55.8416C56.0816 30.4028 56.2416 30.4028 56.4016 30.2428C56.4816 30.1628 56.5616 30.0028 56.5616 29.8428C56.5616 29.6828 56.4816 29.5228 56.4016 29.4428C56.3216 29.3628 56.1616 29.2828 55.9216 29.2828C54.6416 29.2028 53.1216 29.2828 53.1216 27.5228C53.1216 26.7228 53.6016 25.8428 55.0416 25.8428H57.6816V27.2028H55.2816C55.0416 27.2028 54.8816 27.2028 54.7216 27.2828C54.5616 27.3628 54.5616 27.5228 54.5616 27.6828C54.5616 27.9228 54.6416 28.0028 54.8816 28.0828C55.0416 28.1628 55.2016 28.1628 55.3616 28.1628H56.0816C56.8016 28.1628 57.2816 28.3228 57.6016 28.6428C57.6816 28.6428 57.6816 28.7228 57.6816 28.7228C57.9216 29.0428 58.0016 29.4428 58.0016 29.8428C58.0016 30.3228 57.8416 30.7228 57.5216 31.0428Z" fill="white"/>
<path d="M40.3201 27.2831C40.1601 27.2031 39.9201 27.2031 39.6801 27.2031H38.0801V28.4831H39.6801C39.9201 28.4831 40.1601 28.4831 40.3201 28.4031C40.4801 28.3231 40.5601 28.0831 40.5601 27.8431C40.6401 27.5231 40.4801 27.3631 40.3201 27.2831Z" fill="white"/>
<path d="M34.7227 17.6833C34.5627 17.6033 34.3227 17.6033 34.0827 17.6033H32.4827V18.8833H34.0827C34.3227 18.8833 34.5627 18.8833 34.7227 18.8033C34.8827 18.7233 34.9627 18.4833 34.9627 18.2433C35.0427 17.9233 34.8827 17.7633 34.7227 17.6833ZM44.4027 19.6033H46.2427L45.3627 17.3633L44.4027 19.6033ZM30.8027 31.1233V26.5633L28.7227 28.8033L30.8027 31.1233ZM33.8427 27.1233H32.1627V28.5633H33.9227C34.4027 28.5633 34.7227 28.3233 34.7227 27.8433C34.6427 27.3633 34.3227 27.1233 33.8427 27.1233ZM40.3227 27.2833C40.1627 27.2033 39.9227 27.2033 39.6827 27.2033H38.0827V28.4833H39.6827C39.9227 28.4833 40.1627 28.4833 40.3227 28.4033C40.4827 28.3233 40.5627 28.0833 40.5627 27.8433C40.6427 27.5233 40.4827 27.3633 40.3227 27.2833Z" fill="white"/>
</g>
<defs>
<clipPath id="clip0_4081_25163">
<rect width="51.2" height="38.4" fill="white" transform="translate(8.18652 4.80078)"/>
</clipPath>
</defs>
</svg>
