<svg width="68" height="48" viewBox="0 0 68 48" fill="none" xmlns="http://www.w3.org/2000/svg">
<rect x="0.399902" width="67.2" height="48" rx="4.8" fill="#00529E"/>
<path d="M36.0842 25.9446C40.8122 25.9686 45.1322 22.0926 45.1322 17.3646C45.1322 12.2046 40.8122 8.64062 36.0842 8.64062H32.0162C27.2282 8.64062 23.2922 12.2046 23.2922 17.3646C23.2922 22.0806 27.2282 25.9566 32.0162 25.9446H36.0842Z" fill="white"/>
<path d="M33.8372 21.9714V12.5994C35.7212 13.3194 37.0532 15.1434 37.0652 17.2794C37.0532 19.4154 35.7092 21.2394 33.8372 21.9714ZM27.0212 17.2794C27.0212 15.1434 28.3652 13.3194 30.2372 12.5994V21.9714C28.3532 21.2394 27.0212 19.4154 27.0212 17.2794ZM32.0372 9.35938C27.6692 9.35938 24.1172 12.8994 24.1172 17.2794C24.1172 21.6474 27.6572 25.1994 32.0372 25.1994C36.4052 25.1994 39.9572 21.6594 39.9572 17.2794C39.9572 12.8994 36.4052 9.35938 32.0372 9.35938Z" fill="#00529E"/>
<path d="M14.4524 31.8529C14.4524 32.5609 14.9564 32.6329 15.4004 32.6329C17.3804 32.6329 18.0284 31.1449 18.0284 29.7769C18.0284 28.0609 16.9364 26.8369 15.1724 26.8369C14.8004 26.8369 14.6204 26.8609 14.4644 26.8729V31.8529H14.4524ZM13.5524 27.5689C13.5524 26.7409 13.1204 26.8009 12.7124 26.7889V26.5489C13.0724 26.5609 13.4324 26.5609 13.7924 26.5609C14.1764 26.5609 14.6924 26.5489 15.3764 26.5489C17.7404 26.5489 19.0364 28.1329 19.0364 29.7529C19.0364 30.6649 18.5084 32.9329 15.2684 32.9329C14.8004 32.9329 14.3684 32.9089 13.9364 32.9089C13.5284 32.9089 13.1204 32.9209 12.7124 32.9329V32.6929C13.2644 32.6329 13.5284 32.6209 13.5524 31.9969V27.5689ZM20.3324 27.3409C20.0924 27.3409 19.8884 27.1249 19.8884 26.8849C19.8884 26.6569 20.1044 26.4409 20.3324 26.4409C20.5724 26.4409 20.7764 26.6329 20.7764 26.8849C20.7884 27.1369 20.5844 27.3409 20.3324 27.3409ZM19.3604 32.6929H19.5404C19.7924 32.6929 19.9724 32.6929 19.9724 32.3929V29.9209C19.9724 29.5129 19.8404 29.4649 19.4924 29.2849V29.1409C19.9244 29.0089 20.4284 28.8409 20.4644 28.8169C20.5244 28.7809 20.5844 28.7689 20.6324 28.7689C20.6804 28.7689 20.6924 28.8289 20.6924 28.9009V32.4169C20.6924 32.7169 20.8964 32.7169 21.1484 32.7169H21.3044V32.9569C20.9924 32.9569 20.6684 32.9329 20.3444 32.9329C20.0204 32.9329 19.6844 32.9449 19.3484 32.9569V32.6929H19.3604ZM22.1804 29.9689C22.1804 29.6329 22.0844 29.5369 21.6524 29.3689V29.2009C22.0484 29.0689 22.4204 28.9489 22.8644 28.7569C22.8884 28.7569 22.9244 28.7809 22.9244 28.8529V29.4529C23.4524 29.0809 23.8964 28.7689 24.5084 28.7689C25.2884 28.7689 25.5644 29.3329 25.5644 30.0529V32.4169C25.5644 32.7169 25.7684 32.7169 26.0204 32.7169H26.1884V32.9569C25.8644 32.9569 25.5524 32.9329 25.2164 32.9329C24.8924 32.9329 24.5564 32.9449 24.2324 32.9569V32.7169H24.4004C24.6524 32.7169 24.8444 32.7169 24.8444 32.4169V30.0529C24.8444 29.5369 24.5204 29.2729 24.0044 29.2729C23.7164 29.2729 23.2484 29.5129 22.9364 29.7169V32.4169C22.9364 32.7169 23.1404 32.7169 23.3924 32.7169H23.5604V32.9569C23.2364 32.9569 22.9244 32.9329 22.5884 32.9329C22.2644 32.9329 21.9284 32.9449 21.6044 32.9569V32.7169H21.7724C22.0244 32.7169 22.2044 32.7169 22.2044 32.4169V29.9689H22.1804ZM28.4804 30.1129C28.7084 30.1129 28.7324 29.9929 28.7324 29.8849C28.7324 29.4169 28.4444 29.0449 27.9404 29.0449C27.3764 29.0449 27.0044 29.4529 26.8844 30.1129H28.4804ZM26.8604 30.4129C26.8364 30.4969 26.8364 30.6289 26.8604 30.9409C26.9204 31.8049 27.4724 32.5249 28.2044 32.5249C28.7084 32.5249 29.1044 32.2489 29.4404 31.9129L29.5724 32.0449C29.1524 32.5969 28.6364 33.0769 27.8804 33.0769C26.4284 33.0769 26.1284 31.6729 26.1284 31.0849C26.1284 29.2969 27.3404 28.7569 27.9764 28.7569C28.7204 28.7569 29.5124 29.2249 29.5244 30.1969C29.5244 30.2569 29.5244 30.3049 29.5124 30.3649L29.4284 30.4249H26.8604V30.4129ZM29.7404 32.6929H29.9924C30.2444 32.6929 30.4364 32.6929 30.4364 32.3929V29.8249C30.4364 29.5369 30.1004 29.4889 29.9564 29.4169V29.2849C30.6284 28.9969 30.9884 28.7569 31.0724 28.7569C31.1324 28.7569 31.1564 28.7809 31.1564 28.8769V29.7049H31.1804C31.4084 29.3449 31.7924 28.7689 32.3564 28.7689C32.5844 28.7689 32.8724 28.9249 32.8724 29.2489C32.8724 29.4889 32.6924 29.7169 32.4404 29.7169C32.1524 29.7169 32.1524 29.4889 31.8404 29.4889C31.6844 29.4889 31.1684 29.7049 31.1684 30.2449V32.3929C31.1684 32.6929 31.3484 32.6929 31.6124 32.6929H32.1284V32.9329C31.6244 32.9209 31.2404 32.9089 30.8444 32.9089C30.4724 32.9089 30.0884 32.9209 29.7524 32.9329V32.6929H29.7404ZM33.2564 31.6609C33.3764 32.2609 33.7364 32.7769 34.4084 32.7769C34.9484 32.7769 35.1524 32.4529 35.1524 32.1289C35.1524 31.0489 33.1604 31.3969 33.1604 29.9209C33.1604 29.4049 33.5684 28.7449 34.5764 28.7449C34.8644 28.7449 35.2604 28.8289 35.6204 29.0089L35.6804 29.9449H35.4764C35.3804 29.3689 35.0684 29.0449 34.4804 29.0449C34.1204 29.0449 33.7724 29.2489 33.7724 29.6449C33.7724 30.7129 35.8964 30.3889 35.8964 31.8169C35.8964 32.4169 35.4164 33.0649 34.3244 33.0649C33.9644 33.0649 33.5324 32.9329 33.2084 32.7529L33.1124 31.6969L33.2564 31.6609ZM44.1404 28.2049H43.9124C43.7324 27.1369 42.9764 26.7049 41.9564 26.7049C40.9004 26.7049 39.3764 27.4129 39.3764 29.6089C39.3764 31.4569 40.6964 32.7769 42.1004 32.7769C43.0004 32.7769 43.7564 32.1529 43.9364 31.1929L44.1524 31.2529L43.9364 32.5849C43.5524 32.8249 42.5204 33.0649 41.9084 33.0649C39.7724 33.0649 38.4164 31.6849 38.4164 29.6209C38.4164 27.7489 40.0844 26.4049 41.8844 26.4049C42.6284 26.4049 43.3364 26.6449 44.0444 26.8969L44.1404 28.2049ZM44.4644 32.6929H44.6324C44.8844 32.6929 45.0764 32.6929 45.0764 32.3929V27.3049C45.0764 26.7049 44.9444 26.6929 44.5964 26.5969V26.4529C44.9564 26.3329 45.3404 26.1649 45.5324 26.0569C45.6284 26.0089 45.7004 25.9609 45.7364 25.9609C45.7964 25.9609 45.8084 26.0209 45.8084 26.0929V32.4049C45.8084 32.7049 46.0124 32.7049 46.2644 32.7049H46.4204V32.9449C46.1084 32.9449 45.7964 32.9209 45.4604 32.9209C45.1364 32.9209 44.8004 32.9329 44.4644 32.9449V32.6929ZM50.3444 32.4289C50.3444 32.5969 50.4404 32.6089 50.5964 32.6089C50.7044 32.6089 50.8364 32.5969 50.9564 32.5969V32.7889C50.5604 32.8249 49.8164 33.0169 49.6364 33.0769L49.5884 33.0529V32.3089C49.0364 32.7529 48.6164 33.0769 47.9684 33.0769C47.4764 33.0769 46.9604 32.7529 46.9604 31.9849V29.6449C46.9604 29.4049 46.9244 29.1769 46.4084 29.1289V28.9489C46.7324 28.9369 47.4644 28.8889 47.5844 28.8889C47.6804 28.8889 47.6804 28.9489 47.6804 29.1529V31.5169C47.6804 31.7929 47.6804 32.5849 48.4724 32.5849C48.7844 32.5849 49.1924 32.3449 49.5764 32.0209V29.5609C49.5764 29.3809 49.1324 29.2849 48.8084 29.1889V29.0209C49.6244 28.9609 50.1404 28.8889 50.2364 28.8889C50.3084 28.8889 50.3084 28.9489 50.3084 29.0569V32.4289H50.3444ZM52.1564 31.9009C52.1564 32.2489 52.4804 32.8369 53.0924 32.8369C54.0764 32.8369 54.4844 31.8769 54.4844 31.0609C54.4844 30.0769 53.7284 29.2489 53.0204 29.2489C52.6844 29.2489 52.3964 29.4649 52.1564 29.6809V31.9009ZM52.1564 29.4169C52.5164 29.1049 53.0204 28.7569 53.5244 28.7569C54.5804 28.7569 55.2284 29.6809 55.2284 30.6769C55.2284 31.8769 54.3524 33.0769 53.0444 33.0769C52.3724 33.0769 52.0124 32.8609 51.7724 32.7529L51.4964 32.9689L51.3044 32.8729C51.3884 32.3329 51.4364 31.8049 51.4364 31.2409V27.3049C51.4364 26.7049 51.3044 26.6929 50.9564 26.5969V26.4529C51.3284 26.3329 51.7004 26.1649 51.8924 26.0569C51.9884 25.9969 52.0604 25.9609 52.0964 25.9609C52.1564 25.9609 52.1684 26.0209 52.1684 26.0929V29.4169H52.1564ZM12.7124 38.2489H12.7844C12.9644 38.2489 13.1564 38.2249 13.1564 37.9609V35.3569C13.1564 35.0929 12.9644 35.0689 12.7844 35.0689H12.7124V34.9249C12.9044 34.9249 13.2044 34.9489 13.4444 34.9489C13.6964 34.9489 13.9964 34.9249 14.2244 34.9249V35.0689H14.1524C13.9724 35.0689 13.7804 35.0929 13.7804 35.3569V37.9609C13.7804 38.2249 13.9724 38.2489 14.1524 38.2489H14.2244V38.3929C13.9844 38.3929 13.6844 38.3689 13.4444 38.3689C13.2044 38.3689 12.9044 38.3929 12.7124 38.3929V38.2489Z" fill="white"/>
<path d="M14.201 38.3784V38.2704H14.153C13.973 38.2704 13.769 38.2344 13.757 37.9704V35.3664C13.757 35.0904 13.973 35.0664 14.153 35.0664H14.201V34.9584C13.973 34.9584 13.685 34.9824 13.445 34.9824C13.205 34.9824 12.917 34.9584 12.725 34.9584V35.0664H12.773C12.953 35.0664 13.157 35.1024 13.157 35.3664V37.9704C13.157 38.2464 12.941 38.2704 12.773 38.2704H12.725V38.3784C12.917 38.3784 13.193 38.3544 13.433 38.3544C13.685 38.3544 13.973 38.3784 14.201 38.3784ZM14.225 38.4144C13.985 38.4144 13.685 38.3904 13.445 38.3904C13.205 38.3904 12.905 38.4144 12.713 38.4144H12.689V38.2224H12.785C12.965 38.2224 13.133 38.1984 13.133 37.9584V35.3544C13.133 35.1144 12.965 35.0904 12.785 35.0904H12.689V34.8984H12.713C12.905 34.8984 13.205 34.9224 13.445 34.9224C13.697 34.9224 13.985 34.8984 14.225 34.8984H14.249V35.0904H14.153C13.973 35.0904 13.805 35.1144 13.805 35.3544V37.9584C13.805 38.1984 13.973 38.2224 14.153 38.2224H14.249V38.4144H14.225ZM17.645 37.4184L17.657 35.5464C17.657 35.1384 17.369 35.0784 17.225 35.0784H17.117V34.9344C17.357 34.9344 17.585 34.9584 17.813 34.9584C18.017 34.9584 18.221 34.9344 18.425 34.9344V35.0784H18.353C18.149 35.0784 17.909 35.1144 17.909 35.7144V37.9824C17.909 38.1624 17.909 38.3304 17.933 38.4864H17.741L15.173 35.6304V37.6824C15.173 38.1144 15.257 38.2704 15.641 38.2704H15.725V38.4144C15.509 38.4144 15.293 38.3904 15.089 38.3904C14.861 38.3904 14.633 38.4144 14.417 38.4144V38.2704H14.489C14.837 38.2704 14.933 38.0304 14.933 37.6344V35.5344C14.933 35.2584 14.705 35.0904 14.477 35.0904H14.417V34.9464C14.609 34.9464 14.801 34.9704 14.993 34.9704C15.137 34.9704 15.281 34.9464 15.437 34.9464L17.645 37.4184Z" fill="white"/>
<path d="M17.7386 38.4493H17.9066C17.8826 38.3053 17.8826 38.1373 17.8826 37.9693V35.7013C17.8826 35.1013 18.1346 35.0533 18.3506 35.0533H18.3986V34.9453C18.2066 34.9453 18.0026 34.9693 17.8106 34.9693C17.5826 34.9693 17.3666 34.9453 17.1386 34.9453V35.0533H17.2226C17.3786 35.0533 17.6786 35.1253 17.6786 35.5453V37.4293L17.6666 37.4413L17.6546 37.4533L15.4466 34.9453C15.3026 34.9453 15.1586 34.9693 15.0026 34.9693C14.8226 34.9693 14.6306 34.9453 14.4506 34.9453V35.0533H14.4986C14.7266 35.0533 14.9666 35.2333 14.9666 35.5213V37.6213C14.9666 38.0173 14.8586 38.2693 14.4986 38.2813H14.4506V38.3893C14.6666 38.3893 14.8826 38.3653 15.1106 38.3653C15.3146 38.3653 15.5306 38.3893 15.7346 38.3893V38.2813H15.6746C15.2786 38.2813 15.1826 38.1133 15.1826 37.6813V35.5813L17.7386 38.4493ZM17.9306 38.4973L17.7266 38.4853L15.2066 35.6653V37.6573C15.2066 38.0893 15.2786 38.2093 15.6506 38.2213H15.7586V38.4133H15.7346C15.5186 38.4133 15.3026 38.3893 15.0986 38.3893C14.8706 38.3893 14.6426 38.4133 14.4266 38.4133H14.4026V38.2213H14.4866C14.8106 38.2213 14.9066 38.0053 14.9066 37.6093V35.5093C14.9066 35.2453 14.6906 35.0893 14.4746 35.0893H14.3906V34.8973H14.4146C14.6066 34.8973 14.7986 34.9213 14.9906 34.9213C15.1346 34.9213 15.2786 34.8973 15.4466 34.9093L17.6306 37.3693V35.5333C17.6306 35.1373 17.3666 35.0893 17.2226 35.0893H17.0906V34.8973H17.1146C17.3546 34.8973 17.5826 34.9213 17.8106 34.9213C18.0146 34.9213 18.2186 34.8973 18.4226 34.8973H18.4466V35.0893H18.3506C18.1466 35.0893 17.9306 35.1133 17.9306 35.7013V37.9693C17.9306 38.1493 17.9306 38.3173 17.9546 38.4733V38.4973H17.9306ZM19.1666 35.1733C18.7946 35.1733 18.7826 35.2693 18.6986 35.6293H18.5546C18.5786 35.4853 18.6026 35.3533 18.6146 35.2093C18.6386 35.0653 18.6506 34.9333 18.6506 34.7893H18.7706C18.8066 34.9333 18.9386 34.9333 19.0706 34.9333H21.6386C21.7706 34.9333 21.9026 34.9333 21.9026 34.7773L22.0226 34.8013C21.9986 34.9333 21.9866 35.0653 21.9626 35.2093C21.9506 35.3413 21.9506 35.4733 21.9506 35.6173L21.8066 35.6773C21.7946 35.4973 21.7706 35.1973 21.4346 35.1973H20.6186V37.8493C20.6186 38.2333 20.7866 38.2813 21.0266 38.2813H21.1226V38.4253C20.9306 38.4253 20.5826 38.4013 20.3066 38.4013C20.0066 38.4013 19.6586 38.4253 19.4666 38.4253V38.2813H19.5626C19.8386 38.2813 19.9706 38.2573 19.9706 37.8613V35.2093H19.1666V35.1733Z" fill="white"/>
<path d="M21.1191 38.4106C20.9271 38.4106 20.5791 38.3866 20.3031 38.3866C20.0031 38.3866 19.6551 38.4106 19.4631 38.4106H19.4511V38.2186H19.5711C19.8471 38.2066 19.9551 38.2066 19.9671 37.8226V35.1826H19.1751V35.1346H20.0151V37.8106C20.0151 38.2066 19.8591 38.2546 19.5831 38.2546H19.5111V38.3626C19.7031 38.3626 20.0391 38.3386 20.3271 38.3386C20.5911 38.3386 20.9151 38.3626 21.1191 38.3626V38.2546H21.0471C20.8071 38.2546 20.6151 38.1946 20.6151 37.7986V35.1346H21.4551C21.7911 35.1346 21.8271 35.4226 21.8391 35.6026L21.9471 35.5666C21.9471 35.4346 21.9471 35.3026 21.9591 35.1706C21.9711 35.0386 21.9951 34.9186 22.0071 34.7866L21.9351 34.7746C21.9111 34.9186 21.7671 34.9306 21.6471 34.9306H19.0551C18.9351 34.9306 18.8151 34.9306 18.7671 34.7866H18.6831C18.6831 34.9186 18.6711 35.0506 18.6471 35.1946C18.6351 35.3266 18.6111 35.4586 18.5871 35.5906H18.6951C18.7671 35.2426 18.8031 35.1346 19.1751 35.1346V35.1826C18.8031 35.1946 18.8151 35.2546 18.7311 35.6146V35.6266H18.5391V35.6026C18.5631 35.4586 18.5871 35.3266 18.5991 35.1826C18.6231 35.0386 18.6231 34.9066 18.6231 34.7626V34.7386H18.7791V34.7506C18.8151 34.8826 18.8991 34.8826 19.0311 34.8826H21.6231C21.7671 34.8826 21.8631 34.8826 21.8751 34.7506V34.7266H21.8991L22.0431 34.7506V34.7746C22.0191 34.9066 22.0071 35.0386 21.9831 35.1706C21.9711 35.3026 21.9711 35.4346 21.9711 35.5666V35.5786L21.9591 35.5906L21.7791 35.6506V35.6266C21.7671 35.4346 21.7431 35.1706 21.4311 35.1706H20.6391V37.7986C20.6391 38.1706 20.7951 38.2066 21.0351 38.2066H21.1551V38.3986H21.1191V38.4106ZM22.1751 38.2426H22.2471C22.4271 38.2426 22.6191 38.2186 22.6191 37.9546V35.3506C22.6191 35.0866 22.4271 35.0626 22.2471 35.0626H22.1751V34.9186C22.4751 34.9186 22.9911 34.9426 23.4111 34.9426C23.8311 34.9426 24.3471 34.9186 24.6831 34.9186C24.6711 35.1346 24.6831 35.4586 24.6951 35.6746L24.5391 35.7106C24.5151 35.3866 24.4551 35.1346 23.9391 35.1346H23.2431V36.4426H23.8311C24.1311 36.4426 24.1911 36.2746 24.2271 36.0106H24.3711C24.3591 36.2026 24.3591 36.3946 24.3591 36.5986C24.3591 36.7906 24.3591 36.9826 24.3711 37.1626L24.2271 37.1866C24.1911 36.8866 24.1791 36.6946 23.8431 36.6946H23.2431V37.8586C23.2431 38.1826 23.5311 38.1826 23.8431 38.1826C24.4431 38.1826 24.7071 38.1466 24.8511 37.5706L24.9951 37.6066C24.9351 37.8706 24.8751 38.1346 24.8271 38.3986C24.5031 38.3986 23.9391 38.3746 23.4831 38.3746C23.0391 38.3746 22.4391 38.3986 22.1631 38.3986V38.2426H22.1751Z" fill="white"/>
<path d="M24.8152 38.3784C24.8632 38.1264 24.9112 37.8744 24.9712 37.6224L24.8752 37.5984C24.7312 38.1504 24.4432 38.1984 23.8552 38.1984C23.5432 38.1984 23.2312 38.1984 23.2312 37.8504V36.6744H23.8552C24.2032 36.6744 24.2392 36.8784 24.2632 37.1664L24.3712 37.1424C24.3592 36.9624 24.3592 36.7704 24.3592 36.5904C24.3592 36.3984 24.3592 36.2184 24.3712 36.0264H24.2512C24.2272 36.2904 24.1432 36.4704 23.8432 36.4704H23.2312V35.1264H23.9512C24.4672 35.1264 24.5512 35.3904 24.5752 35.7024L24.6832 35.6784C24.6712 35.5344 24.6712 35.3544 24.6712 35.1864V34.9464C24.3352 34.9464 23.8312 34.9704 23.4232 34.9704C23.0152 34.9704 22.5112 34.9464 22.2112 34.9464V35.0544H22.2592C22.4392 35.0544 22.6432 35.0904 22.6432 35.3544V37.9584C22.6432 38.2344 22.4272 38.2584 22.2592 38.2704H22.2112V38.3784C22.4992 38.3784 23.0752 38.3544 23.5072 38.3544C23.9392 38.3544 24.4912 38.3784 24.8152 38.3784ZM24.8272 38.4144C24.5032 38.4144 23.9392 38.3904 23.4832 38.3904C23.0392 38.3904 22.4392 38.4144 22.1632 38.4144H22.1392V38.2224H22.2352C22.4152 38.2224 22.5832 38.1984 22.5832 37.9584V35.3544C22.5832 35.1144 22.4152 35.0904 22.2352 35.0904H22.1392V34.8984H22.1632C22.4632 34.8984 22.9792 34.9224 23.3992 34.9224C23.8192 34.9224 24.3352 34.8984 24.6712 34.8984H24.6952V35.1744C24.6952 35.3424 24.6952 35.5344 24.7072 35.6784V35.7024H24.6952L24.5152 35.7504V35.7264C24.4912 35.4024 24.4432 35.1624 23.9272 35.1624H23.2552V36.4224H23.8312C24.1192 36.4224 24.1672 36.2784 24.2032 36.0024V35.9784H24.3952V36.0024C24.3832 36.1944 24.3832 36.3864 24.3832 36.5904C24.3832 36.7824 24.3952 36.9624 24.3952 37.1544V37.1664H24.3832L24.2152 37.2024V37.1784C24.1792 36.8784 24.1792 36.7104 23.8432 36.7104H23.2672V37.8504C23.2672 38.1504 23.5312 38.1504 23.8552 38.1504C24.4552 38.1504 24.6952 38.1144 24.8392 37.5624V37.5384H24.8632L25.0192 37.5744V37.5984C24.9592 37.8624 24.8992 38.1264 24.8512 38.3904V38.4024H24.8272V38.4144ZM26.3152 36.6024H26.5552C27.0592 36.6024 27.3232 36.4104 27.3232 35.8224C27.3232 35.3784 27.0352 35.1024 26.5912 35.1024C26.4472 35.1024 26.3752 35.1144 26.3032 35.1264V36.6024H26.3152ZM25.6672 35.4504C25.6672 35.0904 25.4632 35.0784 25.3192 35.0784H25.2352V34.9224C25.3912 34.9224 25.7032 34.9464 26.0032 34.9464C26.3032 34.9464 26.5432 34.9224 26.8072 34.9224C27.4312 34.9224 27.9952 35.0904 27.9952 35.7984C27.9952 36.2424 27.6952 36.5184 27.2992 36.6744L28.1512 37.9464C28.2952 38.1624 28.3912 38.2104 28.6312 38.2464V38.3904C28.4632 38.3904 28.3072 38.3664 28.1392 38.3664C27.9832 38.3664 27.8272 38.3904 27.6712 38.3904C27.2872 37.8864 26.9632 37.3464 26.6392 36.7824H26.3152V37.8504C26.3152 38.2344 26.4952 38.2464 26.7232 38.2464H26.8072V38.3904C26.5192 38.3904 26.2312 38.3664 25.9552 38.3664C25.7152 38.3664 25.4872 38.3904 25.2352 38.3904V38.2464H25.3192C25.4992 38.2464 25.6672 38.1624 25.6672 37.9824V35.4504Z" fill="white"/>
<path d="M26.5581 36.5748C27.0501 36.5748 27.3021 36.3948 27.3021 35.8188C27.3021 35.3868 27.0261 35.1108 26.5941 35.1108C26.4621 35.1108 26.4021 35.1228 26.3301 35.1348V36.5748H26.5581ZM26.3181 36.6228H26.2941V35.0988H26.3181C26.3901 35.0988 26.4501 35.0748 26.6061 35.0748C27.0621 35.0748 27.3501 35.3628 27.3501 35.8188C27.3501 36.4188 27.0621 36.6108 26.5581 36.6108H26.3181V36.6228ZM26.3181 36.7548H26.6541V36.7668C26.9781 37.3428 27.3021 37.8708 27.6741 38.3628C27.8301 38.3628 27.9861 38.3388 28.1421 38.3388C28.2981 38.3388 28.4541 38.3508 28.6101 38.3628V38.2548C28.3701 38.2308 28.2621 38.1588 28.1301 37.9548L27.2661 36.6588L27.2901 36.6468C27.6741 36.4908 27.9621 36.2268 27.9741 35.7948C27.9741 35.0988 27.4341 34.9428 26.8101 34.9428C26.5461 34.9428 26.3061 34.9668 26.0061 34.9668C25.7181 34.9668 25.4181 34.9428 25.2501 34.9428V35.0508H25.3221C25.4781 35.0508 25.6941 35.0748 25.6941 35.4468V37.9788C25.6941 38.1828 25.5021 38.2668 25.3221 38.2668H25.2501V38.3748C25.4901 38.3748 25.7181 38.3508 25.9461 38.3508C26.2221 38.3508 26.5101 38.3748 26.7861 38.3748V38.2668H26.7141C26.4861 38.2668 26.2821 38.2428 26.2821 37.8468V36.7668H26.3181V36.7548ZM28.6341 38.4108C28.4661 38.4108 28.3101 38.3868 28.1421 38.3868C27.9861 38.3868 27.8301 38.4108 27.6621 38.3988C27.2781 37.8948 26.9541 37.3668 26.6301 36.7908H26.3421V37.8348C26.3421 38.2068 26.4981 38.2068 26.7261 38.2068H26.8341V38.3988H26.8101C26.5221 38.3988 26.2341 38.3748 25.9581 38.3748C25.7181 38.3748 25.4901 38.3988 25.2381 38.3988H25.2141V38.2188H25.3221C25.5021 38.2188 25.6581 38.1348 25.6581 37.9668V35.4348C25.6581 35.0868 25.4781 35.0868 25.3221 35.0748H25.2141V34.8828H25.2381C25.3941 34.8828 25.7061 34.9068 26.0061 34.9068C26.3061 34.9068 26.5461 34.8828 26.8101 34.8828C27.4341 34.8828 28.0101 35.0508 28.0221 35.7828C28.0221 36.2268 27.7221 36.5148 27.3381 36.6708L28.1781 37.9188C28.3221 38.1228 28.4061 38.1828 28.6461 38.2068H28.6581V38.3988H28.6341V38.4108ZM32.0061 37.4148L32.0181 35.5428C32.0181 35.1348 31.7301 35.0748 31.5861 35.0748H31.4781V34.9308C31.7181 34.9308 31.9461 34.9548 32.1741 34.9548C32.3781 34.9548 32.5821 34.9308 32.7861 34.9308V35.0748H32.7141C32.5101 35.0748 32.2701 35.1108 32.2701 35.7108V37.9788C32.2701 38.1588 32.2701 38.3268 32.3061 38.4828H32.1141L29.5461 35.6268V37.6788C29.5461 38.1108 29.6301 38.2668 30.0141 38.2668H30.0981V38.4108C29.8821 38.4108 29.6661 38.3868 29.4621 38.3868C29.2341 38.3868 29.0061 38.4108 28.7901 38.4108V38.2668H28.8621C29.2101 38.2668 29.3061 38.0268 29.3061 37.6308V35.5308C29.3061 35.2548 29.0781 35.0868 28.8501 35.0868H28.7901V34.9428C28.9821 34.9428 29.1741 34.9668 29.3661 34.9668C29.5101 34.9668 29.6541 34.9428 29.8101 34.9428L32.0061 37.4148Z" fill="white"/>
<path d="M32.1151 38.4488H32.2831C32.2591 38.3048 32.2591 38.1368 32.2591 37.9688V35.7008C32.2591 35.1008 32.5111 35.0528 32.7271 35.0528H32.7751V34.9448C32.5831 34.9448 32.3791 34.9688 32.1871 34.9688C31.9591 34.9688 31.7311 34.9448 31.5151 34.9448V35.0528H31.5991C31.7551 35.0528 32.0551 35.1248 32.0551 35.5448L32.0431 37.4288L32.0311 37.4408L32.0191 37.4528L29.7991 34.9448C29.6551 34.9448 29.5111 34.9688 29.3551 34.9688C29.1751 34.9688 28.9831 34.9448 28.8031 34.9448V35.0528H28.8511C29.0791 35.0528 29.3191 35.2328 29.3191 35.5208V37.6208C29.3191 38.0168 29.2111 38.2688 28.8511 38.2808H28.8031V38.3888C29.0191 38.3888 29.2351 38.3648 29.4631 38.3648C29.6671 38.3648 29.8831 38.3888 30.0871 38.3888V38.2808H30.0151C29.6191 38.2808 29.5231 38.1128 29.5231 37.6808V35.5808L32.1151 38.4488ZM32.2951 38.4968L32.0911 38.4848L29.5711 35.6648V37.6568C29.5831 38.0888 29.6431 38.2088 30.0151 38.2208H30.1231V38.4128H30.0991C29.8831 38.4128 29.6671 38.3888 29.4631 38.3888C29.2351 38.3888 29.0071 38.4128 28.7911 38.4128H28.7671V38.2208H28.8631C29.1871 38.2208 29.2831 38.0048 29.2951 37.6088V35.5088C29.2951 35.2448 29.0791 35.0888 28.8631 35.0888H28.7791V34.8968H28.8031C28.9951 34.8968 29.1871 34.9208 29.3791 34.9208C29.5231 34.9208 29.6671 34.8968 29.8351 34.9088L32.0191 37.3688V35.5328C32.0191 35.1368 31.7551 35.0888 31.6111 35.0888H31.4551V34.8968H31.4791C31.7191 34.8968 31.9471 34.9208 32.1751 34.9208C32.3791 34.9208 32.5831 34.8968 32.7871 34.8968H32.8111V35.0888H32.7151C32.5111 35.0888 32.2951 35.1128 32.2951 35.7008V37.9688C32.2951 38.1488 32.2951 38.3168 32.3191 38.4728V38.4968H32.2951ZM34.3111 35.4848L33.8431 36.8888H34.7791L34.3111 35.4848ZM33.5911 37.6808C33.5431 37.8488 33.4831 37.9808 33.4831 38.0648C33.4831 38.2088 33.6871 38.2448 33.8551 38.2448H33.9151V38.3888C33.7111 38.3768 33.5071 38.3648 33.3151 38.3648C33.1351 38.3648 32.9551 38.3768 32.7751 38.3888V38.2448H32.8111C33.0031 38.2448 33.1711 38.1248 33.2431 37.9208L34.0351 35.6408C34.0951 35.4608 34.1911 35.2088 34.2151 35.0288C34.3711 34.9688 34.5751 34.8728 34.6711 34.8128C34.6831 34.8128 34.6951 34.8008 34.7071 34.8008C34.7191 34.8008 34.7311 34.8008 34.7431 34.8128C34.7551 34.8488 34.7671 34.8968 34.7911 34.9328L35.7031 37.5368C35.7631 37.7168 35.8231 37.8968 35.8831 38.0408C35.9431 38.1848 36.0511 38.2448 36.2191 38.2448H36.2431V38.3888C36.0151 38.3768 35.7991 38.3648 35.5591 38.3648C35.3191 38.3648 35.0671 38.3768 34.8151 38.3888V38.2448H34.8751C34.9831 38.2448 35.1871 38.2208 35.1871 38.1008C35.1871 38.0408 35.1391 37.8968 35.0911 37.7408L34.8991 37.1648H33.7711L33.5911 37.6808Z" fill="white"/>
<path d="M33.8655 36.8617H34.7415L34.3095 35.5297L33.8655 36.8617ZM33.8055 36.9097L34.2855 35.4577H34.3095H34.3215L34.7895 36.9097H33.8055ZM34.8255 38.3737C35.0775 38.3617 35.3176 38.3497 35.5576 38.3497C35.7856 38.3497 36.0016 38.3617 36.2176 38.3737V38.2657H36.2055C36.0375 38.2657 35.9176 38.1937 35.8576 38.0497C35.7976 37.8937 35.7376 37.7137 35.6776 37.5457L34.7655 34.9417C34.7535 34.9057 34.7416 34.8577 34.7176 34.8217H34.6935C34.6815 34.8217 34.6815 34.8217 34.6695 34.8337C34.5735 34.8937 34.3695 34.9897 34.2255 35.0377C34.1895 35.2297 34.1055 35.4697 34.0455 35.6617L33.2535 37.9417C33.1815 38.1577 33.0015 38.2777 32.7975 38.2777H32.7855V38.3857C32.9535 38.3737 33.1335 38.3617 33.3015 38.3617C33.4935 38.3617 33.6855 38.3737 33.8775 38.3857V38.2777H33.8535C33.6975 38.2777 33.4695 38.2537 33.4575 38.0857C33.4575 37.9897 33.5175 37.8577 33.5655 37.6897L33.7335 37.1617H34.8976L35.1015 37.7497C35.1615 37.9057 35.1976 38.0377 35.1976 38.1097C35.1856 38.2657 34.9815 38.2777 34.8615 38.2777H34.8255V38.3737ZM36.2415 38.4097C36.0135 38.3977 35.7976 38.3857 35.5576 38.3857C35.3176 38.3857 35.0655 38.3977 34.8135 38.4097H34.7895V38.2177H34.8735C34.9935 38.2177 35.1615 38.1937 35.1615 38.0977C35.1615 38.0377 35.1135 37.9057 35.0655 37.7497L34.8735 37.1857H33.7695L33.6135 37.6897C33.5655 37.8577 33.5055 37.9897 33.5055 38.0737C33.5055 38.1937 33.6975 38.2297 33.8535 38.2297H33.9255V38.4217H33.9015C33.6975 38.4097 33.4935 38.3977 33.3015 38.3977C33.1215 38.3977 32.9415 38.4097 32.7615 38.4217H32.7375V38.2177H32.7855C32.9775 38.2177 33.1215 38.1097 33.1935 37.9057L33.9855 35.6257C34.0455 35.4457 34.1415 35.1937 34.1895 34.9897C34.3455 34.9417 34.5495 34.8337 34.6455 34.7737C34.6575 34.7737 34.6695 34.7617 34.6935 34.7617C34.7055 34.7617 34.7295 34.7617 34.7535 34.7857C34.7655 34.8217 34.7895 34.8697 34.8015 34.9057L35.7135 37.5097C35.7735 37.6897 35.8335 37.8697 35.8935 38.0137C35.9535 38.1457 36.0375 38.1937 36.2055 38.1937H36.2535V38.3857L36.2415 38.4097ZM36.4576 35.1697C36.0856 35.1697 36.0735 35.2657 35.9895 35.6257H35.8335C35.8575 35.4817 35.8815 35.3497 35.8935 35.2057C35.9175 35.0617 35.9295 34.9297 35.9295 34.7857H36.0495C36.0855 34.9297 36.2175 34.9297 36.3495 34.9297H38.9176C39.0496 34.9297 39.1815 34.9297 39.1815 34.7737L39.3015 34.7977C39.2775 34.9297 39.2655 35.0617 39.2415 35.2057C39.2295 35.3377 39.2295 35.4697 39.2295 35.6137L39.0855 35.6737C39.0735 35.4937 39.0495 35.1937 38.7135 35.1937H37.8976V37.8457C37.8976 38.2297 38.0775 38.2777 38.3055 38.2777H38.4015V38.4217C38.2095 38.4217 37.8615 38.3977 37.5855 38.3977C37.2855 38.3977 36.9376 38.4217 36.7455 38.4217V38.2777H36.8415C37.1175 38.2777 37.2615 38.2537 37.2615 37.8577V35.2057H36.4576V35.1697Z" fill="white"/>
<path d="M38.4091 38.4103C38.2171 38.4103 37.8691 38.3863 37.5931 38.3863C37.2931 38.3863 36.9451 38.4103 36.7531 38.4103H36.7291V38.2183H36.8491C37.1251 38.2063 37.2331 38.2063 37.2451 37.8223V35.1823H36.4531V35.1343H37.2931V37.8103C37.2931 38.2063 37.1371 38.2423 36.8611 38.2543H36.7891V38.3623C36.9811 38.3623 37.3171 38.3383 37.6051 38.3383C37.8691 38.3383 38.1931 38.3623 38.3971 38.3623V38.2543H38.3251C38.0851 38.2543 37.8931 38.1943 37.8931 37.8103V35.1463H38.7331C39.0691 35.1463 39.1171 35.4343 39.1171 35.6143L39.2251 35.5783C39.2251 35.4463 39.2251 35.3143 39.2371 35.1823C39.2491 35.0503 39.2731 34.9303 39.2851 34.7983L39.2131 34.7863C39.1891 34.9303 39.0451 34.9423 38.9251 34.9423H36.3331C36.2131 34.9423 36.0931 34.9423 36.0451 34.7983H35.9611C35.9611 34.9303 35.9491 35.0743 35.9251 35.2063C35.9131 35.3383 35.8891 35.4703 35.8651 35.6023H35.9731C36.0331 35.2543 36.0811 35.1463 36.4531 35.1463V35.1943C36.0811 35.2063 36.0931 35.2663 36.0091 35.6263V35.6383H35.8171V35.6143C35.8411 35.4703 35.8651 35.3383 35.8771 35.1943C35.9011 35.0503 35.9131 34.9183 35.9131 34.7743V34.7503H36.0691V34.7623C36.1051 34.8943 36.1891 34.8943 36.3211 34.8943H38.9131C39.0451 34.8943 39.1531 34.8943 39.1651 34.7623V34.7383H39.1891L39.3331 34.7623V34.7863C39.3091 34.9183 39.2971 35.0503 39.2731 35.1823C39.2611 35.3143 39.2611 35.4463 39.2611 35.5783V35.5903L39.2491 35.6023L39.0691 35.6623V35.6383C39.0571 35.4463 39.0331 35.1823 38.7211 35.1823H37.9291V37.8103C37.9291 38.1823 38.0851 38.2183 38.3251 38.2183H38.4451V38.4103H38.4091ZM39.4891 38.2423H39.5611C39.7411 38.2423 39.9331 38.2183 39.9331 37.9543V35.3503C39.9331 35.0863 39.7411 35.0623 39.5611 35.0623H39.4891V34.9183C39.6811 34.9183 39.9811 34.9423 40.2211 34.9423C40.4731 34.9423 40.7731 34.9183 41.0011 34.9183V35.0623H40.9291C40.7491 35.0623 40.5571 35.0863 40.5571 35.3503V37.9543C40.5571 38.2183 40.7491 38.2423 40.9291 38.2423H41.0011V38.3863C40.7611 38.3863 40.4611 38.3623 40.2091 38.3623C39.9691 38.3623 39.6691 38.3863 39.4771 38.3863V38.2423H39.4891Z" fill="white"/>
<path d="M40.9928 38.3757V38.2677H40.9448C40.7648 38.2677 40.5487 38.2317 40.5487 37.9677V35.3637C40.5487 35.0877 40.7648 35.0637 40.9448 35.0637H40.9928V34.9557C40.7648 34.9557 40.4768 34.9797 40.2368 34.9797C39.9968 34.9797 39.7208 34.9557 39.5168 34.9557V35.0637H39.5648C39.7448 35.0637 39.9488 35.0997 39.9608 35.3637V37.9677C39.9608 38.2437 39.7448 38.2677 39.5648 38.2677H39.5168V38.3757C39.7088 38.3757 39.9848 38.3517 40.2248 38.3517C40.4648 38.3517 40.7528 38.3757 40.9928 38.3757ZM41.0048 38.4117C40.7648 38.4117 40.4648 38.3877 40.2248 38.3877C39.9848 38.3877 39.6848 38.4117 39.4928 38.4117H39.4688V38.2197H39.5648C39.7448 38.2197 39.9128 38.1957 39.9128 37.9557V35.3517C39.9128 35.1117 39.7448 35.0877 39.5648 35.0877H39.4688V34.8957H39.4928C39.6848 34.8957 39.9848 34.9197 40.2248 34.9197C40.4768 34.9197 40.7768 34.8957 41.0048 34.8957H41.0287V35.0877H40.9328C40.7528 35.0877 40.5848 35.1117 40.5848 35.3517V37.9557C40.5848 38.1957 40.7528 38.2197 40.9328 38.2197H41.0287V38.4117H41.0048ZM43.0687 38.2557C44.0287 38.2557 44.1968 37.4037 44.1968 36.6837C44.1968 35.9517 43.8008 35.0757 42.9728 35.0757C42.0968 35.0757 41.8448 35.8557 41.8448 36.5157C41.8568 37.4037 42.2647 38.2557 43.0687 38.2557ZM42.9968 34.8477C44.0648 34.8477 44.9048 35.5077 44.9048 36.5637C44.9048 37.7037 44.0888 38.4717 43.0208 38.4717C41.9648 38.4717 41.1608 37.7517 41.1608 36.6837C41.1608 35.6517 41.9528 34.8477 42.9968 34.8477Z" fill="white"/>
<path d="M41.8334 36.5042C41.8334 35.8322 42.0975 35.0402 42.9855 35.0402C43.8255 35.0402 44.2214 35.9402 44.2214 36.6722C44.2214 37.3922 44.0534 38.2682 43.0694 38.2682V38.2202C44.0174 38.2202 44.1855 37.3922 44.1855 36.6602C44.1855 35.9402 43.8015 35.0762 42.9855 35.0762C42.1335 35.0762 41.8814 35.8322 41.8814 36.4922C41.8814 37.3802 42.2894 38.2082 43.0694 38.2082V38.2562C42.2414 38.2682 41.8334 37.4042 41.8334 36.5042ZM41.1375 36.6842C41.1375 35.6402 41.9535 34.8242 42.9975 34.8242V34.8722C41.9775 34.8722 41.1855 35.6642 41.1855 36.6842C41.1855 37.7402 41.9774 38.4482 43.0214 38.4482C44.0654 38.4482 44.8814 37.6922 44.8814 36.5642C44.8814 35.5202 44.0535 34.8722 42.9975 34.8722V34.8242C44.0655 34.8242 44.9294 35.4842 44.9294 36.5642C44.9294 37.7162 44.1014 38.4842 43.0334 38.4962C41.9534 38.4842 41.1375 37.7642 41.1375 36.6842ZM48.2534 37.4162L48.2655 35.5442C48.2655 35.1362 47.9774 35.0762 47.8334 35.0762H47.7255V34.9322C47.9535 34.9322 48.1934 34.9562 48.4214 34.9562C48.6254 34.9562 48.8295 34.9322 49.0335 34.9322V35.0762H48.9614C48.7574 35.0762 48.5175 35.1122 48.5175 35.7122V37.9802C48.5175 38.1602 48.5174 38.3282 48.5535 38.4842H48.3614L45.7934 35.6282V37.6802C45.7934 38.1122 45.8774 38.2682 46.2614 38.2682H46.3455V38.4122C46.1295 38.4122 45.9134 38.3882 45.7094 38.3882C45.4814 38.3882 45.2535 38.4122 45.0255 38.4122V38.2682H45.0975C45.4455 38.2682 45.5414 38.0282 45.5414 37.6322V35.5322C45.5414 35.2562 45.3135 35.0882 45.0855 35.0882H45.0255V34.9442C45.2175 34.9442 45.4094 34.9682 45.6014 34.9682C45.7454 34.9682 45.8895 34.9442 46.0455 34.9442L48.2534 37.4162Z" fill="white"/>
<path d="M48.348 38.4488H48.516C48.492 38.3048 48.492 38.1368 48.492 37.9688V35.7008C48.492 35.1008 48.744 35.0528 48.96 35.0528H49.008V34.9448C48.816 34.9448 48.612 34.9688 48.42 34.9688C48.192 34.9688 47.976 34.9448 47.748 34.9448V35.0528H47.832C47.988 35.0528 48.288 35.1248 48.288 35.5448V37.4288L48.276 37.4408L48.264 37.4528L46.044 34.9448C45.9 34.9448 45.756 34.9688 45.6 34.9688C45.42 34.9688 45.228 34.9448 45.048 34.9448V35.0528H45.096C45.336 35.0528 45.576 35.2328 45.576 35.5208V37.6208C45.576 38.0168 45.468 38.2688 45.108 38.2808H45.06V38.3888C45.276 38.3888 45.492 38.3648 45.72 38.3648C45.924 38.3648 46.128 38.3888 46.344 38.3888V38.2808H46.284C45.888 38.2808 45.792 38.1128 45.792 37.6808V35.5808L48.348 38.4488ZM48.54 38.4968L48.336 38.4848L45.816 35.6648V37.6568C45.828 38.0888 45.888 38.2088 46.26 38.2208H46.368V38.4128H46.344C46.128 38.4128 45.912 38.3888 45.708 38.3888C45.48 38.3888 45.252 38.4128 45.024 38.4128H45V38.2208H45.096C45.42 38.2208 45.516 38.0048 45.516 37.6088V35.5088C45.516 35.2448 45.3 35.0888 45.084 35.0888H45V34.8968H45.024C45.216 34.8968 45.408 34.9208 45.6 34.9208C45.744 34.9208 45.888 34.8968 46.056 34.9088L48.24 37.3688V35.5328C48.24 35.1368 47.976 35.0888 47.832 35.0888H47.7V34.8968H47.724C47.964 34.8968 48.192 34.9208 48.42 34.9208C48.624 34.9208 48.828 34.8968 49.032 34.8968H49.056V35.0888H48.96C48.756 35.0888 48.54 35.1128 48.54 35.7008V37.9688C48.54 38.1488 48.54 38.3168 48.564 38.4728V38.4968H48.54ZM50.556 35.4848L50.088 36.8888H51.024L50.556 35.4848ZM49.824 37.6808C49.776 37.8488 49.716 37.9808 49.716 38.0648C49.716 38.2088 49.92 38.2448 50.088 38.2448H50.148V38.3888C49.944 38.3768 49.74 38.3648 49.548 38.3648C49.368 38.3648 49.188 38.3768 49.008 38.3888V38.2448H49.032C49.224 38.2448 49.392 38.1248 49.464 37.9208L50.256 35.6408C50.316 35.4608 50.412 35.2088 50.436 35.0288C50.592 34.9688 50.796 34.8728 50.892 34.8128C50.904 34.8128 50.916 34.8008 50.928 34.8008C50.94 34.8008 50.952 34.8008 50.964 34.8128C50.976 34.8488 51 34.8968 51.012 34.9328L51.924 37.5368C51.984 37.7168 52.044 37.8968 52.104 38.0408C52.164 38.1848 52.272 38.2448 52.428 38.2448H52.452V38.3888C52.224 38.3768 52.008 38.3648 51.768 38.3648C51.528 38.3648 51.276 38.3768 51.024 38.3888V38.2448H51.084C51.192 38.2448 51.396 38.2208 51.396 38.1008C51.396 38.0408 51.348 37.8968 51.3 37.7408L51.108 37.1648H49.98L49.824 37.6808Z" fill="white"/>
<path d="M50.1151 36.8617H50.9791L50.5471 35.5297L50.1151 36.8617ZM50.0551 36.9097L50.5351 35.4577H50.5591H50.5711L51.0391 36.9097H50.0551ZM51.0751 38.3737C51.3151 38.3617 51.5671 38.3497 51.7951 38.3497C52.0231 38.3497 52.2391 38.3617 52.4551 38.3737V38.2657C52.2871 38.2657 52.1671 38.1937 52.1071 38.0497C52.0471 37.8937 51.9871 37.7137 51.9271 37.5457L51.0151 34.9417C51.0031 34.9057 50.9791 34.8577 50.9671 34.8217H50.9431C50.9311 34.8217 50.9311 34.8217 50.9191 34.8337C50.8231 34.8937 50.6191 34.9897 50.4751 35.0377C50.4391 35.2297 50.3551 35.4697 50.2951 35.6617L49.5031 37.9417C49.4311 38.1577 49.2511 38.2777 49.0471 38.2777H49.0351V38.3857C49.2031 38.3737 49.3831 38.3617 49.5511 38.3617C49.7431 38.3617 49.9351 38.3737 50.1271 38.3857V38.2777H50.0911C49.9351 38.2777 49.7071 38.2537 49.6951 38.0857C49.6951 37.9897 49.7551 37.8577 49.8031 37.6897L49.9711 37.1617H51.1351L51.3391 37.7497C51.3991 37.9057 51.4351 38.0377 51.4351 38.1097C51.4231 38.2657 51.2191 38.2777 51.1111 38.2777H51.0751V38.3737ZM52.4791 38.4097C52.2511 38.3977 52.0351 38.3857 51.7951 38.3857C51.5551 38.3857 51.3031 38.3977 51.0511 38.4097H51.0271V38.2177H51.1111C51.2311 38.2177 51.3991 38.1937 51.3991 38.0977C51.3991 38.0377 51.3511 37.9057 51.3031 37.7497L51.1111 37.1857H50.0071L49.8511 37.6897C49.8031 37.8577 49.7431 37.9897 49.7431 38.0737C49.7431 38.1937 49.9351 38.2297 50.0911 38.2297H50.1631V38.4217H50.1391C49.9351 38.4097 49.7311 38.3977 49.5391 38.3977C49.3591 38.3977 49.1791 38.4097 48.9991 38.4217H48.9751V38.2177H49.0231C49.2031 38.2177 49.3591 38.1097 49.4311 37.9057L50.2231 35.6257C50.2831 35.4457 50.3791 35.1937 50.4151 34.9897C50.5711 34.9297 50.7751 34.8337 50.8711 34.7737C50.8831 34.7737 50.8951 34.7617 50.9191 34.7617C50.9311 34.7617 50.9551 34.7617 50.9791 34.7857C50.9911 34.8217 51.0031 34.8697 51.0271 34.9057L51.9391 37.5097C51.9991 37.6897 52.0591 37.8697 52.1191 38.0137C52.1791 38.1457 52.2631 38.1937 52.4311 38.2057H52.4791V38.4097ZM53.7391 37.9057C53.7391 38.1097 53.8711 38.1697 54.0391 38.1817C54.2431 38.1937 54.4711 38.1937 54.6991 38.1697C54.9031 38.1457 55.0831 38.0257 55.1791 37.9057C55.2631 37.7977 55.2991 37.6537 55.3351 37.5457H55.4791C55.4191 37.8337 55.3591 38.1097 55.2991 38.3977C54.8671 38.3977 54.4231 38.3737 53.9911 38.3737C53.5471 38.3737 53.1151 38.3977 52.6831 38.3977V38.2537H52.7551C52.9351 38.2537 53.1271 38.2297 53.1271 37.9177V35.3617C53.1271 35.0977 52.9351 35.0737 52.7551 35.0737H52.6831V34.9297C52.9471 34.9297 53.2111 34.9537 53.4631 34.9537C53.7151 34.9537 53.9671 34.9297 54.2191 34.9297V35.0737H54.0991C53.9071 35.0737 53.7631 35.0737 53.7631 35.3377V37.9057H53.7391Z" fill="white"/>
<path d="M55.2593 38.3773C55.3193 38.1133 55.3793 37.8493 55.4393 37.5733H55.3433C55.3073 37.6813 55.2713 37.8133 55.1873 37.9213C55.0913 38.0533 54.9113 38.1733 54.6953 38.1973C54.5633 38.2093 54.4313 38.2213 54.3113 38.2213C54.2153 38.2213 54.1193 38.2213 54.0353 38.2093C53.8673 38.1973 53.7113 38.1253 53.7113 37.9093V35.3413C53.7113 35.0653 53.8913 35.0533 54.0713 35.0533H54.1673V34.9453C53.9273 34.9453 53.6873 34.9693 53.4353 34.9693C53.1833 34.9693 52.9193 34.9453 52.6673 34.9453V35.0533H52.7153C52.8953 35.0533 53.1113 35.0893 53.1113 35.3533V37.9093C53.1113 38.2333 52.8953 38.2693 52.7153 38.2693H52.6673V38.3773C53.0993 38.3773 53.5313 38.3533 53.9633 38.3533C54.3953 38.3533 54.8273 38.3773 55.2593 38.3773ZM55.2833 38.4133C54.8393 38.4133 54.4073 38.3893 53.9753 38.3893C53.5433 38.3893 53.0993 38.4133 52.6553 38.4133H52.6313V38.2213H52.7273C52.9073 38.2213 53.0753 38.2093 53.0753 37.9093V35.3533C53.0753 35.1133 52.9073 35.0893 52.7273 35.0893H52.6313V34.8973H52.6553C52.9193 34.8973 53.1833 34.9213 53.4473 34.9213C53.6993 34.9213 53.9513 34.8973 54.2033 34.8973H54.2273V35.0893H54.0833C53.8913 35.0893 53.7713 35.0893 53.7713 35.3413V37.9093C53.7713 38.0893 53.8913 38.1493 54.0473 38.1733C54.1313 38.1853 54.2273 38.1853 54.3233 38.1853C54.4433 38.1853 54.5753 38.1733 54.6953 38.1613C54.8993 38.1373 55.0673 38.0173 55.1633 37.8973C55.2353 37.7893 55.2833 37.6573 55.3073 37.5493V37.5373H55.4873V37.5613C55.4273 37.8493 55.3673 38.1253 55.3073 38.4013V38.4133H55.2833ZM55.3193 35.3053H55.3793C55.4513 35.3053 55.4753 35.2573 55.4753 35.1733C55.4753 35.0893 55.4273 35.0653 55.3673 35.0653H55.3073V35.3053H55.3193ZM55.1393 35.5813V35.5573C55.1993 35.5453 55.2113 35.5453 55.2113 35.5093V35.1253C55.2113 35.0653 55.2113 35.0533 55.1393 35.0533V35.0293H55.4033C55.4993 35.0293 55.5833 35.0773 55.5833 35.1733C55.5833 35.2573 55.5353 35.3053 55.4633 35.3293L55.5473 35.4493C55.5833 35.4973 55.6313 35.5573 55.6673 35.5693V35.5813H55.5713C55.5233 35.5813 55.4753 35.4733 55.3793 35.3413H55.3193V35.5093C55.3193 35.5453 55.3313 35.5453 55.3913 35.5573V35.5813H55.1393ZM55.4033 35.7253C55.6433 35.7253 55.8233 35.5213 55.8233 35.3053C55.8233 35.0773 55.6433 34.8733 55.4033 34.8733C55.1633 34.8733 54.9833 35.0773 54.9833 35.3053C54.9833 35.5333 55.1633 35.7253 55.4033 35.7253ZM55.4033 34.7773C55.7033 34.7773 55.9313 35.0053 55.9313 35.3053C55.9313 35.6053 55.7033 35.8333 55.4033 35.8333C55.1033 35.8333 54.8753 35.6053 54.8753 35.3053C54.8753 35.0173 55.1033 34.7773 55.4033 34.7773Z" fill="white"/>
</svg>
