<svg width="68" height="48" viewBox="0 0 68 48" fill="none" xmlns="http://www.w3.org/2000/svg">
<rect x="0.800049" width="67.2" height="48" rx="4.8" fill="#231F20"/>
<g clip-path="url(#clip0_4081_26043)">
<mask id="mask0_4081_26043" style="mask-type:luminance" maskUnits="userSpaceOnUse" x="-4" y="-15" width="77" height="78">
<path d="M72.8002 -14.3984H-3.99976V62.4016H72.8002V-14.3984Z" fill="white"/>
</mask>
<g mask="url(#mask0_4081_26043)">
<path d="M8.19669 19.4774H5.60229V28.5422H8.1847C9.5575 28.5422 10.5487 28.2182 11.4199 27.4958C12.4543 26.639 13.0663 25.3502 13.0663 24.0158C13.0663 21.3398 11.0671 19.4774 8.2015 19.4774H8.19669ZM10.2607 26.2862C9.70629 26.7878 8.9839 27.0062 7.8415 27.0062H7.3663V21.0134H7.8415C8.9839 21.0134 9.67749 21.2174 10.2607 21.7454C10.8727 22.2902 11.2399 23.1326 11.2399 24.0014C11.2399 24.8702 10.8727 25.7414 10.2607 26.2862ZM13.8775 19.4774H15.6463V28.5422H13.8775V19.4774ZM19.9687 22.955C18.9079 22.5614 18.5959 22.3046 18.5959 21.815C18.5959 21.2438 19.1503 20.8094 19.9135 20.8094C20.4439 20.8094 20.8783 21.0278 21.3391 21.5438L22.2655 20.3318C21.5329 19.6779 20.5835 19.3195 19.6015 19.3262C17.9983 19.3262 16.7743 20.4398 16.7743 21.923C16.7743 23.171 17.3431 23.8118 19.0039 24.4094C19.6951 24.6542 20.0479 24.8174 20.2255 24.9254C20.3883 25.0217 20.5231 25.159 20.6161 25.3237C20.7092 25.4884 20.7574 25.6747 20.7559 25.8638C20.7559 26.5982 20.1727 27.143 19.3831 27.143C18.5407 27.143 17.8615 26.723 17.4535 25.9334L16.3111 27.0326C17.1247 28.2278 18.1039 28.7582 19.4503 28.7582C21.2887 28.7582 22.5775 27.5366 22.5775 25.7822C22.5775 24.3422 21.9823 23.6894 19.9687 22.955ZM23.1343 24.0158C23.1343 26.6798 25.2271 28.7462 27.9199 28.7462C28.6807 28.7462 29.3335 28.5974 30.1375 28.2182V26.1374C29.4295 26.8454 28.8055 27.131 28.0039 27.131C26.2231 27.131 24.9583 25.8398 24.9583 24.0038C24.9583 22.2638 26.2615 20.891 27.9199 20.891C28.7623 20.891 29.4007 21.191 30.1375 21.911V19.8302C29.4704 19.4664 28.723 19.275 27.9631 19.2734C25.2847 19.2734 23.1367 21.3806 23.1343 24.0158ZM44.1535 25.5662L41.7367 19.4774H39.8047L43.6519 28.775H44.6023L48.5191 19.4774H46.6015L44.1535 25.5662ZM49.3183 28.5422H54.3319V27.0062H51.0847V24.5606H54.2119V23.0246H51.0847V21.0134H54.3319V19.4774H49.3183V28.5422ZM61.3327 22.1534C61.3327 20.4566 60.1639 19.4774 58.1239 19.4774H55.5031V28.5422H57.2695V24.9014H57.4999L59.9479 28.5422H62.1223L59.2687 24.7238C60.6007 24.4526 61.3327 23.543 61.3327 22.1534ZM57.7855 23.651H57.2671V20.9054H57.8119C58.9135 20.9054 59.5111 21.3662 59.5111 22.2494C59.5111 23.1614 58.9135 23.651 57.7855 23.651Z" fill="white"/>
<path d="M40.3118 23.9994C40.3118 24.1562 40.3038 24.313 40.2878 24.4698C40.2718 24.6266 40.2494 24.7818 40.2206 24.9354C40.1918 25.089 40.1534 25.241 40.1054 25.3914C40.0574 25.5418 40.0046 25.6898 39.947 25.8354C39.8894 25.981 39.8222 26.1234 39.7454 26.2626C39.6686 26.4018 39.5878 26.5362 39.503 26.6658C39.4182 26.7954 39.3246 26.9218 39.2222 27.045C39.1198 27.1682 39.0142 27.2842 38.9054 27.393C38.7966 27.5018 38.6806 27.6074 38.5574 27.7098C38.4342 27.8122 38.3078 27.9058 38.1782 27.9906C38.0486 28.0754 37.9142 28.1554 37.775 28.2306C37.6358 28.3058 37.4934 28.3738 37.3478 28.4346C37.2022 28.4954 37.055 28.5482 36.9062 28.593C36.7574 28.6378 36.6054 28.6762 36.4502 28.7082C36.295 28.7402 36.139 28.7626 35.9822 28.7754C35.8254 28.7882 35.6686 28.7962 35.5118 28.7994C35.355 28.8026 35.1982 28.7946 35.0414 28.7754C34.8846 28.7562 34.7294 28.7338 34.5758 28.7082C34.4222 28.6826 34.2702 28.6442 34.1198 28.593C33.9694 28.5418 33.8214 28.489 33.6758 28.4346C33.5302 28.3802 33.3878 28.313 33.2486 28.233C33.1094 28.153 32.975 28.0722 32.8454 27.9906C32.7158 27.909 32.5894 27.8154 32.4662 27.7098C32.343 27.6042 32.227 27.4986 32.1182 27.393C32.0094 27.2874 31.9038 27.1714 31.8014 27.045C31.699 26.9186 31.6054 26.7922 31.5206 26.6658C31.4358 26.5394 31.3558 26.405 31.2806 26.2626C31.2054 26.1202 31.1374 25.9778 31.0766 25.8354C31.0174 25.6914 30.9646 25.5442 30.9182 25.3938C30.8734 25.2434 30.835 25.0914 30.803 24.9378C30.7726 24.7826 30.7502 24.6266 30.7358 24.4698C30.7214 24.313 30.7126 24.1562 30.7094 23.9994C30.7062 23.8426 30.7142 23.6858 30.7334 23.529C30.7526 23.3722 30.775 23.217 30.8006 23.0634C30.8262 22.9098 30.8646 22.7578 30.9158 22.6074C30.9622 22.4554 31.015 22.3074 31.0742 22.1634C31.135 22.0178 31.2022 21.8754 31.2758 21.7362C31.3494 21.5986 31.4302 21.4642 31.5182 21.333C31.6062 21.2018 31.6998 21.0754 31.799 20.9538C31.8982 20.8322 32.0038 20.7162 32.1158 20.6058C32.2278 20.4954 32.3438 20.3898 32.4638 20.289C32.5838 20.1882 32.7102 20.0946 32.843 20.0082C32.9758 19.9218 33.1102 19.8418 33.2462 19.7682C33.3854 19.693 33.5278 19.625 33.6734 19.5642C33.8174 19.505 33.9646 19.4522 34.115 19.4058C34.2654 19.361 34.4174 19.3226 34.571 19.2906C34.7262 19.2602 34.8822 19.2378 35.039 19.2234C35.1958 19.209 35.3526 19.201 35.5094 19.1994C35.6662 19.1978 35.823 19.2058 35.9798 19.2234C36.1366 19.241 36.2918 19.2634 36.4454 19.2906C36.599 19.3178 36.751 19.3562 36.9014 19.4058C37.0534 19.4522 37.2014 19.505 37.3454 19.5642C37.491 19.625 37.6334 19.6922 37.7726 19.7658C37.9102 19.8394 38.0446 19.9202 38.1758 20.0082C38.307 20.0962 38.4334 20.1898 38.555 20.289C38.6766 20.3882 38.7926 20.4938 38.903 20.6058C39.0134 20.7178 39.119 20.8338 39.2198 20.9538C39.3206 21.0738 39.4142 21.2002 39.5006 21.333C39.587 21.4658 39.667 21.6002 39.7406 21.7362C39.8158 21.8754 39.8838 22.0178 39.9446 22.1634C40.0038 22.3074 40.0566 22.4546 40.103 22.605C40.1478 22.7554 40.1862 22.9074 40.2182 23.061C40.2486 23.2162 40.271 23.3722 40.2854 23.529C40.2998 23.6858 40.3078 23.8426 40.3094 23.9994" fill="#F47922"/>
</g>
</g>
<defs>
<clipPath id="clip0_4081_26043">
<rect width="57.6" height="38.4" fill="white" transform="translate(5.6001 4.80078)"/>
</clipPath>
</defs>
</svg>
