<svg width="68" height="48" viewBox="0 0 68 48" fill="none" xmlns="http://www.w3.org/2000/svg">
<rect width="67.2" height="48" rx="4.8" fill="#E4E4E7"/>
<g clip-path="url(#clip0_4081_26070)">
<path d="M20.1007 10.5625C17.2207 10.5625 15.0007 12.4225 15.0007 15.6625V24.9025C15.2407 26.0425 16.4407 26.8825 17.7607 26.8825C19.2607 26.8825 20.3407 25.8025 20.3407 24.4825V19.8025H24.4207V24.4225C24.4207 27.0025 21.1207 28.3225 18.7207 28.3225C17.3407 28.3225 16.0207 27.9025 15.0607 27.1825V37.3825H21.5407C23.8207 37.3825 26.4607 35.2225 26.4607 32.4625V10.5625H20.1007Z" fill="#1174CE"/>
<path d="M15.0007 15.6625V24.9025C15.2407 26.0425 16.4407 26.8825 17.7607 26.8825C19.2607 26.8825 20.3407 25.8025 20.3407 24.4825V19.8025H24.4207V24.4225C24.4207 27.0025 21.1207 28.3225 18.7207 28.3225C17.3407 28.3225 16.0207 27.9025 15.0607 27.1825V37.3825H21.5407C23.8207 37.3825 26.4607 35.2225 26.4607 32.4625V10.5625" fill="#0F549D"/>
<path d="M24.3607 19.8008V24.4208C24.3607 27.0008 21.0607 28.3208 18.6607 28.3208C17.2807 28.3208 15.9607 27.9008 15.0007 27.1808V37.3808H21.4807C23.7607 37.3808 26.4007 35.2208 26.4007 32.4608" fill="#02375E"/>
<path d="M42.7788 26.76H45.5988C46.3188 26.76 46.9788 26.1 46.9788 25.38C46.9788 24.66 46.3188 24 45.5988 24H42.7788V26.76Z" fill="#146643"/>
<path d="M45.9608 10.5625C43.0208 10.5625 40.8608 12.4225 40.8608 15.6025V19.8025H48.4208C49.5008 19.8025 50.4008 20.7025 50.4008 21.7825C50.4008 22.8625 49.5008 23.7625 48.4208 23.7625C49.6208 23.7625 50.5808 24.6025 50.5808 25.6825C50.5808 26.7625 49.6808 27.6025 48.4208 27.6025H40.8008V37.3825H47.2808C49.5608 37.3825 52.2008 35.2225 52.2008 32.4625V10.5625H45.9608Z" fill="#1BCC38"/>
<path d="M40.8008 15.6625V19.8025H48.3608C49.4408 19.8025 50.3408 20.7025 50.3408 21.7825C50.3408 22.8625 49.4408 23.7625 48.3608 23.7625C49.5608 23.7625 50.5208 24.6025 50.5208 25.6825C50.5208 26.7625 49.6208 27.6025 48.3608 27.6025H40.8008V37.3825H47.2808C49.5608 37.3825 52.2008 35.2225 52.2008 32.4625V10.5625" fill="#329947"/>
<path d="M50.3408 21.7806C50.3408 22.8606 49.4408 23.7606 48.3608 23.7606C49.5608 23.7606 50.5208 24.6006 50.5208 25.6806C50.5208 26.7606 49.6208 27.6006 48.3608 27.6006H40.8008V37.3806H47.2808C49.5608 37.3806 52.2008 35.2206 52.2008 32.4606M46.9208 22.0206C46.9208 21.3006 46.2608 20.6406 45.5408 20.6406H42.7808V23.3406H45.6008C46.3208 23.3406 46.9208 22.7406 46.9208 22.0206Z" fill="#146643"/>
<path d="M32.9398 10.5625C29.9998 10.5625 27.8398 12.4225 27.8398 15.6025V20.7625C28.5598 20.1625 29.4598 19.7425 30.4198 19.7425H37.2598V21.1825C35.6398 20.8225 34.0798 20.6425 33.2998 20.6425C31.6198 20.6425 30.2398 22.0225 30.2398 23.7025C30.2398 25.3825 31.6198 26.7625 33.2998 26.7625C34.0798 26.7625 35.6398 26.6425 37.2598 26.2825V27.6025H30.4198C29.4598 27.6025 28.4998 27.2425 27.8398 26.5825V37.3825H34.3198C36.5998 37.3825 39.2398 35.2225 39.2398 32.4625V10.5625H32.9398Z" fill="#E20E37"/>
<path d="M27.8398 15.6625V20.8225C28.5598 20.2225 29.4598 19.8025 30.4198 19.8025H37.2598V21.2425C35.6398 20.8825 34.0798 20.7025 33.2998 20.7025C31.6198 20.7025 30.2398 22.0825 30.2398 23.7625C30.2398 25.4425 31.6198 26.8225 33.2998 26.8225C34.0798 26.8225 35.6398 26.7025 37.2598 26.3425V27.6025H30.4198C29.4598 27.6025 28.4998 27.2425 27.8398 26.5825V37.3825H34.3198C36.5998 37.3825 39.2398 35.2225 39.2398 32.4625V10.5625" fill="#B41F36"/>
<path d="M37.2598 19.8008V21.2408C35.6398 20.8808 34.0798 20.7008 33.2998 20.7008C31.6198 20.7008 30.2398 22.0808 30.2398 23.7608C30.2398 25.4408 31.6198 26.8208 33.2998 26.8208C34.0798 26.8208 35.6398 26.7008 37.2598 26.3408V27.6008H30.4198C29.4598 27.6008 28.4998 27.2408 27.8398 26.5808V37.3808H34.3198C36.5998 37.3808 39.2398 35.2208 39.2398 32.4608" fill="#720A1E"/>
</g>
<defs>
<clipPath id="clip0_4081_26070">
<rect width="38.4" height="38.4" fill="white" transform="translate(14.3999 4.80078)"/>
</clipPath>
</defs>
</svg>
