<svg width="69" height="48" viewBox="0 0 69 48" fill="none" xmlns="http://www.w3.org/2000/svg">
<rect x="0.986328" width="67.2" height="48" rx="4.8" fill="black"/>
<g clip-path="url(#clip0_4081_25153)">
<path d="M39.7773 33.3288H29.3933V14.668H39.7773V33.3288Z" fill="#FF5F00"/>
<path d="M30.0542 23.999C30.0526 22.202 30.4599 20.4281 31.2452 18.8117C32.0305 17.1954 33.1733 15.7788 34.587 14.6694C32.8363 13.2936 30.734 12.4381 28.5201 12.2005C26.3063 11.963 24.0702 12.3531 22.0676 13.3262C20.0649 14.2993 18.3765 15.8162 17.1951 17.7035C16.0137 19.5909 15.3872 21.7724 15.387 23.999C15.3874 26.2253 16.014 28.4065 17.1953 30.2936C18.3766 32.1806 20.0649 33.6973 22.0672 34.6703C24.0696 35.6434 26.3053 36.0336 28.5189 35.7963C30.7325 35.5591 32.8347 34.7039 34.5854 33.3286C33.1721 32.2188 32.0298 30.8022 31.2448 29.1859C30.4598 27.5696 30.0526 25.7959 30.0542 23.999Z" fill="#EB001B"/>
<path d="M53.7869 23.999C53.7867 26.2256 53.1601 28.4071 51.9788 30.2945C50.7974 32.1818 49.1089 33.6987 47.1063 34.6718C45.1036 35.6449 42.8676 36.035 40.6538 35.7975C38.4399 35.5599 36.3376 34.7044 34.5869 33.3286C37.3469 31.1558 39.1197 27.7846 39.1197 23.999C39.1197 20.2134 37.3469 16.8422 34.5869 14.6694C36.3376 13.2936 38.4399 12.4381 40.6538 12.2005C42.8676 11.963 45.1036 12.3531 47.1063 13.3262C49.1089 14.2993 50.7974 15.8162 51.9788 17.7035C53.1601 19.5909 53.7867 21.7724 53.7869 23.999Z" fill="#F79E1B"/>
</g>
<defs>
<clipPath id="clip0_4081_25153">
<rect width="38.4" height="38.4" fill="white" transform="translate(15.3862 4.80078)"/>
</clipPath>
</defs>
</svg>
