<svg width="68" height="48" viewBox="0 0 68 48" fill="none" xmlns="http://www.w3.org/2000/svg">
<rect x="0.786133" width="67.2" height="48" rx="4.8" fill="#113984"/>
<path fill-rule="evenodd" clip-rule="evenodd" d="M13.6114 21.082H17.215C19.1497 21.082 19.8781 22.0614 19.7656 23.5025C19.5801 25.8783 18.1437 27.1921 16.2386 27.1921H15.2766C15.0154 27.1921 14.8396 27.3647 14.7686 27.8339L14.3559 30.5575C14.3292 30.7344 14.2361 30.8382 14.0959 30.8507H11.8365C11.6241 30.8507 11.5484 30.6881 11.6041 30.3358L12.9838 21.5989C13.0391 21.2484 13.2313 21.082 13.6114 21.082Z" fill="#009DE2"/>
<path fill-rule="evenodd" clip-rule="evenodd" d="M26.9058 20.9144C28.122 20.9144 29.2436 21.5736 29.09 23.2177C28.9079 25.1667 27.8578 26.2519 26.2057 26.2564H24.7645C24.5567 26.2564 24.4568 26.4253 24.4027 26.7731L24.1246 28.5469C24.0827 28.8146 23.9455 28.9469 23.742 28.9469H22.3994C22.1853 28.9469 22.1107 28.8102 22.1583 28.5043L23.2677 21.3936C23.3222 21.0442 23.456 20.9141 23.6931 20.9141L26.9058 20.9144ZM24.7197 24.7204H25.813C26.4964 24.6945 26.9508 24.2212 26.9965 23.3672C27.0246 22.8397 26.6687 22.4628 26.1015 22.465L25.0728 22.4697L24.7202 24.7201L24.7197 24.7204ZM32.7384 28.4015C32.861 28.2901 32.9862 28.2319 32.968 28.3695L32.9242 28.6991C32.9016 28.8706 32.9694 28.9627 33.1302 28.9627H34.3226C34.5232 28.9627 34.6212 28.8813 34.6706 28.571L35.4054 23.9593C35.4422 23.7275 35.3862 23.6138 35.2101 23.6138H33.8988C33.7807 23.6138 33.7232 23.6803 33.6924 23.8607L33.6438 24.1446C33.6184 24.2928 33.5506 24.3184 33.4876 24.1694C33.2649 23.6427 32.6978 23.4064 31.902 23.4233C30.0629 23.461 28.8231 24.8573 28.6904 26.6468C28.5878 28.0312 29.5801 29.1183 30.8872 29.1182C31.8359 29.1182 32.2601 28.8356 32.7379 28.4019L32.7384 28.4015ZM31.7406 27.6929C30.9493 27.6929 30.3971 27.0616 30.5124 26.2876C30.6277 25.5137 31.3671 24.882 32.1588 24.882C32.9504 24.882 33.5023 25.5134 33.387 26.2876C33.2717 27.0619 32.5323 27.6929 31.7406 27.6929ZM37.7403 23.599H36.5357C36.2861 23.599 36.1846 23.7816 36.2644 24.0139L37.7654 28.4101L36.2863 30.5015C36.1628 30.6758 36.2581 30.8355 36.4324 30.8355H37.7914C37.9944 30.8355 38.0932 30.7837 38.1952 30.6371L42.8123 24.0144C42.9543 23.8109 42.8874 23.5969 42.654 23.5968L41.369 23.5954C41.1484 23.5954 41.0599 23.6825 40.9334 23.8661L39.0075 26.6598L38.1511 23.8611C38.0979 23.6887 37.9718 23.5994 37.7403 23.5994V23.599Z" fill="white"/>
<path fill-rule="evenodd" clip-rule="evenodd" d="M47.6214 20.9144C48.8373 20.9144 49.9592 21.5736 49.8055 23.2177C49.6234 25.1667 48.5733 26.2519 46.921 26.2564H45.4798C45.2721 26.2564 45.1721 26.4253 45.118 26.7731L44.84 28.5469C44.7978 28.8146 44.6608 28.9469 44.4573 28.9469H43.115C42.9002 28.9469 42.826 28.8102 42.8737 28.5043L43.9833 21.3936C44.0378 21.0442 44.1716 20.9141 44.4088 20.9141L47.6214 20.9144ZM45.4351 24.7204H46.5283C47.2119 24.6945 47.6664 24.2212 47.7119 23.3672C47.7402 22.8397 47.3841 22.4628 46.817 22.465L45.7877 22.4697L45.4351 24.7201V24.7204ZM53.4538 28.4015C53.5763 28.2901 53.7016 28.2319 53.6834 28.3695L53.6398 28.6991C53.6171 28.8706 53.685 28.9627 53.8457 28.9627H55.0379C55.2386 28.9627 55.3366 28.8813 55.386 28.571L56.1208 23.9593C56.1576 23.7275 56.1016 23.6138 55.9256 23.6138H54.6153C54.497 23.6138 54.4398 23.6803 54.4089 23.8607L54.3603 24.1446C54.335 24.2928 54.267 24.3184 54.2041 24.1694C53.9815 23.6427 53.4142 23.4064 52.6185 23.4233C50.7794 23.461 49.5394 24.8573 49.4068 26.6468C49.3044 28.0312 50.2965 29.1183 51.6037 29.1182C52.5524 29.1182 52.9766 28.8356 53.4544 28.4019L53.4538 28.4015ZM52.4561 27.6933C51.6648 27.6933 51.1126 27.0619 51.2278 26.288C51.343 25.5141 52.0831 24.8823 52.8744 24.8823C53.6658 24.8823 54.218 25.5137 54.1029 26.288C53.9878 27.0622 53.2475 27.6933 52.4561 27.6933ZM57.9559 28.9707H56.5798C56.4704 28.9707 56.3945 28.8852 56.4111 28.7804L57.6207 21.1204C57.6372 21.0157 57.7402 20.9301 57.8495 20.9301H59.2256C59.335 20.9301 59.411 21.0157 59.3944 21.1204L58.1841 28.7804C58.1682 28.8857 58.0652 28.9711 57.9559 28.9711V28.9707Z" fill="#009DE2"/>
<path fill-rule="evenodd" clip-rule="evenodd" d="M11.3569 18.0742H14.9641C15.9801 18.0742 17.1851 18.1072 17.991 18.8183C18.5296 19.2931 18.8121 20.0498 18.747 20.862C18.5258 23.6165 16.8782 25.1591 14.6687 25.1591H12.8895C12.5868 25.1591 12.3861 25.3599 12.3007 25.9032L11.8041 29.0615C11.7721 29.2663 11.6831 29.3872 11.5215 29.4016H9.29887C9.05243 29.4016 8.9647 29.2131 9.02925 28.8045L10.6297 18.6734C10.6935 18.2676 10.9156 18.0742 11.3569 18.0742Z" fill="white"/>
<path fill-rule="evenodd" clip-rule="evenodd" d="M12.3604 25.586L12.9902 21.5989C13.0455 21.2484 13.2373 21.082 13.6178 21.082H17.2214C17.8179 21.082 18.2999 21.1753 18.6777 21.3468C18.316 23.7982 16.7301 25.1602 14.6533 25.1602H12.8747C12.6405 25.1602 12.4654 25.2799 12.3604 25.586Z" fill="#6DD2FF"/>
</svg>
