<svg width="68" height="48" viewBox="0 0 68 48" fill="none" xmlns="http://www.w3.org/2000/svg">
<rect x="0.586426" width="67.2" height="48" rx="4.8" fill="#273991"/>
<path d="M22.6489 24.1676L21.6349 19.2656C21.5637 18.9797 21.3899 18.73 21.1465 18.564C20.903 18.398 20.6071 18.3274 20.3149 18.3656H15.6229L15.5869 18.5996C19.2349 19.4756 21.6469 21.5996 22.6489 24.1676ZM26.0569 18.4736L23.0929 26.0396L22.7869 24.8996C21.8211 23.021 20.3712 21.4343 18.5869 20.3036L21.2929 29.5496H24.4909L29.2549 18.4736H26.0569ZM30.4849 18.4736L28.5949 29.5736H31.5949L33.4909 18.4736H30.4849ZM50.3389 18.4736H47.9869C47.6579 18.4307 47.3239 18.4981 47.0373 18.6653C46.7506 18.8325 46.5276 19.0901 46.4029 19.3976L41.9329 29.5616H45.1069C45.1069 29.5616 45.6229 28.1936 45.7429 27.8936H49.6129C49.7029 28.2776 49.9789 29.5496 49.9789 29.5496H52.7869L50.3389 18.4736ZM46.6129 25.6256C46.8649 24.9896 47.8129 22.5236 47.8129 22.5236C47.8129 22.5236 48.0649 21.8876 48.2149 21.4676L48.4249 22.4216L49.1209 25.6256H46.6129ZM39.5869 22.9196C38.5369 22.4096 37.8889 22.0616 37.8949 21.5456C37.9009 21.0296 38.4409 20.5916 39.6229 20.5916C40.3987 20.5709 41.1699 20.7161 41.8849 21.0176L42.1609 21.1436L42.5689 18.7436C41.7017 18.4295 40.7852 18.273 39.8629 18.2816C36.8629 18.2816 34.7689 19.7816 34.7509 21.9416C34.7509 23.5316 36.2509 24.4256 37.3969 24.9416C38.5429 25.4576 38.9869 25.8356 38.9869 26.3216C38.9869 27.0656 38.0449 27.4076 37.1869 27.4076C36.2053 27.4302 35.2318 27.2248 34.3429 26.8076L33.9529 26.6276L33.5269 29.1116C34.6054 29.5138 35.7479 29.717 36.8989 29.7116C40.0729 29.7116 42.1369 28.2236 42.1609 25.9196C42.1549 24.6716 41.3509 23.7116 39.5869 22.9196Z" fill="white"/>
<path d="M21.6349 19.2656C21.5637 18.9797 21.3899 18.73 21.1465 18.564C20.903 18.398 20.6071 18.3274 20.3149 18.3656H15.6229L15.5869 18.5996C19.2349 19.4816 21.6469 21.5996 22.6489 24.1736L21.6349 19.2656Z" fill="#F99F1B"/>
</svg>
