<svg width="67" height="67" viewBox="0 0 67 67" fill="none" xmlns="http://www.w3.org/2000/svg">
<g filter="url(#filter0_d_7443_14410)">
<g clip-path="url(#clip0_7443_14410)">
<rect x="5.14941" y="4.93958" width="54.7826" height="54.7826" rx="9.13044" fill="url(#paint0_linear_7443_14410)"/>
<path d="M32.7626 30.779C35.4182 30.779 37.571 28.6262 37.571 25.9706C37.571 23.3149 35.4182 21.1621 32.7626 21.1621C30.1069 21.1621 27.9541 23.3149 27.9541 25.9706C27.9541 28.6262 30.1069 30.779 32.7626 30.779Z" fill="white"/>
<path d="M37.0934 25.969C37.0934 26.0878 37.0902 26.2098 37.0806 26.3286C37.0774 26.3863 37.071 26.4473 37.0645 26.5051C37.0613 26.534 37.0581 26.5629 37.0549 26.5918C37.071 26.4826 37.0485 26.6271 37.0453 26.6367C37.0068 26.871 36.949 27.1054 36.8752 27.3301C36.8431 27.4328 36.8045 27.5323 36.766 27.6318C36.7339 27.7185 36.7564 27.651 36.766 27.635C36.7532 27.6607 36.7435 27.6864 36.7307 27.712C36.7018 27.7762 36.6697 27.8404 36.6376 27.9046C36.5317 28.1101 36.4129 28.3091 36.2781 28.4985C36.2621 28.5209 36.246 28.5434 36.23 28.5659C36.2235 28.5755 36.169 28.6461 36.2043 28.6012C36.2396 28.5562 36.185 28.6236 36.1786 28.6365C36.1626 28.659 36.1433 28.6814 36.124 28.7007C36.047 28.7906 35.97 28.8804 35.8865 28.9671C35.8095 29.0474 35.7292 29.1244 35.6458 29.2014C35.604 29.24 35.5623 29.2753 35.5206 29.3106C35.4981 29.3298 35.4788 29.3459 35.4564 29.3651C35.45 29.3716 35.3376 29.455 35.4211 29.394C35.2413 29.5288 35.0519 29.6508 34.8561 29.76C34.7566 29.8145 34.6571 29.8659 34.5544 29.914C34.5351 29.9237 34.3843 29.9879 34.4741 29.9526C34.4099 29.9782 34.3425 30.0039 34.2751 30.0296C34.0504 30.1098 33.8225 30.174 33.5882 30.2222C33.5304 30.235 33.4726 30.2447 33.4149 30.2543C33.402 30.2575 33.3089 30.2703 33.3699 30.2607C33.4309 30.2511 33.3378 30.2639 33.325 30.2671C33.1998 30.2832 33.0746 30.2928 32.9462 30.296C32.6991 30.3056 32.4519 30.296 32.2079 30.2671C32.1951 30.2671 32.102 30.2511 32.163 30.2607C32.224 30.2703 32.1309 30.2543 32.1181 30.2543C32.0603 30.2447 32.0025 30.235 31.9447 30.2222C31.8227 30.1965 31.704 30.1708 31.5852 30.1355C31.4761 30.1034 31.3669 30.0681 31.2578 30.0296C31.2032 30.0103 31.1519 29.9879 31.0973 29.9686C31.0106 29.9365 31.078 29.959 31.0941 29.9686C31.0556 29.9526 31.0171 29.9333 30.9785 29.9172C30.7667 29.8177 30.5645 29.7054 30.3687 29.577C30.282 29.5192 30.1953 29.4582 30.1119 29.394C30.1857 29.4486 30.0669 29.3587 30.0445 29.3395C29.9899 29.2945 29.9385 29.2496 29.884 29.2014C29.7138 29.0474 29.5533 28.8804 29.4057 28.7039C29.3864 28.6814 29.3704 28.6622 29.3511 28.6397C29.3415 28.6301 29.2901 28.5595 29.3254 28.6044C29.3607 28.6493 29.3062 28.5787 29.2997 28.5691C29.2837 28.5466 29.2677 28.5241 29.2516 28.5017C29.1842 28.4054 29.1168 28.3059 29.0558 28.2031C28.998 28.1069 28.9434 28.0073 28.8921 27.9078C28.8664 27.8565 28.8407 27.8051 28.8183 27.7538C28.8054 27.7281 28.7958 27.7024 28.783 27.6767C28.7252 27.5515 28.8151 27.7666 28.7637 27.635C28.6802 27.4199 28.6096 27.2049 28.555 26.9802C28.5262 26.8678 28.5037 26.7523 28.4844 26.6399C28.4812 26.611 28.4748 26.5821 28.4716 26.5533C28.4844 26.6431 28.4748 26.5693 28.4716 26.55C28.462 26.4762 28.4555 26.4024 28.4491 26.3286C28.4299 26.0814 28.4331 25.8342 28.4523 25.5871C28.4555 25.5293 28.462 25.4683 28.4684 25.4105C28.4684 25.3977 28.4844 25.3046 28.4748 25.3656C28.4652 25.4266 28.4812 25.3335 28.4812 25.3206C28.5005 25.1987 28.5262 25.0767 28.555 24.9579C28.6096 24.7268 28.6867 24.5053 28.7733 24.2838C28.8022 24.2132 28.7444 24.348 28.7733 24.2806C28.7862 24.2549 28.7958 24.2293 28.8086 24.2036C28.8311 24.1522 28.8568 24.1009 28.8825 24.0495C28.937 23.9436 28.9948 23.8377 29.0558 23.7349C29.1136 23.6386 29.1746 23.5456 29.2388 23.4525C29.2709 23.4075 29.303 23.3626 29.3383 23.3177C29.2869 23.3883 29.3286 23.3305 29.3415 23.3144C29.3672 23.2823 29.3928 23.2502 29.4217 23.2181C29.5694 23.0416 29.7299 22.8747 29.9032 22.7206C29.9449 22.6821 29.9867 22.6468 30.0316 22.6115C30.0541 22.5922 30.0733 22.5762 30.0958 22.5569C30.1054 22.5473 30.1761 22.4959 30.1311 22.5312C30.0958 22.5569 30.1985 22.4831 30.2178 22.467C30.2756 22.4253 30.3333 22.3868 30.3911 22.3483C30.5869 22.2199 30.7892 22.1075 31.001 22.0112C31.0267 21.9984 31.0524 21.9887 31.078 21.9759C31.1455 21.9438 31.0106 22.0016 31.0813 21.9759C31.1326 21.9534 31.1872 21.9342 31.2418 21.9149C31.3573 21.8732 31.4729 21.8347 31.5884 21.8026C31.7008 21.7705 31.8131 21.7448 31.9255 21.7223C31.9832 21.7095 32.041 21.6999 32.0988 21.6902C32.1277 21.687 32.1566 21.6806 32.1855 21.6774C32.0795 21.6934 32.2208 21.6742 32.2336 21.671C32.4711 21.6453 32.7119 21.6357 32.9494 21.6453C33.0682 21.6485 33.187 21.6581 33.3057 21.671C33.3346 21.6742 33.3635 21.6774 33.3924 21.6806C33.2993 21.6678 33.3763 21.6806 33.3956 21.6806C33.4662 21.6934 33.5401 21.7063 33.6107 21.7191C33.8418 21.7673 34.0729 21.8315 34.2944 21.9117C34.3489 21.931 34.4003 21.9534 34.4549 21.9727C34.5255 22.0016 34.3907 21.9438 34.4581 21.9727C34.4838 21.9855 34.5094 21.9952 34.5351 22.008C34.6443 22.0594 34.7502 22.1139 34.8561 22.1717C34.9556 22.2263 35.0519 22.2841 35.145 22.345C35.1932 22.3771 35.2381 22.406 35.283 22.4381C35.3055 22.4542 35.328 22.4702 35.3504 22.4863C35.3601 22.4927 35.45 22.5601 35.4018 22.5248C35.3569 22.4895 35.4243 22.5441 35.4371 22.5505C35.4596 22.5665 35.4821 22.5858 35.5013 22.6051C35.543 22.6404 35.588 22.6789 35.6297 22.7142C35.7196 22.7944 35.803 22.8747 35.8865 22.9614C35.9635 23.0416 36.0406 23.1251 36.1112 23.2117C36.1465 23.2535 36.1818 23.2984 36.2171 23.3433C36.1626 23.2727 36.2075 23.3337 36.2171 23.3465C36.2428 23.3819 36.2653 23.414 36.291 23.4493C36.4258 23.6386 36.5445 23.8377 36.6473 24.0463C36.6729 24.0977 36.6986 24.149 36.7211 24.2004C36.7339 24.2261 36.7435 24.2517 36.7564 24.2774C36.7885 24.3448 36.7307 24.21 36.7564 24.2806C36.8013 24.393 36.8431 24.5053 36.8816 24.6209C36.9554 24.8488 37.01 25.0799 37.0485 25.3174C37.0517 25.3303 37.0645 25.4234 37.0549 25.3624C37.0453 25.3014 37.0581 25.3945 37.0613 25.4073C37.0678 25.4651 37.0742 25.5261 37.0774 25.5839C37.087 25.7155 37.0934 25.8439 37.0934 25.969C37.0934 26.2194 37.3149 26.4634 37.5749 26.4505C37.8349 26.4377 38.0564 26.2387 38.0564 25.969C38.0468 23.751 36.6408 21.7641 34.5672 20.9969C32.5225 20.2393 30.1022 20.891 28.7155 22.5697C28.0094 23.4268 27.5857 24.4572 27.4926 25.5646C27.4027 26.6528 27.6723 27.773 28.2373 28.7039C28.7797 29.5963 29.5951 30.341 30.5516 30.7711C31.5884 31.2365 32.7247 31.3681 33.8386 31.1466C35.9379 30.7261 37.6552 28.9479 37.9794 26.8261C38.0243 26.5404 38.05 26.2547 38.0532 25.9658C38.0532 25.7155 37.8317 25.4715 37.5717 25.4843C37.3117 25.5004 37.0934 25.6994 37.0934 25.969Z" fill="white"/>
<path d="M26.4715 43.6409C25.0463 43.6409 23.8779 42.4981 23.8779 41.0729V39.1984C23.8779 39.1727 23.8811 39.147 23.8811 39.1245C23.91 36.0591 26.311 33.5617 29.3348 33.3691H29.4824H36.0531H36.2008C39.2245 33.5617 41.6256 36.0591 41.6545 39.1245C41.6545 39.1502 41.6577 39.1759 41.6577 39.1984V41.0729C41.6577 42.4981 40.4893 43.6409 39.0641 43.6409H26.4715Z" fill="white"/>
<path d="M26.4717 43.1728C26.3979 43.1728 26.3241 43.1696 26.2502 43.1632C26.2535 43.1632 26.1122 43.1471 26.1828 43.1567C26.2535 43.1664 26.1154 43.1439 26.1186 43.1439C25.971 43.115 25.8265 43.0733 25.6853 43.0219C25.6628 43.0123 25.5762 42.9738 25.6628 43.0155C25.6372 43.0027 25.6115 42.993 25.5858 42.9802C25.5216 42.9481 25.4606 42.916 25.3996 42.8807C25.3386 42.8454 25.2809 42.8069 25.2231 42.7683C25.2263 42.7716 25.1171 42.6881 25.1717 42.7298C25.2134 42.7619 25.1043 42.672 25.0915 42.6592C24.9984 42.5757 24.9085 42.4859 24.8283 42.3896C24.8186 42.3799 24.7384 42.2708 24.7994 42.3543C24.7833 42.3318 24.7673 42.3093 24.7512 42.2869C24.7031 42.2162 24.6581 42.1456 24.6196 42.0718C24.5843 42.0108 24.5554 41.9466 24.5265 41.8824C24.5682 41.9723 24.4976 41.8086 24.488 41.7797C24.4399 41.6352 24.4045 41.4908 24.3789 41.3399C24.3949 41.4362 24.3789 41.3399 24.3757 41.3142C24.3724 41.2789 24.3692 41.2404 24.366 41.2051C24.3628 41.1602 24.3628 41.1152 24.3628 41.0671C24.3628 41.035 24.3628 41.0061 24.3628 40.974C24.3628 40.8135 24.3628 40.653 24.3628 40.4925C24.3628 40.1073 24.3628 39.7253 24.3628 39.3401C24.3628 39.2182 24.3628 39.0994 24.366 38.9774C24.3724 38.8266 24.3821 38.6789 24.3981 38.528C24.4013 38.4992 24.4045 38.4703 24.4078 38.4382C24.3949 38.5345 24.4078 38.435 24.411 38.4125C24.4238 38.3322 24.4366 38.252 24.4527 38.1717C24.5105 37.8796 24.5907 37.5907 24.6902 37.3115C24.7127 37.2505 24.7352 37.1895 24.7576 37.1317C24.809 37.0001 24.7191 37.2184 24.7769 37.0868C24.7897 37.0611 24.7994 37.0354 24.8122 37.0097C24.8764 36.8685 24.947 36.7273 25.0241 36.5892C25.1621 36.3421 25.3162 36.1046 25.4895 35.8799C25.4381 35.9505 25.4831 35.8895 25.4927 35.8766C25.5184 35.8445 25.5473 35.8092 25.573 35.7771L25.6981 35.6327C25.7976 35.5236 25.9004 35.4144 26.0063 35.3117C26.109 35.2122 26.2117 35.1191 26.3209 35.0292C26.3433 35.01 26.3658 34.9939 26.3851 34.9747C26.3819 34.9779 26.491 34.8912 26.4364 34.9329C26.3819 34.9747 26.491 34.8912 26.4878 34.8944C26.5231 34.8687 26.5552 34.8431 26.5905 34.8206C26.8216 34.6569 27.0656 34.5092 27.3191 34.3808C27.3833 34.3487 27.4475 34.3166 27.5117 34.2877C27.5503 34.2685 27.5888 34.2524 27.6305 34.2364C27.6466 34.23 27.7172 34.2011 27.6337 34.2332C27.775 34.1754 27.9162 34.124 28.0606 34.0791C28.3463 33.9892 28.6384 33.9186 28.9337 33.8704C28.9626 33.8672 28.9915 33.8608 29.0204 33.8576C28.9113 33.8737 29.0557 33.8544 29.0686 33.8512C29.136 33.8448 29.2034 33.8384 29.2676 33.8319C29.3414 33.8255 29.4152 33.8255 29.4891 33.8255H29.6078H31.2834H35.742H36.0533C36.1849 33.8255 36.3166 33.8351 36.4482 33.848C36.4867 33.8512 36.522 33.8576 36.5573 33.8608C36.4674 33.848 36.5445 33.8576 36.5605 33.8608C36.6472 33.8737 36.7338 33.8897 36.8205 33.9058C37.1062 33.9603 37.3855 34.0406 37.6583 34.1369C37.7257 34.1626 37.7931 34.1882 37.8605 34.2139C37.9889 34.2653 37.8092 34.1914 37.883 34.2235C37.9151 34.2364 37.9472 34.2524 37.9825 34.2685C38.1173 34.3295 38.2521 34.3969 38.3837 34.4707C38.6373 34.6119 38.8813 34.7692 39.1124 34.9458C39.0354 34.888 39.1766 34.9971 39.1958 35.0164C39.244 35.0581 39.2921 35.0966 39.3403 35.1416C39.4559 35.2443 39.5682 35.3534 39.6773 35.4626C39.7704 35.5589 39.8603 35.6584 39.947 35.7611C39.9887 35.8092 40.0272 35.8606 40.0657 35.9087C40.0015 35.8253 40.085 35.9376 40.0946 35.9473C40.1203 35.9826 40.146 36.0147 40.1685 36.05C40.3322 36.2811 40.4798 36.5251 40.6082 36.7786C40.6403 36.8428 40.6724 36.907 40.7013 36.9712C40.7174 37.0033 40.7302 37.0354 40.7462 37.0675C40.7559 37.09 40.7912 37.1767 40.7559 37.09C40.8104 37.2312 40.865 37.3725 40.9099 37.5169C40.9998 37.8026 41.0704 38.0947 41.1154 38.39C41.1186 38.4189 41.125 38.4478 41.1282 38.4767C41.1154 38.3804 41.1282 38.4799 41.1314 38.5024C41.1378 38.5698 41.1443 38.6372 41.1507 38.7014C41.1635 38.8651 41.17 39.0256 41.17 39.1893V41.0254V41.1538C41.1667 41.2276 41.1603 41.3014 41.1539 41.3752C41.1667 41.2789 41.1539 41.3752 41.1475 41.3977C41.1378 41.4459 41.1282 41.4972 41.1154 41.5454C41.0993 41.616 41.0801 41.6834 41.0544 41.7508C41.0448 41.7765 41.0351 41.8054 41.0255 41.831C41.0255 41.8278 40.9741 41.9562 41.003 41.892C41.0319 41.8278 40.9741 41.953 40.9741 41.9498C40.9613 41.9755 40.9485 42.0012 40.9356 42.0236C40.8971 42.0975 40.8522 42.1713 40.8072 42.2387C40.7912 42.2612 40.7751 42.2836 40.7591 42.3093C40.6853 42.4217 40.8201 42.2419 40.7334 42.3446C40.6885 42.3992 40.6435 42.4506 40.5954 42.5019C40.5504 42.5469 40.5055 42.5918 40.4606 42.6335C40.4349 42.656 40.4092 42.6785 40.3803 42.7009C40.2808 42.7908 40.4541 42.6528 40.345 42.7298C40.2294 42.8101 40.1139 42.8871 39.9855 42.9481C39.9598 42.9609 39.9341 42.9738 39.9085 42.9866C39.7865 43.0476 39.9951 42.9577 39.8667 43.0059C39.7993 43.0316 39.7319 43.054 39.6645 43.0733C39.5971 43.0925 39.5265 43.1118 39.4559 43.1246C39.4141 43.1343 39.3692 43.1407 39.3275 43.1471C39.3467 43.1439 39.4205 43.1375 39.3242 43.1471C39.2344 43.1535 39.1445 43.16 39.0546 43.16C39.0321 43.16 39.0129 43.16 38.9904 43.16C38.8716 43.16 38.7497 43.16 38.6309 43.16C37.3822 43.16 36.1336 43.16 34.8849 43.16C33.2094 43.16 31.5338 43.16 29.8582 43.16C28.7765 43.16 27.6979 43.16 26.6162 43.16C26.5777 43.1728 26.5231 43.1728 26.4717 43.1728C26.2214 43.1728 25.9774 43.3943 25.9902 43.6543C26.0031 43.9143 26.2021 44.1358 26.4717 44.1358H28.9209H33.9958H38.2746C38.5378 44.1358 38.7978 44.139 39.061 44.1358C40.3129 44.1293 41.4332 43.3686 41.9114 42.2162C42.2356 41.4362 42.1361 40.531 42.1361 39.7061C42.1361 39.3594 42.1426 39.0127 42.1137 38.6693C42.0591 38.0369 41.9211 37.4142 41.6771 36.8268C40.7527 34.5798 38.5153 32.8914 36.0437 32.8754C34.7597 32.8657 33.4758 32.8754 32.1918 32.8754C31.4599 32.8754 30.7281 32.8754 29.9962 32.8754C29.3574 32.8754 28.7379 32.9075 28.112 33.068C26.9211 33.3761 25.8137 34.0534 24.9984 34.9779C24.1445 35.9441 23.6149 37.1285 23.448 38.4029C23.3453 39.1797 23.3966 39.9886 23.3966 40.7686C23.3966 41.1762 23.4095 41.5807 23.5347 41.9755C23.7401 42.6239 24.151 43.1696 24.6999 43.5708C25.207 43.9432 25.8426 44.1293 26.4685 44.1326C26.7189 44.1358 26.9628 43.9111 26.95 43.6511C26.9404 43.3911 26.7414 43.1728 26.4717 43.1728Z" fill="white"/>
<g filter="url(#filter1_f_7443_14410)">
<circle cx="11.6225" cy="58.477" r="16.3481" fill="white"/>
</g>
</g>
<rect x="4.57876" y="4.36892" width="55.9239" height="55.9239" rx="9.70109" stroke="url(#paint1_linear_7443_14410)" stroke-width="1.1413"/>
</g>
<defs>
<filter id="filter0_d_7443_14410" x="0.583899" y="0.374304" width="66.1959" height="66.1957" filterUnits="userSpaceOnUse" color-interpolation-filters="sRGB">
<feFlood flood-opacity="0" result="BackgroundImageFix"/>
<feColorMatrix in="SourceAlpha" type="matrix" values="0 0 0 0 0 0 0 0 0 0 0 0 0 0 0 0 0 0 127 0" result="hardAlpha"/>
<feOffset dx="1.1413" dy="1.1413"/>
<feGaussianBlur stdDeviation="2.28261"/>
<feComposite in2="hardAlpha" operator="out"/>
<feColorMatrix type="matrix" values="0 0 0 0 0 0 0 0 0 0 0 0 0 0 0 0 0 0 0.05 0"/>
<feBlend mode="normal" in2="BackgroundImageFix" result="effect1_dropShadow_7443_14410"/>
<feBlend mode="normal" in="SourceGraphic" in2="effect1_dropShadow_7443_14410" result="shape"/>
</filter>
<filter id="filter1_f_7443_14410" x="-37.0341" y="9.82036" width="97.3134" height="97.3134" filterUnits="userSpaceOnUse" color-interpolation-filters="sRGB">
<feFlood flood-opacity="0" result="BackgroundImageFix"/>
<feBlend mode="normal" in="SourceGraphic" in2="BackgroundImageFix" result="shape"/>
<feGaussianBlur stdDeviation="16.1543" result="effect1_foregroundBlur_7443_14410"/>
</filter>
<linearGradient id="paint0_linear_7443_14410" x1="50.6983" y1="6.67694" x2="8.42798" y2="58.7975" gradientUnits="userSpaceOnUse">
<stop/>
<stop offset="0.61" stop-color="#00A086"/>
</linearGradient>
<linearGradient id="paint1_linear_7443_14410" x1="56.6705" y1="4.93957" x2="8.42798" y2="58.7975" gradientUnits="userSpaceOnUse">
<stop stop-color="white"/>
<stop offset="1" stop-color="#D7D7D7"/>
</linearGradient>
<clipPath id="clip0_7443_14410">
<rect x="5.14941" y="4.93958" width="54.7826" height="54.7826" rx="9.13044" fill="white"/>
</clipPath>
</defs>
</svg>
